<svg width="120" height="33" viewBox="0 0 120 33" fill="none" xmlns="http://www.w3.org/2000/svg">
    <path d="M33.6165 11.25H36.2012V25.7885H33.6165V20.4429C32.8546 21.4471 31.7726 21.9492 30.3705 21.9492C28.9683 21.9492 27.8654 21.4269 26.9036 20.381C25.9549 19.3215 25.4806 18.0279 25.4806 16.5C25.4806 14.9721 25.9549 13.6865 26.9036 12.6406C27.8654 11.5812 29.0206 11.0508 30.3705 11.0508C31.7204 11.0508 32.8546 11.5529 33.6165 12.5571V11.25ZM28.8481 18.6054C29.3826 19.1425 30.0503 19.4104 30.8514 19.4104C31.6524 19.4104 32.3136 19.1425 32.835 18.6054C33.3564 18.0548 33.6165 17.3535 33.6165 16.5C33.6165 15.6465 33.3564 14.9519 32.835 14.4148C32.3136 13.8642 31.6524 13.5896 30.8514 13.5896C30.0503 13.5896 29.3826 13.8642 28.8481 14.4148C28.3267 14.9519 28.0666 15.6465 28.0666 16.5C28.0666 17.3535 28.3267 18.0548 28.8481 18.6054Z" fill="white"/>
    <path d="M45.1774 11.25H47.7622V21.75H45.1774V20.5048C44.5502 21.4673 43.5544 21.9492 42.1914 21.9492C41.0964 21.9492 40.1882 21.571 39.4668 20.8144C38.7586 20.0579 38.4044 19.0119 38.4044 17.6765V11.25H40.9892V17.3467C40.9892 18.0346 41.1696 18.565 41.5302 18.9365C41.8909 19.2946 42.3718 19.4737 42.9729 19.4737C43.6406 19.4737 44.1751 19.261 44.5763 18.8342C44.9775 18.4075 45.1774 17.7681 45.1774 16.9146V11.25Z" fill="white"/>
    <path d="M57.7445 11.25H60.3293V21.75H57.7445V20.4429C56.9696 21.4471 55.8811 21.9492 54.4789 21.9492C53.0768 21.9492 51.9948 21.4269 51.033 20.381C50.0843 19.3215 49.6099 18.0279 49.6099 16.5C49.6099 14.9721 50.0843 13.6865 51.033 12.6406C51.9948 11.5812 53.1434 11.0508 54.4789 11.0508C55.8811 11.0508 56.9709 11.5529 57.7445 12.5571V11.25ZM52.9762 18.6054C53.4976 19.1425 54.1588 19.4104 54.9598 19.4104C55.7609 19.4104 56.4221 19.1425 56.9435 18.6054C57.478 18.0548 57.7445 17.3535 57.7445 16.5C57.7445 15.6465 57.478 14.9519 56.9435 14.4148C56.4221 13.8642 55.7609 13.5896 54.9598 13.5896C54.1588 13.5896 53.4976 13.8642 52.9762 14.4148C52.4548 14.9519 52.1947 15.6465 52.1947 16.5C52.1947 17.3535 52.4548 18.0548 52.9762 18.6054Z" fill="white"/>
    <path d="M70.2672 7.21154H72.852V21.75H70.2672V20.4429C69.5054 21.4471 68.4234 21.9492 67.0212 21.9492C65.6191 21.9492 64.5162 21.4269 63.5544 20.381C62.6057 19.3215 62.1313 18.0279 62.1313 16.5C62.1313 14.9721 62.6057 13.6865 63.5544 12.6406C64.5162 11.5812 65.6714 11.0508 67.0212 11.0508C68.3711 11.0508 69.5054 11.5529 70.2672 12.5571V7.21154ZM65.4989 18.6054C66.0333 19.1425 66.7011 19.4104 67.5021 19.4104C68.3032 19.4104 68.9644 19.1425 69.4858 18.6054C70.0072 18.0548 70.2672 17.3535 70.2672 16.5C70.2672 15.6465 70.0072 14.9519 69.4858 14.4148C68.9644 13.8642 68.3032 13.5896 67.5021 13.5896C66.7011 13.5896 66.032 13.8642 65.4989 14.4148C64.9775 14.9519 64.7174 15.6465 64.7174 16.5C64.7174 17.3535 64.9775 18.0548 65.4989 18.6054Z" fill="white"/>
    <path d="M79.9843 21.9492C78.475 21.9492 77.2127 21.4269 76.1973 20.381C75.195 19.335 74.6945 18.0413 74.6945 16.5C74.6945 14.9587 75.195 13.665 76.1973 12.619C77.2127 11.5731 78.475 11.0508 79.9843 11.0508C80.9592 11.0508 81.8478 11.2917 82.6488 11.7737C83.4499 12.2556 84.0575 12.9017 84.4717 13.7135L82.2476 15.0556C82.0477 14.6288 81.7406 14.2923 81.3264 14.0446C80.9252 13.7969 80.4717 13.6731 79.9634 13.6731C79.1885 13.6731 78.5482 13.941 78.0399 14.4781C77.5328 15.0004 77.278 15.6748 77.278 16.5013C77.278 17.3279 77.5315 17.9875 78.0399 18.5246C78.5482 19.0469 79.1885 19.3094 79.9634 19.3094C80.4848 19.3094 80.9448 19.1923 81.346 18.9581C81.7602 18.7104 82.0673 18.3738 82.2672 17.9471L84.5109 19.2677C84.0706 20.0794 83.4486 20.7337 82.6475 21.229C81.8465 21.711 80.9579 21.9519 79.983 21.9519L79.9843 21.9492Z" fill="white"/>
    <path d="M94.2594 20.381C93.231 21.4269 91.9752 21.9492 90.492 21.9492C89.0088 21.9492 87.753 21.4269 86.7246 20.381C85.7092 19.3215 85.2022 18.0279 85.2022 16.5C85.2022 14.9721 85.7092 13.6865 86.7246 12.6406C87.753 11.5812 89.0088 11.0508 90.492 11.0508C91.9752 11.0508 93.2297 11.5812 94.2594 12.6406C95.2878 13.6865 95.8027 14.9735 95.8027 16.5C95.8027 18.0265 95.2891 19.3215 94.2594 20.381ZM88.5488 18.5435C89.0702 19.0806 89.7184 19.3485 90.492 19.3485C91.2656 19.3485 91.9151 19.0806 92.4352 18.5435C92.9552 18.0063 93.2166 17.3252 93.2166 16.5C93.2166 15.6748 92.9566 14.9937 92.4352 14.4565C91.9138 13.9194 91.2669 13.6515 90.492 13.6515C89.7171 13.6515 89.0689 13.9194 88.5488 14.4565C88.0418 14.9937 87.787 15.6748 87.787 16.5C87.787 17.3252 88.0405 18.0063 88.5488 18.5435Z" fill="white"/>
    <path d="M105.214 7.21154H107.799V21.75H105.214V20.4429C104.452 21.4471 103.37 21.9492 101.968 21.9492C100.566 21.9492 99.4629 21.4269 98.5012 20.381C97.5524 19.3215 97.0781 18.0279 97.0781 16.5C97.0781 14.9721 97.5524 13.6865 98.5012 12.6406C99.4629 11.5812 100.618 11.0508 101.968 11.0508C103.318 11.0508 104.452 11.5529 105.214 12.5571V7.21154ZM100.446 18.6054C100.98 19.1425 101.648 19.4104 102.449 19.4104C103.25 19.4104 103.911 19.1425 104.433 18.6054C104.954 18.0548 105.214 17.3535 105.214 16.5C105.214 15.6465 104.954 14.9519 104.433 14.4148C103.911 13.8642 103.25 13.5896 102.449 13.5896C101.648 13.5896 100.98 13.8642 100.446 14.4148C99.9242 14.9519 99.6642 15.6465 99.6642 16.5C99.6642 17.3535 99.9242 18.0548 100.446 18.6054Z" fill="white"/>
    <path d="M112.346 17.5944C112.694 18.8881 113.635 19.5342 115.172 19.5342C116.159 19.5342 116.908 19.1896 117.415 18.5017L119.5 19.7402C118.51 21.2129 117.055 21.9492 115.131 21.9492C113.474 21.9492 112.145 21.4337 111.144 20.4012C110.142 19.3687 109.641 18.0683 109.641 16.5C109.641 14.9317 110.135 13.6515 111.124 12.619C112.114 11.5731 113.383 11.0508 114.931 11.0508C116.4 11.0508 117.61 11.5731 118.557 12.619C119.519 13.665 120 14.9587 120 16.5C120 16.8446 119.966 17.2081 119.899 17.5944H112.345H112.346ZM112.306 15.5308H117.415C117.269 14.8294 116.96 14.3058 116.494 13.9625C116.039 13.6179 115.519 13.4469 114.931 13.4469C114.236 13.4469 113.662 13.6327 113.207 14.0042C112.753 14.3623 112.452 14.8712 112.306 15.5321V15.5308Z" fill="white"/>
    <path fill-rule="evenodd" clip-rule="evenodd" d="M20.3855 15.0044C20.3411 14.2102 19.9726 13.4308 19.3388 12.8613L12.8821 7.04596C11.3388 5.65135 9.03888 5.65135 7.48383 7.04596L1.01797 12.86C0.295328 13.5183 0 14.4269 0 15.345V17.9956C0.0431232 18.7992 0.381575 19.5692 1.01797 20.1508L7.27997 25.775L7.48514 25.954C9.02842 27.3487 11.3283 27.3487 12.8834 25.954L13.0885 25.775L19.3492 20.1508C19.9752 19.5813 20.3319 18.7885 20.3855 17.9956V15.0031V15.0044Z" fill="#E62334"/>
    <path fill-rule="evenodd" clip-rule="evenodd" d="M12.2025 7.84962L18.6684 13.6637C19.5648 14.4673 19.5648 15.9063 18.6684 16.71L14.8788 20.1131L5.64913 11.8221C5.55243 11.7333 5.4113 11.7333 5.3146 11.8221L2.36785 14.4673C1.94708 14.8469 1.94708 15.5281 2.36785 15.9063L8.83371 21.7204C9.61124 22.4123 10.756 22.4123 11.5322 21.7204L12.5358 20.8171L13.3238 21.5198L12.2012 22.524C11.0461 23.5619 9.31852 23.5619 8.15289 22.524L1.68834 16.71C0.803659 15.9063 0.803659 14.4673 1.68834 13.6637L8.1542 7.84962C9.30938 6.81173 11.0369 6.81173 12.2025 7.84962ZM5.47664 14.4781L10.9611 19.4104L10.3456 19.9677C10.2502 20.0552 10.1143 20.0565 10.0163 19.9731L10.0111 19.9677L4.91604 15.3813C4.79974 15.2831 4.79713 15.0973 4.91081 14.9856L4.91604 14.9802L5.47795 14.4781H5.47664ZM8.83371 8.64115L6.49069 10.7613C6.37177 10.8623 6.37177 11.0521 6.49069 11.1625L14.7168 18.5502C14.8135 18.639 14.9546 18.639 15.0513 18.5502L17.998 15.905C18.4188 15.5254 18.4188 14.8442 17.998 14.466L15.0513 11.8208C14.9546 11.7319 14.8135 11.7319 14.7168 11.8208L13.5407 12.8815C13.4218 12.9825 13.4218 13.1723 13.5407 13.2827L15.4407 14.9896C15.5596 15.0906 15.5596 15.279 15.4407 15.3908L14.8788 15.8929L9.40608 10.9606L10.0216 10.4019C10.1183 10.3131 10.2594 10.3131 10.3561 10.4019L12.3646 12.2098C12.4613 12.2987 12.6024 12.2987 12.6991 12.2098L13.8752 11.149C13.9941 11.0481 13.9941 10.8583 13.8752 10.7479L11.5322 8.63846C10.7547 7.94654 9.60993 7.94654 8.83371 8.63846V8.64115Z" fill="white"/>
</svg>
