<svg fill="none" height="27" viewBox="0 0 12 27" width="12" xmlns="http://www.w3.org/2000/svg"><path d="m11.591 26.2315h-.5079v-1.8319c0-.0017-.0004-.0034-.0004-.0051v-15.28932c0-.10087-.0436-.19963-.1199-.2711-.0762-.07128-.1814-.11221-.2892-.11221h-4.33108v-.85462c.32115-.05361.62201-.16774.88619-.33067.37157-.22922.67366-.55162.87717-.93244.22359-.35699.32033-.75087.31992-1.13572 0-.30338-.05821-.60254-.15781-.88633-.10022-.28397-.24204-.55296-.41501-.79736-.23405-.3299-.5013-.60792-.74744-.8748-.24696-.26669-.4724-.52165-.64107-.79737-.2027-.33143-.29328-.67248-.2941-1.03984 0-.193482.02623-.394073.07788-.601196h-.00021c.00082-.003651.00205-.007109.00287-.010568.04468-.205202-.09489-.406561-.31316-.45132888-.21826-.04476782-.43489.08319518-.48592.28705188-.00082.003651-.00144.007109-.00246.010568-.00861.040348-.02828.091649-.06005.149674-.04734.087038-.12194.187333-.207.288782-.08505.102024-.17973.204625-.26827.309917-.4101.48918-.81159 1.06309-1.1147 1.69157-.3023.62829-.50806 1.31345-.50847 2.02185 0 .30704.03914.61811.12645.92706.15842.55835.41788 1.09403.8288 1.51039.20536.20731.45047.38331.73494.50589.16867.07302.35107.12605.54372.15717v.85251h-4.48197c-.107593 0-.212936.04093-.289176.11221-.076034.07148-.119688.17023-.119688.27111v15.28982c0 .0016-.00041.0031-.00041.0046v1.8319h-.169285s-.00164.0011-.002665.0017h-.042628c-.221752 0-.41071226.1616-.4185002.3695-.00819785.218.1778932.3975.4086622.3975h.22749v-.0017h10.94448c.2218 0 .4108-.1616.4185-.3695.0082-.2181-.1778-.3975-.4086-.3975zm-6.26829-19.21619c-.26458-.11413-.48982-.3078-.67919-.57084-.18876-.26188-.33611-.59062-.43572-.94492-.06804-.24094-.09919-.48457-.09919-.7307-.00041-.5668.16765-1.14994.43592-1.70617.2363-.49072.54946-.95838.87963-1.37128.06456.2761.17277.54624.33099.80313.21642.35219.47998.64404.73186.91707.2527.27283.49392.52741.68411.79679.13383.18887.24409.39849.31972.61349.07583.21519.11682.43519.11682.64616-.00042.27341-.06661.52895-.21438.76009l-.01557.02671c-.1408.26591-.34964.48725-.59845.64058-.13506.08319-.2818.14583-.43674.18637v-.55835c0-.21173-.18322-.3835-.40907-.3835s-.40907.17177-.40907.3835v.55912c-.07009-.01844-.13793-.03996-.20187-.06744zm-2.91495 2.937v-.00076c.00431-.13546.02419-.29417.05452-.46305h7.80232v8.9722c-.1168.1091-.2474.1998-.38245.2648-.17359.0839-.35149.1262-.51462.126-.14285-.0004-.27443-.0304-.40108-.0968-.12625-.0671-.25106-.1728-.36727-.3434-.05308-.0784-.08792-.1562-.11149-.239-.02336-.0826-.03443-.1708-.03443-.2667-.00164-.2672.09346-.5945.21704-.9407.06107-.1733.12809-.3514.18794-.5332.05984-.1817.11354-.3669.14469-.5579.04693-.2884.0914-.6133.09181-.9096 0-.0903-.0043-.1785-.01537-.2653-.00861-.0652-.0209-.1297-.04099-.1953-.01516-.0489-.03443-.0987-.06189-.1496-.04099-.0753-.10227-.1568-.1988-.2219-.04775-.0323-.1037-.059-.16273-.0763-.05902-.0175-.1203-.0256-.1785-.0256-.08956 0-.17052.0177-.24328.0429-.10923.0384-.20351.0932-.29901.161-.0951.068-.19081.1502-.29348.2501-.16847.1637-.32464.299-.44453.3816-.0166.0116-.03197.0217-.04693.0312-.01128-.0681-.01886-.1616-.01865-.2802 0-.0401.00082-.083.00246-.1285.00368-.1003.01762-.2242.03791-.362.03013-.2069.07399-.4452.11108-.6965.03689-.2515.06722-.5163.06743-.7833-.00021-.2704-.03074-.5449-.12973-.8099-.0496-.1322-.11703-.2615-.20659-.382-.08935-.1204-.20105-.2313-.33345-.3258l-.00061-.0004c-.1326-.0945-.27996-.1601-.42813-.1996-.14859-.0398-.29779-.0546-.4431-.0546-.20945.0002-.41235.0303-.6093.0709-.29512.0613-.57938.147-.83843.2134-.25824.0675-.49147.1126-.65727.1117-.05492 0-.10226-.0044-.14182-.0121-.31685-.0621-.59701-.23-.79765-.4594-.20085-.2296-.31746-.5161-.31705-.80796 0-.01287.0002-.02555.00082-.03823zm-.95607-.46381h.18158c-.02316.15101-.03832.298-.04304.43941v-.00077c-.00082.02133-.00102.04227-.00102.06341.00041.48285.18998.93665.50232 1.29405.31254.3574.75236.6235 1.26349.724h.00123c.10371.0201.20659.028.30742.028.20249-.0004.39801-.0309.58963-.0713.28693-.0613.5677-.1464.82921-.2127.2607-.067.50171-.1128.68616-.1118.08547 0 .15802.0088.21868.0252.06067.0165.10985.0388.1576.0726.06456.0463.11498.0968.15802.1543.06394.0863.11149.1908.14305.318.03177.1268.04652.2745.04632.4352.00041.2822-.04529.601-.09653.9134-.02562.1564-.05247.3114-.0744.4623-.02193.1508-.03935.297-.04488.4396-.00205.0536-.00307.1055-.00307.1552 0 .1439.00819.2715.02664.3881.01393.0877.03341.1691.06251.2477.02193.0588.04939.1162.08587.1716.05411.0826.13239.1627.23384.2182.10084.0563.21889.0817.323.0809.1369-.0007.25085-.0353.35251-.0785.15227-.0663.28508-.1566.42116-.2629.13547-.1064.27155-.23.41112-.3652.03115-.0306.05964-.0567.08669-.0805 0 .0094.00062.018.00062.0278.00061.2223-.03771.523-.08239.7932v.0005c-.02152.1328-.06353.2842-.11743.4469-.08055.2446-.18712.5138-.2773.7978-.08935.2844-.16395.5852-.16457.903 0 .1514.01783.3071.06128.4621.04345.1549.11313.309.21192.4548.17809.2638.40292.4671.65644.6004.25311.134.53101.1958.80236.1954.31193 0 .61463-.0787.88927-.2113.0027-.0012.0049-.0029.0076-.004v4.6133h-8.81291z" fill="#efeded"/></svg>