<?xml version="1.0" encoding="utf-8"?>
<!-- Generator: Adobe Illustrator 28.1.0, SVG Export Plug-In . SVG Version: 6.00 Build 0)  -->
<svg version="1.1" id="Layer_1" xmlns="http://www.w3.org/2000/svg" xmlns:xlink="http://www.w3.org/1999/xlink" x="0px" y="0px"
	 viewBox="0 0 1183.6 1200" style="enable-background:new 0 0 1183.6 1200;" xml:space="preserve">
<style type="text/css">
	.st0{fill:none;stroke:#FFFFFF;stroke-width:17.0079;stroke-linecap:round;stroke-linejoin:round;stroke-miterlimit:10;}
</style>
<g>
	<g>
		<polygon class="st0" points="602.5,434.2 602.5,434.2 602.5,434.2 		"/>
		<path class="st0" d="M292.2,799.2V458.4c-18.3,5.1-36.7,10.7-55.2,16.7V896c128.8-41.9,252.6-63.6,365.6-40.9
			C516.2,778.5,401.6,757.4,292.2,799.2z"/>
	</g>
	<path class="st0" d="M602.5,434.2v420.9c-86.3-76.6-201-97.7-310.3-55.9V378.3C401.6,336.5,517.3,365.1,602.5,434.2z"/>
	<g>
		<polygon class="st0" points="602.5,434.2 602.5,434.2 602.5,434.2 		"/>
		<path class="st0" d="M912.9,458.4v340.8c-109.3-41.9-224-20.7-310.3,55.9c112.9-22.6,236.8-0.9,365.6,40.9V475.1
			C949.6,469.1,931.2,463.5,912.9,458.4z"/>
	</g>
	<path class="st0" d="M863,364.1v340.4C732.8,727.7,662.5,770,602.5,855.1c86.3-76.6,201-97.7,310.3-55.9V378.3
		C896.4,372,879.7,367.3,863,364.1z"/>
	<path class="st0" d="M602.5,434.2v420.9c60-85.1,130.2-127.4,260.5-150.6V283.6C767.5,296.7,674.1,365.1,602.5,434.2z"/>
</g>
</svg>
