<?xml version="1.0" encoding="utf-8"?>
<!-- Generator: Adobe Illustrator 28.1.0, SVG Export Plug-In . SVG Version: 6.00 Build 0)  -->
<svg version="1.1" id="Capa_2" xmlns="http://www.w3.org/2000/svg" xmlns:xlink="http://www.w3.org/1999/xlink" x="0px" y="0px"
	 viewBox="0 0 2122 2122" style="enable-background:new 0 0 2122 2122;" xml:space="preserve">
<style type="text/css">
	.st0{fill:#FFFFFF;}
</style>
<g>
	<path fill="#FFFFFF" class="st0" d="M1654.7,339.2c-98.8-55.8-217.5-88.3-345-88.3c-170.1,0-324.4,57.6-436.7,151.6
		c-56.2,47-101.8,103.2-133.5,165.8c-30.6,60.5-48,127.1-49.1,197C560.9,776.7,444.4,825.4,356.5,899
		c-50.5,42.3-91.5,92.7-120,149.1c-28.5,56.4-44.3,118.6-44.3,183.9c0,58.6,12.8,114.8,36,166.4c21.8,48.4,52.9,92.8,91,131.8
		l-50.7,317.1c-1.2,7.4,1.9,14.9,8,19.3c6.1,4.4,14.1,5.1,20.8,1.6l344.5-175.8c34.6,5.7,70.4,8.7,107,8.7
		c152.7,0,291.4-51.8,392.3-136.2c50.5-42.3,91.5-92.7,120-149.1c19.3-38.1,32.7-78.9,39.4-121.6c3,0,6,0.1,9.1,0.1
		c41,0,81.1-3.4,119.9-9.8l385.5,196.7c6.7,3.4,14.7,2.8,20.8-1.6c6.1-4.4,9.1-11.9,8-19.3l-56.8-355.4
		c42.8-43.6,77.7-93.2,102.1-147.4c25.8-57.4,40.1-119.8,40-184.9c0-72.5-17.6-141.7-49.3-204.3
		C1832.4,474.4,1753.4,395,1654.7,339.2z M1225.6,1397.8c-38.7,76.7-103.9,142.6-186.5,189.3c-82.6,46.7-182.5,74.1-290.3,74.1
		c-36.6,0-72.4-3.2-106.9-9.2c-4.4-0.8-8.7,0-12.4,1.9v0l-0.1,0c-0.4,0.2-0.8,0.4-1.2,0.6l-314.1,160.2l45.5-285
		c2.3-7,0.6-15-5-20.4c-38.4-37.6-69.1-80.7-90.2-127.5c-21-46.8-32.5-97.2-32.5-150c0-58.8,14.2-114.7,40-165.9
		c38.7-76.7,103.9-142.6,186.5-189.3c82.6-46.7,182.5-74.1,290.3-74.1c143.7,0,273.4,48.8,366.7,126.9c46.7,39,84.2,85.4,110,136.5
		c25.8,51.2,40,107.1,40,165.9C1265.6,1290.8,1251.4,1346.7,1225.6,1397.8z M1852.7,941.1c-23.6,52.5-58.1,100.8-101.2,143.1
		c-5.6,5.5-7.3,13.5-4.9,20.6l51.6,323l-355-181.1c-0.2-0.1-0.5-0.2-0.8-0.4l-0.6-0.3l0,0c-3.7-1.9-8-2.7-12.4-1.9
		c-38.7,6.8-78.7,10.4-119.8,10.4c-1.6,0-3.2,0-4.8-0.1c0.4-7.5,0.7-14.9,0.7-22.5c0-65.3-15.8-127.5-44.3-183.9
		c-42.7-84.6-113.7-155.9-202.4-206c-88.7-50.2-195.4-79.3-309.9-79.3c-6.2,0-12.4,0.1-18.5,0.3c1.5-62.5,17.2-122.1,44.8-176.7
		c43.5-86.1,116.6-160,209.2-212.4c92.6-52.4,204.6-83.1,325.4-83.1c161,0,306.4,54.7,411.1,142.3c52.3,43.8,94.5,95.8,123.5,153.2
		c29,57.4,45,120.3,45,186.3C1889.2,832,1876.3,888.6,1852.7,941.1z"/>
</g>
<g>
	<g>
		<path fill="#FFFFFF" class="st0" d="M476.7,1362.5c-3.6,0-5.4-1.8-5.4-5.4v-46.9h-34.4c-3.6,0-5.4-1.8-5.4-5.4V1274c0-3.6,1.8-5.4,5.4-5.4h34.4
			v-86.3h-34.4c-3.6,0-5.4-1.8-5.4-5.4v-30.9c0-3.6,1.8-5.4,5.4-5.4h34.4v-46.9c0-3.6,1.8-5.4,5.4-5.4h35.8c3.6,0,5.4,1.8,5.4,5.4
			v46.9h76.5v-46.9c0-3.6,1.8-5.4,5.4-5.4h36.2c3.3,0,4.9,1.8,4.9,5.4v46.9h34.4c3.6,0,5.4,1.8,5.4,5.4v30.9c0,3.6-1.8,5.4-5.4,5.4
			h-34.4v86.3h34.4c3.6,0,5.4,1.8,5.4,5.4v30.9c0,3.6-1.8,5.4-5.4,5.4h-34.4v46.9c0,3.6-1.6,5.4-4.9,5.4h-36.2
			c-3.6,0-5.4-1.8-5.4-5.4v-46.9h-76.5v46.9c0,3.6-1.8,5.4-5.4,5.4H476.7z M517.8,1268.6h76.5v-86.3h-76.5V1268.6z"/>
		<path fill="#FFFFFF" class="st0" d="M724.7,1419.8c-4.8,0-7.3-2.6-7.3-7.9v-52.8c0-4.8,2.4-7.3,7.3-7.3H825v-281.1l-95.7,29.7
			c-5.3,1.8-7.9-0.2-7.9-5.9v-52.1c0-4.4,1.8-7.3,5.3-8.6l145.8-47.5c1.8-0.4,3.6-0.9,5.6-1.3c2-0.4,3.8-0.7,5.6-0.7h11.9
			c4.8,0,7.3,2.6,7.3,7.9v359.6h90.4c5.3,0,7.9,2.4,7.9,7.3v52.8c0,5.3-2.6,7.9-7.9,7.9H724.7z"/>
	</g>
</g>
</svg>
