<?xml version="1.0" encoding="utf-8"?>
<!-- Generator: Adobe Illustrator 28.1.0, SVG Export Plug-In . SVG Version: 6.00 Build 0)  -->
<svg version="1.1" xmlns="http://www.w3.org/2000/svg" xmlns:xlink="http://www.w3.org/1999/xlink" x="0px" y="0px"
	 viewBox="0 0 2000 2000" style="enable-background:new 0 0 2000 2000;" xml:space="preserve">
<style type="text/css">
	.st0{fill-rule:evenodd;clip-rule:evenodd;fill:#FFFFFF;}
</style>
<g id="Layer_1">
</g>
<g id="Layer_2">
</g>
<g id="Layer_3">
	<g>
		<path class="st0" d="M1020.3,580.3c-225.6,0-409.2,183.6-409.2,409.2c0,225.6,183.6,409.2,409.2,409.2s409.2-183.6,409.2-409.2
			C1429.4,763.9,1245.9,580.3,1020.3,580.3z M1228.5,1285.9l-27.6-44.5c-6.8-10.9-21.2-14.4-32.2-7.6c-10.9,6.9-14.4,21.3-7.5,32.2
			l27.5,44.3c-40.7,21.4-85.9,35.4-133.8,39.9l-2-52.5c-0.5-12.9-12.3-23.7-24.3-22.5c-12.9,0.5-23,11.4-22.5,24.3l2,52.2
			c-48.3-1.6-94.3-12.7-136.1-31.5l24.2-46.7c5.9-11.5,1.4-25.6-10-31.5c-11.5-6-25.6-1.5-31.6,10l-24,46.2
			c-40-24.7-74.9-56.9-102.6-94.6l44-28.5c10.9-7,13.9-21.5,6.9-32.3c-7-10.9-21.5-13.9-32.4-6.9l-43.7,28.3
			c-22.3-40.3-37.1-85.3-42.5-133l52.5-3.1c12.9-0.8,22.8-11.9,22-24.8c-0.8-12.9-11.5-22.2-24.7-22l-52.1,3
			c0.7-48.4,10.9-94.5,28.9-136.6L734,871c3.3,1.6,6.9,2.4,10.3,2.4c8.7,0,16.9-4.8,21-13c5.7-11.6,1-25.7-10.7-31.4l-46.7-23.1
			c23.9-40.5,55.5-76,92.7-104.5l29.4,43.4c4.5,6.7,11.9,10.3,19.4,10.3c4.5,0,9-1.3,13-4c10.8-7.2,13.5-21.8,6.3-32.5l-29.2-43.2
			c47.7-27.5,102.1-44.5,160.2-47.8v52.6c0,12.9,10.5,23.4,23.4,23.4c12.9,0,23.4-10.5,23.4-23.4v-52.2
			c48.1,3.5,93.6,16.3,134.7,36.8l-26,45.7c-6.4,11.2-2.5,25.5,8.8,31.9c3.7,2.1,7.6,3.1,11.5,3.1c8.2,0,16.1-4.3,20.4-11.9
			l25.8-45.3c39,26.2,72.6,59.7,98.9,98.6l-45.1,26.8c-11.1,6.6-14.8,20.9-8.1,32c4.4,7.4,12.2,11.5,20.1,11.5c4,0,8.2-1.1,11.9-3.3
			l44.8-26.7c20.6,41.1,33.7,86.5,37.3,134.6l-52.6,1c-12.9,0.2-23.1,10.9-22.9,23.8c0.3,12.8,10.7,22.9,23.4,22.9
			c0.1,0,0.3,0,0.5,0l52.2-1c-2.5,48.2-14.5,94-34.2,135.4l-46.2-25.1c-11.3-6-25.6-2-31.8,9.4c-6.1,11.4-2,25.6,9.4,31.8l45.8,24.9
			C1299.7,1224.6,1266.9,1258.9,1228.5,1285.9z"/>
		<path class="st0" d="M1219.2,851.8L1019.8,963l-106-54.4c-11.5-5.9-25.6-1.4-31.5,10.1c-5.9,11.5-1.3,25.6,10.1,31.5l117.1,60.1
			c3.4,1.8,7,2.6,10.7,2.6c4,0,7.9-1,11.4-3L1242,892.6c11.3-6.3,15.3-20.5,9-31.8C1244.7,849.5,1230.5,845.3,1219.2,851.8z"/>
		<path class="st0" d="M940.5,509.5h60.8v37.4c0,8.3,9.7,15.1,21.8,15.1c12,0,21.8-6.8,21.8-15.1v-37.4h55c18.4,0,33.5-15,33.5-33.4
			v0c0-18.4-15.1-33.5-33.5-33.5H940.5c-18.4,0-33.5,15.1-33.5,33.5v0C907.1,494.4,922.1,509.5,940.5,509.5z"/>
		<path class="st0" d="M1301.5,624.8l28.7,25.8l-15.9,17.6c-3.6,4-1.8,11.3,3.9,16.4c5.7,5.1,13.1,6,16.7,2.1l15.9-17.6l25.9,23.3
			c8.7,7.8,22.2,7.1,30-1.6c7.8-8.7,7-22.1-1.6-29.9l-75.1-67.6c-8.7-7.8-22.1-7-29.9,1.6h0C1292,603.5,1292.8,616.9,1301.5,624.8z"
			/>
		<path class="st0" d="M639.7,730.1l24.1-30.1l18.5,14.8c4.1,3.3,11.3,1.1,16.1-4.8c4.8-5.9,5.3-13.5,1.2-16.8L681,678.4l21.8-27.2
			c7.3-9.1,5.8-22.5-3.3-29.8v0c-9.1-7.2-22.5-5.8-29.8,3.3l-63.1,78.9c-7.3,9.1-5.8,22.6,3.3,29.8
			C619,740.7,632.4,739.1,639.7,730.1z"/>
	</g>
</g>
<g id="Layer_4">
</g>
</svg>
