<?xml version="1.0" encoding="utf-8"?>
<!-- Generator: Adobe Illustrator 28.1.0, SVG Export Plug-In . SVG Version: 6.00 Build 0)  -->
<svg version="1.1" id="Layer_1" xmlns="http://www.w3.org/2000/svg" xmlns:xlink="http://www.w3.org/1999/xlink" x="0px" y="0px"
	 viewBox="0 0 2000 2000" style="enable-background:new 0 0 2000 2000;" xml:space="preserve">
<style type="text/css">
	.st0{fill:#FFFFFF;}
</style>
<g>
	<g>
		<path class="st0" d="M1684.9,593.8c-1.4-9-7.6-16.6-16.2-19.7l-540.2-195.7c-8.5-3.1-17.5-1.3-24.1,4
			c-34,26.2-71.7,68.9-112.2,126.8l-66.1-12c-9.3-1.7-18.7,2-24.4,9.5c-27.5,36.2-57.5,89.5-85.3,151.4H712.7c-13.8,0-25,11.2-25,25
			V1402c0,13.8,11.2,25,25,25h574.5c13.8,0,25-11.2,25-25v-47.6c0-76.5,50-228.9,127.3-388.3c79.9-164.6,170.3-298.2,235.9-348.7
			C1682.7,611.9,1686.3,602.9,1684.9,593.8z M932.7,549.4l66,11.9c0.3,0.1,0.5,0.1,0.8,0.1l445,80.5
			c-39.4,61.9-80.1,150.3-112.2,245.3c-6.5,19.3-13.3,40.6-19.9,63.6V683.2c0-13.8-11.2-25-25-25H871.5
			C891.9,615.2,912.9,577.7,932.7,549.4z M1262.3,1377H737.7V708.2h94.6c0.2,0,0.3,0,0.5,0h429.4V1377z M1517.4,726.9
			c-41.5,62.1-83.9,137.3-122.8,217.4c-22,45.2-44.4,95.8-64.5,146.8c13.4-72.1,32.4-137.2,49.5-187.8
			c36.2-107,85-208.1,127.3-263.9c5.3-6.9,6.5-16.1,3.4-24.2s-10.3-14-18.8-15.5l-444.8-80.5c28.1-38.3,54.6-68.4,78.2-88.8
			l487.4,176.6C1582.8,636.4,1551,676.6,1517.4,726.9z"/>
	</g>
	<g>
		<path class="st0" d="M817.6,859.6h252.5c8.3,0,15-6.7,15-15s-6.7-15-15-15H817.6c-8.3,0-15,6.7-15,15S809.4,859.6,817.6,859.6z"/>
	</g>
	<g>
		<path class="st0" d="M1182.4,961.6H817.6c-8.3,0-15,6.7-15,15c0,8.3,6.7,15,15,15h364.7c8.3,0,15-6.7,15-15
			C1197.4,968.3,1190.7,961.6,1182.4,961.6z"/>
	</g>
	<g>
		<path class="st0" d="M1182.4,1093.6H817.6c-8.3,0-15,6.7-15,15s6.7,15,15,15h364.7c8.3,0,15-6.7,15-15
			S1190.7,1093.6,1182.4,1093.6z"/>
	</g>
	<g>
		<path class="st0" d="M1182.4,1225.6H817.6c-8.3,0-15,6.7-15,15s6.7,15,15,15h364.7c8.3,0,15-6.7,15-15
			S1190.7,1225.6,1182.4,1225.6z"/>
	</g>
</g>
</svg>
