<svg width="29" height="34" viewBox="0 0 29 34" fill="none" xmlns="http://www.w3.org/2000/svg">
<path d="M10.0139 21.2539H4.27646C4.18258 21.2539 4.0941 21.2138 4.03259 21.1432C3.97108 21.0727 3.94303 20.9783 3.95598 20.8861C4.58508 16.162 6.73674 14.0843 9.27471 12.0369C9.36859 11.961 9.49808 11.9436 9.60815 11.9935C9.71821 12.0423 9.79267 12.1497 9.80022 12.2713L10.3376 20.91C10.343 21 10.3117 21.0879 10.2502 21.153C10.1887 21.2181 10.1034 21.2561 10.0139 21.2561V21.2539ZM4.6509 20.6029H9.66965L9.1927 12.9418C7.04751 14.7255 5.26381 16.6698 4.6509 20.6029Z" fill="white"/>
<path d="M19.1666 18.4134H9.83806C9.66757 18.4134 9.52621 18.2799 9.51542 18.1085L9.09351 11.3533C9.09351 7.02206 10.5934 3.766 14.273 0.0943942C14.3993 -0.0314647 14.6022 -0.0314647 14.7295 0.0943942C18.4091 3.766 19.9101 7.02206 19.9101 11.3327L19.4893 18.1085C19.4785 18.2799 19.3371 18.4134 19.1666 18.4134ZM10.1424 17.7624H18.8623L19.2627 11.3121C19.2627 7.30307 17.8793 4.22821 14.5007 0.785533C11.1232 4.22712 9.73987 7.30307 9.73987 11.3316L10.1413 17.7613L10.1424 17.7624Z" fill="white"/>
<path d="M24.7258 21.2539H18.9884C18.8988 21.2539 18.8136 21.217 18.7521 21.1508C18.6906 21.0857 18.6593 20.9967 18.6647 20.9078L19.202 12.2691C19.2096 12.1476 19.284 12.0412 19.3941 11.9913C19.5042 11.9425 19.6337 11.9588 19.7275 12.0347C22.2644 14.081 24.4161 16.1599 25.0452 20.8839C25.0581 20.9772 25.0301 21.0705 24.9686 21.141C24.9071 21.2116 24.8186 21.2517 24.7247 21.2517L24.7258 21.2539ZM19.3326 20.6029H24.3514C23.7374 16.6698 21.9547 14.7266 19.8096 12.9418L19.3326 20.6029Z" fill="white"/>
<path d="M14.5005 27.9983C14.4704 27.9983 14.4394 27.9897 14.4103 27.9744C13.9683 27.7368 13 25.9987 13 22.3754C13 22.0524 13.014 21.7345 13.0411 21.4337C13.0672 21.1534 13.2215 20.962 13.3849 21.0064C13.5493 21.0491 13.6615 21.3123 13.6355 21.5926C13.6124 21.8422 13.6014 22.1071 13.6014 22.3771C13.6014 25.0809 14.2158 26.5319 14.5005 26.9062C14.7842 26.5302 15.3986 25.0757 15.3986 22.3771C15.3986 22.0883 15.3876 21.8251 15.3665 21.5926C15.3405 21.3123 15.4527 21.0508 15.6171 21.0064C15.7805 20.9637 15.9348 21.1534 15.9609 21.4337C15.987 21.7174 16 22.0353 16 22.3771C16 25.9969 15.0337 27.7385 14.5927 27.9761C14.5636 27.9915 14.5326 28 14.5015 28L14.5005 27.9983Z" fill="white"/>
<path d="M14.5006 10.4712C13.3396 10.4712 12.3943 9.52188 12.3943 8.35334C12.3943 7.18481 13.3385 6.23544 14.5006 6.23544C15.6628 6.23544 16.607 7.18481 16.607 8.35334C16.607 9.52188 15.6617 10.4712 14.5006 10.4712ZM14.5006 6.88752C13.6967 6.88752 13.0417 7.54503 13.0417 8.35443C13.0417 9.16383 13.6956 9.82134 14.5006 9.82134C15.3056 9.82134 15.9595 9.16383 15.9595 8.35443C15.9595 7.54503 15.3056 6.88752 14.5006 6.88752Z" fill="white"/>
<path d="M9.71918 31.3993C9.54005 31.3993 9.39546 31.2539 9.39546 31.0738C9.39546 30.4337 9.12569 29.8185 8.65414 29.3878C8.23761 29.0058 7.697 28.7964 7.13265 28.7964C6.83914 28.7964 6.5575 28.8507 6.29421 28.9581C6.12803 29.0254 5.9392 28.9451 5.87229 28.7791C5.80539 28.612 5.88524 28.4221 6.05034 28.3549C6.39133 28.216 6.75497 28.1454 7.13157 28.1454C7.85778 28.1454 8.55378 28.4156 9.089 28.9071C9.69436 29.4615 10.0418 30.2514 10.0418 31.0749C10.0418 31.255 9.89722 31.4004 9.7181 31.4004L9.71918 31.3993Z" fill="white"/>
<path d="M7.13273 34.0001C5.52707 34.0001 4.21924 32.6872 4.21924 31.0738C4.21924 30.8395 4.24729 30.6062 4.30341 30.3805C4.34657 30.2058 4.52138 30.0995 4.69511 30.1429C4.86884 30.1863 4.97459 30.3621 4.93142 30.5368C4.88826 30.7114 4.86668 30.8916 4.86668 31.0738C4.86668 32.3281 5.88316 33.3491 7.13273 33.3491C7.31185 33.3491 7.45645 33.4944 7.45645 33.6746C7.45645 33.8547 7.31185 34.0001 7.13273 34.0001Z" fill="white"/>
<path d="M12.2269 34.0001H3.52208C1.57976 34.0001 0 32.4116 0 30.4586C0 28.5057 1.57976 26.9172 3.52208 26.9172C4.6918 26.9172 5.78273 27.4988 6.44097 28.472C6.83591 29.0601 7.04417 29.7469 7.04417 30.4586C7.04417 30.6388 6.89957 30.7841 6.72045 30.7841C6.54132 30.7841 6.39673 30.6388 6.39673 30.4586C6.39673 29.8771 6.22623 29.3172 5.90467 28.8377C5.36729 28.0435 4.47706 27.5682 3.52208 27.5682C1.93693 27.5682 0.647442 28.8648 0.647442 30.4586C0.647442 32.0525 1.93693 33.3491 3.52208 33.3491H12.2269C12.4061 33.3491 12.5507 33.4945 12.5507 33.6746C12.5507 33.8547 12.4061 34.0001 12.2269 34.0001Z" fill="white"/>
<path d="M19.2808 31.3993C19.1016 31.3993 18.957 31.2539 18.957 31.0738C18.957 30.2514 19.3045 29.4604 19.9099 28.906C20.4461 28.4145 21.1411 28.1443 21.8673 28.1443C22.2439 28.1443 22.6075 28.2149 22.9485 28.3538C23.1147 28.421 23.1945 28.6109 23.1266 28.778C23.0597 28.9451 22.8708 29.0254 22.7046 28.957C22.4413 28.8496 22.1597 28.7953 21.8662 28.7953C21.3019 28.7953 20.7612 29.0058 20.3447 29.3867C19.8732 29.8185 19.6034 30.4326 19.6034 31.0727C19.6034 31.2528 19.4588 31.3982 19.2797 31.3982L19.2808 31.3993Z" fill="white"/>
<path d="M21.8672 34.0001C21.6881 34.0001 21.5435 33.8547 21.5435 33.6746C21.5435 33.4945 21.6881 33.3491 21.8672 33.3491C23.1167 33.3491 24.1332 32.3281 24.1332 31.0738C24.1332 30.8926 24.1116 30.7115 24.0685 30.5368C24.0253 30.3621 24.1311 30.1863 24.3048 30.1429C24.4785 30.1006 24.6544 30.2059 24.6965 30.3805C24.7515 30.6062 24.7807 30.8395 24.7807 31.0738C24.7807 32.6872 23.4739 34.0001 21.8672 34.0001Z" fill="white"/>
<path d="M25.4778 34.0001H16.7729C16.5938 34.0001 16.4492 33.8547 16.4492 33.6746C16.4492 33.4945 16.5938 33.3491 16.7729 33.3491H25.4778C27.0629 33.3491 28.3524 32.0525 28.3524 30.4586C28.3524 28.8648 27.0629 27.5682 25.4778 27.5682C24.5228 27.5682 23.6326 28.0435 23.0952 28.8377C22.7736 29.3162 22.6042 29.8771 22.6042 30.4586C22.6042 30.6388 22.4596 30.7841 22.2805 30.7841C22.1014 30.7841 21.9568 30.6388 21.9568 30.4586C21.9568 29.7469 22.1651 29.0601 22.56 28.4731C23.2182 27.4988 24.3092 26.9172 25.4789 26.9172C27.4212 26.9172 29.001 28.5057 29.001 30.4586C29.001 32.4116 27.4212 34.0001 25.4789 34.0001H25.4778Z" fill="white"/>
</svg>
