<?xml version="1.0" encoding="utf-8"?>
<!-- Generator: Adobe Illustrator 28.1.0, SVG Export Plug-In . SVG Version: 6.00 Build 0)  -->
<svg version="1.1" id="Layer_1" xmlns="http://www.w3.org/2000/svg" xmlns:xlink="http://www.w3.org/1999/xlink" x="0px"
	y="0px" viewBox="0 0 2200 2000" style="enable-background:new 0 0 2200 2000;" xml:space="preserve">
	<style type="text/css">
		.st0 {
			fill: #FFFFFF;
		}
	</style>
	<g>
		<path class="st0" d="M1397.5,1440.2h-12c3.2-58.8-2.6-115.5-17.2-169c-14.3-52.2-37-101.4-67.5-146.2
		c-50.2-73.7-104.8-110.8-110.8-114.8c-4.3-3.1-6.9-6.6-6.9-9.4c0-2.7,2.7-6.2,7-9.1c8.2-4.7,65.1-38.9,116.2-110.2
		c31.6-44.1,54.6-93.5,68.2-146.8c14-54.6,18.1-113.3,12.4-175h10.5c19.9,0,36-16.1,36-36c0-19.9-16.1-36-36-36h-595
		c-19.9,0-36,16.1-36,36c0,19.9,16.1,36,36,36H813c-5.7,61.7-1.6,120.4,12.4,175c13.6,53.3,36.6,102.7,68.2,146.8
		c51.1,71.3,108,105.5,116.2,110.2c4.3,2.9,7,6.4,7,9.1c0,2.8-2.5,6.3-6.9,9.4c-6,4-60.6,41.1-110.8,114.8
		c-30.5,44.8-53.3,94-67.6,146.2c-14.6,53.4-20.4,110.1-17.2,169h-12c-19.9,0-36,16.1-36,36c0,19.9,16.1,36,36,36h595
		c19.9,0,36-16.1,36-36C1433.5,1456.4,1417.4,1440.2,1397.5,1440.2z M1339.5,1440.2H860.5c-6.4-107.1,18.9-203.7,75.6-287.6
		c46.9-69.4,98.9-103.8,99.4-104.1c0.2-0.2,0.5-0.3,0.7-0.5c17.3-12.1,27-29.6,26.7-48c-0.3-18.5-10.7-35.7-28.5-47.2
		c-0.5-0.3-0.9-0.6-1.4-0.9c-0.5-0.3-53.9-30.2-102-97.2c-59.3-82.7-83.4-181.8-71.9-295h481.7c11.4,112.4-12.3,210.9-70.6,293.3
		c-47.9,67.7-102.7,98.7-103.2,99c-0.5,0.3-1,0.6-1.4,0.9c-17.8,11.5-28.1,28.8-28.5,47.2c-0.3,18.4,9.4,35.9,26.7,48
		c0.2,0.2,0.5,0.3,0.7,0.5c0.5,0.3,51.3,33.5,98.2,102.4C1320.2,1235.2,1345.9,1332.4,1339.5,1440.2z" />
		<path class="st0" d="M1143.2,1081.3c-0.6-0.4-1.3-0.8-1.9-1.3c-22-15.4-36.4-36.8-41.4-60.6c-4.9,23.7-19.4,45.1-41.4,60.6
		c-0.6,0.4-1.2,0.8-1.8,1.2c-2.2,1.5-47.6,32.8-88.4,93.3c-45.1,66.9-68.6,143-69.8,226.8h402.8c-1.2-84.4-25-161.1-70.8-228.3
		C1189.5,1112.8,1145,1082.5,1143.2,1081.3z" />
	</g>
</svg>