<svg width="28" height="27" viewBox="0 0 28 27" fill="none" xmlns="http://www.w3.org/2000/svg">
<g clip-path="url(#clip0_322_2223)">
<path d="M0.729266 25.435L26.5162 0.248394C26.869 -0.0955761 27.4258 -0.0799917 27.7592 0.284016C28.0926 0.648023 28.0775 1.22131 27.7258 1.56528L1.93779 26.7519C1.58494 27.0959 1.02924 27.0803 0.695817 26.7174C0.362393 26.3534 0.377499 25.7801 0.729266 25.4361L0.729266 25.435Z" fill="white"/>
<path d="M4.60309 -0.743587L24.3018 -0.743586C24.4866 -0.743586 24.6357 -0.598995 24.6357 -0.419874L24.6357 22.9564C24.6357 23.1356 24.4866 23.2802 24.3018 23.2802C24.117 23.2802 23.9678 23.1356 23.9678 22.9564L23.9678 -0.0950852L4.60309 -0.0950869C4.4183 -0.0950869 4.26914 -0.239677 4.26914 -0.418798C4.26914 -0.597919 4.4183 -0.74251 4.60309 -0.74251L4.60309 -0.743587Z" fill="white"/>
<path d="M2.12395 1.6594L21.8238 1.65941C22.0086 1.65941 22.1577 1.804 22.1577 1.98312L22.1577 25.3584C22.1577 25.5375 22.0085 25.6821 21.8238 25.6821L2.12395 25.6821C1.93916 25.6821 1.79 25.5375 1.79 25.3584L1.79 22.1493C1.79 21.9702 1.93916 21.8256 2.12395 21.8256C2.30874 21.8256 2.4579 21.9702 2.4579 22.1493L2.4579 25.0346L21.4898 25.0346L21.4898 2.30683L2.4579 2.30683L2.4579 22.6942C2.4579 22.8733 2.30874 23.0179 2.12395 23.0179C1.93916 23.0179 1.79 22.8733 1.79 22.6942L1.79 1.98312C1.79 1.804 1.93916 1.6594 2.12395 1.6594Z" fill="white"/>
<path d="M8.47904 21.7608L15.4698 21.7608C15.6545 21.7608 15.8037 21.9054 15.8037 22.0846C15.8037 22.2637 15.6545 22.4083 15.4698 22.4083L8.47904 22.4083C8.29425 22.4083 8.14508 22.2637 8.14508 22.0846C8.14508 21.9054 8.29425 21.7608 8.47904 21.7608Z" fill="white"/>
<path d="M5.52802 18.8377L19.0208 18.8377C19.2056 18.8377 19.3547 18.9823 19.3547 19.1615C19.3547 19.3406 19.2056 19.4852 19.0208 19.4852L5.52802 19.4852C5.34323 19.4852 5.19407 19.3406 5.19407 19.1615C5.19407 18.9823 5.34323 18.8377 5.52802 18.8377Z" fill="white"/>
<path d="M5.52802 16.439L19.0208 16.439C19.2056 16.439 19.3547 16.5836 19.3547 16.7627C19.3547 16.9418 19.2056 17.0864 19.0208 17.0864L5.52802 17.0864C5.34323 17.0864 5.19407 16.9418 5.19407 16.7627C5.19407 16.5836 5.34323 16.439 5.52802 16.439Z" fill="white"/>
<path d="M5.52802 13.8914L19.0208 13.8914C19.2056 13.8914 19.3547 14.036 19.3547 14.2151C19.3547 14.3942 19.2056 14.5388 19.0208 14.5388L5.52802 14.5388C5.34323 14.5388 5.19407 14.3942 5.19407 14.2151C5.19407 14.036 5.34323 13.8914 5.52802 13.8914Z" fill="white"/>
<path d="M5.52802 11.1949L19.0208 11.1949C19.2056 11.1949 19.3547 11.3395 19.3547 11.5186C19.3547 11.6977 19.2056 11.8423 19.0208 11.8423L5.52802 11.8423C5.34323 11.8423 5.19407 11.6977 5.19407 11.5186C5.19407 11.3395 5.34323 11.1949 5.52802 11.1949Z" fill="white"/>
<path d="M8.43463 5.06162L16.937 5.06162C17.1218 5.06162 17.271 5.20621 17.271 5.38533C17.271 5.56445 17.1218 5.70905 16.937 5.70905L8.43463 5.70904C8.24984 5.70904 8.10068 5.56445 8.10068 5.38533C8.10068 5.20621 8.24984 5.06162 8.43463 5.06162Z" fill="white"/>
</g>
<defs>
<clipPath id="clip0_322_2223">
<rect width="27" height="28" fill="white" transform="translate(28) rotate(90)"/>
</clipPath>
</defs>
</svg>
