<svg fill="none" height="30" viewBox="0 0 16 30" width="16" xmlns="http://www.w3.org/2000/svg"><g fill="#fff"><path d="m1.98871 29.3597c-.31469 0-.61658-.1191-.85023-.3353-.283746-.2627-.439026-.64-.426034-1.0351l.362114-11.1545c.00082-.0284-.01671-.0546-.04372-.0654-.389744-.1571-.874142-.526-.9690008-1.392-.0802174-.733-.1156862-3.88.1055818-7.033.126409-1.80086.314064-3.32612.558222-4.5337.304787-1.50734.682777-2.4737 1.156037-2.953862.22746-.231226.48089-.351214.7533-.356838h.00289.00289c.1926.000833.5708.098323.62318.461619.04021.277051.08805 11.540881.10187 14.986581.00082.2204-.09692.4335-.26829.5843-.053.0467-.1097.09-.16827.1285-.01959.013-.03093.0346-.03011.0577l.36583 11.2708c.01278.3953-.1425.7726-.42625 1.0351-.23364.2162-.53554.3351-.85022.3351zm.65122-28.488697c-.15363.004583-.30066.080409-.44955.231437-.41593.42204-.77206 1.35548-1.05891 2.7743-.241268 1.19341-.427067 2.7043-.552445 4.49078-.219825 3.13388-.185799 6.25038-.106613 6.97348.060421.553.305197.9199.727108 1.0899.18044.0727.29303.2354.28726.4147l-.36191 11.1545c-.00969.2956.10332.5749.30974.7659.15528.1438.35201.2229.5543.2229.2023 0 .39903-.0791.55431-.2229.20642-.191.31942-.4703.30973-.7659l-.36582-11.2707c-.00475-.1454.0697-.2829.19899-.3679.04269-.0281.08414-.0598.12311-.094.09218-.0812.14477-.197.14435-.3181-.0268-6.70863-.06867-14.64136-.09857-14.94133-.01876-.122485-.17569-.135817-.21508-.137067z"/><path d="m11.6972.750836c-.1757 1.864594-.3376 3.733784-.4051 5.605674-.0263.73242-.0573 1.47964.0213 2.21039.0109.10145.0235.20415.0522.30247.0088.03062.0179.06458.0327.09374.0087.01729.0198.03583.0324.04979-.0237-.02625-.048-.11665-.0315-.03875.0175.08312.0616.16624.1035.23956.2066.36121.498.67827.7834.98099.1324.1404.2677.278.4052.4137.0606.0595.1279.1112.1359.2001.0109.1194-.0074.2486-.0109.3681-.0215.72-.0429 1.4401-.0644 2.16-.034 1.1397-.0678 2.2792-.1018 3.4188-.0388 1.3032-.0778 2.6066-.1165 3.9098-.0361 1.211-.0722 2.4219-.1083 3.6328-.0258.8647-.0516 1.7296-.0773 2.5943-.0165.5522-.1071 1.1776.1959 1.6717.2396.3908.6537.6549 1.1288.6279.4681-.0265.8467-.3448 1.0463-.7448.1398-.2801.1607-.5784.1516-.8819-.0182-.6075-.0363-1.2149-.0542-1.8224-.0322-1.0771-.0642-2.1545-.0964-3.2317-.0385-1.2911-.0769-2.5822-.1154-3.8734-.0374-1.249-.0745-2.498-.1118-3.7473-.0283-.9511-.0567-1.9023-.085-2.8532-.0117-.3954-.0441-.796-.0354-1.1916.0029-.1312.0961-.195.1835-.2822.1474-.1469.2918-.2967.4333-.4492.2763-.29805.567-.61135.7493-.97569.0306-.06083.0603-.12561.071-.1931.0121-.07604-.014.03687-.0264.05228.0124-.0152.0204-.03458.0282-.05228.0068-.01542.0118-.03125.0174-.04729.0387-.11415.0513-.24247.0637-.36163.0268-.25789.0342-.51786.0379-.77679.0178-1.25696-.0651-2.51683-.1542-3.77003-.0772-1.08593-.1712-2.17082-.2735-3.254874-.0243-.258724-.4303-.187273-.4062.070201.174 1.846473.3359 3.697743.4027 5.551513.0256.71326.0574 1.44089-.0187 2.15269-.0071.0652-.0151.13061-.0271.19519-.0053.02916-.0313.10228-.0018.01604-.0015.00417-.0081.04333-.0118.04375-.0008 0-.0148.03749-.016.04249.0527-.18519.0319-.04416.0212-.04-.0254.0075-.0291.07541-.0365.09666.0113-.0327 0 0-.0021.00563-.0208.06332-.0497.12248-.0841.17956-.2122.35101-.5036.66097-.7877.95698-.2188.2279-.5669.4633-.5729.8024-.0021.1129.0068.2269.0101.3398.0208.6957.0414 1.3917.0623 2.0875.0332 1.1153.0664 2.2308.0998 3.3461.0385 1.2917.0769 2.5837.1155 3.8754.0363 1.2143.0723 2.4287.1086 3.643.0264.8841.0528 1.7681.079 2.6522.0072.2431.0145.4862.0217.7293.0059.2035.0194.4083-.0398.607-.1126.3796-.4378.7358-.8733.7014-.4265-.0335-.7146-.4172-.7882-.8037-.0316-.1649-.0202-.3291-.0153-.4953.0192-.6439.0384-1.2878.0576-1.9317.0323-1.0868.0647-2.1735.0971-3.2601.0384-1.2865.0767-2.5728.1151-3.8594.0367-1.2284.0732-2.4566.1099-3.685.0276-.9268.0552-1.8538.0829-2.7806.0113-.377.0324-.7553.0338-1.1328.0014-.3857-.3914-.647-.6374-.90799-.2677-.28393-.5609-.5839-.7453-.92886-.0307-.05749-.0536-.11894-.062-.1479-.0093-.03208-.0194-.08062-.0479-.10499-.0043-.00375.0419.06124.0252.03708-.0033-.00479-.0046-.01104-.007-.01625-.0207-.04208.0125.06083.0062.01958-.0165-.10603-.0413-.20935-.0522-.31684-.0107-.10499-.0178-.21039-.0233-.3158-.0008-.01687-.0017-.03396-.0025-.05083-.0025-.05145.0008.02437-.0002-.00521-.0014-.03812-.0029-.07624-.0039-.11436-.0025-.08145-.0041-.1629-.0052-.24435-.0165-1.24737.0662-2.49724.1551-3.74065.0767-1.0726.1697-2.14416.2705-3.214882.0244-.25914-.3862-.296844-.4107-.038121z"/><path d="m12.8631.745623v5.659207c0 .05541.0101.10603.0481.14957.0321.03708.0874.06791.1377.07041.0541.00271.112-.01.1528-.04708.0374-.03375.072-.08312.072-.13499v-5.658996c0-.055411-.0101-.106031-.048-.149568-.0322-.03708-.0875-.06791-.1378-.07041-.054-.002708-.112.009999-.1528.047079-.0373.033746-.072.083116-.072.134986z"/><path d="m13.9675.745623v5.659207c0 .05541.0101.10603.048.14957.0322.03708.0874.06791.1378.07041.054.00271.1119-.01.1528-.04708.0373-.03375.0719-.08312.0719-.13499v-5.658996c0-.055411-.0101-.106031-.048-.149568-.0322-.03708-.0875-.06791-.1378-.07041-.054-.002708-.1119.009999-.1528.047079-.0373.033746-.0719.083116-.0719.134986z"/></g></svg>