<svg fill="none" height="25" viewBox="0 0 23 25" width="23" xmlns="http://www.w3.org/2000/svg"><g fill="#fff"><path d="m19.9035 24.499h-16.80698c-1.70727 0-3.09652-1.3359-3.09652-2.9776v-14.04484c0-1.64168 1.38925-2.97656 3.09652-2.97656h2.7084c.17366 0 .31384.1348.31384.30178 0 .16699-.14018.30178-.31384.30178h-2.7084c-1.36101 0-2.468848 1.06428-2.468848 2.373v14.04584c0 1.3088 1.106798 2.374 2.468848 2.374h16.80698c1.361 0 2.4688-1.0642 2.4688-2.374v-14.04584c0-1.30872-1.1068-2.373-2.4688-2.373h-2.7084c-.1737 0-.3139-.13479-.3139-.30178 0-.16698.1402-.30178.3139-.30178h2.7084c1.7073 0 3.0965 1.33588 3.0965 2.97656v14.04584c0 1.6417-1.3892 2.9776-3.0965 2.9776z"/><path d="m14.0266 6.5h-5.05323c-1.08867 0-1.97337-.78266-1.97337-1.74324v-2.51352c0-.96171.88598-1.74324 1.97337-1.74324h5.05323c1.0887 0 1.9734.78266 1.9734 1.74324v2.51239c0 .96171-.886 1.74324-1.9734 1.74324zm-5.05323-5.32432c-.66671 0-1.2085.4786-1.2085 1.06756v2.51239c0 .58896.54179 1.06757 1.2085 1.06757h5.05323c.6667 0 1.2085-.47861 1.2085-1.06757v-2.51239c0-.58896-.5418-1.06756-1.2085-1.06756z"/><path d="m4.95041 11.4992c-.06694 0-.13388-.0258-.18264-.0758l-.70247-.7215c-.09256-.0953-.08594-.2438.01488-.3314.10082-.0875.25785-.0813.35041.0141l.53635.5511 1.61897-1.37574c.10165-.08676.25867-.07816.35041.01798.09173.09614.08347.24465-.01901.33142l-1.80079 1.53044c-.0471.0399-.10661.0602-.16528.0602z"/><path d="m4.95041 16.4988c-.06694 0-.13388-.0387-.18264-.1137l-.70247-1.0822c-.09256-.143-.08594-.3658.01488-.4971s.25785-.1219.35041.0211l.53635.8266 1.61897-2.0636c.10165-.1301.25867-.1172.35041.027.09173.1442.08347.367-.01901.4971l-1.80079 2.2957c-.0471.0598-.10661.0903-.16528.0903z"/><path d="m4.95041 20.5c-.06694 0-.13388-.0387-.18264-.1137l-.70247-1.0832c-.09256-.143-.08594-.3658.01488-.4971s.25785-.1219.35041.0211l.53635.8265 1.61897-2.0633c.10165-.1301.25867-.1184.35041.027.09173.1442.08347.3669-.01901.4971l-1.80079 2.2953c-.0471.0598-.10661.0903-.16528.0903z"/><path d="m18.6612 11.5h-8.3224c-.1875 0-.3388-.2233-.3388-.5s.1513-.5.3388-.5h8.3224c.1875 0 .3388.2233.3388.5s-.1513.5-.3388.5z"/><path d="m18.6612 16.5h-8.3224c-.1875 0-.3388-.2233-.3388-.5s.1513-.5.3388-.5h8.3224c.1875 0 .3388.2233.3388.5s-.1513.5-.3388.5z"/><path d="m18.6612 20.5h-8.3224c-.1875 0-.3388-.2233-.3388-.5s.1513-.5.3388-.5h8.3224c.1875 0 .3388.2233.3388.5s-.1513.5-.3388.5z"/></g></svg>