<svg fill="none" height="27" viewBox="0 0 23 27" width="23" xmlns="http://www.w3.org/2000/svg"><g fill="#fff"><path d="m14.5491 20.9895c-.0075 0-.0141 0-.0217 0-.1555-.0121-.2725-.1461-.2602-.2996l.1594-2.0543c.0471-.6075.363-1.1824.8674-1.5769 1.536-1.2021 2.4167-2.9995 2.4167-4.931 0-1.7565-.7147-3.38555-2.0122-4.58852-1.2965-1.2011-2.9946-1.80118-4.7786-1.69047-3.24648.20189-5.864 2.87669-5.95924 6.08929-.0594 2.003.81751 3.8675 2.40631 5.1151.50917.4001.82976.9871.87785 1.6095l.13767 1.7696h2.95321c.1565 0 .2829.1247.2829.2791s-.1264.2791-.2829.2791h-3.21534c-.14804 0-.27062-.1126-.28193-.2577l-.15747-2.0273c-.03677-.4689-.2791-.9117-.66569-1.215-1.7293-1.3584-2.68447-3.3875-2.61941-5.5683.10466-3.49721 2.95508-6.40925 6.48914-6.62975 1.9405-.12095 3.7895.5331 5.202 1.84119 1.3927 1.29042 2.1913 3.11116 2.1913 4.99516 0 2.1035-.9589 4.0601-2.6307 5.3682-.3809.2986-.6204.7294-.6553 1.1825l-.1594 2.0542c-.0113.1461-.1357.2577-.2819.2577z"/><path d="m14.0032 24.6644h-5.33971c-.15652 0-.28287-.1246-.28287-.2791 0-.1544.12635-.2791.28287-.2791h5.33971c.1565 0 .2829.1247.2829.2791 0 .1545-.1264.2791-.2829.2791z"/><path d="m14.3474 22.8251h-6.02799c-.15652 0-.28287-.1247-.28287-.2791 0-.1545.12635-.2792.28287-.2792h6.02799c.1566 0 .2829.1247.2829.2792 0 .1544-.1263.2791-.2829.2791z"/><path d="m12.4871 26.5h-2.3064c-.1565 0-.28283-.1247-.28283-.2791 0-.1545.12633-.2791.28283-.2791h2.3064c.1565 0 .2829.1246.2829.2791 0 .1544-.1264.2791-.2829.2791z"/><path d="m11.3337 3.62231c-.1565 0-.2828-.12467-.2828-.27911v-2.56409c0-.154441.1263-.27911.2828-.27911.1566 0 .2829.124669.2829.27911v2.56409c0 .15444-.1263.27911-.2829.27911z"/><path d="m16.946 5.70447c-.0717 0-.1433-.02698-.198-.08001-.1113-.10793-.1132-.2847-.0038-.39448l1.7142-1.72117c.1094-.10979.2885-.11165.3998-.00372.1113.10792.1132.28469.0038.39447l-1.7142 1.72118c-.0557.05582-.1283.08373-.2018.08373z"/><path d="m5.72058 5.70445c-.07354 0-.14615-.02791-.20178-.08374l-1.71421-1.72117c-.10938-.10978-.10749-.28655.00377-.39448.11126-.10792.29042-.10699.39979.00373l1.71422 1.72117c.10937.10978.10749.28655-.00378.39448-.05468.05303-.12635.08001-.19801.08001z"/><path d="m22.3837 10.7164h-2.5186c-.1565 0-.2828-.1247-.2828-.2791 0-.1545.1263-.2792.2828-.2792h2.5186c.1565 0 .2828.1247.2828.2792 0 .1544-.1263.2791-.2828.2791z"/><path d="m2.80132 10.7164h-2.518521c-.156523 0-.28287339-.1247-.28287339-.2791 0-.1545.12635039-.2792.28287339-.2792h2.518521c.15652 0 .28287.1247.28287.2792 0 .1544-.12635.2791-.28287.2791z"/><path d="m11.3338 20.8676c-.1565 0-.2829-.1247-.2829-.2792v-4.5318c0-.1544.1264-.2791.2829-.2791s.2829.1247.2829.2791v4.5318c0 .1545-.1264.2792-.2829.2792z"/><path d="m11.3337 16.3357c-.0801 0-.1593-.0335-.2159-.0976l-1.32007-1.5296c-.10089-.1172-.08675-.293.03206-.3935.1188-.1005.29701-.0865.39881.0316l1.3201 1.5295c.1009.1173.0868.2931-.032.3936-.0528.0446-.1189.067-.183.067z"/><path d="m11.3329 16.3357c-.0651 0-.1302-.0214-.183-.0669-.1188-.0996-.1329-.2764-.032-.3936l1.3201-1.5295c.1018-.1172.28-.1312.3988-.0316.1188.0995.133.2763.0321.3935l-1.3201 1.5295c-.0556.0651-.1358.0977-.2159.0977z"/></g></svg>