<svg fill="none" height="16" viewBox="0 0 24 16" width="24" xmlns="http://www.w3.org/2000/svg"><path d="m9.72285 9.7858c1.71805.6229 2.77405.7556 3.86125.4532l.0861-.0239-.0385-.0807-.7281-1.52377-.0204-.04267-11.23826.97799-.06233.0417c.00007.0001.00014.00021.00021.00031.30578.45674.96173.65374 1.8419.65384l.00135-.0001c.79456-.0143 1.41104-.2154 2.05791-.42694l.00006-.00002c.56006-.18358 1.12506-.36761 1.79741-.41799.67108-.05028 1.45264.03251 2.4414.38905zm0 0c-.00003-.00001-.00007-.00002-.0001-.00004l.02556-.0705-.02544.07055s-.00001-.00001-.00002-.00001zm-8.59785.2786.12922.1352c.34713.3632.98639.7244 2.18311.7105h.00087c.82624 0 1.46853-.2032 2.09751-.4023.04822-.0152.09636-.0304.1445-.0456.00023 0 .00047-.0001.0007-.0002l.02246.0716c1.09214-.3669 2.04944-.67725 3.80225-.0282zm0 0v.1776c-.257491.1989-.431461.5198-.431461.8701 0 .5736.447711 1.0626 1.018821 1.0626h12.76854.1183l-.0505-.107-.5528-1.1711-.0273-.0578-.0614.0178c-.4805.1397-.9452.2228-1.4353.2228-.8233 0-1.7441-.2084-2.94034-.6444zm18.4085-9.387316v.00001l.001.001147 4.3129 4.950409c.045.05958.0776.14183.0776.2207v2.39856.0141c0 .18757-.1449.33417-.316.33417h-.3775-.0971l.0245.09391c.0772.29609.0649.59412-.0007.89637l-.0107.0492.0415.02852c.4509.31007.736.85102.736 1.43382 0 .3524-.1037.6906-.284.96l-.0597.0894.1045.0252c.138.0333.2392.1696.2392.3222 0 1.6318-1.1744 2.9302-2.5947 2.9302h-18.66064c-1.42008 0-2.59466-1.3122-2.59466-2.9302 0-.1625.11089-.2886.240611-.3225l.101948-.0267-.058592-.0876c-.180244-.2694-.283967-.6076-.283967-.96 0-.6102.297761-1.15061.774884-1.46097l.046482-.03023-.015281-.0533c-.078088-.27238-.104297-.57259-.065088-.88715l.010505-.08428h-.084929-.350562c-.171137 0-.316011-.1466-.316011-.33416v-2.39856c0-.16644.101166-.28954.227128-.32249l18.930272-4.938188v.000087l.0035-.001102c.1057-.033169.2225-.000341.2976.089427zm-16.01984 4.690526.01892.14758h19.20002.0135.1654l-.109-.12443-3.5731-4.07754-.0305-.03483-.0448.01168zm-2.833604 2.47113v.075h.075 22.462944.075v-.075-1.58022-.075h-.075-22.462944-.075v.075zm15.014044 5.16796.0203.0428h.0474.0135.0473l.0204-.0428 2.036-4.27505.051-.10725h-.1188-4.0854-.1187l.051.10725zm-2.2037-2.8201.006.0125.0676-.0324-.0201-.0722c-.0042.0012-.0085.0023-.0127.0035l-.6952-1.45504h-11.32589zm-12.694894 2.6282h-.088086l.014045.087c.166243 1.0292.959305 1.8408 1.934715 1.8408h18.67412.027c.9612 0 1.7684-.7967 1.9347-1.841l.0139-.0868h-.0879-6.5259-.047l-.0205.0424-.5663 1.171-.0001.0003c-.0553.1157-.1643.1831-.2829.1831-.1187 0-.2276-.0674-.2829-.1831l-.0002-.0003-.5663-1.171-.0204-.0424h-.0471zm16.206494-.7757-.0513.1074h.119 5.2179c.5563 0 1.0189-.4735 1.0189-1.0627v-.0141c0-.317-.13-.6054-.3482-.8033l-.0659-.0597-.0478.0749c-.1052.1652-.2221.3143-.377.4494h-.0001l-.0016.0015c-.4597.4261-1.1026.7137-1.7693.7137-.4717 0-.9399-.1231-1.3559-.4496l.0001-.0001-.0035-.0024-.0395-.0276c-.425-.3154-.8911-.5449-1.3847-.6884l-.0612-.0177-.0274.0574zm3.6946-.5179c.6877 0 1.3483-.2963 1.8203-.7337l-3.2225.2681c.4314.3386.9168.4656 1.4022.4656zm1.3452-1.2711.1412-.1301h-.0261c.2371-.26683.5836-.81202.3362-1.50234l-.0178-.0497h-.0528-3.7349-.0475l-.0203.04305-.4584.97353-.0364.07719.0812.02615c.5173.16656.9953.41642 1.4339.73622l.0529.0415.0011.0008c.766.5789 1.764.3219 2.3477-.2163z" fill="#fff" stroke="#161414" stroke-width=".15"/></svg>