<svg fill="none" height="18" viewBox="0 0 23 18" width="23" xmlns="http://www.w3.org/2000/svg"><g fill="#fff"><path d="m3.01749 8.78085c-.06432 0-.12864-.02291-.17887-.06963l-2.7536116-2.85104c-.09075644-.08372-.1110224-.21857-.0502244-.3261l2.802876-4.9012c.07225-.126033.23262-.1701.3595-.098711l3.54135 2.940931 2.19225-.03966h.00528c.14363 0 .2617.11546.26434.26.00265.1463-.11366.26617-.25993.26881l-2.2645.04143c-.04759.00088-.09429-.01058-.13482-.03438l-3.37569-2.84751-2.567614 4.4905 2.599414 2.70826c.1075.09871.11367.26617.01498.37369-.05199.05641-.12336.08461-.19473.08461z"/><path d="m12.569 17.1713c-.3648 0-.7102-.1348-.9781-.3833l-1.3728-1.2665c-.1075-.0988-.1137-.2662-.015-.3737.0987-.1076.2661-.1137.3736-.015l1.3737 1.2674c.1789.1657.4106.252.6565.2423.2449-.0097.4714-.1137.6361-.2917l.0829-.0899c.341-.3693.3207-.9474-.045-1.2894l-1.0388-.9633c-.052-.0476-.082-.1146-.0846-.186-.0035-.1066.0573-.2071.1551-.2521.0969-.044.2105-.0282.289.0441l1.3014 1.2066c.1789.1657.4132.2529.6573.2423.245-.0096.4697-.1128.6336-.2899l.0889-.0934c.3375-.3667.3173-.9457-.0493-1.2877l-1.0397-.9616c-.074-.0678-.1022-.1718-.074-.2679.0255-.0881.096-.1586.1841-.1824.089-.0247.1833-.0036.2511.059l1.3023 1.2066c.3701.342.9508.319 1.2927-.0502l.0846-.0917c.3401-.3684.3189-.9466-.0459-1.2877l-1.0388-.9633c-.052-.0476-.082-.1146-.0846-.1859-.0035-.1067.0573-.2072.1542-.2521.0969-.0441.2106-.0282.289.0441l1.3014 1.2065c.1789.1657.4133.253.6574.2424.2449-.0097.4705-.1128.6353-.2917l.0881-.0926c.3374-.3666.3172-.9448-.0494-1.2876l-4.5008-4.15648c-.1075-.09872-.1137-.26617-.015-.3737.0987-.10752.267-.11369.3736-.01498l4.5017 4.15646c.5789.5412.6124 1.4542.0749 2.0368l-.0881.0925c-.2582.2794-.6141.4434-1.001.4584-.1683.0052-.3321-.0159-.4881-.0635.0291.3869-.0952.7835-.3771 1.0902l-.0846.0917c-.3904.4213-.9763.5561-1.4909.3966.0291.3869-.0952.7853-.378 1.0911l-.089.0934c-.2573.2785-.6133.4425-.9992.4575-.1683.0061-.3331-.0159-.489-.0644.0291.3869-.0961.7844-.378 1.0911l-.0837.0908c-.2617.282-.6186.446-1.0036.461-.0194 0-.0397.0008-.0591.0008z"/><path d="m5.08733 13.1762c-.04846 0-.09693-.0027-.14539-.0071-.37007-.0379-.7005-.2168-.93047-.5041l-.07578-.097c-.46612-.5869-.38241-1.4524.19297-1.968.00264-.0027.0141-.0115.01674-.0141l1.53229-1.26741c.30222-.2503.68111-.36576 1.0644-.3261.37008.03878.69962.21769.92783.50501l.07402.09166s0 .00089.00176.00177c.45995.58077.38417 1.43837-.17182 1.95307-.00353.0035-.01322.0115-.01674.015l-1.55167 1.2832c-.26346.2186-.58507.335-.91726.335zm1.50673-3.66293c-.20971 0-.41237.07403-.57978.2124l-1.53229 1.26743c-.36214.3243-.4203.8831-.13129 1.2471l.0749.096c.13834.1728.34188.283.56921.3059.24055.0246.48022-.0494.6723-.2089l1.55167-1.2833c.34893-.3225.40004-.8654.11191-1.23033l-.07402-.09166c-.1401-.17627-.34188-.28644-.57009-.30935-.03084-.00353-.06168-.00441-.0934-.00441z"/><path d="m6.8637 14.8225c-.04935 0-.09869-.0026-.14803-.0079-.3692-.0379-.69874-.2177-.92872-.5059l-.07401-.0917c-.46436-.5852-.38594-1.4463.17711-1.961.00352-.0026.0185-.0158.02203-.0185l1.54021-1.2735c.30223-.2504.68112-.3667 1.06441-.3261.37007.0379.69961.2176.92871.505l.07401.0925s0 0 .00089.0018c.45995.5808.38417 1.4383-.17183 1.953-.00528.0053-.01145.0106-.01762.015l-1.55167 1.2833c-.26346.2186-.58419.3349-.91637.3349zm1.50673-3.6629c-.20971 0-.41237.074-.57978.2124l-1.54022 1.2736c-.36126.3296-.41501.8743-.12336 1.2418l.07402.0917c.14098.1771.34276.2873.57009.3111.24143.0247.48021-.0494.6723-.2089l1.55167-1.2833c.34893-.3234.40092-.8654.1119-1.2303l-.07401-.0926c-.14098-.1762-.34276-.2864-.57009-.3102-.03084-.0035-.06168-.0044-.09252-.0044z"/><path d="m9.0938 16.0908c-.04846 0-.0978-.0026-.14627-.007-.37007-.0379-.7005-.2168-.92871-.505l-.07401-.0917c-.45995-.5773-.38682-1.4331.16653-1.9487l.66261-.5491c.30223-.2503.68023-.3666 1.06441-.3261.37004.0388.69964.2177.92784.5051l.074.0925v.0009c.4564.5737.3851 1.4269-.1612 1.9425l-.6697.5535c-.2617.2177-.58243.334-.91462.334zm.59653-2.9076c-.20971 0-.41237.0741-.57979.2124l-.65115.5394c-.341.3182-.39123.8585-.10221 1.2207l.07401.0926c.1401.1762.34276.2855.57009.3093.24143.0247.47934-.0493.67054-.208l.65728-.5429c.3349-.3173.3842-.8558.0979-1.2163l-.0741-.0925c-.1409-.1763-.3427-.2865-.56917-.3094-.03084-.0035-.06168-.0044-.09252-.0044z"/><path d="m3.76645 11.1534c-.04846 0-.09693-.0026-.14627-.0079-.36919-.0379-.69962-.2168-.92871-.5032l-.07666-.0979c-.45466-.57197-.38329-1.42512.16301-1.94071l.66966-.55349c.30046-.24942.67671-.36576 1.06088-.3261.36919.0379.69962.21681.92871.50325l.0749.09255v.00088c.4529.57023.38593 1.42074-.1542 1.93632-.0044.0044-.00881.0088-.0141.0123l-.66173.5483c-.26345.2185-.58507.3349-.91725.3349zm.59829-2.90842c-.20971 0-.41237.07403-.57979.21241l-.65732.54203c-.33483.31729-.38417.85667-.09781 1.21718l.07578.0969c.13834.1728.341.282.56745.305.23967.0246.48022-.0494.6723-.2089l.6538-.54205c.33835-.32874.38241-.86284.09957-1.21803l-.07402-.09254c-.14098-.17539-.34276-.28468-.57009-.30847-.03084-.00353-.0608-.00441-.09164-.00441z"/><path d="m18.1985 9.26827c-.0776 0-.1542-.03349-.2062-.09871-.0916-.1137-.0731-.28027.0405-.37193l3.6021-2.44091-2.2548-4.65619-3.6638 1.94647c-.0431.02027-.0907.02908-.1374.02467l-5.58727-.48562-2.97293 2.3964c-.3692.31023-.42471.89986-.11631 1.28413l.07754.09695c.31544.39308.89258.45742 1.28645.14189l2.21512-1.78826c.0538-.04319.1216-.06346.1886-.05729l4.1739.36312c.1454.01234.2529.14101.2406.28644-.0124.14542-.1428.25207-.2864.24061l-4.0682-.35343-2.1332 1.72217c-.30046.24149-.67759.3499-1.06176.30759-.38417-.0423-.7287-.23091-.96836-.53057l-.07754-.09695c-.49168-.61342-.40532-1.52122.19296-2.02271l3.05929-2.46602c.05287-.04319.12071-.06346.18856-.05729l5.62165.48827 3.8355-2.02843c.1313-.06257.289-.00793.3525.12339l2.461 5.08188c.0537.11105.0238.24414-.0723.3217l-3.7659 2.5731c-.0485.03966-.1075.05817-.1657.05817z"/></g></svg>