<svg fill="none" height="26" viewBox="0 0 25 26" width="25" xmlns="http://www.w3.org/2000/svg"><path d="m22.8974 11.8243c-.9553 0-1.7603.6466-2.0173 1.5315l-3.5589-.3476c0-.0312.0025-.0632.0025-.0944 0-1.8019-.8281-3.40615-2.1171-4.44618l2.7147-4.34475c.2382.09534.4968.14907.7692.14907 1.1618 0 2.1034-.95596 2.1034-2.13554 0-1.179568-.9424-2.1364-2.1043-2.1364s-2.1035.955965-2.1035 2.13554c0 .63009.2707 1.1943.6975 1.58518l-2.6942 4.31268c-.8358-.50528-1.8124-.79649-2.8564-.79649-1.93703 0-3.64353 1.00016-4.64661 2.51861l-3.00324-1.76112c.07939-.22534.12549-.46715.12549-.72022 0-1.17958-.94161-2.13554-2.10347-2.13554-1.161854 0-2.10517.95596-2.10517 2.13554 0 1.17957.941608 2.13553 2.10347 2.13553.64282 0 1.2182-.29381 1.60406-.75575l3.00324 1.76114c-.36452.754-.57025 1.6016-.57025 2.4978 0 1.6294.67696 3.0967 1.75943 4.1324l-2.94349 3.3307c-.21939-.1369-.46611-.2366-.73416-.2851-1.14393-.2063-2.23579.5685-2.43896 1.7299-.20318 1.1614.56001 2.2699 1.70394 2.4761 1.14393.2063 2.23579-.5685 2.43896-1.7299.10842-.6188-.05976-1.2212-.41147-1.6814l2.96568-3.3558c.91685.6665 2.03855 1.06 3.25165 1.06.9954 0 1.9285-.2653 2.7378-.7281l2.7403 4.428c-.4209.3909-.6855.9499-.6855 1.5748 0 1.1795.9416 2.1355 2.1034 2.1355 1.1619 0 2.1035-.956 2.1035-2.1355 0-1.1796-.9416-2.1356-2.1035-2.1356-.2774 0-.5412.0555-.7828.1543l-2.7471-4.4375c1.1396-.8736 1.9395-2.1797 2.1623-3.6782l3.5403.3458c.0776 1.1076.9851 1.9821 2.0957 1.9821 1.1107 0 2.1035-.956 2.1035-2.1355 0-1.1796-.9416-2.1356-2.1035-2.1356z" fill="#c1bfbf"/></svg>