<svg fill="none" height="14" viewBox="0 0 32 14" width="32" xmlns="http://www.w3.org/2000/svg"><g stroke="#fff" stroke-miterlimit="10" stroke-width=".425136"><path d="m29.3159 8.66012c-.3595 1.44528-1.1529 2.62818-2.4427 3.50658-.815.5557-1.7369.8712-2.7326 1.0005-1.9002.2462-3.7079-.108-5.4604-.766-.4478-.1679-.8781-.3811-1.3012-.5982-.566-.2909-1.156-.4549-1.8072-.3989-.4519.0386-.8648.1824-1.2531.3928-1.33.7207-2.7651 1.1571-4.2817 1.3602-1.28198.1718-2.55616.1377-3.78533-.2848-1.89056-.6502-3.10232-1.9125-3.73431-3.67895-.05821-.16282-.11343-.329-.14284-.49798-.02821-.16059-.42613-1.38598.14464-3.36282.49935-1.48613 1.45424-2.60744 3.0039-3.2677 1.25377-.53436 2.56336-.88463 3.91316-1.114597 1.55688-.26522 3.12998-.384402 4.71078-.424688 2.5268-.063788 5.0487-.027977 7.5533.33796 1.2453.182405 2.4691.448745 3.6455.879595.6379.23388 1.2687.48512 1.8221.86952 1.1793.81916 1.8275 1.94831 2.145 3.2621.2311 1.06424.027 2.69081.0036 2.78594z"/><path d="m29.2036 5.24481c1.5126.31868 2.202 1.54616 2.0959 2.14874-.082.46625-.7592.8012-1.8925 1.00396"/><path d="m2.24257 7.80249c-1.23244-.22742-1.952183-.57329-2.015404-1.0339-.081435-.59331.564701-1.71328 2.411484-2.01723"/></g></svg>