<svg fill="none" height="30" viewBox="0 0 26 30" width="26" xmlns="http://www.w3.org/2000/svg"><path d="m18.7876 5.86728 1.5653.42441.5421 1.55263.8807-1.38308 1.6199-.04478-1.0212-1.27964.4582-1.58035-1.5119.59183-1.3358-.93093.087 1.64433-1.2833 1.00451zm-9.20667-.3487c.32293-.3743.28519-.94373-.08283-1.27217-.36696-.32844-.92789-.29005-1.25082.08424-.32188.37429-.28519.94373.08283 1.27217.36801.32844.92789.29005 1.25082-.08424zm-3.68328 6.07512.89959-.2101.68046.6355.08178-.9362.80418-.4618-.85031-.3679-.18244-.92024-.60706.70804-.91741-.10768.47391.80618-.38375.8552zm8.00195-6.6339 1.1135 1.19646.2568-1.6262 1.4637-.70593-1.4406-.75072-.2086-1.63367-1.1492 1.16233-1.5915-.30284.7318 1.46945-.7748 1.44598 1.5989-.25379zm-1.3106 2.56674-2.6411 9.07266 3.9821-8.55121zm6.3674-6.3118c.2621-.303918.2317-.766719-.0671-1.03331-.2999-.2665911-.7539-.2356666-1.016.068247-.2621.303914-.2328.766713.0671 1.033303.2988.26659.7538.23567 1.016-.06931zm-13.27054 13.70706-.68255 1.8117 2.9483.2058-2.26575-2.0186zm5.15954 2.4323 9.1081-8.9862-1.5497-1.38094zm12.0008-.3924c-.3229.3743-.2841.9438.0839 1.2711.368.3285.9279.2901 1.2508-.0842.3219-.3743.2841-.9437-.0828-1.2722-.3691-.3284-.929-.2911-1.2519.0843zm-10.6588 1.6326 7.5239-3.3526-.6847-1.2829-6.8392 4.6366zm5.558.9726-.4708-.8084-.3439.8723-.9017.2058.7088.6015-.0849.9352.7821-.4991.8482.3711-.2243-.9107.6091-.7048-.9216-.0629zm5.0012-6.1476.736-1.0376-1.2581.0373-.7434-1.0322-.3533 1.2284-1.1953.401 1.0401.7208.0042 1.2807.996-.7837 1.1984.3903-.4236-1.205zm3.0269-3.96051c-.2757-.24633-.6962-.21754-.9384.06292-.2421.28045-.2149.70809.0619.95439.2758.2463.6962.2175.9373-.0629.2422-.2805.215-.70808-.0618-.95441zm-16.4463 8.70681-4.73909-.3316-.8933 2.3684 8.59539.6025zm-9.3272 11.8345 2.89483-1.6016-2.231147-.1568-.663683 1.7574zm1.07783-2.8589 3.62771.2538 3.89927-2.1594-6.63368-.4649-.89435 2.3695zm2.20284-5.8383-.89435 2.3684 8.03028.563 3.5291-1.9546-.281-.2506-10.38508-.7262z" fill="#c1bfbf"/></svg>