<svg fill="none" height="26" viewBox="0 0 23 26" width="23" xmlns="http://www.w3.org/2000/svg"><g fill="#c1bfbf"><path d="m13.3319 4.51197c1.132-.24347 1.8509-1.35219 1.6057-2.4764-.2451-1.1242-1.3615-1.838174-2.4935-1.594701-1.1319.243472-1.8508 1.352191-1.6057 2.476391.2452 1.12421 1.3615 1.83818 2.4935 1.59471z"/><path d="m23 6.01823c0-.46467-.3448-.84923-.7941-.9153-.0186-.0077-.0391-.01211-.0607-.01211h-10.1943c-.0662 0-.5432-.00193-.8296.30225-.2259.23977-.4831.60947-.5227.66204-1.25174 1.65221-10.336743 16.55399-10.336743 16.55399-.3032308.5299-.2791165 1.1834-.2372629 1.5284.0249459.205.0867559.4052.1934689.5827.259991.4319.644989.5619.850927.5954.06348.0105.12667-.0184.16021-.0732l6.97542-10.4082c.05072-.0834.16519-.1005.23864-.036l4.29814 3.7748c.1846.1514.0241.3427.0241.3427l-1.9748 3.4603c-.94077 1.6681.3791 2.7219.8348 3.0214.0765.0504.1799.0239.224-.0559l3.2441-5.8887c.8027-1.4138-.3105-2.2749-.3105-2.2749l-3.8552-3.4294c-.0848-.0754-.1004-.2015-.0366-.2951l3.4797-5.10909c.2949-.47237.1294-1.02568.0282-1.2726-.0255-.06249.02-.13048.0879-.13048h7.5092c.0236.00192.0477.00303.0718.00303s.048-.00111.0718-.00303h.0056c.0116 0 .023-.00138.0341-.00386.462-.05478.8204-.44484.8204-.91859z"/></g></svg>