<svg height="300" viewBox="0 0 162 301" width="162" xmlns="http://www.w3.org/2000/svg" xmlns:xlink="http://www.w3.org/1999/xlink"><linearGradient id="a"><stop offset="0" stop-color="#960000"/><stop offset="1" stop-color="#b503ff"/></linearGradient><linearGradient id="b" gradientTransform="scale(.280277 .28)" gradientUnits="userSpaceOnUse" x1="158.15" x2="633.14" xlink:href="#a" y1="915.98" y2="489.78"/><linearGradient id="c" gradientTransform="scale(.280277 .28)" gradientUnits="userSpaceOnUse" x1="138.75" x2="613.74" xlink:href="#a" y1="894.36" y2="468.16"/><filter id="d" height="100%" width="100%" x="0%" y="0%"><feColorMatrix in="SourceGraphic" type="matrix" values="0 0 0 0 1 0 0 0 0 1 0 0 0 0 1 0 0 0 1 0"/></filter><mask id="e"><g filter="url(#d)"><path d="m0 0h162v301h-162z" fill-opacity=".2"/></g></mask><linearGradient id="f" gradientTransform="scale(.280277 .28)" gradientUnits="userSpaceOnUse" x1="86.49" x2="561.48" xlink:href="#a" y1="836.12" y2="409.91"/><linearGradient id="g" gradientTransform="scale(.280277 .28)" gradientUnits="userSpaceOnUse" x1="35.34" x2="510.32" xlink:href="#a" y1="779.11" y2="352.9"/><clipPath id="h"><path d="m0 0h162v302h-162z"/></clipPath><linearGradient id="i" gradientTransform="scale(.280277 .28)" gradientUnits="userSpaceOnUse" x1="-26.41" x2="450.69" y1="703.35" y2="275.25"><stop offset="0" stop-color="#b00000"/><stop offset="1" stop-color="#a503ff"/></linearGradient><linearGradient id="j" gradientTransform="scale(.280277 .28)" gradientUnits="userSpaceOnUse" x1="135.82" x2="552.23" y1="535.46" y2="535.46"><stop offset="0" stop-color="#f70d29"/><stop offset="1" stop-color="#ec03ff"/></linearGradient><path d="m138.464844 135.101562c-9.007813 0-16.3125 6.457032-16.3125 14.421876v45.128906c0 7.964844 7.304687 14.421875 16.3125 14.421875 9.007812 0 16.3125-6.457031 16.3125-14.421875v-45.128906c0-7.964844-7.304688-14.421876-16.3125-14.421876zm0 0" fill="url(#b)"/><path d="m138.464844 113.332031c-9.007813 0-16.3125 6.457031-16.3125 14.421875v66.8125c0 7.964844 7.304687 14.421875 16.3125 14.421875 9.007812 0 16.3125-6.457031 16.3125-14.421875v-66.8125c0-7.964844-7.304688-14.421875-16.3125-14.421875zm0 0" fill="url(#c)"/><g clip-path="url(#h)" mask="url(#e)"><path d="m154.777344 116.867188c0 .078124-.011719.152343-.015625.230468 0 .078125.015625.15625.015625.234375v-.46875zm0 0" fill="url(#f)"/><path d="m122.632812 117.335938c0-.082032.011719-.15625.011719-.234376 0-.078124-.011719-.152343-.011719-.230468zm0 0" fill="url(#g)"/></g><path d="m550.125772 328.334263v1.841518c0-30.970982-25.11468-56.082589-56.096885-56.082589s-56.082948 25.111607-56.082948 56.082589v-1.841518c0 30.984933 25.11468 56.110491 56.082948 56.110491s56.096885-25.125558 56.096885-56.110491zm0 0" fill="#ec03ff" stroke="#ec03ff" stroke-miterlimit="10" stroke-width="5.13" transform="scale(.280277 .28)"/><path d="m17.695312 217.203125c-8.722656-3.285156-13.132812-13.015625-9.84375-21.730469l38.515626-99.160156c3.289062-8.714844 13.027343-13.117188 21.753906-9.835938v-.621093c8.726562 3.28125 13.132812 13.007812 9.847656 21.726562l-38.519531 99.78125c-3.289063 8.71875-13.023438 13.121094-21.75 9.839844zm0 0" fill="url(#i)"/><path d="m154.777344 191.980469c-7.097656 6.253906-13.332032 3.117187-17.21875-3.855469l-42.882813-92.878906c-5.882812-12-20.867187-14.328125-27.546875-13.523438-6.679687.804688-16.542968 5.179688-20.035156 12.894532l-9.03125 22.933593s19.566406-14.28125 31.464844 4.144531l39.539062 82.675782c5.535156 11.574218 19.632813 17.308594 31.21875 11.78125 7.695313-3.675782 13.671875-11.652344 14.375-19.5625.113282-1.277344.113282-4.613282.113282-4.613282zm0 0" fill="url(#j)"/><g fill="#f70d29"><path d="m86.808594 178.480469c-.246094-7.628907-6.539063-13.761719-14.234375-13.761719-7.695313 0-13.988281 6.132812-14.234375 13.761719l-.007813.464843h.007813c.246094 7.628907 6.535156 13.761719 14.234375 13.761719s13.988281-6.132812 14.234375-13.761719l.007812-.464843zm0 0"/><path d="m42.210938 3.535156-.015626-.015625c-.410156-.464843-.964843-.710937-1.609374-.710937h-9.597657c-.609375 0-1.160156.222656-1.585937.644531-.378906.367187-.625.824219-.730469 1.339844l-2.710937 21.824219h-6.496094l2.738281-21.4375.007813-.140626c0-1.335937-.871094-2.230468-2.171876-2.230468h-9.515624c-.605469 0-1.15625.222656-1.585938.644531-.378906.367187-.621094.820313-.726562 1.34375l-.011719.054687-6.984375 55.679688c-.117188.644531.039062 1.242188.457031 1.71875.410156.46875.964844.714844 1.613281.714844h9.515625c.585938 0 1.113281-.199219 1.570313-.589844.4375-.375.714844-.84375.828125-1.390625l2.714843-21.914063h6.496094l-2.730468 21.457032c-.121094.648437.039062 1.242187.457031 1.71875.410156.46875.964843.714844 1.609375.714844h9.601562c.609375 0 1.15625-.222657 1.585938-.644532.375-.367187.621094-.816406.726562-1.339844l.011719-.058593 6.984375-55.683594c.117188-.636719-.039062-1.226563-.445312-1.703125zm-16.78125 33.050782h-8.167969c-1.144531 0-1.710938.8125-1.746094 1.546874l-2.761719 22.34375h-9.027344l6.925782-55.183593h9.027344l-2.8125 22.015625-.007813.140625c0 1.085937.796875 1.652343 1.578125 1.652343h8.167969c.277343 0 1.207031-.082031 1.65625-1.183593l.066406-.152344 2.785156-22.472656h9.027344s-6.925781 55.179687-6.925781 55.179687h-9.027344l2.8125-22.078125.011719-.15625c0-1.085937-.796875-1.652343-1.582031-1.652343zm-12.441407 24.046874-.175781-.097656.050781.007813zm-.234375-.144531v.015625s-.015625-.007812-.015625-.007812c.003907 0 .007813-.003906.015625-.007813zm0 0"/><path d="m72.640625 4.820312-.011719-.089843c-.222656-1.1875-1.078125-1.921875-2.234375-1.921875h-11.03125c-1.164062 0-2.050781.664062-2.363281 1.765625l-18.949219 55.707031c-.242187.773438-.175781 1.425781.203125 1.9375.25.339844.742188.746094 1.65625.746094h9.515625c1.167969 0 2.058594-.671875 2.375-1.800782l2.214844-7.421874h9.019531l.304688 7.09375c.007812 1.273437.878906 2.128906 2.171875 2.128906h9.851562c1.296875 0 2.171875-.828125 2.171875-2.066406v-.3125s-4.890625-55.765626-4.890625-55.765626zm-7.746094 46.792969c-.328125-.242187-.6875-.363281-1.070312-.363281h-10.355469c-1.066406 0-1.636719.710938-1.734375 1.421875l-2.328125 7.808594h-8.796875l18.757813-55.140625.015624-.046875h10.800782l4.839844 55.183593h-9.207032l-.320312-7.4375c.089844-.539062-.136719-1.085937-.601563-1.425781zm0 0"/><path d="m63.992188 20.207031c-.273438-.800781-.917969-1.085937-1.429688-1.085937-.507812 0-1.164062.289062-1.4375 1.109375l-6.476562 22.464843c-.191407.511719-.144532 1.011719.125 1.414063.164062.242187.550781.648437 1.308593.648437h7.324219c.472656 0 .894531-.164062 1.199219-.46875.300781-.300781.464843-.726562.464843-1.214843l-1.011718-22.613281-.0625-.253907zm-1.449219 22.066407h-5.179688l4.480469-15.550782.695312 15.550782zm0 0"/><path d="m103.515625 20.714844v.027344c-.066406.660156.097656 1.210937.476563 1.628906.386718.421875.925781.636718 1.609374.636718h.015626l9.59375-.410156c.597656-.007812 1.140624-.226562 1.566406-.644531.375-.367187.621094-.820313.730468-1.351563l.171876-.929687.011718-.089844c.117188-1.152343.171875-2.003906.171875-2.597656 0-4.507813-1.433593-8.148437-4.261719-10.828125-2.8125-2.660156-6.667968-4.007812-11.464843-4.007812-5.226563 0-9.683594 1.574218-13.238281 4.671874-3.566407 3.109376-5.675782 7.308594-6.269532 12.480469l-3.371094 26.699219v.03125c-.117187 1.234375-.175781 2.160156-.175781 2.753906 0 4.511719 1.4375 8.152344 4.265625 10.828125 2.804688 2.660157 6.636719 4.007813 11.378906 4.007813 5.171876 0 9.613282-1.585938 13.195313-4.714844 3.589844-3.128906 5.742187-7.371094 6.398437-12.617188l.078126-.777343c.113281-.640625-.046876-1.230469-.464844-1.707031-.40625-.457032-.953125-.703126-1.566406-.710938l-9.519532-.410156h-.039062c-.609375 0-1.15625.222656-1.585938.644531-.378906.367187-.621094.824219-.730468 1.367187l-.265626 2.28125c-.1875 1.316407-.667968 2.328126-1.476562 3.097657-.777344.738281-1.707031 1.097656-2.847656 1.097656-.886719 0-1.570313-.265625-2.089844-.8125-.535156-.558594-.792969-1.316406-.792969-2.3125 0-.394531.035157-.558594.046875-.601563l.011719-.058593 3.550781-28.5c.183594-1.304688.683594-2.363281 1.492188-3.152344.773437-.761719 1.675781-1.128906 2.746094-1.128906.945312 0 1.65625.261719 2.171874.804687.539063.5625.796876 1.320313.796876 2.316406 0 .488282-.042969.667969-.050782.683594l-.28125 2.304688zm-12.875 26.203125c-.070313.304687-.101563.671875-.101563 1.128906 0 1.640625.496094 2.996094 1.480469 4.027344.996094 1.050781 2.304688 1.582031 3.890625 1.582031 1.78125 0 3.320313-.597656 4.5625-1.785156 1.214844-1.152344 1.964844-2.6875 2.230469-4.570313l.238281-2.121093 8.957032.386718-.046876.441406c-.578124 4.605469-2.449218 8.316407-5.5625 11.03125-3.121093 2.722657-7.007812 4.101563-11.558593 4.101563-4.085938 0-7.339844-1.121094-9.667969-3.328125-2.3125-2.183594-3.484375-5.222656-3.484375-9.023438 0-.515624.050781-1.355468.160156-2.492187l3.367188-26.695313c.523437-4.546874 2.347656-8.214843 5.433593-10.902343 3.09375-2.691407 6.996094-4.058594 11.601563-4.058594 4.140625 0 7.421875 1.117187 9.753906 3.324219 2.3125 2.191406 3.484375 5.230468 3.484375 9.027344 0 .492187-.054687 1.269531-.15625 2.28125l-.15625.84375-9.019531.386718.183594-1.570312c.066406-.3125.101562-.707032.101562-1.203125 0-1.640625-.5-2.992188-1.480469-4.027344-.996093-1.050781-2.335937-1.582031-3.972656-1.582031-1.738281 0-3.246094.617187-4.496094 1.835937-1.207031 1.183594-1.953124 2.726563-2.210937 4.597657zm0 0"/><path d="m160.136719 3.710938c-.242188-.414063-.757813-.902344-1.832031-.902344h-10.101563c-1.003906 0-1.835937.480468-2.328125 1.335937l-10.757812 17.167969 2.03125-16.183594v-.089844c0-1.335937-.871094-2.230468-2.171876-2.230468h-9.511718c-.609375 0-1.15625.222656-1.589844.644531-.375.367187-.621094.824219-.726562 1.34375l-.011719.054687-6.988281 55.679688c-.117188.648438.039062 1.242188.460937 1.722656.410156.464844.964844.710938 1.613281.710938h9.511719c.585937 0 1.113281-.195313 1.570313-.585938.4375-.375.71875-.847656.832031-1.394531l2.019531-16.539063 1.824219-2.707031 5.257812 19.535157c.246094 1.046874 1.097657 1.695312 2.21875 1.695312h10.273438c1.296875 0 2.171875-.832031 2.171875-2.066406v-.121094l-.125-.53125-8.824219-30.78125 14.992187-23.601562.019532-.027344c.464844-.796875.523437-1.511719.167968-2.117188zm-27.886719 23.050781c.210938.332031.539062.554687.921875.628906.605469.121094 1.355469-.132813 1.675781-.976563l13.148438-20.976562.019531-.035156c.0625-.109375.074219-.109375.179687-.109375h9.164063l-14.539063 22.886719c-.132812.160156-.238281.347656-.304687.550781-.074219.214843-.109375.441406-.109375.695312v.171875l8.851562 30.875h-9.652343l-5.734375-21.296875c-.058594-.472656-.300782-.765625-.496094-.925781-.328125-.269531-.75-.367188-1.191406-.285156-.378906.074218-.714844.257812-1 .539062l-.074219.070313-2.898437 4.324219c-.078126.085937-.152344.183593-.21875.28125-.183594.261718-.285157.574218-.300782.882812l-2.003906 16.410156h-9.027344l6.925782-55.179687h9.027343l-2.546875 20.277343c-.097656.449219-.035156.847657.179688 1.1875zm0 0"/><path d="m38.855469 247.417969c.375-.367188.617187-.820313.730469-1.363281l1.015624-8.007813c.121094-.648437-.035156-1.25-.460937-1.730469-.410156-.464844-.964844-.710937-1.609375-.710937h-32.417969c-.609375 0-1.15625.222656-1.585937.644531-.378906.371094-.625.824219-.730469 1.363281l-1.023437 8.078125-.011719.140625c0 1.335938.875 2.230469 2.175781 2.230469h8.742188l-5.679688 45.269531c-.121094.644531.039062 1.242188.457031 1.71875.410157.46875.964844.714844 1.613281.714844h9.597657c.609375 0 1.160156-.222656 1.589843-.644531.375-.367188.617188-.820313.726563-1.34375l.011719-.054688 5.730468-45.660156h9.542969c.605469 0 1.15625-.21875 1.585938-.644531zm-22.597657.089843c.175782-.613281-.035156-1.054687-.179687-1.265624-.167969-.25-.566406-.667969-1.378906-.667969h-9.40625l.949219-7.480469h31.84375s-.945313 7.480469-.945313 7.480469h-10.144531c-.441406 0-.847656.164062-1.164063.480469-.304687.292968-.476562.671874-.496093 1.0625l-5.796876 46.15625h-9.027343zm0 0"/><path d="m77.695312 236.320312-.023437-.03125c-.40625-.449218-.953125-.683593-1.585937-.683593h-9.597657c-.609375 0-1.15625.222656-1.585937.644531-.378906.371094-.625.824219-.730469 1.347656l-2.710937 21.820313h-6.496094l2.738281-21.4375.007813-.140625c0-1.335938-.871094-2.230469-2.171876-2.230469h-9.515624c-.605469 0-1.152344.21875-1.585938.644531-.378906.367188-.621094.820313-.726562 1.34375l-.011719.050782-6.988281 55.679687c-.121094.648437.039062 1.242187.460937 1.71875.40625.46875.960937.714844 1.609375.714844h9.515625c.585937 0 1.113281-.199219 1.570313-.589844.4375-.375.71875-.84375.828124-1.394531l2.710938-21.910156h6.496094l-2.730469 21.457031c-.117187.648437.042969 1.246093.460937 1.71875.410157.46875.964844.714843 1.613282.714843h9.597656c.609375 0 1.15625-.21875 1.585938-.644531.375-.367187.621093-.816406.730468-1.339843l.011719-.054688 6.984375-55.683594c.121094-.644531-.039062-1.238281-.457031-1.722656zm-16.765624 33.0625h-8.167969c-1.144531 0-1.710938.8125-1.746094 1.546876l-2.761719 22.34375h-9.027344l6.925782-55.179688h9.027344l-2.8125 22.011719-.007813.140625c0 1.085937.796875 1.65625 1.578125 1.65625h8.167969c.277343 0 1.207031-.085938 1.65625-1.1875l.066406-.152344 2.785156-22.472656h9.027344s-6.925781 55.183594-6.925781 55.183594h-9.027344l2.8125-22.078126.011719-.15625c0-1.089843-.796875-1.65625-1.582031-1.65625zm0 0"/><path d="m98.820312 244.914062c-1.859374 0-3.449218.667969-4.726562 1.988282-1.226562 1.261718-1.976562 2.925781-2.234375 4.953125l-3.441406 27.269531c-.070313.316406-.109375.714844-.109375 1.226562 0 1.789063.503906 3.261719 1.496094 4.371094 1.027343 1.148438 2.386718 1.730469 4.042968 1.730469 1.914063 0 3.53125-.664063 4.824219-2 1.214844-1.257813 1.960937-2.921875 2.21875-4.933594l3.441406-27.277343c.070313-.3125.109375-.710938.109375-1.21875 0-1.789063-.507812-3.261719-1.5-4.375-1.03125-1.148438-2.417968-1.734376-4.128906-1.734376zm3.132813 6.105469c0 .488281-.042969.667969-.046875.683594l-.015625.058594-3.464844 27.441406c-.1875 1.472656-.710937 2.664063-1.554687 3.535156-.800782.824219-1.789063 1.230469-3.019532 1.230469-.929687 0-1.644531-.296875-2.191406-.90625-.578125-.644531-.859375-1.535156-.859375-2.710938 0-.480468.035157-.652343.046875-.679687l.011719-.058594 3.46875-27.445312c.1875-1.476563.710937-2.664063 1.550781-3.535157.800782-.824218 1.765625-1.226562 2.9375-1.226562.984375 0 1.726563.292969 2.269532.902344.582031.648437.863281 1.535156.863281 2.714844zm0 0"/><path d="m115.804688 252.617188c.117187-1.261719.175781-2.164063.175781-2.753907 0-4.570312-1.46875-8.242187-4.359375-10.921875-2.863282-2.652344-6.773438-4-11.621094-4-5.285156 0-9.785156 1.601563-13.371094 4.761719-3.585937 3.15625-5.734375 7.410156-6.386718 12.640625l-3.285157 26.367188v.035156c-.121093 1.230468-.179687 2.160156-.179687 2.75 0 4.570312 1.449218 8.242187 4.308594 10.917968 2.835937 2.660157 6.734374 4.003907 11.585937 4.003907 5.28125 0 9.792969-1.601563 13.410156-4.757813 3.617188-3.160156 5.78125-7.414062 6.433594-12.648437l3.285156-26.375v-.027344zm-2.316407-2.75c0 .5-.050781 1.34375-.160156 2.496093l-3.28125 26.347657c-.578125 4.609374-2.460937 8.335937-5.605469 11.082031-3.148437 2.75-7.105468 4.144531-11.769531 4.144531-4.199219 0-7.523437-1.121094-9.882813-3.332031-2.339843-2.1875-3.523437-5.25-3.523437-9.101563 0-.511718.050781-1.355468.160156-2.492187l3.28125-26.355469c.574219-4.605469 2.449219-8.335938 5.566407-11.082031 3.117187-2.75 7.0625-4.140625 11.722656-4.140625 4.203125 0 7.542968 1.125 9.933594 3.335937 2.363281 2.1875 3.558593 5.25 3.558593 9.097657zm0 0"/><path d="m158.28125 236.320312c-.410156-.46875-.964844-.714843-1.609375-.714843h-9.515625c-.609375 0-1.15625.222656-1.585938.644531-.378906.371094-.621093.824219-.730468 1.34375l-3.132813 25.585938-5.035156-25.757813c-.234375-1.117187-1.054687-1.816406-2.144531-1.816406h-10.695313c-.609375 0-1.15625.222656-1.585937.644531-.378906.371094-.621094.824219-.730469 1.34375l-.011719.054688-6.984375 55.675781c-.117187.648437.039063 1.246093.457031 1.71875.410157.46875.964844.714843 1.613282.714843h9.429687c.585938 0 1.113281-.199218 1.570313-.585937.4375-.375.71875-.847656.832031-1.394531l.007813-.035156 3.117187-25.453126 4.878906 25.667969.027344.101563c.328125 1.066406 1.148437 1.703125 2.199219 1.703125h10.78125c.605468 0 1.15625-.222657 1.585937-.644531.375-.367188.617188-.816407.726563-1.339844l.011718-.058594 6.984376-55.683594c.117187-.644531-.042969-1.238281-.457032-1.71875zm-2.058594 1.773438-6.925781 55.179688h-10.472656s-6.03125-31.714844-6.03125-31.714844l-.042969-.152344c-.222656-.648438-.78125-1.046875-1.421875-1.046875-.097656 0-.195313.007813-.296875.027344-.695312.140625-1.171875.695312-1.203125 1.398437l-3.859375 31.488282h-8.941406l6.925781-55.179688h10.304687l6.199219 31.71875.039063.136719c.253906.761719.957031 1.1875 1.710937 1.03125.703125-.136719 1.179688-.695313 1.214844-1.398438l3.855469-31.488281zm0 0"/></g></svg>