<svg fill="none" height="287" viewBox="0 0 162 287" width="162" xmlns="http://www.w3.org/2000/svg" xmlns:xlink="http://www.w3.org/1999/xlink"><linearGradient id="a"><stop offset="0" stop-color="#960000"/><stop offset="1" stop-color="#b503ff"/></linearGradient><linearGradient id="b" gradientUnits="userSpaceOnUse" x1="39.6827" x2="179.183" xlink:href="#a" y1="256.737" y2="131.882"/><linearGradient id="c" gradientUnits="userSpaceOnUse" x1="33.9969" x2="173.497" xlink:href="#a" y1="250.385" y2="125.529"/><linearGradient id="d" gradientUnits="userSpaceOnUse" x1="18.2975" x2="158.577" xlink:href="#a" y1="234.006" y2="108.84"/><linearGradient id="e" gradientUnits="userSpaceOnUse" x1="3.3628" x2="143.643" xlink:href="#a" y1="217.159" y2="91.9935"/><linearGradient id="f" gradientUnits="userSpaceOnUse" x1="-15.8782" x2="137.574" xlink:href="#a" y1="222.893" y2="85.5508"/><linearGradient id="g" gradientUnits="userSpaceOnUse" x1="-14.4026" x2="125.721" xlink:href="#a" y1="194.271" y2="68.8598"/><linearGradient id="h" gradientUnits="userSpaceOnUse" x1="33.1428" x2="155.161" y1="144.949" y2="144.949"><stop offset="0" stop-color="#f70d29"/><stop offset="1" stop-color="#ec03ff"/></linearGradient><path d="m138.102 129.395c-9.419 0-17.055 6.774-17.055 15.13v47.35c0 8.355 7.636 15.13 17.055 15.13s17.055-6.775 17.055-15.13v-47.35c0-8.356-7.636-15.13-17.055-15.13z" fill="url(#b)"/><path d="m138.102 106.553c-9.419 0-17.055 6.774-17.055 15.13v70.098c0 8.356 7.636 15.13 17.055 15.13s17.055-6.774 17.055-15.13v-70.098c0-8.356-7.636-15.13-17.055-15.13z" fill="url(#c)"/><g opacity=".2"><path d="m155.158 110.26c0 .083-.013.163-.013.246 0 .084.013.163.013.247z" fill="url(#d)"/><path d="m121.551 110.755c0-.084.013-.163.013-.247 0-.083-.013-.163-.013-.246z" fill="url(#e)"/></g><path d="m154.541 84.1022v.5425c0-9.1017-7.359-16.4797-16.435-16.4797-9.077 0-16.438 7.378-16.438 16.4797v-.5425c0 9.1017 7.359 16.4798 16.438 16.4798 9.078 0 16.435-7.3781 16.435-16.4798z" fill="url(#f)"/><path d="m11.8381 215.532c-9.12219-3.447-13.73019-13.654-10.29383-22.797l40.27193-104.0377c3.4364-9.1454 13.6167-13.7652 22.7411-10.3201v-.6562c9.1222 3.4451 13.7324 13.6536 10.2938 22.797l-40.2698 104.692c-3.4363 9.145-13.6167 13.765-22.741 10.322z" fill="url(#g)"/><path d="m155.161 189.071c-7.418 6.562-13.94 3.272-18-4.047l-44.8365-97.4474c-6.1505-12.5883-21.8137-15.0338-28.7977-14.1873s-17.2953 5.4378-20.9476 13.5311l-9.4386 24.0606s20.4567-14.983 32.8975 4.351l41.3369 86.74c5.788 12.149 20.522 18.166 32.64 12.363 8.044-3.854 14.291-12.223 15.026-20.524.12-1.341.12-4.84.12-4.84z" fill="url(#h)"/><g fill="#f70d29"><path d="m85.2265 174.907v.488c0-8.192-6.624-14.833-14.7949-14.833s-14.7949 6.641-14.7949 14.833v-.488c0 8.192 6.624 14.833 14.7949 14.833s14.7949-6.641 14.7949-14.833z" stroke="#f70d29" stroke-miterlimit="10" stroke-width=".599638"/><path d="m43.7456 1.17398c-.2935-.33526-.6969-.512913-1.1658-.512913h-9.6071c-.4507 0-.856.164899-1.1741.476473-.2917.28698-.4816.63773-.5625 1.04223l-.0045.0246-2.7644 22.36783h-7.6978l2.8234-22.18016.0055-.04099v-.04191c0-1.01672-.6061-1.648984-1.5812-1.648984h-9.5226c-.4498 0-.856.164898-1.174.476474-.2917.28698-.4817.63773-.5625 1.04223l-.0046.02369-6.99353 55.93425c-.08815.4691.02272.8973.32169 1.2381.29261.337.69608.5147 1.16771.5147h9.52253c.4407 0 .8397-.1512 1.1841-.4482.3362-.2888.5498-.6487.6361-1.0696l.0054-.0255 2.7644-22.4517h7.6978l-2.8207 22.2412c-.0881.4692.0227.8974.3217 1.2381.2926.3371.6961.5148 1.1677.5148h9.6071c.4507 0 .856-.1649 1.1741-.4765.2898-.2851.4798-.635.5625-1.0404l.0054-.0246 6.9918-55.93511c.0872-.46737-.0246-.89465-.3236-1.23902zm-.9641 1.00579-.0046.02369-6.9935 55.92694c-.0318.1385-.0927.2487-.1918.3453-.0736.0728-.149.102-.2589.102h-9.6071c-.1245 0-.1572-.0373-.1827-.0665-.0209-.0237-.039-.0446-.019-.1394l.0054-.0246 2.868-22.612.0054-.041v-.0419c0-.7389-.498-1.0696-.9914-1.0696h-8.174c-.777 0-1.1377.5047-1.1586 1.0213l-2.7735 22.5255c-.0299.123-.0945.2241-.2026.317-.1054.0911-.2081.1312-.3317.1312h-9.52163c-.12449 0-.15721-.0373-.18265-.0665-.0209-.0237-.03908-.0446-.01908-.1394l.00545-.0246 6.99351-55.92874c.0309-.13665.0918-.24598.1909-.34346.0736-.07288.149-.10204.259-.10204h9.5225c.1963 0 .2672 0 .2726.29792l-2.8597 22.46082-.0055.041v.0419c0 .7388.498 1.0695.9914 1.0695h8.174c.2327 0 .8079-.0802 1.1105-.8208l.0336-.0811 2.788-22.56374c.0309-.13665.0918-.24598.1908-.34346.0736-.07288.149-.10204.259-.10204h9.6071c.1245 0 .159.04009.1808.06469.0209.02369.04.04555.0209.14303z"/><path d="m74.0665 2.10702c-.1718-.91833-.7742-1.444911-1.6539-1.444911h-11.0392c-.9114 0-1.5521.486491-1.8047 1.371111l-18.9551 55.91508-.0046.0155c-.1826.5867-.1436 1.0641.1163 1.4194.17.2314.5125.5084 1.1814.5084h9.5225c.916 0 1.5585-.492 1.8084-1.3839l2.3418-7.8823h10.0368l.3272 7.7156c.0064.9566.6107 1.5506 1.5812 1.5506h9.8597c.975 0 1.5811-.5685 1.5811-1.4832v-.277l-4.8898-55.9597-.0091-.06377zm3.5904 56.30048c0 .0738-.01.1166-.0164.133-.0182.01-.089.0392-.2562.0392h-9.8597c-.1827 0-.2372-.0392-.2372-.0392s-.0354-.0501-.0354-.215l-.3326-7.8523c.0781-.3371-.0509-.6842-.3572-.9101-.2271-.1658-.4698-.2496-.7224-.2496h-10.3649c-.7434 0-1.106.4628-1.1541.9556l-2.3382 7.8696-.0036.0119c-.09.3252-.2236.43-.5498.43h-9.5225c-.0409 0-.0745-.0019-.1-.0046.0055-.0474.0191-.1166.0482-.2123l18.9578-55.92506.0109-.03462c.0909-.32615.2245-.43001.5498-.43001h11.0392c.1627 0 .2917 0 .3626.34619l4.8817 55.8677z"/><path d="m65.4449 17.7344c-.2199-.6413-.7224-.6914-.8714-.6914-.1491 0-.657.0501-.8733.696l-.0046.0137-6.4837 22.571c-.1609.4236-.0582.7179.0581.8928.1182.1767.3562.3881.8142.3881h7.3316c.6434 0 1.0751-.43 1.0751-1.0696l-1.016-22.7113-.0309-.0893zm-6.8636 22.5583 5.7014-19.8461.8887 19.8461z"/><path d="m119.149 16.9089.007-.0528c.115-1.1397.172-1.9734.172-2.5482 0-4.35843-1.373-7.87323-4.081-10.446-2.699-2.56185-6.423-3.8619-11.068-3.8619-5.0831 0-9.4105 1.52964-12.8591 4.547-3.455 3.02192-5.4996 7.1161-6.0757 12.1606l-3.3705 26.8073-.0027.021c-.1136 1.2189-.1718 2.13-.1718 2.7085 0 4.3611 1.3731 7.875 4.0802 10.446 2.6962 2.5627 6.392 3.8619 10.9838 3.8619 5.0278 0 9.3408-1.5442 12.8178-4.588 3.478-3.0447 5.565-7.1781 6.202-12.2854l.083-.8136c.083-.4646-.028-.8882-.325-1.2308-.29-.3316-.688-.5083-1.15-.5129l-9.51-.4136h-.028c-.451 0-.856.164-1.174.4765-.292.2869-.482.6377-.563 1.0422l-.261 2.2803c-.207 1.4595-.749 2.5901-1.656 3.4556-.893.8527-1.9586 1.2673-3.2572 1.2673-1.0587 0-1.882-.3253-2.5181-.9958-.6443-.6787-.9569-1.5725-.9569-2.7331 0-.4118.0346-.6332.0636-.7471l.01-.041 3.5441-28.5811c.2026-1.4422.7624-2.622 1.6629-3.5066.8926-.8764 1.9286-1.3019 3.1656-1.3019 1.115 0 1.966.3262 2.602.9958.644.6796.958 1.5743.958 2.734 0 .502-.04.737-.065.8327l-.01.041-.258 2.1938-.001.0155c-.046.491.066.8882.331 1.1816.268.2952.66.4455 1.162.4455l9.623-.4136c.444-.0037.844-.1686 1.159-.4765.289-.2852.478-.635.562-1.0404l.171-.922zm-1.291-.2132-.162.8764c-.031.1458-.093.2606-.196.3617-.073.0729-.149.1021-.259.1021l-9.619.4136c-.096-.0009-.149-.0128-.176-.021-.005-.0255-.011-.0774-.003-.1649l.247-2.1045c.062-.2733.093-.6368.093-1.1078 0-1.4914-.443-2.7149-1.317-3.6378-.885-.9311-2.079-1.403-3.55-1.403-1.575 0-2.9477.5639-4.0809 1.6763-1.1132 1.0933-1.8011 2.5282-2.0437 4.2664l-3.5359 28.5174c-.0636.2687-.0936.6058-.0936 1.0295 0 1.4923.4435 2.7158 1.3176 3.6368.8824.9311 2.0492 1.404 3.4659 1.404 1.6276 0 3.0266-.5485 4.1586-1.629 1.116-1.0641 1.805-2.4871 2.051-4.2309l.251-2.2193c.031-.1348.092-.2441.191-.3407.072-.0701.144-.1002.247-.102l9.506.4127h.028c.124 0 .159.0401.181.0647.021.0237.04.0464.021.143l-.093.8828c-.597 4.7748-2.535 8.6285-5.763 11.4536-3.232 2.8297-7.255 4.2646-11.9572 4.2646-4.2456 0-7.6387-1.178-10.0832-3.5021-2.4363-2.3131-3.6722-5.5072-3.6722-9.4939 0-.5366.0555-1.403.1645-2.5764l3.3705-26.8047c.5388-4.7173 2.4354-8.52911 5.6368-11.32964 3.2042-2.80236 7.2416-4.22358 11.9998-4.22358 4.299 0 7.72 1.17797 10.168 3.50203 2.436 2.31587 3.672 5.50999 3.672 9.49399 0 .5183-.055 1.3228-.163 2.3887z"/><path d="m161.71 1.27433c-.164-.279691-.527-.612221-1.322-.612221h-10.113c-.796 0-1.426.368061-1.825 1.064091l-12.191 19.5163 2.368-18.89041v-.041c0-1.01672-.607-1.648981-1.582-1.648981h-9.522c-.45 0-.856.164899-1.174.476471-.292.28698-.482.63773-.563 1.04223l-.004.02369-6.995 55.9324c-.088.4683.023.8955.322 1.2381.293.3362.696.5138 1.167.5138h9.522c.441 0 .84-.1512 1.184-.4482.337-.2888.55-.6487.636-1.0696l.006-.0264 2.025-16.6565.005-.0392v-.0018c.024-.0319.043-.0529.056-.0656l.048-.0474 2.523-3.7881 5.606 20.9011c.184.7889.783 1.2417 1.646 1.2417h10.28c.975 0 1.581-.5685 1.581-1.4832v-.0819l-.104-.4109-8.904-31.1767.018-.0173 15.125-23.89297.013-.02095c.35-.6022.407-1.11603.167-1.53146zm-1.291.86184-15.045 23.76723c-.099.1139-.175.2469-.225.3963-.051.1503-.077.3152-.077.5029v.092l8.956 31.3543.058.2287c-.004.0328-.009.0538-.014.0638-.018.0091-.089.0392-.256.0392h-10.281c-.32 0-.342-.0984-.373-.2333l-.003-.0127-5.8-21.6235c-.027-.3016-.171-.4829-.294-.5849-.187-.1549-.432-.2123-.695-.1613-.267.0538-.505.1822-.708.3808l-.048.0474-2.87 4.3092c-.071.0756-.137.1604-.197.2496-.122.1777-.19.3891-.198.6132l-2.015 16.5672c-.03.1221-.094.2232-.201.3162-.106.0911-.208.1312-.332.1312h-9.523c-.124 0-.157-.0374-.18-.0647l-.002-.0019c-.021-.0236-.039-.0446-.019-.1393l.005-.0246 6.995-55.92878c.031-.13666.091-.2469.19-.34347.075-.07288.149-.10203.259-.10203h9.523c.196 0 .267 0 .273.29882l-2.603 20.77076c-.067.298-.034.5549.099.7662.122.1923.316.3234.542.3663.383.0783.835-.0993 1.026-.6587l13.183-21.10699.015-.0246c.165-.29245.366-.41179.695-.41179h10.112c.044 0 .081.00182.112.00455-.019.04282-.045.09475-.082.15852z"/></g><path d="m35.5203 237.954c.2899-.285.4798-.635.5625-1.04l.0055-.025 1.0114-8.029c.0872-.467-.0236-.894-.3217-1.237l-.0018-.002c-.2935-.335-.697-.513-1.1659-.513h-32.44335c-.45073 0-.85601.165-1.17407.477-.2917.287-.48162.638-.56249 1.042l-.00455.024-1.014155 8.049-.005435.041v.041c0 1.017.60611 1.649 1.58117 1.649h9.42258l-5.77132 46.153c-.08815.469.02272.897.32169 1.238.29261.337.6961.515 1.16773.515h9.607c.4508 0 .8561-.165 1.1741-.477.2899-.285.4798-.635.5625-1.04l.0055-.025 5.7976-46.363h10.0733c.4507 0 .856-.165 1.1741-.477zm-11.4545-.834c-.2844 0-.5452.107-.7524.311-.199.195-.3099.44-.3217.709l-5.8067 46.439c-.0318.138-.0927.248-.1918.345-.0736.073-.149.102-.2581.102h-9.607c-.1245 0-.15721-.037-.18266-.067-.0209-.023-.03907-.044-.01908-.139l.00544-.025 5.8086-46.452c.129-.4.0036-.679-.0872-.816-.1245-.186-.3799-.406-.8897-.406h-9.77517c-.19628 0-.26716 0-.27261-.299l1.00232-7.955c.0309-.137.09177-.247.19173-.345.07361-.073.14904-.102.259-.102h32.44333c.1218 0 .1581.039.1809.065.0209.024.0399.046.0199.143l-.0045.024-1.0105 8.02c-.0318.139-.0927.249-.1917.346-.0737.073-.1491.102-.2581.102h-10.2804z" fill="#ec03ff"/><path d="m74.3598 227.621c-.2935-.335-.6969-.513-1.1658-.513h-9.6071c-.4498 0-.856.165-1.1741.477-.2926.287-.4816.638-.5625 1.042l-.0045.025-2.7644 22.367h-7.6978l2.8234-22.18.0055-.041v-.042c0-1.016-.6061-1.649-1.5812-1.649h-9.5225c-.4508 0-.8561.165-1.1741.477-.2917.287-.4817.638-.5625 1.042l-.0046.024-6.9944 55.932c-.0882.469.0227.897.3216 1.238.2927.337.6961.515 1.1678.515h9.5225c.4407 0 .8397-.15 1.185-.448.3362-.289.5498-.649.6361-1.069l.0054-.025 2.7644-22.452h7.6978l-2.8207 22.241c-.089.469.0228.898.3217 1.238.2926.337.6961.515 1.1677.515h9.6071c.4507 0 .856-.165 1.1741-.476.2899-.286.4798-.635.5625-1.041l.0054-.024 6.9945-55.936c.0863-.467-.0246-.894-.3235-1.239zm-.965 1.006-.0046.024-6.9935 55.927c-.0318.138-.0927.248-.1918.345-.0736.073-.149.102-.258.102h-9.6071c-.1245 0-.1572-.037-.1826-.067-.0209-.023-.0391-.044-.0191-.139l.0045-.025 2.868-22.612.0054-.041v-.041c0-.739-.498-1.07-.9914-1.07h-8.174c-.777 0-1.1377.505-1.1586 1.021l-2.7735 22.526c-.03.123-.0945.224-.2017.317-.1054.091-.2081.131-.3326.131h-9.5225c-.1245 0-.1573-.037-.1827-.067-.0209-.023-.0391-.044-.0191-.139l.0055-.025 6.9935-55.928c.0309-.137.0918-.246.1909-.344.0736-.073.149-.102.259-.102h9.5225c.1963 0 .2672 0 .2726.298l-2.8597 22.461-.0055.041v.042c0 .739.498 1.069.9914 1.069h8.174c.2326 0 .8079-.08 1.1105-.82l.0336-.082 2.788-22.563c.0309-.137.0918-.246.1908-.344.0736-.073.149-.102.2581-.102h9.607c.1245 0 .1591.04.1809.065.0209.024.04.045.02.143z" fill="#ec03ff"/><path d="m95.9437 236.457c-1.6938 0-3.1423.61-4.3037 1.813-1.1359 1.174-1.8338 2.734-2.0755 4.635l-3.4505 27.433c-.0636.271-.0945.636-.0945 1.112 0 1.651.4526 2.995 1.3459 3.995.9114 1.024 2.1246 1.543 3.6058 1.543 1.7484 0 3.2251-.61 4.3882-1.813 1.135-1.175 1.8329-2.734 2.0747-4.635l3.4499-27.433c.064-.275.094-.639.094-1.111 0-1.647-.452-2.991-1.3467-3.995-.9141-1.023-2.1555-1.542-3.6894-1.542zm3.6631 6.37-.01.038-3.4595 27.508c-.2054 1.614-.7833 2.921-1.7166 3.889-.9205.951-2.0483 1.413-3.4486 1.413-1.1077 0-1.9683-.361-2.6308-1.105-.6815-.763-1.0132-1.783-1.0132-3.12 0-.48.0345-.716.0636-.83l.01-.04 3.4604-27.51c.2045-1.613.7824-2.921 1.7166-3.887.9187-.951 2.0192-1.414 3.3641-1.414 1.1623 0 2.051.362 2.7144 1.105.6824.766 1.0132 1.787 1.0132 3.121 0 .501-.04.737-.0645.833z" fill="#ec03ff"/><path d="m112.354 243.545c.116-1.249.172-2.135.172-2.708 0-4.417-1.403-7.961-4.17-10.533-2.755-2.559-6.534-3.857-11.2313-3.857-5.1406 0-9.5107 1.558-12.9884 4.632-3.4786 3.074-5.565 7.221-6.1993 12.325l-3.2869 26.477-.0018.02c-.1136 1.22-.1717 2.131-.1717 2.709 0 4.416 1.3876 7.959 4.1256 10.53 2.7253 2.561 6.4901 3.86 11.1919 3.86 5.1388 0 9.5216-1.558 13.0279-4.63 3.507-3.073 5.607-7.221 6.244-12.328l3.287-26.476.002-.021zm-1.301-.131-3.285 26.465c-.595 4.778-2.549 8.647-5.807 11.502-3.2614 2.857-7.3552 4.306-12.1678 4.306-4.3583 0-7.8224-1.179-10.2968-3.505-2.4627-2.313-3.7113-5.535-3.7113-9.574 0-.536.0555-1.402.1645-2.577l3.2851-26.466c.5943-4.778 2.5344-8.648 5.7667-11.504 3.2324-2.856 7.3107-4.304 12.1233-4.304 4.3573 0 7.8373 1.18 10.3413 3.507 2.489 2.315 3.751 5.535 3.751 9.572 0 .524-.055 1.39-.164 2.577z" fill="#ec03ff"/><path d="m155.002 227.621c-.294-.335-.697-.513-1.166-.513h-9.522c-.451 0-.856.165-1.175.477-.291.287-.481.638-.562 1.042l-.005.025-3.579 29.339-5.751-29.533c-.177-.858-.748-1.351-1.568-1.351h-10.702c-.451 0-.856.165-1.174.477-.292.287-.482.638-.563 1.042l-.004.024-6.995 55.932c-.088.469.023.897.322 1.238.293.337.696.515 1.168.515h9.438c.441 0 .84-.151 1.184-.448.336-.289.55-.649.636-1.069l.006-.025 3.574-29.298 5.586 29.48.018.069c.254.833.835 1.291 1.636 1.291h10.787c.451 0 .856-.165 1.174-.476.29-.286.48-.635.562-1.041l.006-.024 6.994-55.936c.088-.467-.024-.894-.323-1.239zm-.964 1.006-.005.024-6.993 55.927c-.032.138-.093.248-.192.345-.074.073-.149.102-.258.102h-10.787c-.125 0-.266 0-.376-.333l-6.06-31.981-.009-.046-.016-.045c-.161-.471-.578-.727-1.042-.637-.432.088-.716.432-.734.885l-3.869 31.709c-.03.122-.094.223-.202.316-.106.091-.208.131-.332.131h-9.438c-.125 0-.157-.037-.183-.066-.021-.024-.039-.045-.019-.14l.006-.024 6.993-55.929c.031-.137.092-.246.191-.344.074-.073.149-.102.259-.102h10.702c.14 0 .224 0 .285.297l6.236 32.02.008.042.014.041c.16.477.58.735 1.04.642.434-.085.72-.429.738-.886l3.87-31.711c.031-.137.091-.246.19-.343.074-.073.15-.102.259-.102h9.522c.125 0 .159.04.181.065.021.024.04.046.02.143z" fill="#ec03ff"/></svg>