<svg fill="none" height="79" viewBox="0 0 514 79" width="514" xmlns="http://www.w3.org/2000/svg" xmlns:xlink="http://www.w3.org/1999/xlink"><linearGradient id="a"><stop offset="0" stop-color="#960000"/><stop offset="1" stop-color="#b503ff"/></linearGradient><linearGradient id="b" gradientUnits="userSpaceOnUse" x1="214.74" x2="287.467" xlink:href="#a" y1="98.3111" y2="33.2193"/><linearGradient id="c" gradientUnits="userSpaceOnUse" x1="211.776" x2="284.503" xlink:href="#a" y1="94.9993" y2="29.9064"/><linearGradient id="d" gradientUnits="userSpaceOnUse" x1="204.012" x2="276.714" xlink:href="#a" y1="86.0795" y2="21.2103"/><linearGradient id="e" gradientUnits="userSpaceOnUse" x1="196.167" x2="268.87" xlink:href="#a" y1="77.3477" y2="12.4785"/><linearGradient id="f" gradientUnits="userSpaceOnUse" x1="185.773" x2="265.774" xlink:href="#a" y1="80.6661" y2="9.06393"/><linearGradient id="g" gradientUnits="userSpaceOnUse" x1="186.543" x2="259.595" xlink:href="#a" y1="65.7443" y2=".362464"/><linearGradient id="h" gradientUnits="userSpaceOnUse" x1="211.329" x2="274.942" y1="40.0303" y2="40.0303"><stop offset="0" stop-color="#f70d29"/><stop offset="1" stop-color="#ec03ff"/></linearGradient><path d="m266.05 31.9224c-4.91 0-8.891 3.5317-8.891 7.8879v24.6855c0 4.3562 3.981 7.8879 8.891 7.8879 4.911 0 8.892-3.5317 8.892-7.8879v-24.6855c0-4.3562-3.981-7.8879-8.892-7.8879z" fill="url(#b)"/><path d="m266.05 20.0134c-4.91 0-8.891 3.5317-8.891 7.8879v36.5454c0 4.3561 3.981 7.8879 8.891 7.8879 4.911 0 8.892-3.5318 8.892-7.8879v-36.5454c0-4.3562-3.981-7.8879-8.892-7.8879z" fill="url(#c)"/><g opacity=".2"><path d="m274.942 21.9463c0 .0433-.007.0844-.007.1277s.007.0844.007.1277z" fill="url(#d)"/><path d="m257.42 22.2017c0-.0433.007-.0844.007-.1277s-.007-.0844-.007-.1277z" fill="url(#e)"/></g><path d="m274.62 8.30871v.28281c0-4.74507-3.837-8.59152-8.569-8.59152s-8.569 3.84645-8.569 8.59152v-.28281c0 4.74509 3.836 8.59149 8.569 8.59149s8.569-3.8464 8.569-8.59149z" fill="url(#f)"/><path d="m200.224 76.8287c-4.756-1.7972-7.159-7.1182-5.367-11.8849l20.995-54.2393c1.792-4.76782 7.099-7.17628 11.856-5.3802v-.34211c4.756 1.79608 7.16 7.11821 5.367 11.88491l-20.994 54.5802c-1.792 4.7679-7.099 7.1763-11.856 5.3814z" fill="url(#g)"/><path d="m50.0878 3.00938c-.3674-.41966-.8725-.64203-1.4594-.64203h-12.0253c-.5642 0-1.0715.20641-1.4697.59641-.3651.35922-.6028.79826-.7041 1.30458l-.0056.03079-3.4602 27.99827h-9.6355l3.5341-27.76335.0068-.05132v-.05246c0-1.27265-.7587-2.06406-1.9792-2.06406h-11.9195c-.5631 0-1.07153.20641-1.46965.59641-.36512.35922-.60286.79826-.70409 1.30458l-.00569.02965-8.7539681 70.01395c-.1103346.5873.0284367 1.1232.4026641 1.5497.366266.422.871304.6443 1.461654.6443h11.91958c.5516 0 1.051-.1893 1.4821-.561.4209-.3615.6882-.812.7962-1.3388l.0068-.0319 3.4602-28.1032h9.6355l-3.5307 27.8397c-.1103.5873.0285 1.1233.4027 1.5498.3663.4219.8713.6443 1.4616.6443h12.0254c.5642 0 1.0715-.2064 1.4696-.5964.3628-.357.6006-.7949.7041-1.3023l.0068-.0308 8.7517-70.01507c.1092-.585-.0307-1.11983-.4049-1.55089zm-1.2069 1.25896-.0057.02965-8.7539 70.00481c-.0399.1733-.1161.3113-.2401.4322-.0921.0912-.1865.1277-.3241.1277h-12.0254c-.1558 0-.1968-.0468-.2286-.0832-.0262-.0297-.0489-.0559-.0239-.1745l.0068-.0308 3.5899-28.3039.0068-.0513v-.0525c0-.9248-.6233-1.3388-1.241-1.3388h-10.2315c-.9725 0-1.4241.6318-1.4503 1.2784l-3.4715 28.1955c-.0376.154-.1183.2806-.2537.3969-.1319.114-.2605.1642-.4152.1642h-11.91838c-.15584 0-.19679-.0468-.22864-.0832-.02616-.0297-.04891-.0559-.02388-.1745l.00682-.0308 8.75398-70.00708c.0387-.17106.1149-.3079.2389-.42992.0921-.09123.1865-.12772.3241-.12772h11.9196c.2457 0 .3344 0 .3412.3729l-3.5796 28.11462-.0068.0513v.0524c0 .9249.6233 1.3388 1.241 1.3388h10.2315c.2912 0 1.0112-.1003 1.39-1.0274l.0421-.1015 3.4897-28.24348c.0387-.17106.1149-.3079.2389-.42992.0922-.09123.1866-.12772.3242-.12772h12.0253c.1559 0 .1991.05017.2264.08096.0261.02965.05.05702.0261.17904z" fill="#f70d29"/><path d="m88.0383 4.17605c-.215-1.14949-.9691-1.80862-2.0702-1.80862h-13.818c-1.1408 0-1.9428.60896-2.259 1.71625l-23.7265 69.98992-.0057.0194c-.2286.7344-.1797 1.332.1456 1.7767.2127.2897.6416.6364 1.4788.6364h11.9195c1.1466 0 1.9508-.6158 2.2636-1.7323l2.9312-9.8664h12.5634l.4095 9.6577c.0079 1.1974.7644 1.941 1.9792 1.941h12.3415c1.2205 0 1.9792-.7116 1.9792-1.8566v-.3466l-6.1207-70.04588-.0114-.07983zm4.4942 70.47235c0 .0924-.0125.146-.0205.1665-.0228.0125-.1115.049-.3208.049h-12.3415c-.2287 0-.2969-.049-.2969-.049s-.0444-.0627-.0444-.2691l-.4163-9.8289c.0978-.4219-.0637-.8564-.447-1.1392-.2844-.2075-.5881-.3124-.9043-.3124h-12.974c-.9304 0-1.3843.5793-1.4446 1.1962l-2.9267 9.8505-.0045.0148c-.1126.4071-.2798.5383-.6882.5383h-11.9195c-.0512 0-.0933-.0023-.1252-.0057.0069-.0593.0239-.146.0603-.2657l23.7299-70.00255.0137-.04334c.1137-.40825.2809-.53825.6881-.53825h13.818c.2036 0 .3652 0 .4539.43334l6.1105 69.9307z" fill="#f70d29"/><path d="m77.2494 23.7379c-.2753-.8029-.9043-.8656-1.0908-.8656-.1866 0-.8224.0627-1.0931.8713l-.0057.0171-8.1159 28.2525c-.2013.5303-.0728.8986.0728 1.1176.1479.2212.4459.4858 1.0192.4858h9.1771c.8053 0 1.3456-.5383 1.3456-1.3388l-1.2716-28.4282-.0387-.1117zm-8.5913 28.2366 7.1365-24.8418 1.1124 24.8418z" fill="#f70d29"/><path d="m144.469 22.7047.009-.0661c.145-1.4266.215-2.47.215-3.1896 0-5.4555-1.718-9.85504-5.108-13.07544-3.378-3.20671-8.04-4.83401-13.853-4.83401-6.363 0-11.78 1.91468-16.097 5.69157-4.324 3.78258-6.884 8.90738-7.605 15.22158l-4.2185 33.5553-.0035.0262c-.1421 1.5258-.2149 2.6662-.2149 3.3903 0 5.459 1.7187 9.8574 5.1069 13.0755 3.375 3.2078 8.001 4.834 13.749 4.834 6.294 0 11.692-1.9329 16.044-5.7429 4.354-3.8111 6.966-8.9849 7.763-15.3778l.104-1.0184c.104-.5816-.034-1.1118-.406-1.5406-.363-.4151-.861-.6363-1.44-.642l-11.904-.5178h-.035c-.565 0-1.072.2053-1.47.5964-.365.3593-.603.7983-.704 1.3046l-.326 2.8544c-.26 1.8268-.938 3.242-2.074 4.3254-1.117 1.0673-2.451 1.5862-4.077 1.5862-1.325 0-2.355-.4071-3.152-1.2464-.806-.8496-1.197-1.9683-1.197-3.4211 0-.5155.043-.7926.079-.9351l.013-.0513 4.436-35.7756c.253-1.8052.954-3.282 2.081-4.3893 1.117-1.097 2.414-1.6295 3.963-1.6295 1.396 0 2.461.4082 3.257 1.2464.806.8507 1.199 1.9705 1.199 3.4222 0 .6284-.05.9226-.081 1.0423l-.012.0513-.324 2.746-.002.0194c-.057.6147.083 1.1119.415 1.4791.336.3694.826.5576 1.455.5576l12.045-.5177c.556-.0046 1.057-.211 1.45-.5964.363-.357.6-.7949.704-1.3023l.214-1.1541zm-1.615-.2668-.203 1.097c-.039.1825-.116.3262-.245.4528-.092.0912-.187.1277-.324.1277l-12.04.5177c-.121-.0011-.188-.016-.221-.0262-.007-.032-.014-.097-.005-.2064l.31-2.6343c.078-.3421.117-.7971.117-1.3867 0-1.8667-.555-3.3983-1.649-4.5534-1.107-1.1655-2.602-1.7562-4.443-1.7562-1.972 0-3.69.7059-5.109 2.0983-1.393 1.3684-2.254 3.1645-2.558 5.3403l-4.426 35.6957c-.079.3364-.117.7584-.117 1.2887 0 1.8679.555 3.3994 1.649 4.5523 1.105 1.1654 2.565 1.7573 4.339 1.7573 2.037 0 3.789-.6865 5.205-2.039 1.397-1.3319 2.26-3.1132 2.567-5.2958l.315-2.778c.039-.1687.115-.3056.239-.4265.09-.0878.18-.1254.309-.1277l11.898.5166h.036c.155 0 .199.0502.226.081.026.0296.05.0581.026.179l-.116 1.105c-.747 5.9767-3.173 10.8004-7.214 14.3367-4.045 3.542-9.081 5.3381-14.967 5.3381-5.314 0-9.561-1.4745-12.621-4.3836-3.049-2.8954-4.5964-6.8935-4.5964-11.8838 0-.6716.0694-1.7561.2059-3.2249l4.2185-33.5519c.675-5.9048 3.049-10.6761 7.056-14.18157 4.011-3.50776 9.065-5.28673 15.02-5.28673 5.382 0 9.664 1.47449 12.728 4.38356 3.049 2.89884 4.596 6.89694 4.596 11.88374 0 .6489-.068 1.6558-.204 2.9901z" fill="#f70d29"/><path d="m197.743 3.13376c-.206-.35009-.66-.76633-1.655-.76633h-12.658c-.996 0-1.786.46071-2.285 1.33195l-15.259 24.42892 2.963-23.64549v-.05132c0-1.27264-.759-2.06406-1.979-2.06406h-11.92c-.563 0-1.071.20641-1.47.59641-.365.35922-.602.79826-.704 1.30458l-.005.02965-8.755 70.01163c-.111.5862.028 1.121.402 1.5498.366.4208.871.6431 1.461.6431h11.919c.552 0 1.051-.1893 1.482-.561.421-.3615.689-.812.797-1.3388l.006-.0331 2.536-20.8493.006-.049v-.0023c.029-.0399.053-.0662.07-.0821l.06-.0593 3.158-4.7417 7.017 26.1623c.23.9876.98 1.5543 2.06 1.5543h12.868c1.221 0 1.979-.7116 1.979-1.8565v-.1026l-.13-.5143-11.145-39.0245.022-.0217 18.932-29.9072.016-.02623c.438-.75378.51-1.39695.21-1.91695zm-1.617 1.07878-18.832 29.74986c-.124.1426-.218.3091-.28.4961-.065.1881-.097.3945-.097.6295v.1151l11.21 39.2469.072.2862c-.004.0411-.011.0673-.017.0798-.022.0114-.111.0491-.32.0491h-12.869c-.401 0-.428-.1232-.467-.292l-.004-.0159-7.26-27.0666c-.034-.3775-.214-.6044-.367-.7321-.235-.1939-.542-.2657-.871-.2019-.334.0673-.632.2281-.886.4767l-.06.0593-3.592 5.3939c-.089.0947-.172.2007-.247.3125-.152.2224-.238.4869-.248.7674l-2.522 20.7376c-.037.1528-.118.2794-.252.3957-.132.114-.261.1642-.415.1642h-11.92c-.156 0-.197-.0467-.226-.0809l-.003-.0023c-.026-.0297-.048-.0559-.023-.1745l.006-.0308 8.755-70.00706c.039-.17106.115-.30904.239-.42992.094-.09123.187-.12772.325-.12772h11.919c.246 0 .335 0 .341.37404l-3.257 25.99916c-.085.3729-.042.6945.124.9591.152.2406.395.4048.678.4584.48.0981 1.045-.1243 1.284-.8245l16.502-26.41997.018-.03079c.207-.36605.459-.51544.871-.51544h12.657c.055 0 .102.00228.14.0057-.024.0536-.057.1186-.102.19842z" fill="#f70d29"/><g fill="#ec03ff"><path d="m326.399 15.9435c.362-.3569.6-.7948.704-1.3023l.007-.0308 1.266-10.05004c.109-.58501-.03-1.11984-.403-1.54862l-.002-.00228c-.368-.41966-.873-.64203-1.46-.64203h-40.61c-.564 0-1.071.20641-1.469.59641-.365.35922-.603.79826-.704 1.30458l-.006.02965-1.27 10.07513-.006.0513v.0513c0 1.2727.758 2.0641 1.979 2.0641h11.794l-7.224 57.771c-.11.5872.029 1.1221.403 1.5497.366.4219.871.6443 1.462.6443h12.025c.564 0 1.071-.2064 1.469-.5964.363-.3569.601-.7948.705-1.3023l.006-.0308 7.257-58.0344h12.609c.564 0 1.072-.2064 1.47-.5964zm-14.338-1.0446c-.356 0-.683.1346-.942.39-.249.2441-.388.5497-.403.8872l-7.268 58.1279c-.04.1733-.116.3113-.24.4322-.092.0912-.187.1277-.323.1277h-12.025c-.156 0-.197-.0467-.229-.0832-.026-.0297-.049-.0559-.024-.1745l.007-.0308 7.271-58.145c.161-.5006.004-.8507-.11-1.0217-.155-.2327-.475-.5086-1.113-.5086h-12.236c-.246 0-.334 0-.341-.3741l1.254-9.95766c.039-.17106.115-.30904.24-.43106.092-.09123.187-.12772.325-.12772h40.61c.152 0 .197.04789.226.08096.026.02965.05.05816.025.17904l-.006.02965-1.265 10.03979c-.039.1733-.116.3113-.24.4322-.092.0912-.186.1277-.323.1277h-12.868z"/><path d="m375.015 3.00938c-.367-.41966-.872-.64203-1.459-.64203h-12.025c-.563 0-1.072.20641-1.47.59641-.366.35922-.603.79826-.704 1.30458l-.006.03079-3.46 27.99827h-9.636l3.535-27.76335.006-.05132v-.05246c0-1.27265-.758-2.06406-1.979-2.06406h-11.919c-.565 0-1.072.20641-1.47.59641-.365.35922-.603.79826-.704 1.30458l-.006.02965-8.755 70.01165c-.11.5873.029 1.1221.403 1.5497.366.422.871.6443 1.461.6443h11.92c.552 0 1.051-.1881 1.483-.561.421-.3615.688-.812.797-1.3377l.006-.0319 3.461-28.1032h9.635l-3.531 27.8398c-.111.5873.029 1.1232.403 1.5497.366.422.871.6443 1.462.6443h12.025c.564 0 1.071-.2064 1.47-.5964.362-.3569.6-.7948.704-1.3023l.006-.0307 8.756-70.01511c.108-.585-.031-1.11983-.405-1.55089zm-1.208 1.25896-.005.02965-8.754 70.00481c-.04.1733-.116.3113-.24.4322-.093.0912-.187.1277-.323.1277h-12.026c-.156 0-.197-.0468-.228-.0832-.027-.0297-.049-.0559-.024-.1745l.005-.0308 3.59-28.3039.007-.0513v-.0525c0-.9248-.623-1.3388-1.241-1.3388h-10.231c-.973 0-1.425.6318-1.451 1.2784l-3.471 28.1955c-.038.154-.119.2806-.253.3969-.132.114-.26.1642-.416.1642h-11.92c-.156 0-.196-.0468-.228-.0832-.026-.0297-.049-.0559-.024-.1745l.007-.0308 8.754-70.00708c.038-.17106.114-.3079.238-.42992.093-.09123.187-.12772.325-.12772h11.919c.246 0 .335 0 .341.3729l-3.579 28.11462-.007.0513v.0524c0 .9249.623 1.3388 1.241 1.3388h10.232c.291 0 1.011-.1003 1.39-1.0274l.042-.1015 3.489-28.24348c.039-.17106.115-.3079.239-.42992.092-.09123.187-.12772.323-.12772h12.026c.155 0 .199.05017.226.08096.026.02965.05.05702.025.17904z"/><path d="m402.035 14.0698c-2.121 0-3.934.7641-5.387 2.2694-1.422 1.4699-2.296 3.4222-2.598 5.8021l-4.319 34.3376c-.08.3398-.119.796-.119 1.3924 0 2.0663.567 3.7484 1.685 5.0005 1.141 1.2818 2.659 1.9318 4.513 1.9318 2.189 0 4.037-.7641 5.493-2.2694 1.421-1.471 2.295-3.4222 2.597-5.8021l4.319-34.3387c.08-.3433.117-.7994.117-1.3902 0-2.0617-.566-3.7438-1.685-5.0005-1.145-1.2806-2.699-1.9306-4.619-1.9306zm4.585 7.9735-.013.0479-4.33 34.4322c-.257 2.0196-.981 3.656-2.149 4.8671-1.152 1.1905-2.564 1.7698-4.316 1.7698-1.387 0-2.464-.4527-3.293-1.3833-.853-.9556-1.269-2.2328-1.269-3.9057 0-.601.044-.8963.08-1.0389l.012-.0502 4.332-34.4345c.256-2.0195.979-3.656 2.149-4.8659 1.15-1.1905 2.527-1.7698 4.211-1.7698 1.454 0 2.567.4527 3.397 1.3832.854.9591 1.268 2.2374 1.268 3.9069 0 .6272-.05.9226-.08 1.0423z"/><path d="m422.574 22.9408c.144-1.5634.215-2.6719.215-3.3892 0-5.5285-1.756-9.96449-5.22-13.18488-3.448-3.20329-8.178-4.82717-14.058-4.82717-6.435 0-11.905 1.95003-16.258 5.79762-4.354 3.84763-6.966 9.03853-7.76 15.42803l-4.114 33.1413-.002.0251c-.142 1.5269-.215 2.6673-.215 3.3903 0 5.5285 1.737 9.9634 5.164 13.1815 3.411 3.2056 8.124 4.8306 14.009 4.8306 6.433 0 11.919-1.95 16.308-5.7954 4.39-3.8464 7.018-9.0385 7.816-15.4303l4.114-33.1413.002-.0262zm-1.629-.1642-4.112 33.1276c-.745 5.9801-3.19 10.8232-7.268 14.3971-4.083 3.5762-9.207 5.3894-15.231 5.3894-5.455 0-9.791-1.4756-12.889-4.387-3.082-2.8954-4.645-6.9277-4.645-11.9841 0-.6705.069-1.755.206-3.2249l4.112-33.1288c.744-5.9801 3.172-10.8244 7.218-14.39941 4.046-3.57505 9.151-5.38709 15.175-5.38709 5.454 0 9.81 1.47677 12.945 4.38927 3.115 2.89763 4.695 6.92883 4.695 11.98183 0 .6557-.069 1.7402-.206 3.2249z"/><path d="m475.958 3.00938c-.368-.41966-.873-.64203-1.46-.64203h-11.919c-.564 0-1.072.20641-1.47.59641-.365.35922-.603.79826-.704 1.30458l-.006.03079-4.48 36.72437-7.199-36.96613c-.221-1.07422-.936-1.69116-1.962-1.69116h-13.396c-.564 0-1.072.20641-1.47.59641-.365.35922-.603.79826-.704 1.30458l-.006.02965-8.755 70.01165c-.11.5873.029 1.1221.403 1.5497.366.422.871.6443 1.462.6443h11.813c.552 0 1.051-.1893 1.482-.561.421-.3615.689-.812.797-1.3377l.007-.0319 4.474-36.673 6.992 36.9011.022.0867c.318 1.0422 1.045 1.6158 2.049 1.6158h13.501c.565 0 1.072-.2064 1.47-.5964.363-.3569.601-.7948.704-1.3023l.007-.0307 8.755-70.01511c.109-.585-.031-1.11983-.405-1.55089zm-1.207 1.25896-.006.02965-8.754 70.00481c-.04.1733-.116.3113-.24.4322-.092.0912-.186.1277-.323.1277h-13.502c-.157 0-.333 0-.47-.4162l-7.586-40.0314-.012-.0582-.019-.0559c-.201-.5895-.723-.91-1.305-.7971-.54.1095-.896.5405-.919 1.1073l-4.842 39.6904c-.037.1529-.118.2794-.254.3957-.132.1141-.26.1643-.415.1643h-11.814c-.155 0-.196-.0468-.228-.0833-.026-.0296-.049-.0559-.024-.1745l.007-.0307 8.754-70.00712c.038-.17106.115-.3079.239-.42992.092-.09123.186-.12772.324-.12772h13.396c.175 0 .28 0 .357.37176l7.805 40.0793.01.0525.018.0513c.2.5975.725.9202 1.301.8039.544-.106.902-.5371.925-1.1084l4.843-39.69386c.039-.17106.115-.3079.239-.42878.092-.09123.186-.12772.323-.12772h11.919c.156 0 .199.05017.227.08096.026.02965.05.05702.025.17904z"/><path d="m512.432 8.55059c-1.308-1.85196-3.228-3.01171-5.706-3.44847l-1.977-.26c-.353-.06386-.701.02166-.984.24175-.279.21553-.45.51773-.495.87352l-.627 4.91501c-.045.3489.042.6831.251.9636.202.2702.482.4493.811.5177l1.779.2258.043.0046c.632.0444 1.101.2189 1.435.5337.281.2657.384.5622.333.9636-.041.3215-.174.5485-.431.7332-.297.2121-.733.3205-1.294.3205h-.004c-1.619 0-3.636-.9625-5.998-2.8589-1.408-1.1758-3.57-3.21359-6.428-6.05766-.878-.91458-1.799-1.82801-2.732-2.70837-.309-.29992-.688-.46413-1.097-.47895l-4.158-.54966c-.354-.06386-.703.02167-.985.24176-.28.21553-.45.51772-.496.87238l-1.955 15.3425c-.045.3501.042.6831.251.9636.224.301.547.4732.917.4903l3.997.5075c.351.0616.698-.0239.983-.2429.278-.2167.449-.5177.495-.8712l.938-7.3657c.052.0548.105.1095.156.1643.358.3797.737.7492 1.124 1.097 1.804 1.8508 3.468 3.4553 4.945 4.7679l.013.0102c1.446 1.2316 2.833 2.1872 4.123 2.8418 1.312.6649 2.752 1.1085 4.281 1.3206l.035.0045c.648.0605 1.1.0901 1.38.0901h.007c2.283 0 4.226-.691 5.773-2.0549 1.548-1.365 2.48-3.2079 2.77-5.4761.326-2.5589-.17-4.7906-1.472-6.63233zm-.108 6.43051c-.242 1.8976-.975 3.3629-2.241 4.4794-1.265 1.1152-2.81 1.6569-4.721 1.6569h-.006c-.226 0-.635-.0273-1.216-.0809-1.347-.1882-2.613-.5794-3.762-1.1609-1.176-.5964-2.457-1.4814-3.805-2.6286-1.453-1.2909-3.094-2.8726-4.875-4.7017l-.039-.0376c-.361-.3239-.714-.6683-1.048-1.023-.359-.3797-.728-.756-1.098-1.1187-.284-.3033-.702-.38539-1.074-.2098-.305.1426-.512.422-.554.7504l-1.067 8.3748-3.483-.4424 1.878-14.7404 3.985.52685h.052c.008 0 .018 0 .061.03991.922.87124 1.827 1.76871 2.69 2.66732l.012.01254c2.897 2.88398 5.098 4.95718 6.544 6.16368l.011.0091c2.69 2.161 4.98 3.2124 6.999 3.2147h.005c.901 0 1.647-.2075 2.221-.6181.613-.4401.989-1.0731 1.085-1.8291.116-.9066-.168-1.7117-.821-2.3286-.598-.5657-1.403-.8895-2.392-.9625l-1.405-.1756.555-4.35508 1.659.21781c2.069.36834 3.595 1.28291 4.665 2.79617 1.079 1.527 1.468 3.3276 1.19 5.5068z"/><path d="m503.591 23.3867-13.308-1.6752-.025-.0023c-.634-.0593-1.126-.0901-1.466-.0901h-.008c-2.367 0-4.383.7116-5.99 2.1166-1.612 1.4072-2.583 3.3298-2.887 5.7132-.339 2.6605.243 4.9617 1.731 6.8388 1.486 1.8747 3.633 2.982 6.372 3.2911l13.309 1.6752.026.0022c.648.0605 1.127.0901 1.465.0901h.008c2.395 0 4.419-.7127 6.015-2.1188 1.596-1.4072 2.561-3.3435 2.869-5.7531.335-2.6343-.251-4.915-1.742-6.7772-1.485-1.8565-3.627-2.9695-6.366-3.3094zm6.53 9.8847c-.261 2.0413-1.026 3.5979-2.341 4.7576-1.314 1.1575-2.937 1.7208-4.963 1.7208h-.007c-.282 0-.722-.0273-1.307-.0821l-13.306-1.6752c-2.346-.2645-4.084-1.1472-5.313-2.6992-1.228-1.5486-1.685-3.3949-1.398-5.6437.256-2.0116 1.026-3.5534 2.353-4.712 1.328-1.1597 2.945-1.7231 4.945-1.7231h.007c.289 0 .728.0274 1.305.0821l13.297 1.6741c2.348.2908 4.089 1.1825 5.322 2.7243 1.227 1.5338 1.686 3.3572 1.404 5.5764z"/><path d="m503.18 29.2848-13.951-1.7585c-.19-.0353-.433-.0524-.759-.0524h-.004c-.896 0-1.669.2189-2.297.6511-.68.4676-1.096 1.1472-1.2 1.9672-.123.9601.175 1.8154.861 2.4734.622.5976 1.484.9853 2.561 1.1541l13.975 1.7618c.189.0354.424.0525.715.0525h.003c.928 0 1.721-.2292 2.356-.6808.675-.4824 1.088-1.1826 1.195-2.023.119-.9328-.181-1.7733-.866-2.4301-.631-.6044-1.502-.9796-2.59-1.1142zm1.878 3.3424c-.052.4048-.223.6979-.541.9248-.364.2589-.832.3855-1.432.3855h-.002c-.271 0-.392-.0194-.431-.0274l-.03-.0057-13.995-1.7641c-.744-.1175-1.314-.3627-1.695-.7276-.323-.3102-.441-.6557-.382-1.1176.048-.3706.213-.6408.521-.853.364-.2497.821-.3717 1.398-.3717h.002c.32 0 .441.0205.471.0262l.031.0069 14.011 1.7652c.743.0924 1.309.3216 1.686.6831.323.3102.442.6421.388 1.0754z"/><path d="m502.021 42.0261-1.977-.26c-.354-.0639-.702.0217-.984.2418-.28.2155-.451.5177-.496.8735l-.626 4.9138c-.044.3501.042.6831.252.9636.201.2703.482.4493.811.5178l1.779.2258.043.0045c.631.0445 1.101.219 1.434.5337.281.2657.385.5622.333.9636-.04.3227-.174.5485-.431.7333-.296.2121-.732.3204-1.294.3204h-.003c-1.619 0-3.637-.9625-5.998-2.8589-1.409-1.1757-3.571-3.2135-6.428-6.0576-.878-.9146-1.8-1.828-2.732-2.7084-.31-.2999-.689-.4641-1.098-.4789l-4.158-.5497c-.353-.0638-.702.0217-.985.2418-.279.2155-.45.5177-.496.8735l-1.955 15.3425c-.044.3489.042.6831.252.9636.224.301.547.4732.915.4903l3.997.5075c.352.0616.699-.0239.983-.2429.279-.2167.449-.5177.495-.8712l.938-7.3657c.053.0548.105.1095.156.1643.358.3797.737.7492 1.124 1.097 1.804 1.8508 3.468 3.4553 4.946 4.7679l.012.0102c1.446 1.2316 2.834 2.1872 4.124 2.8418 1.311.6648 2.751 1.1084 4.28 1.3206l.035.0045c.648.0605 1.1.0901 1.38.0901h.008c2.283 0 4.226-.6911 5.772-2.0549 1.549-1.3651 2.481-3.2079 2.77-5.4761.327-2.559-.169-4.7906-1.472-6.6323-1.309-1.852-3.228-3.0117-5.705-3.4485zm5.597 9.879c-.242 1.8976-.975 3.3629-2.241 4.4794-1.265 1.1152-2.809 1.6569-4.72 1.6569h-.007c-.225 0-.635-.0274-1.216-.081-1.347-.1881-2.613-.5793-3.762-1.1608-1.176-.5965-2.457-1.4814-3.804-2.6286-1.454-1.2909-3.094-2.8726-4.876-4.7017l-.038-.0377c-.362-.3238-.715-.6682-1.049-1.0229-.357-.3786-.727-.7549-1.098-1.1187-.284-.3033-.7-.3854-1.074-.2109-.304.1425-.511.4219-.553.7503l-1.067 8.3749-3.483-.4425 1.878-14.7404 3.984.5269h.052c.008 0 .019 0 .061.0399.922.8713 1.828 1.7687 2.69 2.6673l.012.0126c2.898 2.884 5.099 4.9571 6.544 6.1636l.012.0092c2.69 2.161 4.98 3.2124 6.999 3.2147h.004c.901 0 1.647-.2076 2.222-.6181.613-.4402.988-1.0731 1.085-1.8292.116-.9066-.169-1.7116-.822-2.3274-.598-.5657-1.403-.8895-2.392-.9625l-1.404-.1756.555-4.3551 1.658.2178c2.069.3684 3.596 1.2829 4.665 2.7962 1.079 1.5269 1.468 3.3276 1.191 5.5068z"/><path d="m506.108 66.3022-16.3-7.7089-.738-.2053-3.538-.4424h-.049s0 0-.001 0c-.736 0-1.27.4584-1.36 1.1665l-1.242 9.7513-6.096-.7435c-.352-.0627-.7.0239-.981.2418-.28.2155-.452.5177-.497.8735l-.615 4.8294c-.045.349.042.682.251.9625.223.3011.547.4732.916.4915l6.075.78-.092.7207c-.047.3661.057.7173.291.9887.2.2304.469.3866.776.4505l4.356.5234c.074.0125.147.0194.22.0194.273 0 .537-.0901.758-.2623.279-.2167.45-.5189.495-.8724l.088-.6876 3.748.4812c.372.0661.735-.0399 1.029-.2999.255-.2281.412-.5246.454-.8576l.615-4.8294c.047-.3661-.056-.7173-.291-.9887-.201-.2326-.471-.3889-.779-.4516l-3.828-.4938.312-2.4449 14.357 6.6335c.589.2691 1.01.0935 1.212-.0376.214-.1415.482-.4163.547-.9294l.67-5.256c.075-.5907-.203-1.1027-.762-1.4038zm-1.426 5.98-14.77-6.8251-.103-.0182c-.4-.0696-.669.0536-.825.1688-.206.1528-.338.382-.372.6443l-.496 3.8886c-.038.2999.042.5805.225.7892.17.1938.411.3067.685.3215l4.028.5166-.544 4.2718-4.113-.5279h-.051c-.546 0-.958.3489-1.024.8678l-.125.9841-3.738-.447.125-.9796c.053-.4117-.095-.6797-.229-.8325-.17-.1927-.406-.3056-.674-.3215l-6.371-.8177.54-4.2307 6.336.772c.332.0935.59-.008.723-.0844.153-.0878.418-.3056.477-.7686l1.286-10.0854 3.088.3866.494.138 16.019 7.5743-.588 4.6116z"/></g><path d="m274.942 63.0327c-3.868 3.4211-7.268 1.706-9.384-2.1097l-23.375-50.8033c-3.207-6.56283-11.373-7.83776-15.014-7.39644s-9.017 2.83495-10.921 7.05431l-4.92 12.54403s10.664-7.8115 17.15 2.2682l21.551 45.2212c3.018 6.3336 10.699 9.4707 17.016 6.4453 4.194-2.0093 7.451-6.3723 7.834-10.7.063-.699.063-2.5236.063-2.5236z" fill="url(#h)"/><path d="m238.426 55.4785v.2543c0-4.2706-3.453-7.7328-7.713-7.7328s-7.713 3.4622-7.713 7.7328v-.2543c0 4.2707 3.453 7.7328 7.713 7.7328s7.713-3.4621 7.713-7.7328z" fill="#f70d29"/></svg>