<svg width="162" height="287" viewBox="0 0 162 287" fill="none" xmlns="http://www.w3.org/2000/svg">
<path d="M138.102 129.395C128.683 129.395 121.047 136.169 121.047 144.525L121.047 191.875C121.047 200.23 128.683 207.005 138.102 207.005C147.521 207.005 155.157 200.23 155.157 191.875V144.525C155.157 136.169 147.521 129.395 138.102 129.395Z" fill="url(#paint0_linear_2102_4532)"/>
<path d="M138.102 106.553C128.683 106.553 121.047 113.327 121.047 121.683L121.047 191.781C121.047 200.137 128.683 206.911 138.102 206.911C147.521 206.911 155.157 200.137 155.157 191.781V121.683C155.157 113.327 147.521 106.553 138.102 106.553Z" fill="url(#paint1_linear_2102_4532)"/>
<g style="mix-blend-mode:overlay" opacity="0.2">
<path d="M155.158 110.26C155.158 110.343 155.145 110.423 155.145 110.506C155.145 110.59 155.158 110.669 155.158 110.753V110.26Z" fill="url(#paint2_linear_2102_4532)"/>
<path d="M121.551 110.755C121.551 110.671 121.564 110.592 121.564 110.508C121.564 110.425 121.551 110.345 121.551 110.262V110.755Z" fill="url(#paint3_linear_2102_4532)"/>
</g>
<path d="M154.541 84.1022V84.6447C154.541 75.543 147.182 68.165 138.106 68.165C129.029 68.165 121.668 75.543 121.668 84.6447V84.1022C121.668 93.2039 129.027 100.582 138.106 100.582C147.184 100.582 154.541 93.2039 154.541 84.1022Z" fill="url(#paint4_linear_2102_4532)"/>
<path d="M11.8381 215.532C2.71591 212.085 -1.89209 201.878 1.54427 192.735L41.8162 88.6973C45.2526 79.5519 55.4329 74.9321 64.5573 78.3772V77.721C73.6795 81.1661 78.2897 91.3746 74.8511 100.518L34.5813 205.21C31.145 214.355 20.9646 218.975 11.8403 215.532H11.8381Z" fill="url(#paint5_linear_2102_4532)"/>
<path d="M155.161 189.071C147.743 195.633 141.221 192.343 137.161 185.024L92.3245 87.5766C86.174 74.9883 70.5108 72.5428 63.5268 73.3893C56.5428 74.2358 46.2315 78.8271 42.5792 86.9204L33.1406 110.981C33.1406 110.981 53.5973 95.998 66.0381 115.332L107.375 202.072C113.163 214.221 127.897 220.238 140.015 214.435C148.059 210.581 154.306 202.212 155.041 193.911C155.161 192.57 155.161 189.071 155.161 189.071Z" fill="url(#paint6_linear_2102_4532)"/>
<path d="M85.2265 174.907V175.395C85.2265 167.203 78.6025 160.562 70.4316 160.562C62.2607 160.562 55.6367 167.203 55.6367 175.395V174.907C55.6367 183.099 62.2607 189.74 70.4316 189.74C78.6025 189.74 85.2265 183.099 85.2265 174.907Z" fill="#F70D29" stroke="#F70D29" stroke-width="0.599638" stroke-miterlimit="10"/>
<path d="M43.7456 1.17398C43.4521 0.83872 43.0487 0.661067 42.5798 0.661067L32.9727 0.661067C32.522 0.661067 32.1167 0.825966 31.7986 1.13754C31.5069 1.42452 31.317 1.77527 31.2361 2.17977L31.2316 2.20437L28.4672 24.5722H20.7694L23.5928 2.39204L23.5983 2.35105V2.30914C23.5983 1.29242 22.9922 0.660156 22.0171 0.660156L12.4945 0.660156C12.0447 0.660156 11.6385 0.825054 11.3205 1.13663C11.0288 1.42361 10.8388 1.77436 10.758 2.17886L10.7534 2.20255L3.75987 58.1368C3.67172 58.6059 3.78259 59.0341 4.08156 59.3749C4.37417 59.7119 4.77764 59.8896 5.24927 59.8896H14.7718C15.2125 59.8896 15.6115 59.7384 15.9559 59.4414C16.2921 59.1526 16.5057 58.7927 16.592 58.3718L16.5974 58.3463L19.3618 35.8946L27.0596 35.8946L24.2389 58.1358C24.1508 58.605 24.2616 59.0332 24.5606 59.3739C24.8532 59.711 25.2567 59.8887 25.7283 59.8887L35.3354 59.8887C35.7861 59.8887 36.1914 59.7238 36.5095 59.4122C36.7993 59.1271 36.9893 58.7772 37.072 58.3718L37.0774 58.3472L44.0692 2.41209C44.1564 1.94472 44.0446 1.51744 43.7456 1.17307V1.17398ZM42.7815 2.17977L42.7769 2.20346L35.7834 58.1304C35.7516 58.2689 35.6907 58.3791 35.5916 58.4757C35.518 58.5485 35.4426 58.5777 35.3327 58.5777L25.7256 58.5777C25.6011 58.5777 25.5684 58.5404 25.5429 58.5112C25.522 58.4875 25.5039 58.4666 25.5239 58.3718L25.5293 58.3472L28.3973 35.7352L28.4027 35.6942V35.6523C28.4027 34.9134 27.9047 34.5827 27.4113 34.5827L19.2373 34.5827C18.4603 34.5827 18.0996 35.0874 18.0787 35.604L15.3052 58.1295C15.2753 58.2525 15.2107 58.3536 15.1026 58.4465C14.9972 58.5376 14.8945 58.5777 14.7709 58.5777H5.24927C5.12478 58.5777 5.09206 58.5404 5.06662 58.5112C5.04572 58.4875 5.02754 58.4666 5.04754 58.3718L5.05299 58.3472L12.0465 2.41846C12.0774 2.28181 12.1383 2.17248 12.2374 2.075C12.311 2.00212 12.3864 1.97296 12.4964 1.97296L22.0189 1.97296C22.2152 1.97296 22.2861 1.97296 22.2915 2.27088L19.4318 24.7317L19.4263 24.7727V24.8146C19.4263 25.5534 19.9243 25.8841 20.4177 25.8841H28.5917C28.8244 25.8841 29.3996 25.8039 29.7022 25.0633L29.7358 24.9822L32.5238 2.41846C32.5547 2.28181 32.6156 2.17248 32.7146 2.075C32.7882 2.00212 32.8636 1.97296 32.9736 1.97296L42.5807 1.97296C42.7052 1.97296 42.7397 2.01305 42.7615 2.03765C42.7824 2.06134 42.8015 2.0832 42.7824 2.18068L42.7815 2.17977Z" fill="#F70D29"/>
<path d="M74.0665 2.10702C73.8947 1.18869 73.2923 0.662109 72.4126 0.662109L61.3734 0.662109C60.462 0.662109 59.8213 1.1486 59.5687 2.03322L40.6136 57.9483L40.609 57.9638C40.4264 58.5505 40.4654 59.0279 40.7253 59.3832C40.8953 59.6146 41.2378 59.8916 41.9067 59.8916H51.4292C52.3452 59.8916 52.9877 59.3996 53.2376 58.5077L55.5794 50.6254L65.6162 50.6254L65.9434 58.341C65.9498 59.2976 66.5541 59.8916 67.5246 59.8916H77.3843C78.3593 59.8916 78.9654 59.3231 78.9654 58.4084V58.1314L74.0756 2.1717L74.0665 2.10793V2.10702ZM77.6569 58.4075C77.6569 58.4813 77.6469 58.5241 77.6405 58.5405C77.6223 58.5505 77.5515 58.5797 77.3843 58.5797H67.5246C67.3419 58.5797 67.2874 58.5405 67.2874 58.5405C67.2874 58.5405 67.252 58.4904 67.252 58.3255L66.9194 50.4732C66.9975 50.1361 66.8685 49.789 66.5622 49.5631C66.3351 49.3973 66.0924 49.3135 65.8398 49.3135L55.4749 49.3135C54.7315 49.3135 54.3689 49.7763 54.3208 50.2691L51.9826 58.1387L51.979 58.1506C51.889 58.4758 51.7554 58.5806 51.4292 58.5806H41.9067C41.8658 58.5806 41.8322 58.5787 41.8067 58.576C41.8122 58.5286 41.8258 58.4594 41.8549 58.3637L60.8127 2.43864L60.8236 2.40402C60.9145 2.07787 61.0481 1.97401 61.3734 1.97401L72.4126 1.97401C72.5753 1.97401 72.7043 1.97401 72.7752 2.3202L77.6569 58.1879V58.4075Z" fill="#F70D29"/>
<path d="M65.4449 17.7344C65.225 17.0931 64.7225 17.043 64.5735 17.043C64.4244 17.043 63.9165 17.0931 63.7002 17.739L63.6956 17.7527L57.2119 40.3237C57.051 40.7473 57.1537 41.0416 57.27 41.2165C57.3882 41.3932 57.6262 41.6046 58.0842 41.6046H65.4158C66.0592 41.6046 66.4909 41.1746 66.4909 40.535L65.4749 17.8237L65.444 17.7344H65.4449ZM58.5813 40.2927L64.2827 20.4466L65.1714 40.2927H58.5813Z" fill="#F70D29"/>
<path d="M119.149 16.9089L119.156 16.8561C119.271 15.7164 119.328 14.8827 119.328 14.3079C119.328 9.94947 117.955 6.43467 115.247 3.8619C112.548 1.30005 108.824 0 104.179 0C99.0959 0 94.7685 1.52964 91.3199 4.547C87.8649 7.56892 85.8203 11.6631 85.2442 16.7076L81.8737 43.5149L81.871 43.5359C81.7574 44.7548 81.6992 45.6659 81.6992 46.2444C81.6992 50.6055 83.0723 54.1194 85.7794 56.6904C88.4756 59.2531 92.1714 60.5523 96.7632 60.5523C101.791 60.5523 106.104 59.0081 109.581 55.9643C113.059 52.9196 115.146 48.7862 115.783 43.6789L115.866 42.8653C115.949 42.4007 115.838 41.9771 115.541 41.6345C115.251 41.3029 114.853 41.1262 114.391 41.1216L104.881 40.708H104.853C104.402 40.708 103.997 40.872 103.679 41.1845C103.387 41.4714 103.197 41.8222 103.116 42.2267L102.855 44.507C102.648 45.9665 102.106 47.0971 101.199 47.9626C100.306 48.8153 99.2404 49.2299 97.9418 49.2299C96.8831 49.2299 96.0598 48.9046 95.4237 48.2341C94.7794 47.5554 94.4668 46.6616 94.4668 45.501C94.4668 45.0892 94.5014 44.8678 94.5304 44.7539L94.5404 44.7129L98.0845 16.1318C98.2871 14.6896 98.8469 13.5098 99.7474 12.6252C100.64 11.7488 101.676 11.3233 102.913 11.3233C104.028 11.3233 104.879 11.6495 105.515 12.3191C106.159 12.9987 106.473 13.8934 106.473 15.0531C106.473 15.5551 106.433 15.7901 106.408 15.8858L106.398 15.9268L106.14 18.1206L106.139 18.1361C106.093 18.6271 106.205 19.0243 106.47 19.3177C106.738 19.6129 107.13 19.7632 107.632 19.7632L117.255 19.3496C117.699 19.3459 118.099 19.181 118.414 18.8731C118.703 18.5879 118.892 18.2381 118.976 17.8327L119.147 16.9107L119.149 16.9089ZM117.858 16.6957L117.696 17.5721C117.665 17.7179 117.603 17.8327 117.5 17.9338C117.427 18.0067 117.351 18.0359 117.241 18.0359L107.622 18.4495C107.526 18.4486 107.473 18.4367 107.446 18.4285C107.441 18.403 107.435 18.3511 107.443 18.2636L107.69 16.1591C107.752 15.8858 107.783 15.5223 107.783 15.0513C107.783 13.5599 107.34 12.3364 106.466 11.4135C105.581 10.4824 104.387 10.0105 102.916 10.0105C101.341 10.0105 99.9683 10.5744 98.8351 11.6868C97.7219 12.7801 97.034 14.215 96.7914 15.9532L93.2555 44.4706C93.1919 44.7393 93.1619 45.0764 93.1619 45.5001C93.1619 46.9924 93.6054 48.2159 94.4795 49.1369C95.3619 50.068 96.5287 50.5409 97.9454 50.5409C99.573 50.5409 100.972 49.9924 102.104 48.9119C103.22 47.8478 103.909 46.4248 104.155 44.681L104.406 42.4617C104.437 42.3269 104.498 42.2176 104.597 42.121C104.669 42.0509 104.741 42.0208 104.844 42.019L114.35 42.4317H114.378C114.502 42.4317 114.537 42.4718 114.559 42.4964C114.58 42.5201 114.599 42.5428 114.58 42.6394L114.487 43.5222C113.89 48.297 111.952 52.1507 108.724 54.9758C105.492 57.8055 101.469 59.2404 96.7668 59.2404C92.5212 59.2404 89.1281 58.0624 86.6836 55.7383C84.2473 53.4252 83.0114 50.2311 83.0114 46.2444C83.0114 45.7078 83.0669 44.8414 83.1759 43.668L86.5464 16.8633C87.0852 12.146 88.9818 8.33419 92.1832 5.53366C95.3874 2.7313 99.4248 1.31008 104.183 1.31008C108.482 1.31008 111.903 2.48805 114.351 4.81211C116.787 7.12798 118.023 10.3221 118.023 14.3061C118.023 14.8244 117.968 15.6289 117.86 16.6948L117.858 16.6957Z" fill="#F70D29"/>
<path d="M161.71 1.27433C161.546 0.994639 161.183 0.662109 160.388 0.662109L150.275 0.662109C149.479 0.662109 148.849 1.03017 148.45 1.7262L136.259 21.2425L138.627 2.35209V2.31109C138.627 1.29437 138.02 0.662109 137.045 0.662109L127.523 0.662109C127.073 0.662109 126.667 0.827008 126.349 1.13858C126.057 1.42556 125.867 1.77631 125.786 2.18081L125.782 2.2045L118.787 58.1369C118.699 58.6052 118.81 59.0324 119.109 59.375C119.402 59.7112 119.805 59.8888 120.276 59.8888H129.798C130.239 59.8888 130.638 59.7376 130.982 59.4406C131.319 59.1518 131.532 58.7919 131.618 58.371L131.624 58.3446L133.649 41.6881L133.654 41.6489V41.6471C133.678 41.6152 133.697 41.5942 133.71 41.5815L133.758 41.5341L136.281 37.746L141.887 58.6471C142.071 59.436 142.67 59.8888 143.533 59.8888H153.813C154.788 59.8888 155.394 59.3203 155.394 58.4056V58.3237L155.29 57.9128L146.386 26.7361L146.404 26.7188L161.529 2.82583L161.542 2.80488C161.892 2.20268 161.949 1.68885 161.709 1.27342L161.71 1.27433ZM160.419 2.13617L145.374 25.9034C145.275 26.0173 145.199 26.1503 145.149 26.2997C145.098 26.45 145.072 26.6149 145.072 26.8026V26.8946L154.028 58.2489L154.086 58.4776C154.082 58.5104 154.077 58.5314 154.072 58.5414C154.054 58.5505 153.983 58.5806 153.816 58.5806H143.535C143.215 58.5806 143.193 58.4822 143.162 58.3473L143.159 58.3346L137.359 36.7111C137.332 36.4095 137.188 36.2282 137.065 36.1262C136.878 35.9713 136.633 35.9139 136.37 35.9649C136.103 36.0187 135.865 36.1471 135.662 36.3457L135.614 36.3931L132.744 40.7023C132.673 40.7779 132.607 40.8627 132.547 40.9519C132.425 41.1296 132.357 41.341 132.349 41.5651L130.334 58.1323C130.304 58.2544 130.24 58.3555 130.133 58.4485C130.027 58.5396 129.925 58.5797 129.801 58.5797H120.278C120.154 58.5797 120.121 58.5423 120.098 58.515L120.096 58.5131C120.075 58.4895 120.057 58.4685 120.077 58.3738L120.082 58.3492L127.077 2.42042C127.108 2.28376 127.168 2.17352 127.267 2.07695C127.342 2.00407 127.416 1.97492 127.526 1.97492L137.049 1.97492C137.245 1.97492 137.316 1.97492 137.322 2.27374L134.719 23.0445C134.652 23.3425 134.685 23.5994 134.818 23.8107C134.94 24.003 135.134 24.1341 135.36 24.177C135.743 24.2553 136.195 24.0777 136.386 23.5183L149.569 2.41131L149.584 2.38671C149.749 2.09426 149.95 1.97492 150.279 1.97492L160.391 1.97492C160.435 1.97492 160.472 1.97674 160.503 1.97947C160.484 2.02229 160.458 2.07422 160.421 2.13799L160.419 2.13617Z" fill="#F70D29"/>
<path d="M35.5203 237.954C35.8102 237.669 36.0001 237.319 36.0828 236.914L36.0883 236.889L37.0997 228.86C37.1869 228.393 37.0761 227.966 36.778 227.623L36.7762 227.621C36.4827 227.286 36.0792 227.108 35.6103 227.108H3.16695C2.71622 227.108 2.31094 227.273 1.99288 227.585C1.70118 227.872 1.51126 228.223 1.43039 228.627L1.42584 228.651L0.411685 236.7L0.40625 236.741V236.782C0.40625 237.799 1.01236 238.431 1.98742 238.431H11.41L5.63868 284.584C5.55053 285.053 5.6614 285.481 5.96037 285.822C6.25298 286.159 6.65647 286.337 7.1281 286.337H16.7351C17.1859 286.337 17.5912 286.172 17.9092 285.86C18.1991 285.575 18.389 285.225 18.4717 284.82L18.4772 284.795L24.2748 238.432H34.3481C34.7988 238.432 35.2041 238.267 35.5222 237.955L35.5203 237.954ZM24.0658 237.12C23.7814 237.12 23.5206 237.227 23.3134 237.431C23.1144 237.626 23.0035 237.871 22.9917 238.14L17.185 284.579C17.1532 284.717 17.0923 284.827 16.9932 284.924C16.9196 284.997 16.8442 285.026 16.7351 285.026H7.1281C7.0036 285.026 6.97089 284.989 6.94544 284.959C6.92454 284.936 6.90637 284.915 6.92636 284.82L6.9318 284.795L12.7404 238.343C12.8694 237.943 12.744 237.664 12.6532 237.527C12.5287 237.341 12.2733 237.121 11.7635 237.121H1.98833C1.79205 237.121 1.72117 237.121 1.71572 236.822L2.71804 228.867C2.74894 228.73 2.80981 228.62 2.90977 228.522C2.98338 228.449 3.05881 228.42 3.16877 228.42H35.6121C35.7339 228.42 35.7702 228.459 35.793 228.485C35.8139 228.509 35.8329 228.531 35.8129 228.628L35.8084 228.652L34.7979 236.672C34.7661 236.811 34.7052 236.921 34.6062 237.018C34.5325 237.091 34.4571 237.12 34.3481 237.12H24.0677H24.0658Z" fill="#EC03FF"/>
<path d="M74.3598 227.621C74.0663 227.286 73.6629 227.108 73.194 227.108H63.5869C63.1371 227.108 62.7309 227.273 62.4128 227.585C62.1202 227.872 61.9312 228.223 61.8503 228.627L61.8458 228.652L59.0814 251.019H51.3836L54.207 228.839L54.2125 228.798V228.756C54.2125 227.74 53.6064 227.107 52.6313 227.107H43.1088C42.658 227.107 42.2527 227.272 41.9347 227.584C41.643 227.871 41.453 228.222 41.3722 228.626L41.3676 228.65L34.3732 284.582C34.285 285.051 34.3959 285.479 34.6948 285.82C34.9875 286.157 35.3909 286.335 35.8626 286.335H45.3851C45.8258 286.335 46.2248 286.185 46.5701 285.887C46.9063 285.598 47.1199 285.238 47.2062 284.818L47.2116 284.793L49.976 262.341H57.6738L54.8531 284.582C54.7641 285.051 54.8759 285.48 55.1748 285.82C55.4674 286.157 55.8709 286.335 56.3425 286.335H65.9496C66.4003 286.335 66.8056 286.17 67.1237 285.859C67.4136 285.573 67.6035 285.224 67.6862 284.818L67.6916 284.794L74.6861 228.858C74.7724 228.391 74.6615 227.964 74.3626 227.619L74.3598 227.621ZM73.3948 228.627L73.3902 228.651L66.3967 284.578C66.3649 284.716 66.304 284.826 66.2049 284.923C66.1313 284.996 66.0559 285.025 65.9469 285.025H56.3398C56.2153 285.025 56.1826 284.988 56.1572 284.958C56.1363 284.935 56.1181 284.914 56.1381 284.819L56.1426 284.794L59.0106 262.182L59.016 262.141V262.1C59.016 261.361 58.518 261.03 58.0246 261.03H49.8506C49.0736 261.03 48.7129 261.535 48.692 262.051L45.9185 284.577C45.8885 284.7 45.824 284.801 45.7168 284.894C45.6114 284.985 45.5087 285.025 45.3842 285.025H35.8617C35.7372 285.025 35.7044 284.988 35.679 284.958C35.6581 284.935 35.6399 284.914 35.6599 284.819L35.6654 284.794L42.6589 228.866C42.6898 228.729 42.7507 228.62 42.8498 228.522C42.9234 228.449 42.9988 228.42 43.1088 228.42H52.6313C52.8276 228.42 52.8985 228.42 52.9039 228.718L50.0442 251.179L50.0387 251.22V251.262C50.0387 252.001 50.5367 252.331 51.0301 252.331H59.2041C59.4367 252.331 60.012 252.251 60.3146 251.511L60.3482 251.429L63.1362 228.866C63.1671 228.729 63.228 228.62 63.327 228.522C63.4006 228.449 63.476 228.42 63.5851 228.42H73.1921C73.3166 228.42 73.3512 228.46 73.373 228.485C73.3939 228.509 73.413 228.53 73.393 228.628L73.3948 228.627Z" fill="#EC03FF"/>
<path d="M95.9437 236.457C94.2499 236.457 92.8014 237.067 91.64 238.27C90.5041 239.444 89.8062 241.004 89.5645 242.905L86.114 270.338C86.0504 270.609 86.0195 270.974 86.0195 271.45C86.0195 273.101 86.4721 274.445 87.3654 275.445C88.2768 276.469 89.49 276.988 90.9712 276.988C92.7196 276.988 94.1963 276.378 95.3594 275.175C96.4944 274 97.1923 272.441 97.4341 270.54L100.884 243.107C100.948 242.832 100.978 242.468 100.978 241.996C100.978 240.349 100.526 239.005 99.6313 238.001C98.7172 236.978 97.4758 236.459 95.9419 236.459L95.9437 236.457ZM99.6068 242.827L99.5968 242.865L96.1373 270.373C95.9319 271.987 95.354 273.294 94.4207 274.262C93.5002 275.213 92.3724 275.675 90.9721 275.675C89.8644 275.675 89.0038 275.314 88.3413 274.57C87.6598 273.807 87.3281 272.787 87.3281 271.45C87.3281 270.97 87.3626 270.734 87.3917 270.62L87.4017 270.58L90.8621 243.07C91.0666 241.457 91.6445 240.149 92.5787 239.183C93.4974 238.232 94.5979 237.769 95.9428 237.769C97.1051 237.769 97.9938 238.131 98.6572 238.874C99.3396 239.64 99.6704 240.661 99.6704 241.995C99.6704 242.496 99.6304 242.732 99.6059 242.828L99.6068 242.827Z" fill="#EC03FF"/>
<path d="M112.354 243.545C112.47 242.296 112.526 241.41 112.526 240.837C112.526 236.42 111.123 232.876 108.356 230.304C105.601 227.745 101.822 226.447 97.1247 226.447C91.9841 226.447 87.614 228.005 84.1363 231.079C80.6577 234.153 78.5713 238.3 77.937 243.404L74.6501 269.881L74.6483 269.901C74.5347 271.121 74.4766 272.032 74.4766 272.61C74.4766 277.026 75.8642 280.569 78.6022 283.14C81.3275 285.701 85.0923 287 89.7941 287C94.9329 287 99.3157 285.442 102.822 282.37C106.329 279.297 108.429 275.149 109.066 270.042L112.353 243.566L112.355 243.545H112.354ZM111.053 243.414L107.768 269.879C107.173 274.657 105.219 278.526 101.961 281.381C98.6996 284.238 94.6058 285.687 89.7932 285.687C85.4349 285.687 81.9708 284.508 79.4964 282.182C77.0337 279.869 75.7851 276.647 75.7851 272.608C75.7851 272.072 75.8406 271.206 75.9496 270.031L79.2347 243.565C79.829 238.787 81.7691 234.917 85.0014 232.061C88.2338 229.205 92.3121 227.757 97.1247 227.757C101.482 227.757 104.962 228.937 107.466 231.264C109.955 233.579 111.217 236.799 111.217 240.836C111.217 241.36 111.162 242.226 111.053 243.413V243.414Z" fill="#EC03FF"/>
<path d="M155.002 227.621C154.708 227.286 154.305 227.108 153.836 227.108H144.314C143.863 227.108 143.458 227.273 143.139 227.585C142.848 227.872 142.658 228.223 142.577 228.627L142.572 228.652L138.993 257.991L133.242 228.458C133.065 227.6 132.494 227.107 131.674 227.107H120.972C120.521 227.107 120.116 227.272 119.798 227.584C119.506 227.871 119.316 228.222 119.235 228.626L119.231 228.65L112.236 284.582C112.148 285.051 112.259 285.479 112.558 285.82C112.851 286.157 113.254 286.335 113.726 286.335H123.164C123.605 286.335 124.004 286.184 124.348 285.887C124.684 285.598 124.898 285.238 124.984 284.818L124.99 284.793L128.564 255.495L134.15 284.975L134.168 285.044C134.422 285.877 135.003 286.335 135.804 286.335H146.591C147.042 286.335 147.447 286.17 147.765 285.859C148.055 285.573 148.245 285.224 148.327 284.818L148.333 284.794L155.327 228.858C155.415 228.391 155.303 227.964 155.004 227.619L155.002 227.621ZM154.038 228.627L154.033 228.651L147.04 284.578C147.008 284.716 146.947 284.826 146.848 284.923C146.774 284.996 146.699 285.025 146.59 285.025H135.803C135.678 285.025 135.537 285.025 135.427 284.692L129.367 252.711L129.358 252.665L129.342 252.62C129.181 252.149 128.764 251.893 128.3 251.983C127.868 252.071 127.584 252.415 127.566 252.868L123.697 284.577C123.667 284.699 123.603 284.8 123.495 284.893C123.389 284.984 123.287 285.024 123.163 285.024H113.725C113.6 285.024 113.568 284.987 113.542 284.958C113.521 284.934 113.503 284.913 113.523 284.818L113.529 284.794L120.522 228.865C120.553 228.728 120.614 228.619 120.713 228.521C120.787 228.448 120.862 228.419 120.972 228.419H131.674C131.814 228.419 131.898 228.419 131.959 228.716L138.195 260.736L138.203 260.778L138.217 260.819C138.377 261.296 138.797 261.554 139.257 261.461C139.691 261.376 139.977 261.032 139.995 260.575L143.865 228.864C143.896 228.727 143.956 228.618 144.055 228.521C144.129 228.448 144.205 228.419 144.314 228.419H153.836C153.961 228.419 153.995 228.459 154.017 228.484C154.038 228.508 154.057 228.53 154.037 228.627H154.038Z" fill="#EC03FF"/>
<defs>
<linearGradient id="paint0_linear_2102_4532" x1="39.6827" y1="256.737" x2="179.183" y2="131.882" gradientUnits="userSpaceOnUse">
<stop stop-color="#960000"/>
<stop offset="1" stop-color="#B503FF"/>
</linearGradient>
<linearGradient id="paint1_linear_2102_4532" x1="33.9969" y1="250.385" x2="173.497" y2="125.529" gradientUnits="userSpaceOnUse">
<stop stop-color="#960000"/>
<stop offset="1" stop-color="#B503FF"/>
</linearGradient>
<linearGradient id="paint2_linear_2102_4532" x1="18.2975" y1="234.006" x2="158.577" y2="108.84" gradientUnits="userSpaceOnUse">
<stop stop-color="#960000"/>
<stop offset="1" stop-color="#B503FF"/>
</linearGradient>
<linearGradient id="paint3_linear_2102_4532" x1="3.3628" y1="217.159" x2="143.643" y2="91.9935" gradientUnits="userSpaceOnUse">
<stop stop-color="#960000"/>
<stop offset="1" stop-color="#B503FF"/>
</linearGradient>
<linearGradient id="paint4_linear_2102_4532" x1="-15.8782" y1="222.893" x2="137.574" y2="85.5508" gradientUnits="userSpaceOnUse">
<stop stop-color="#960000"/>
<stop offset="1" stop-color="#B503FF"/>
</linearGradient>
<linearGradient id="paint5_linear_2102_4532" x1="-14.4026" y1="194.271" x2="125.721" y2="68.8598" gradientUnits="userSpaceOnUse">
<stop stop-color="#960000"/>
<stop offset="1" stop-color="#B503FF"/>
</linearGradient>
<linearGradient id="paint6_linear_2102_4532" x1="33.1428" y1="144.949" x2="155.161" y2="144.949" gradientUnits="userSpaceOnUse">
<stop stop-color="#F70D29"/>
<stop offset="1" stop-color="#EC03FF"/>
</linearGradient>
</defs>
</svg>
