<svg viewBox="0 0 514 79" width="514" height="79" fill="none" xmlns="http://www.w3.org/2000/svg">
<path d="M266.05 31.9224C261.14 31.9224 257.159 35.4541 257.159 39.8103V64.4958C257.159 68.852 261.14 72.3837 266.05 72.3837C270.961 72.3837 274.942 68.852 274.942 64.4958V39.8103C274.942 35.4541 270.961 31.9224 266.05 31.9224Z" fill="url(#paint0_linear_1_31)"/>
<path d="M266.05 20.0134C261.14 20.0134 257.159 23.5451 257.159 27.9013V64.4467C257.159 68.8028 261.14 72.3346 266.05 72.3346C270.961 72.3346 274.942 68.8028 274.942 64.4467V27.9013C274.942 23.5451 270.961 20.0134 266.05 20.0134Z" fill="url(#paint1_linear_1_31)"/>
<g style="mix-blend-mode:overlay" opacity="0.2">
<path d="M274.942 21.9463C274.942 21.9896 274.935 22.0307 274.935 22.074C274.935 22.1173 274.942 22.1584 274.942 22.2017V21.9463Z" fill="url(#paint2_linear_1_31)"/>
<path d="M257.42 22.2017C257.42 22.1584 257.427 22.1173 257.427 22.074C257.427 22.0307 257.42 21.9896 257.42 21.9463V22.2017Z" fill="url(#paint3_linear_1_31)"/>
</g>
<path d="M274.62 8.30871V8.59152C274.62 3.84645 270.783 0 266.051 0C261.319 0 257.482 3.84645 257.482 8.59152V8.30871C257.482 13.0538 261.318 16.9002 266.051 16.9002C270.784 16.9002 274.62 13.0538 274.62 8.30871Z" fill="url(#paint4_linear_1_31)"/>
<path d="M200.224 76.8287C195.468 75.0315 193.065 69.7105 194.857 64.9438L215.852 10.7045C217.644 5.93668 222.951 3.52822 227.708 5.3243V4.98219C232.464 6.77827 234.868 12.1004 233.075 16.8671L212.081 71.4473C210.289 76.2152 204.982 78.6236 200.225 76.8287H200.224Z" fill="url(#paint5_linear_1_31)"/>
<path d="M50.0878 3.00938C49.7204 2.58972 49.2153 2.36735 48.6284 2.36735H36.6031C36.0389 2.36735 35.5316 2.57376 35.1334 2.96376C34.7683 3.32298 34.5306 3.76202 34.4293 4.26834L34.4237 4.29913L30.9635 32.2974H21.328L24.8621 4.53405L24.8689 4.48273V4.43027C24.8689 3.15762 24.1102 2.36621 22.8897 2.36621H10.9702C10.4071 2.36621 9.89867 2.57262 9.50055 2.96262C9.13543 3.32184 8.89769 3.76088 8.79646 4.2672L8.79077 4.29685L0.0368019 74.3108C-0.0735327 74.8981 0.0652386 75.434 0.439466 75.8605C0.805732 76.2825 1.31077 76.5048 1.90112 76.5048H13.8207C14.3723 76.5048 14.8717 76.3155 15.3028 75.9438C15.7237 75.5823 15.991 75.1318 16.099 74.605L16.1058 74.5731L19.566 46.4699H29.2015L25.6708 74.3096C25.5605 74.8969 25.6993 75.4329 26.0735 75.8594C26.4398 76.2813 26.9448 76.5037 27.5351 76.5037H39.5605C40.1247 76.5037 40.632 76.2973 41.0301 75.9073C41.3929 75.5503 41.6307 75.1124 41.7342 74.605L41.741 74.5742L50.4927 4.55913C50.6019 3.97413 50.462 3.4393 50.0878 3.00824V3.00938ZM48.8809 4.26834L48.8752 4.29799L40.1213 74.3028C40.0814 74.4761 40.0052 74.6141 39.8812 74.735C39.7891 74.8262 39.6947 74.8627 39.5571 74.8627H27.5317C27.3759 74.8627 27.3349 74.8159 27.3031 74.7795C27.2769 74.7498 27.2542 74.7236 27.2792 74.605L27.286 74.5742L30.8759 46.2703L30.8827 46.219V46.1665C30.8827 45.2417 30.2594 44.8277 29.6417 44.8277H19.4102C18.4377 44.8277 17.9861 45.4595 17.9599 46.1061L14.4884 74.3016C14.4508 74.4556 14.3701 74.5822 14.2347 74.6985C14.1028 74.8125 13.9742 74.8627 13.8195 74.8627H1.90112C1.74528 74.8627 1.70433 74.8159 1.67248 74.7795C1.64632 74.7498 1.62357 74.7236 1.6486 74.605L1.65542 74.5742L10.4094 4.56712C10.4481 4.39606 10.5243 4.25922 10.6483 4.1372C10.7404 4.04597 10.8348 4.00948 10.9724 4.00948H22.892C23.1377 4.00948 23.2264 4.00948 23.2332 4.38238L19.6536 32.497L19.6468 32.5483V32.6007C19.6468 33.5256 20.2701 33.9395 20.8878 33.9395H31.1193C31.4105 33.9395 32.1305 33.8392 32.5093 32.9121L32.5514 32.8106L36.0411 4.56712C36.0798 4.39606 36.156 4.25922 36.28 4.1372C36.3722 4.04597 36.4666 4.00948 36.6042 4.00948H48.6295C48.7854 4.00948 48.8286 4.05965 48.8559 4.09044C48.882 4.12009 48.9059 4.14746 48.882 4.26948L48.8809 4.26834Z" fill="#F70D29"/>
<path d="M88.0383 4.17605C87.8233 3.02656 87.0692 2.36743 85.9681 2.36743H72.1501C71.0093 2.36743 70.2073 2.97639 69.8911 4.08368L46.1646 74.0736L46.1589 74.093C45.9303 74.8274 45.9792 75.425 46.3045 75.8697C46.5172 76.1594 46.9461 76.5061 47.7833 76.5061H59.7028C60.8494 76.5061 61.6536 75.8903 61.9664 74.7738L64.8976 64.9074H77.461L77.8705 74.5651C77.8784 75.7625 78.6349 76.5061 79.8497 76.5061H92.1912C93.4117 76.5061 94.1704 75.7945 94.1704 74.6495V74.3029L88.0497 4.25702L88.0383 4.17719V4.17605ZM92.5325 74.6484C92.5325 74.7408 92.52 74.7944 92.512 74.8149C92.4892 74.8274 92.4005 74.8639 92.1912 74.8639H79.8497C79.621 74.8639 79.5528 74.8149 79.5528 74.8149C79.5528 74.8149 79.5084 74.7522 79.5084 74.5458L79.0921 64.7169C79.1899 64.295 79.0284 63.8605 78.6451 63.5777C78.3607 63.3702 78.057 63.2653 77.7408 63.2653H64.7668C63.8364 63.2653 63.3825 63.8446 63.3222 64.4615L60.3955 74.312L60.391 74.3268C60.2784 74.7339 60.1112 74.8651 59.7028 74.8651H47.7833C47.7321 74.8651 47.69 74.8628 47.6581 74.8594C47.665 74.8001 47.682 74.7134 47.7184 74.5937L71.4483 4.59115L71.462 4.54781C71.5757 4.13956 71.7429 4.00956 72.1501 4.00956H85.9681C86.1717 4.00956 86.3333 4.00956 86.422 4.4429L92.5325 74.3736V74.6484Z" fill="#F70D29"/>
<path d="M77.2494 23.7379C76.9741 22.935 76.3451 22.8723 76.1586 22.8723C75.972 22.8723 75.3362 22.935 75.0655 23.7436L75.0598 23.7607L66.9439 52.0132C66.7426 52.5435 66.8711 52.9118 67.0167 53.1308C67.1646 53.352 67.4626 53.6166 68.0359 53.6166H77.213C78.0183 53.6166 78.5586 53.0783 78.5586 52.2778L77.287 23.8496L77.2483 23.7379H77.2494ZM68.6581 51.9745L75.7946 27.1327L76.907 51.9745H68.6581Z" fill="#F70D29"/>
<path d="M144.469 22.7047L144.478 22.6386C144.623 21.212 144.693 20.1686 144.693 19.449C144.693 13.9935 142.975 9.59396 139.585 6.37356C136.207 3.16685 131.545 1.53955 125.732 1.53955C119.369 1.53955 113.952 3.45423 109.635 7.23112C105.311 11.0137 102.751 16.1385 102.03 22.4527L97.8115 56.008L97.808 56.0342C97.6659 57.56 97.5931 58.7004 97.5931 59.4245C97.5931 64.8835 99.3118 69.2819 102.7 72.5C106.075 75.7078 110.701 77.334 116.449 77.334C122.743 77.334 128.141 75.4011 132.493 71.5911C136.847 67.78 139.459 62.6062 140.256 56.2133L140.36 55.1949C140.464 54.6133 140.326 54.0831 139.954 53.6543C139.591 53.2392 139.093 53.018 138.514 53.0123L126.61 52.4945H126.575C126.01 52.4945 125.503 52.6998 125.105 53.0909C124.74 53.4502 124.502 53.8892 124.401 54.3955L124.075 57.2499C123.815 59.0767 123.137 60.4919 122.001 61.5753C120.884 62.6426 119.55 63.1615 117.924 63.1615C116.599 63.1615 115.569 62.7544 114.772 61.9151C113.966 61.0655 113.575 59.9468 113.575 58.494C113.575 57.9785 113.618 57.7014 113.654 57.5589L113.667 57.5076L118.103 21.732C118.356 19.9268 119.057 18.45 120.184 17.3427C121.301 16.2457 122.598 15.7132 124.147 15.7132C125.543 15.7132 126.608 16.1214 127.404 16.9596C128.21 17.8103 128.603 18.9301 128.603 20.3818C128.603 21.0102 128.553 21.3044 128.522 21.4241L128.51 21.4754L128.186 24.2214L128.184 24.2408C128.127 24.8555 128.267 25.3527 128.599 25.7199C128.935 26.0893 129.425 26.2775 130.054 26.2775L142.099 25.7598C142.655 25.7552 143.156 25.5488 143.549 25.1634C143.912 24.8064 144.149 24.3685 144.253 23.8611L144.467 22.707L144.469 22.7047ZM142.854 22.4379L142.651 23.5349C142.612 23.7174 142.535 23.8611 142.406 23.9877C142.314 24.0789 142.219 24.1154 142.082 24.1154L130.042 24.6331C129.921 24.632 129.854 24.6171 129.821 24.6069C129.814 24.5749 129.807 24.5099 129.816 24.4005L130.126 21.7662C130.204 21.4241 130.243 20.9691 130.243 20.3795C130.243 18.5128 129.688 16.9812 128.594 15.8261C127.487 14.6606 125.992 14.0699 124.151 14.0699C122.179 14.0699 120.461 14.7758 119.042 16.1682C117.649 17.5366 116.788 19.3327 116.484 21.5085L112.058 57.2042C111.979 57.5406 111.941 57.9626 111.941 58.4929C111.941 60.3608 112.496 61.8923 113.59 63.0452C114.695 64.2106 116.155 64.8025 117.929 64.8025C119.966 64.8025 121.718 64.116 123.134 62.7635C124.531 61.4316 125.394 59.6503 125.701 57.4677L126.016 54.6897C126.055 54.521 126.131 54.3841 126.255 54.2632C126.345 54.1754 126.435 54.1378 126.564 54.1355L138.462 54.6521H138.498C138.653 54.6521 138.697 54.7023 138.724 54.7331C138.75 54.7627 138.774 54.7912 138.75 54.9121L138.634 56.0171C137.887 61.9938 135.461 66.8175 131.42 70.3538C127.375 73.8958 122.339 75.6919 116.453 75.6919C111.139 75.6919 106.892 74.2174 103.832 71.3083C100.783 68.4129 99.2356 64.4148 99.2356 59.4245C99.2356 58.7529 99.305 57.6684 99.4415 56.1996L103.66 22.6477C104.335 16.7429 106.709 11.9716 110.716 8.46613C114.727 4.95837 119.781 3.1794 125.736 3.1794C131.118 3.1794 135.4 4.65389 138.464 7.56296C141.513 10.4618 143.06 14.4599 143.06 19.4467C143.06 20.0956 142.992 21.1025 142.856 22.4368L142.854 22.4379Z" fill="#F70D29"/>
<path d="M197.743 3.13376C197.537 2.78367 197.083 2.36743 196.088 2.36743H183.43C182.434 2.36743 181.644 2.82814 181.145 3.69938L165.886 28.1283L168.849 4.48281V4.43149C168.849 3.15885 168.09 2.36743 166.87 2.36743H154.95C154.387 2.36743 153.879 2.57384 153.48 2.96384C153.115 3.32306 152.878 3.7621 152.776 4.26842L152.771 4.29807L144.016 74.3097C143.905 74.8959 144.044 75.4307 144.418 75.8595C144.784 76.2803 145.289 76.5026 145.879 76.5026H157.798C158.35 76.5026 158.849 76.3133 159.28 75.9416C159.701 75.5801 159.969 75.1296 160.077 74.6028L160.083 74.5697L162.619 53.7204L162.625 53.6714V53.6691C162.654 53.6292 162.678 53.6029 162.695 53.587L162.755 53.5277L165.913 48.786L172.93 74.9483C173.16 75.9359 173.91 76.5026 174.99 76.5026H187.858C189.079 76.5026 189.837 75.791 189.837 74.6461V74.5435L189.707 74.0292L178.562 35.0047L178.584 34.983L197.516 5.0758L197.532 5.04957C197.97 4.29579 198.042 3.65262 197.742 3.13262L197.743 3.13376ZM196.126 4.21254L177.294 33.9624C177.17 34.105 177.076 34.2715 177.014 34.4585C176.949 34.6466 176.917 34.853 176.917 35.088V35.2031L188.127 74.45L188.199 74.7362C188.195 74.7773 188.188 74.8035 188.182 74.816C188.16 74.8274 188.071 74.8651 187.862 74.8651H174.993C174.592 74.8651 174.565 74.7419 174.526 74.5731L174.522 74.5572L167.262 47.4906C167.228 47.1131 167.048 46.8862 166.895 46.7585C166.66 46.5646 166.353 46.4928 166.024 46.5566C165.69 46.6239 165.392 46.7847 165.138 47.0333L165.078 47.0926L161.486 52.4865C161.397 52.5812 161.314 52.6872 161.239 52.799C161.087 53.0214 161.001 53.2859 160.991 53.5664L158.469 74.304C158.432 74.4568 158.351 74.5834 158.217 74.6997C158.085 74.8137 157.956 74.8639 157.802 74.8639H145.882C145.726 74.8639 145.685 74.8172 145.656 74.783L145.653 74.7807C145.627 74.751 145.605 74.7248 145.63 74.6062L145.636 74.5754L154.391 4.56834C154.43 4.39728 154.506 4.2593 154.63 4.13842C154.724 4.04719 154.817 4.0107 154.955 4.0107H166.874C167.12 4.0107 167.209 4.0107 167.215 4.38474L163.958 30.3839C163.873 30.7568 163.916 31.0784 164.082 31.343C164.234 31.5836 164.477 31.7478 164.76 31.8014C165.24 31.8995 165.805 31.6771 166.044 30.9769L182.546 4.55693L182.564 4.52614C182.771 4.16009 183.023 4.0107 183.435 4.0107H196.092C196.147 4.0107 196.194 4.01298 196.232 4.0164C196.208 4.07 196.175 4.135 196.13 4.21482L196.126 4.21254Z" fill="#F70D29"/>
<path d="M326.399 15.9435C326.761 15.5866 326.999 15.1487 327.103 14.6412L327.11 14.6104L328.376 4.56036C328.485 3.97535 328.346 3.44052 327.973 3.01174L327.971 3.00946C327.603 2.5898 327.098 2.36743 326.511 2.36743H285.901C285.337 2.36743 284.83 2.57384 284.432 2.96384C284.067 3.32306 283.829 3.7621 283.728 4.26842L283.722 4.29807L282.452 14.3732L282.446 14.4245V14.4758C282.446 15.7485 283.204 16.5399 284.425 16.5399H296.219L288.995 74.3109C288.885 74.8981 289.024 75.433 289.398 75.8606C289.764 76.2825 290.269 76.5049 290.86 76.5049H302.885C303.449 76.5049 303.956 76.2985 304.354 75.9085C304.717 75.5516 304.955 75.1137 305.059 74.6062L305.065 74.5754L312.322 16.541H324.931C325.495 16.541 326.003 16.3346 326.401 15.9446L326.399 15.9435ZM312.061 14.8989C311.705 14.8989 311.378 15.0335 311.119 15.2889C310.87 15.533 310.731 15.8386 310.716 16.1761L303.448 74.304C303.408 74.4773 303.332 74.6153 303.208 74.7362C303.116 74.8274 303.021 74.8639 302.885 74.8639H290.86C290.704 74.8639 290.663 74.8172 290.631 74.7807C290.605 74.751 290.582 74.7248 290.607 74.6062L290.614 74.5754L297.885 16.4304C298.046 15.9298 297.889 15.5797 297.775 15.4087C297.62 15.176 297.3 14.9001 296.662 14.9001H284.426C284.18 14.9001 284.092 14.9001 284.085 14.526L285.339 4.56834C285.378 4.39728 285.454 4.2593 285.579 4.13728C285.671 4.04605 285.766 4.00956 285.904 4.00956H326.514C326.666 4.00956 326.711 4.05745 326.74 4.09052C326.766 4.12017 326.79 4.14868 326.765 4.26956L326.759 4.29921L325.494 14.339C325.455 14.5123 325.378 14.6503 325.254 14.7712C325.162 14.8624 325.068 14.8989 324.931 14.8989H312.063H312.061Z" fill="#EC03FF"/>
<path d="M375.015 3.00938C374.648 2.58972 374.143 2.36735 373.556 2.36735H361.531C360.968 2.36735 360.459 2.57376 360.061 2.96376C359.695 3.32298 359.458 3.76202 359.357 4.26834L359.351 4.29913L355.891 32.2974H346.255L349.79 4.53405L349.796 4.48273V4.43027C349.796 3.15762 349.038 2.36621 347.817 2.36621H335.898C335.333 2.36621 334.826 2.57262 334.428 2.96262C334.063 3.32184 333.825 3.76088 333.724 4.2672L333.718 4.29685L324.963 74.3085C324.853 74.8958 324.992 75.4306 325.366 75.8582C325.732 76.2802 326.237 76.5025 326.827 76.5025H338.747C339.299 76.5025 339.798 76.3144 340.23 75.9415C340.651 75.58 340.918 75.1295 341.027 74.6038L341.033 74.5719L344.494 46.4687H354.129L350.598 74.3085C350.487 74.8958 350.627 75.4317 351.001 75.8582C351.367 76.2802 351.872 76.5025 352.463 76.5025H364.488C365.052 76.5025 365.559 76.2961 365.958 75.9061C366.32 75.5492 366.558 75.1113 366.662 74.6038L366.668 74.5731L375.424 4.55799C375.532 3.97299 375.393 3.43816 375.019 3.0071L375.015 3.00938ZM373.807 4.26834L373.802 4.29799L365.048 74.3028C365.008 74.4761 364.932 74.6141 364.808 74.735C364.715 74.8262 364.621 74.8627 364.485 74.8627H352.459C352.303 74.8627 352.262 74.8159 352.231 74.7795C352.204 74.7498 352.182 74.7236 352.207 74.605L352.212 74.5742L355.802 46.2703L355.809 46.219V46.1665C355.809 45.2417 355.186 44.8277 354.568 44.8277H344.337C343.364 44.8277 342.912 45.4595 342.886 46.1061L339.415 74.3016C339.377 74.4556 339.296 74.5822 339.162 74.6985C339.03 74.8125 338.902 74.8627 338.746 74.8627H326.826C326.67 74.8627 326.63 74.8159 326.598 74.7795C326.572 74.7498 326.549 74.7236 326.574 74.605L326.581 74.5742L335.335 4.56712C335.373 4.39606 335.449 4.25922 335.573 4.1372C335.666 4.04597 335.76 4.00948 335.898 4.00948H347.817C348.063 4.00948 348.152 4.00948 348.158 4.38238L344.579 32.497L344.572 32.5483V32.6007C344.572 33.5256 345.195 33.9395 345.813 33.9395H356.045C356.336 33.9395 357.056 33.8392 357.435 32.9121L357.477 32.8106L360.966 4.56712C361.005 4.39606 361.081 4.25922 361.205 4.1372C361.297 4.04597 361.392 4.00948 361.528 4.00948H373.554C373.709 4.00948 373.753 4.05965 373.78 4.09044C373.806 4.12009 373.83 4.14746 373.805 4.26948L373.807 4.26834Z" fill="#EC03FF"/>
<path d="M402.035 14.0698C399.914 14.0698 398.101 14.8339 396.648 16.3392C395.226 17.8091 394.352 19.7614 394.05 22.1413L389.731 56.4789C389.651 56.8187 389.612 57.2749 389.612 57.8713C389.612 59.9376 390.179 61.6197 391.297 62.8718C392.438 64.1536 393.956 64.8036 395.81 64.8036C397.999 64.8036 399.847 64.0395 401.303 62.5342C402.724 61.0632 403.598 59.112 403.9 56.7321L408.219 22.3934C408.299 22.0501 408.336 21.594 408.336 21.0032C408.336 18.9415 407.77 17.2594 406.651 16.0027C405.506 14.7221 403.952 14.0721 402.032 14.0721L402.035 14.0698ZM406.62 22.0433L406.607 22.0912L402.277 56.5234C402.02 58.543 401.296 60.1794 400.128 61.3905C398.976 62.581 397.564 63.1603 395.812 63.1603C394.425 63.1603 393.348 62.7076 392.519 61.777C391.666 60.8214 391.25 59.5442 391.25 57.8713C391.25 57.2703 391.294 56.975 391.33 56.8324L391.342 56.7822L395.674 22.3477C395.93 20.3282 396.653 18.6917 397.823 17.4818C398.973 16.2913 400.35 15.712 402.034 15.712C403.488 15.712 404.601 16.1647 405.431 17.0952C406.285 18.0543 406.699 19.3326 406.699 21.0021C406.699 21.6293 406.649 21.9247 406.619 22.0444L406.62 22.0433Z" fill="#EC03FF"/>
<path d="M422.574 22.9408C422.718 21.3774 422.789 20.2689 422.789 19.5516C422.789 14.0231 421.033 9.58711 417.569 6.36672C414.121 3.16343 409.391 1.53955 403.511 1.53955C397.076 1.53955 391.606 3.48958 387.253 7.33717C382.899 11.1848 380.287 16.3757 379.493 22.7652L375.379 55.9065L375.377 55.9316C375.235 57.4585 375.162 58.5989 375.162 59.3219C375.162 64.8504 376.899 69.2853 380.326 72.5034C383.737 75.709 388.45 77.334 394.335 77.334C400.768 77.334 406.254 75.384 410.643 71.5386C415.033 67.6922 417.661 62.5001 418.459 56.1083L422.573 22.967L422.575 22.9408H422.574ZM420.945 22.7766L416.833 55.9042C416.088 61.8843 413.643 66.7274 409.565 70.3013C405.482 73.8775 400.358 75.6907 394.334 75.6907C388.879 75.6907 384.543 74.2151 381.445 71.3037C378.363 68.4083 376.8 64.376 376.8 59.3196C376.8 58.6491 376.869 57.5646 377.006 56.0947L381.118 22.9659C381.862 16.9858 384.29 12.1415 388.336 8.56649C392.382 4.99144 397.487 3.1794 403.511 3.1794C408.965 3.1794 413.321 4.65617 416.456 7.56867C419.571 10.4663 421.151 14.4975 421.151 19.5505C421.151 20.2062 421.082 21.2907 420.945 22.7754V22.7766Z" fill="#EC03FF"/>
<path d="M475.958 3.00938C475.59 2.58972 475.085 2.36735 474.498 2.36735H462.579C462.015 2.36735 461.507 2.57376 461.109 2.96376C460.744 3.32298 460.506 3.76202 460.405 4.26834L460.399 4.29913L455.919 41.0235L448.72 4.05737C448.499 2.98315 447.784 2.36621 446.758 2.36621H433.362C432.798 2.36621 432.29 2.57262 431.892 2.96262C431.527 3.32184 431.289 3.76088 431.188 4.2672L431.182 4.29685L422.427 74.3085C422.317 74.8958 422.456 75.4306 422.83 75.8582C423.196 76.2802 423.701 76.5025 424.292 76.5025H436.105C436.657 76.5025 437.156 76.3132 437.587 75.9415C438.008 75.58 438.276 75.1295 438.384 74.6038L438.391 74.5719L442.865 37.8989L449.857 74.8L449.879 74.8867C450.197 75.9289 450.924 76.5025 451.928 76.5025H465.429C465.994 76.5025 466.501 76.2961 466.899 75.9061C467.262 75.5492 467.5 75.1113 467.603 74.6038L467.61 74.5731L476.365 4.55799C476.474 3.97299 476.334 3.43816 475.96 3.0071L475.958 3.00938ZM474.751 4.26834L474.745 4.29799L465.991 74.3028C465.951 74.4761 465.875 74.6141 465.751 74.735C465.659 74.8262 465.565 74.8627 465.428 74.8627H451.926C451.769 74.8627 451.593 74.8627 451.456 74.4465L443.87 34.4151L443.858 34.3569L443.839 34.301C443.638 33.7115 443.116 33.391 442.534 33.5039C441.994 33.6134 441.638 34.0444 441.615 34.6112L436.773 74.3016C436.736 74.4545 436.655 74.581 436.519 74.6973C436.387 74.8114 436.259 74.8616 436.104 74.8616H424.29C424.135 74.8616 424.094 74.8148 424.062 74.7783C424.036 74.7487 424.013 74.7224 424.038 74.6038L424.045 74.5731L432.799 4.56598C432.837 4.39492 432.914 4.25808 433.038 4.13606C433.13 4.04483 433.224 4.00834 433.362 4.00834H446.758C446.933 4.00834 447.038 4.00834 447.115 4.3801L454.92 44.4594L454.93 44.5119L454.948 44.5632C455.148 45.1607 455.673 45.4834 456.249 45.3671C456.793 45.2611 457.151 44.83 457.174 44.2587L462.017 4.56484C462.056 4.39378 462.132 4.25694 462.256 4.13606C462.348 4.04483 462.442 4.00834 462.579 4.00834H474.498C474.654 4.00834 474.697 4.05851 474.725 4.0893C474.751 4.11895 474.775 4.14632 474.75 4.26834H474.751Z" fill="#EC03FF"/>
<path d="M512.432 8.55059C511.124 6.69863 509.204 5.53888 506.726 5.10212L504.749 4.84212C504.396 4.77826 504.048 4.86378 503.765 5.08387C503.486 5.2994 503.315 5.6016 503.27 5.95739L502.643 10.8724C502.598 11.2213 502.685 11.5555 502.894 11.836C503.096 12.1062 503.376 12.2853 503.705 12.3537L505.484 12.5795L505.527 12.5841C506.159 12.6285 506.628 12.803 506.962 13.1178C507.243 13.3835 507.346 13.68 507.295 14.0814C507.254 14.4029 507.121 14.6299 506.864 14.8146C506.567 15.0267 506.131 15.1351 505.57 15.1351H505.566C503.947 15.1351 501.93 14.1726 499.568 12.2762C498.16 11.1004 495.998 9.06261 493.14 6.21854C492.262 5.30396 491.341 4.39053 490.408 3.51017C490.099 3.21025 489.72 3.04604 489.311 3.03122L485.153 2.48156C484.799 2.4177 484.45 2.50323 484.168 2.72332C483.888 2.93885 483.718 3.24104 483.672 3.5957L481.717 18.9382C481.672 19.2883 481.759 19.6213 481.968 19.9018C482.192 20.2028 482.515 20.375 482.885 20.3921L486.882 20.8996C487.233 20.9612 487.58 20.8757 487.865 20.6567C488.143 20.44 488.314 20.139 488.36 19.7855L489.298 12.4198C489.35 12.4746 489.403 12.5293 489.454 12.5841C489.812 12.9638 490.191 13.3333 490.578 13.6811C492.382 15.5319 494.046 17.1364 495.523 18.449L495.536 18.4592C496.982 19.6908 498.369 20.6464 499.659 21.301C500.971 21.9659 502.411 22.4095 503.94 22.6216L503.975 22.6261C504.623 22.6866 505.075 22.7162 505.355 22.7162H505.362C507.645 22.7162 509.588 22.0252 511.135 20.6613C512.683 19.2963 513.615 17.4534 513.905 15.1852C514.231 12.6263 513.735 10.3946 512.433 8.55287L512.432 8.55059ZM512.324 14.9811C512.082 16.8787 511.349 18.344 510.083 19.4605C508.818 20.5757 507.273 21.1174 505.362 21.1174H505.356C505.13 21.1174 504.721 21.0901 504.14 21.0365C502.793 20.8483 501.527 20.4571 500.378 19.8756C499.202 19.2792 497.921 18.3942 496.573 17.247C495.12 15.9561 493.479 14.3744 491.698 12.5453L491.659 12.5077C491.298 12.1838 490.945 11.8394 490.611 11.4847C490.252 11.105 489.883 10.7287 489.513 10.366C489.229 10.0627 488.811 9.98061 488.439 10.1562C488.134 10.2988 487.927 10.5782 487.885 10.9066L486.818 19.2814L483.335 18.839L485.213 4.0986L489.198 4.62545H489.25C489.258 4.62545 489.268 4.62545 489.311 4.66536C490.233 5.5366 491.138 6.43407 492.001 7.33268L492.013 7.34522C494.91 10.2292 497.111 12.3024 498.557 13.5089L498.568 13.518C501.258 15.679 503.548 16.7304 505.567 16.7327H505.572C506.473 16.7327 507.219 16.5252 507.793 16.1146C508.406 15.6745 508.782 15.0415 508.878 14.2855C508.994 13.3789 508.71 12.5738 508.057 11.9569C507.459 11.3912 506.654 11.0674 505.665 10.9944L504.26 10.8188L504.815 6.46372L506.474 6.68153C508.543 7.04987 510.069 7.96444 511.139 9.4777C512.218 11.0047 512.607 12.8053 512.329 14.9845L512.324 14.9811Z" fill="#EC03FF"/>
<path d="M503.591 23.3867L490.283 21.7115L490.258 21.7092C489.624 21.6499 489.132 21.6191 488.792 21.6191H488.784C486.417 21.6191 484.401 22.3307 482.794 23.7357C481.182 25.1429 480.211 27.0655 479.907 29.4489C479.568 32.1094 480.15 34.4106 481.638 36.2877C483.124 38.1624 485.271 39.2697 488.01 39.5788L501.319 41.254L501.345 41.2562C501.993 41.3167 502.472 41.3463 502.81 41.3463H502.818C505.213 41.3463 507.237 40.6336 508.833 39.2275C510.429 37.8203 511.394 35.884 511.702 33.4744C512.037 30.8401 511.451 28.5594 509.96 26.6972C508.475 24.8407 506.333 23.7277 503.594 23.3878L503.591 23.3867ZM510.121 33.2714C509.86 35.3127 509.095 36.8693 507.78 38.029C506.466 39.1865 504.843 39.7498 502.817 39.7498H502.81C502.528 39.7498 502.088 39.7225 501.503 39.6677L488.197 37.9925C485.851 37.728 484.113 36.8453 482.884 35.2933C481.656 33.7447 481.199 31.8984 481.486 29.6496C481.742 27.638 482.512 26.0962 483.839 24.9376C485.167 23.7779 486.784 23.2145 488.784 23.2145H488.791C489.08 23.2145 489.519 23.2419 490.096 23.2966L503.393 24.9707C505.741 25.2615 507.482 26.1532 508.715 27.695C509.942 29.2288 510.401 31.0522 510.119 33.2714H510.121Z" fill="#EC03FF"/>
<path d="M503.18 29.2848L489.229 27.5263C489.039 27.491 488.796 27.4739 488.47 27.4739H488.466C487.57 27.4739 486.797 27.6928 486.169 28.125C485.489 28.5926 485.073 29.2722 484.969 30.0922C484.846 31.0523 485.144 31.9076 485.83 32.5656C486.452 33.1632 487.314 33.5509 488.391 33.7197L502.366 35.4815C502.555 35.5169 502.79 35.534 503.081 35.534H503.084C504.012 35.534 504.805 35.3048 505.44 34.8532C506.115 34.3708 506.528 33.6706 506.635 32.8302C506.754 31.8974 506.454 31.0569 505.769 30.4001C505.138 29.7957 504.267 29.4205 503.179 29.2859L503.18 29.2848ZM505.058 32.6272C505.006 33.032 504.835 33.3251 504.517 33.552C504.153 33.8109 503.685 33.9375 503.085 33.9375H503.083C502.812 33.9375 502.691 33.9181 502.652 33.9101L502.622 33.9044L488.627 32.1403C487.883 32.0228 487.313 31.7776 486.932 31.4127C486.609 31.1025 486.491 30.757 486.55 30.2951C486.598 29.9245 486.763 29.6543 487.071 29.4421C487.435 29.1924 487.892 29.0704 488.469 29.0704H488.471C488.791 29.0704 488.912 29.0909 488.942 29.0966L488.973 29.1035L502.984 30.8687C503.727 30.9611 504.293 31.1903 504.67 31.5518C504.993 31.862 505.112 32.1939 505.058 32.6272Z" fill="#EC03FF"/>
<path d="M502.021 42.0261L500.044 41.7661C499.69 41.7022 499.342 41.7878 499.06 42.0079C498.78 42.2234 498.609 42.5256 498.564 42.8814L497.938 47.7952C497.894 48.1453 497.98 48.4783 498.19 48.7588C498.391 49.0291 498.672 49.2081 499.001 49.2766L500.78 49.5024L500.823 49.5069C501.454 49.5514 501.924 49.7259 502.257 50.0406C502.538 50.3063 502.642 50.6028 502.59 51.0042C502.55 51.3269 502.416 51.5527 502.159 51.7375C501.863 51.9496 501.427 52.0579 500.865 52.0579H500.862C499.243 52.0579 497.225 51.0954 494.864 49.199C493.455 48.0233 491.293 45.9855 488.436 43.1414C487.558 42.2268 486.636 41.3134 485.704 40.433C485.394 40.1331 485.015 39.9689 484.606 39.9541L480.448 39.4044C480.095 39.3406 479.746 39.4261 479.463 39.6462C479.184 39.8617 479.013 40.1639 478.967 40.5197L477.012 55.8622C476.968 56.2111 477.054 56.5453 477.264 56.8258C477.488 57.1268 477.811 57.299 478.179 57.3161L482.176 57.8236C482.528 57.8852 482.875 57.7997 483.159 57.5807C483.438 57.364 483.608 57.063 483.654 56.7095L484.592 49.3438C484.645 49.3986 484.697 49.4533 484.748 49.5081C485.106 49.8878 485.485 50.2573 485.872 50.6051C487.676 52.4559 489.34 54.0604 490.818 55.373L490.83 55.3832C492.276 56.6148 493.664 57.5704 494.954 58.225C496.265 58.8898 497.705 59.3334 499.234 59.5456L499.269 59.5501C499.917 59.6106 500.369 59.6402 500.649 59.6402H500.657C502.94 59.6402 504.883 58.9491 506.429 57.5853C507.978 56.2202 508.91 54.3774 509.199 52.1092C509.526 49.5502 509.03 47.3186 507.727 45.4769C506.418 43.6249 504.499 42.4652 502.022 42.0284L502.021 42.0261ZM507.618 51.9051C507.376 53.8027 506.643 55.268 505.377 56.3845C504.112 57.4997 502.568 58.0414 500.657 58.0414H500.65C500.425 58.0414 500.015 58.014 499.434 57.9604C498.087 57.7723 496.821 57.3811 495.672 56.7996C494.496 56.2031 493.215 55.3182 491.868 54.171C490.414 52.8801 488.774 51.2984 486.992 49.4693L486.954 49.4316C486.592 49.1078 486.239 48.7634 485.905 48.4087C485.548 48.0301 485.178 47.6538 484.807 47.29C484.523 46.9867 484.107 46.9046 483.733 47.0791C483.429 47.2216 483.222 47.501 483.18 47.8294L482.113 56.2043L478.63 55.7618L480.508 41.0214L484.492 41.5483H484.544C484.552 41.5483 484.563 41.5483 484.605 41.5882C485.527 42.4595 486.433 43.3569 487.295 44.2555L487.307 44.2681C490.205 47.1521 492.406 49.2252 493.851 50.4317L493.863 50.4409C496.553 52.6019 498.843 53.6533 500.862 53.6556H500.866C501.767 53.6556 502.513 53.448 503.088 53.0375C503.701 52.5973 504.076 51.9644 504.173 51.2083C504.289 50.3017 504.004 49.4967 503.351 48.8809C502.753 48.3152 501.948 47.9914 500.959 47.9184L499.555 47.7428L500.11 43.3877L501.768 43.6055C503.837 43.9739 505.364 44.8884 506.433 46.4017C507.512 47.9286 507.901 49.7293 507.624 51.9085L507.618 51.9051Z" fill="#EC03FF"/>
<path d="M506.108 66.3022L489.808 58.5933L489.07 58.388L485.532 57.9456H485.483C485.483 57.9456 485.483 57.9456 485.482 57.9456C484.746 57.9456 484.212 58.404 484.122 59.1121L482.88 68.8634L476.784 68.1199C476.432 68.0572 476.084 68.1438 475.803 68.3617C475.523 68.5772 475.351 68.8794 475.306 69.2352L474.691 74.0646C474.646 74.4136 474.733 74.7466 474.942 75.0271C475.165 75.3282 475.489 75.5003 475.858 75.5186L481.933 76.2986L481.841 77.0193C481.794 77.3854 481.898 77.7366 482.132 78.008C482.332 78.2384 482.601 78.3946 482.908 78.4585L487.264 78.9819C487.338 78.9944 487.411 79.0013 487.484 79.0013C487.757 79.0013 488.021 78.9112 488.242 78.739C488.521 78.5223 488.692 78.2201 488.737 77.8666L488.825 77.179L492.573 77.6602C492.945 77.7263 493.308 77.6203 493.602 77.3603C493.857 77.1322 494.014 76.8357 494.056 76.5027L494.671 71.6733C494.718 71.3072 494.615 70.956 494.38 70.6846C494.179 70.452 493.909 70.2957 493.601 70.233L489.773 69.7392L490.085 67.2943L504.442 73.9278C505.031 74.1969 505.452 74.0213 505.654 73.8902C505.868 73.7487 506.136 73.4739 506.201 72.9608L506.871 67.7048C506.946 67.1141 506.668 66.6021 506.109 66.301L506.108 66.3022ZM504.682 72.2822L489.912 65.4571L489.809 65.4389C489.409 65.3693 489.14 65.4925 488.984 65.6077C488.778 65.7605 488.646 65.9897 488.612 66.252L488.116 70.1406C488.078 70.4405 488.158 70.7211 488.341 70.9298C488.511 71.1236 488.752 71.2365 489.026 71.2513L493.054 71.7679L492.51 76.0397L488.397 75.5118H488.346C487.8 75.5118 487.388 75.8607 487.322 76.3796L487.197 77.3637L483.459 76.9167L483.584 75.9371C483.637 75.5254 483.489 75.2574 483.355 75.1046C483.185 74.9119 482.949 74.799 482.681 74.7831L476.31 73.9654L476.85 69.7347L483.186 70.5067C483.518 70.6002 483.776 70.4987 483.909 70.4223C484.062 70.3345 484.327 70.1167 484.386 69.6537L485.672 59.5683L488.76 59.9549L489.254 60.0929L505.273 67.6672L504.685 72.2788L504.682 72.2822Z" fill="#EC03FF"/>
<path d="M274.942 63.0327C271.074 66.4538 267.674 64.7387 265.558 60.923L242.183 10.1197C238.976 3.55687 230.81 2.28194 227.169 2.72326C223.528 3.16458 218.152 5.55821 216.248 9.77757L211.328 22.3216C211.328 22.3216 221.992 14.5101 228.478 24.5898L250.029 69.811C253.047 76.1446 260.728 79.2817 267.045 76.2563C271.239 74.247 274.496 69.884 274.879 65.5563C274.942 64.8573 274.942 63.0327 274.942 63.0327Z" fill="url(#paint6_linear_1_31)"/>
<path d="M238.426 55.4785V55.7328C238.426 51.4622 234.973 48 230.713 48C226.453 48 223 51.4622 223 55.7328V55.4785C223 59.7492 226.453 63.2113 230.713 63.2113C234.973 63.2113 238.426 59.7492 238.426 55.4785Z" fill="#F70D29"/>
<defs>
<linearGradient id="paint0_linear_1_31" x1="214.74" y1="98.3111" x2="287.467" y2="33.2193" gradientUnits="userSpaceOnUse">
<stop stop-color="#960000"/>
<stop offset="1" stop-color="#B503FF"/>
</linearGradient>
<linearGradient id="paint1_linear_1_31" x1="211.776" y1="94.9993" x2="284.503" y2="29.9064" gradientUnits="userSpaceOnUse">
<stop stop-color="#960000"/>
<stop offset="1" stop-color="#B503FF"/>
</linearGradient>
<linearGradient id="paint2_linear_1_31" x1="204.012" y1="86.0795" x2="276.714" y2="21.2103" gradientUnits="userSpaceOnUse">
<stop stop-color="#960000"/>
<stop offset="1" stop-color="#B503FF"/>
</linearGradient>
<linearGradient id="paint3_linear_1_31" x1="196.167" y1="77.3477" x2="268.87" y2="12.4785" gradientUnits="userSpaceOnUse">
<stop stop-color="#960000"/>
<stop offset="1" stop-color="#B503FF"/>
</linearGradient>
<linearGradient id="paint4_linear_1_31" x1="185.773" y1="80.6661" x2="265.774" y2="9.06393" gradientUnits="userSpaceOnUse">
<stop stop-color="#960000"/>
<stop offset="1" stop-color="#B503FF"/>
</linearGradient>
<linearGradient id="paint5_linear_1_31" x1="186.543" y1="65.7443" x2="259.595" y2="0.362464" gradientUnits="userSpaceOnUse">
<stop stop-color="#960000"/>
<stop offset="1" stop-color="#B503FF"/>
</linearGradient>
<linearGradient id="paint6_linear_1_31" x1="211.329" y1="40.0303" x2="274.942" y2="40.0303" gradientUnits="userSpaceOnUse">
<stop stop-color="#F70D29"/>
<stop offset="1" stop-color="#EC03FF"/>
</linearGradient>
</defs>
</svg>
