<?xml version="1.0" encoding="utf-8"?>
<!-- Generator: Adobe Illustrator 28.1.0, SVG Export Plug-In . SVG Version: 6.00 Build 0)  -->
<svg version="1.1" xmlns="http://www.w3.org/2000/svg" xmlns:xlink="http://www.w3.org/1999/xlink" x="0px" y="0px"
	 viewBox="0 0 3048 675" style="enable-background:new 0 0 3158 705;" xml:space="preserve">
<style type="text/css">
	.st0{fill:url(#SVGID_1_);}
	.st1{opacity:0.2;}
	.st2{fill:url(#SVGID_00000132766143395681583710000009998576611621583758_);}
	.st3{fill:url(#SVGID_00000007391692964609026230000005083931916600233616_);}
	.st4{fill:url(#SVGID_00000150076738821213565770000005861909388903122064_);}
	.st5{fill:url(#SVGID_00000031183312005915729870000005719819402703856294_);}
	.st6{fill:url(#SVGID_00000120548080189360259770000010578729199639008670_);}
	.st7{fill:url(#SVGID_00000003784782985540937790000011324026965068919212_);}
	.st8{fill:#F70D29;}
	.st9{fill:#EC03FF;}
	.st10{fill:#1A1A1A;stroke:#231F20;stroke-miterlimit:10;}
	.st11{fill:#1A1A1A;}
	.st12{fill:url(#SVGID_00000182519695929776235040000016031446474603016330_);}
	.st13{fill:url(#SVGID_00000013907626913069759600000015778874476814603416_);}
	.st14{fill:url(#SVGID_00000156582870074090983000000006569553069365142970_);}
	.st15{fill:url(#SVGID_00000163786218654377628030000016209916659986171814_);}
	.st16{fill:url(#SVGID_00000134971570008839743780000015568554212640723607_);}
	.st17{fill:url(#SVGID_00000098936166667407987250000002484851788252681091_);}
	.st18{fill-rule:evenodd;clip-rule:evenodd;fill:#E32434;}
	.st19{fill-rule:evenodd;clip-rule:evenodd;fill:#FFFFFF;}
	.st20{fill:url(#SVGID_00000075840841881254895340000016976685172539829921_);}
	.st21{fill:url(#SVGID_00000080168134819939910040000011164068544576159915_);}
	.st22{fill:url(#SVGID_00000052814311043035418970000014812712265278962878_);}
	.st23{fill:url(#SVGID_00000073715552430383359870000004654357740157608631_);}
	.st24{fill:#EC03FF;stroke:#EC03FF;stroke-width:3.4016;stroke-miterlimit:10;}
	.st25{fill:url(#SVGID_00000057848325090068733540000010451175894627617183_);}
	.st26{fill:#F70D29;stroke:#F70D29;stroke-width:3.4016;stroke-miterlimit:10;}
	.st27{fill:url(#SVGID_00000167397491221901982610000010323940580888260237_);}
	.st28{fill:#FFFFFF;}
	.st29{fill:url(#SVGID_00000031168235185343938080000005460604277127406466_);}
	.st30{fill:url(#SVGID_00000147206719558535473060000003927185937828787867_);}
	.st31{fill:url(#SVGID_00000134944222160814177110000003136665575072961186_);}
	.st32{fill-rule:evenodd;clip-rule:evenodd;fill:#F70D29;}
	.st33{fill:none;stroke:url(#SVGID_00000058590343061132232610000005157569838230174125_);stroke-width:5;stroke-miterlimit:10;}
	.st34{fill:url(#SVGID_00000152943435958270663330000005919921259528891558_);}
	.st35{fill:url(#SVGID_00000090284735735738158250000006871221118487620522_);}
	.st36{fill:#EC03FF;stroke:#231F20;stroke-miterlimit:10;}
	.st37{fill:url(#SVGID_00000171715065073646748920000017712962621840071809_);}
	.st38{fill:url(#SVGID_00000179606223480202464260000013216780561443426201_);}
	.st39{fill:url(#SVGID_00000183932640243216845170000010122371471290642094_);}
	.st40{fill:url(#SVGID_00000137123726091029772470000012435243647667397532_);}
	.st41{fill:url(#SVGID_00000140717810026214637290000017418922253407392164_);}
	.st42{fill:url(#SVGID_00000128458638362856269660000013866052645518423464_);}
	.st43{fill:url(#SVGID_00000168116552084119216600000014056736965498712965_);}
	.st44{fill:url(#SVGID_00000137850745862727394410000006499451699851208108_);}
	.st45{fill:url(#SVGID_00000088843023401602464470000002412546783527441568_);}
	.st46{fill:url(#SVGID_00000155148649841802347960000004896806222005229746_);}
	.st47{fill:#EC03FF;stroke:#EC03FF;stroke-width:4.0951;stroke-miterlimit:10;}
	.st48{fill:url(#SVGID_00000093861261074491165030000004656363061051069090_);}
	.st49{fill:url(#SVGID_00000068647669435817711710000009640893635302560172_);}
	.st50{fill:url(#SVGID_00000135677631409053270990000012457562100059465123_);}
	.st51{fill:url(#SVGID_00000059275929017119403940000004735497555000418453_);}
	.st52{fill:url(#SVGID_00000163782407043520552320000012161537123431155381_);}
	.st53{fill:url(#SVGID_00000015332764004632272790000003175679630970860954_);}
	.st54{fill:#EC03FF;stroke:#EC03FF;stroke-width:3.8662;stroke-miterlimit:10;}
	.st55{fill:url(#SVGID_00000149369769467730696650000003799305441995583394_);}
	.st56{fill:url(#SVGID_00000113346896051249917260000004633501820867994032_);}
	.st57{fill:url(#SVGID_00000109030634100838552400000011999881812391274398_);}
	.st58{fill:url(#SVGID_00000148642670523531523490000014625984065265272709_);}
	.st59{fill:url(#SVGID_00000094598036116738483540000011514001038658081169_);}
	.st60{fill:url(#SVGID_00000133521853835485425510000004361362306403200899_);}
	.st61{fill:#EC03FF;stroke:#EC03FF;stroke-width:3.842;stroke-miterlimit:10;}
	.st62{fill:url(#SVGID_00000145744720457524372730000016926851681297832103_);}
	.st63{fill:url(#SVGID_00000034075866505100395030000006819530639663714995_);}
	.st64{fill:url(#SVGID_00000081626234195743957520000005482113306475198633_);}
	.st65{fill:url(#SVGID_00000120524016363594665730000003687018141602640009_);}
	.st66{fill:url(#SVGID_00000151526331311801275600000007911487477468642986_);}
	.st67{fill:url(#SVGID_00000021079798307613285410000012765827187131638457_);}
	.st68{fill:#EC03FF;stroke:#EC03FF;stroke-width:3.6915;stroke-miterlimit:10;}
	.st69{fill:url(#SVGID_00000029046414001656426840000013204969074920488350_);}
	.st70{fill:url(#SVGID_00000181087316063966230630000008033327222092177801_);}
	.st71{fill:url(#SVGID_00000017503173168963559320000014899702216855845271_);}
	.st72{fill:url(#SVGID_00000127740369382026352060000012351786690044991384_);}
	.st73{fill:url(#SVGID_00000183935291067503517230000016476840870105114772_);}
	.st74{fill:url(#SVGID_00000097475771100377776370000011503740030883582357_);}
	.st75{fill:url(#SVGID_00000067204235822409125610000011129144562781359786_);}
	.st76{fill:url(#SVGID_00000145039373270528618620000007929530472319194501_);}
	.st77{fill:url(#SVGID_00000151514638541611372190000014562561552408856968_);}
	.st78{fill:url(#SVGID_00000053518360151282440980000011814973401489708703_);}
	.st79{fill:url(#SVGID_00000024718799429682795090000003439833397980068542_);}
	.st80{fill:url(#SVGID_00000150097439388329434290000011916416392189483195_);}
	.st81{fill:url(#SVGID_00000012458485407734063340000012790643051383176859_);}
	.st82{fill:url(#SVGID_00000042705561749026290570000015925136826317625773_);}
	.st83{fill:url(#SVGID_00000140732356088005881500000008878707962546110626_);}
	.st84{fill:url(#SVGID_00000091732798219831933480000017656362669236666538_);}
	.st85{fill:url(#SVGID_00000014628621074518963550000014042525497503772060_);}
	.st86{fill:url(#SVGID_00000037675307322301855500000015482119851715298445_);}
	.st87{fill:#EC03FF;stroke:#EC03FF;stroke-width:3.6305;stroke-miterlimit:10;}
	.st88{fill:url(#SVGID_00000121968521989248639600000011712874607366664099_);}
	.st89{fill:url(#SVGID_00000085941413752289746810000016310369840078680743_);}
	.st90{fill:url(#SVGID_00000142174519137050231280000018311717305158014602_);}
	.st91{fill:url(#SVGID_00000173140725425385390410000006200067361085777854_);}
	.st92{fill:url(#SVGID_00000093157138417465408080000008918293177345438380_);}
	.st93{fill:url(#SVGID_00000078017488469835058650000006923143027454027661_);}
	.st94{fill:#EC03FF;stroke:#EC03FF;stroke-width:5.1341;stroke-miterlimit:10;}
	.st95{fill:url(#SVGID_00000027599860313067443660000000988987812980466879_);}
	.st96{fill:url(#SVGID_00000132795675301371162220000016871786451329865876_);}
	.st97{fill:url(#SVGID_00000037669904729930960170000014282940698927307925_);}
	.st98{fill:url(#SVGID_00000151538424985961555350000016494899372900345015_);}
	.st99{fill:url(#SVGID_00000072959347242716159820000000515277810945152700_);}
	.st100{fill:url(#SVGID_00000064338551686460404930000011267198871788646551_);}
	.st101{fill:url(#SVGID_00000029764529339629913240000015084210617729570434_);}
	.st102{fill:url(#SVGID_00000134966768315548446400000001597395961050434231_);}
	.st103{fill:url(#SVGID_00000080914197616145325810000009156751899756562587_);}
	.st104{fill:url(#SVGID_00000075854007106754274580000005472063502914914993_);}
	.st105{fill:url(#SVGID_00000062887692785411759720000000413648490035462020_);}
	.st106{fill:url(#SVGID_00000145775385063782195770000017801652435927707272_);}
	.st107{fill:#EC03FF;stroke:#EC03FF;stroke-width:5.1206;stroke-miterlimit:10;}
	.st108{fill:url(#SVGID_00000130618989151613247570000004718330730817473200_);}
	.st109{fill:url(#SVGID_00000163052065533946446860000008318883598767044746_);}
	.st110{fill:url(#SVGID_00000145018247497280051580000010731695049966657446_);}
	.st111{fill:url(#SVGID_00000124153033230019555010000003641129558809510070_);}
	.st112{fill:url(#SVGID_00000032616438028916993050000006854165057361395353_);}
	.st113{fill:url(#SVGID_00000039108990346844197250000016306024550486747823_);}
	.st114{fill:#EC03FF;stroke:#EC03FF;stroke-width:5.6651;stroke-miterlimit:10;}
	.st115{fill:url(#SVGID_00000018947282145604091910000002029443038755614635_);}
	.st116{fill:url(#SVGID_00000129921215468843959690000014533700576550046861_);}
	.st117{fill:url(#SVGID_00000108996074115199363750000009139509722579898032_);}
	.st118{fill:url(#SVGID_00000080916560773443375560000001757628015230993851_);}
	.st119{fill:url(#SVGID_00000096741217621534827480000011690294218527733397_);}
	.st120{fill:url(#SVGID_00000152250962022906216370000017059330651797442484_);}
	.st121{fill:url(#SVGID_00000090279899344453208800000007201642087928996741_);}
	.st122{fill:url(#SVGID_00000153688178728922657570000007879848961253846459_);}
	.st123{fill:url(#SVGID_00000023994751788980701080000017117073222525262762_);}
	.st124{fill:url(#SVGID_00000085248734314367922340000009827289714063236490_);}
	.st125{fill:url(#SVGID_00000140728972574757354380000015300420267988957624_);}
	.st126{fill:url(#SVGID_00000158729932554897586240000007400491474992789396_);}
	.st127{fill:#EC03FF;stroke:#EC03FF;stroke-width:4.3403;stroke-miterlimit:10;}
	.st128{fill:url(#SVGID_00000164515562872595577690000005549532028511471270_);}
	.st129{fill:#F70D29;stroke:#F70D29;stroke-width:4.3403;stroke-miterlimit:10;}
	.st130{fill:url(#SVGID_00000072993706015926080500000003725192925538913668_);}
	.st131{fill:#EC03FF;stroke:#231F20;stroke-width:1.276;stroke-miterlimit:10;}
</style>
<g id="Layer_3">
</g>
<g id="Layer_2">
	<g>
		<g>
			<linearGradient id="SVGID_1_" gradientUnits="userSpaceOnUse" x1="1335.6034" y1="684.6443" x2="1737.1462" y2="324.3411">
				<stop  offset="0" style="stop-color:#960000"/>
				<stop  offset="0.9987" style="stop-color:#B503FF"/>
			</linearGradient>
			<path class="st0" d="M1619.5,318.2c-27.2,0-49.2,19.5-49.2,43.5V498c0,24,22,43.5,49.2,43.5s49.2-19.5,49.2-43.5V361.7
				C1668.7,337.7,1646.7,318.2,1619.5,318.2z"/>
			
				<linearGradient id="SVGID_00000031178788716453856450000005915413974557744000_" gradientUnits="userSpaceOnUse" x1="1319.201" y1="666.3646" x2="1720.7439" y2="306.0613">
				<stop  offset="0" style="stop-color:#960000"/>
				<stop  offset="0.9987" style="stop-color:#B503FF"/>
			</linearGradient>
			<path style="fill:url(#SVGID_00000031178788716453856450000005915413974557744000_);" d="M1619.5,252.5
				c-27.2,0-49.2,19.5-49.2,43.5v201.7c0,24,22,43.5,49.2,43.5s49.2-19.5,49.2-43.5V296C1668.7,272,1646.7,252.5,1619.5,252.5z"/>
			<g class="st1">
				
					<linearGradient id="SVGID_00000111876954618024703720000010477707525626837923_" gradientUnits="userSpaceOnUse" x1="1275.0217" y1="617.1287" x2="1676.5646" y2="256.8254">
					<stop  offset="0" style="stop-color:#960000"/>
					<stop  offset="0.9987" style="stop-color:#B503FF"/>
				</linearGradient>
				<path style="fill:url(#SVGID_00000111876954618024703720000010477707525626837923_);" d="M1668.7,263.1c0,0.2,0,0.5,0,0.7
					c0,0.2,0,0.5,0,0.7V263.1z"/>
				
					<linearGradient id="SVGID_00000000933690842658581150000016339397553629363863_" gradientUnits="userSpaceOnUse" x1="1231.7749" y1="568.9319" x2="1633.3177" y2="208.6286">
					<stop  offset="0" style="stop-color:#960000"/>
					<stop  offset="0.9987" style="stop-color:#B503FF"/>
				</linearGradient>
				<path style="fill:url(#SVGID_00000000933690842658581150000016339397553629363863_);" d="M1571.8,264.5c0-0.2,0-0.5,0-0.7
					c0-0.2,0-0.5,0-0.7V264.5z"/>
			</g>
		</g>
		<path class="st127" d="M1667,187.9v1.6c0-26.2-21.2-47.4-47.4-47.4c-26.2,0-47.4,21.2-47.4,47.4v-1.6c0,26.2,21.2,47.4,47.4,47.4
			C1645.7,235.3,1667,214.1,1667,187.9z"/>
		
			<linearGradient id="SVGID_00000155120515592185694080000012084744738482263680_" gradientUnits="userSpaceOnUse" x1="1179.5739" y1="504.8898" x2="1582.9075" y2="142.9796">
			<stop  offset="0" style="stop-color:#B00000"/>
			<stop  offset="0.9987" style="stop-color:#A503FF"/>
		</linearGradient>
		<path style="fill:url(#SVGID_00000155120515592185694080000012084744738482263680_);" d="M1255.3,566.1
			c-26.3-9.9-39.6-39.3-29.7-65.6l116.2-299.4c9.9-26.3,39.3-39.6,65.6-29.7v-1.9c26.3,9.9,39.6,39.3,29.7,65.6l-116.2,301.3
			C1311,562.7,1281.6,576,1255.3,566.1L1255.3,566.1z"/>
	</g>
	<g>
		<path class="st129" d="M424.5,158.6c-2-2.3-4.8-3.5-8.1-3.5h-66.5c-3.1,0-5.9,1.1-8.1,3.3c-2,2-3.3,4.4-3.9,7.2l0,0.2l-19.1,154.5
			h-53.3L284.9,167l0-0.3v-0.3c0-7-4.2-11.4-11-11.4h-66c-3.1,0-5.9,1.1-8.1,3.3c-2,2-3.3,4.4-3.9,7.2l0,0.2l-48.4,386.4
			c-0.6,3.2,0.2,6.2,2.2,8.6c2,2.3,4.8,3.6,8.1,3.6h66c3.1,0,5.8-1,8.2-3.1c2.3-2,3.8-4.5,4.4-7.4l0-0.2l19.1-155.1h53.3
			l-19.5,153.7c-0.6,3.2,0.2,6.2,2.2,8.6c2,2.3,4.8,3.6,8.1,3.6h66.5c3.1,0,5.9-1.1,8.1-3.3c2-2,3.3-4.4,3.9-7.2l0-0.2l48.5-386.5
			C427.3,163.9,426.5,161,424.5,158.6z M417.8,165.6l0,0.2l-48.4,386.4c-0.2,1-0.6,1.7-1.3,2.4c-0.5,0.5-1,0.7-1.8,0.7h-66.5
			c-0.9,0-1.1-0.3-1.3-0.5c-0.1-0.2-0.3-0.3-0.1-1l0-0.2l19.9-156.2l0-0.3v-0.3c0-5.1-3.4-7.4-6.9-7.4h-56.6c-5.4,0-7.9,3.5-8,7.1
			l-19.2,155.6c-0.2,0.8-0.7,1.5-1.4,2.2c-0.7,0.6-1.4,0.9-2.3,0.9h-66c-0.9,0-1.1-0.3-1.3-0.5c-0.1-0.2-0.3-0.3-0.1-1l0-0.2
			l48.4-386.4c0.2-0.9,0.6-1.7,1.3-2.4c0.5-0.5,1-0.7,1.8-0.7h0h66c1.4,0,1.9,0,1.9,2.1L256,321.4l0,0.3v0.3c0,5.1,3.4,7.4,6.9,7.4
			h56.6c1.6,0,5.6-0.6,7.7-5.7l0.2-0.6l19.3-155.9c0.2-0.9,0.6-1.7,1.3-2.4l0,0c0.5-0.5,1-0.7,1.8-0.7h66.5c0.9,0,1.1,0.3,1.3,0.4
			C417.8,164.7,417.9,164.9,417.8,165.6z"/>
		<path class="st129" d="M634.5,165.1c-1.2-6.3-5.4-10-11.5-10h-76.5c-6.3,0-10.7,3.4-12.5,9.5L402.8,550.9l0,0.1
			c-1.3,4.1-1,7.4,0.8,9.8c1.2,1.6,3.6,3.5,8.2,3.5h66c6.3,0,10.8-3.4,12.5-9.6l16.2-54.5h69.5l2.3,53.3c0,6.6,4.2,10.7,11,10.7
			h68.3c6.8,0,11-3.9,11-10.2v-1.9l-33.9-386.6L634.5,165.1z M659.3,554c0,0.5-0.1,0.8-0.1,0.9c-0.1,0.1-0.6,0.3-1.8,0.3h-68.3
			c-1.3,0-1.6-0.3-1.6-0.3c0,0-0.2-0.3-0.2-1.5l-2.3-54.3c0.5-2.3-0.4-4.7-2.5-6.3c-1.6-1.1-3.3-1.7-5-1.7h-71.8
			c-5.2,0-7.7,3.2-8,6.6l-16.2,54.4l0,0.1c-0.6,2.2-1.6,3-3.8,3h-66c-0.3,0-0.5,0-0.7,0c0-0.3,0.1-0.8,0.3-1.5l131.3-386.4l0.1-0.2
			c0.6-2.3,1.6-3,3.8-3H623c1.1,0,2,0,2.5,2.4l33.8,386V554z"/>
		<path class="st129" d="M574.8,273c-1.5-4.4-5-4.8-6-4.8c-1,0-4.6,0.3-6,4.8l0,0.1l-44.9,155.9c-1.1,2.9-0.4,5,0.4,6.2
			c0.8,1.2,2.5,2.7,5.6,2.7h50.8c4.5,0,7.4-3,7.4-7.4l-7-156.9L574.8,273z M527.2,428.9l39.5-137.1l6.2,137.1H527.2z"/>
		<path class="st129" d="M946.7,267.3l0.1-0.4c0.8-7.9,1.2-13.6,1.2-17.6c0-30.1-9.5-54.4-28.3-72.2c-18.7-17.7-44.5-26.7-76.7-26.7
			c-35.2,0-65.2,10.6-89.1,31.4c-23.9,20.9-38.1,49.2-42.1,84l-23.3,185.2l0,0.1c-0.8,8.4-1.2,14.7-1.2,18.7
			c0,30.1,9.5,54.4,28.3,72.2c18.7,17.7,44.3,26.7,76.1,26.7c34.8,0,64.7-10.7,88.8-31.7c24.1-21,38.5-49.6,43-84.9l0.6-5.6
			c0.6-3.2-0.2-6.1-2.2-8.5c-2-2.3-4.8-3.5-8-3.5l-65.9-2.9l-0.2,0c-3.1,0-5.9,1.1-8.1,3.3c-2,2-3.3,4.4-3.9,7.2l-1.8,15.8
			c-1.4,10.1-5.2,17.9-11.5,23.9c-6.2,5.9-13.6,8.8-22.6,8.8c-7.3,0-13-2.2-17.4-6.9c-4.5-4.7-6.6-10.9-6.6-18.9
			c0-2.8,0.2-4.4,0.4-5.2l0.1-0.3l24.5-197.5c1.4-10,5.3-18.1,11.5-24.2c6.2-6.1,13.4-9,21.9-9c7.7,0,13.6,2.3,18,6.9
			c4.5,4.7,6.6,10.9,6.6,18.9c0,3.5-0.3,5.1-0.4,5.8l-0.1,0.3l-1.8,15.2l0,0.1c-0.3,3.4,0.5,6.1,2.3,8.2c1.9,2,4.6,3.1,8,3.1
			l66.7-2.9c3.1,0,5.8-1.2,8-3.3c2-2,3.3-4.4,3.9-7.2L946.7,267.3z M937.8,265.9l-1.1,6.1c-0.2,1-0.6,1.8-1.4,2.5
			c-0.5,0.5-1,0.7-1.8,0.7l-66.6,2.9c-0.7,0-1-0.1-1.2-0.1c0-0.2-0.1-0.5,0-1.1l1.7-14.5c0.4-1.9,0.6-4.4,0.6-7.7
			c0-10.3-3.1-18.8-9.1-25.1c-6.1-6.4-14.4-9.7-24.6-9.7c-10.9,0-20.4,3.9-28.3,11.6c-7.7,7.6-12.5,17.5-14.2,29.5l-24.5,197
			c-0.4,1.9-0.7,4.2-0.7,7.1c0,10.3,3.1,18.8,9.1,25.1c6.1,6.4,14.2,9.7,24,9.7c11.3,0,21-3.8,28.8-11.3
			c7.7-7.3,12.5-17.2,14.2-29.2l1.7-15.3c0.2-0.9,0.6-1.7,1.3-2.4c0.5-0.5,1-0.7,1.7-0.7l65.8,2.9l0.2,0c0.9,0,1.1,0.3,1.3,0.4
			c0.1,0.2,0.3,0.3,0.1,1l-0.6,6.1c-4.1,33-17.6,59.6-39.9,79.1c-22.4,19.6-50.3,29.5-82.8,29.5c-29.4,0-52.9-8.1-69.8-24.2l0,0
			c-16.9-16-25.4-38.1-25.4-65.6c0-3.7,0.4-9.7,1.1-17.8L720.9,267c3.7-32.6,16.9-58.9,39-78.3c22.2-19.4,50.2-29.2,83.1-29.2
			c29.8,0,53.5,8.1,70.4,24.2c16.9,16,25.4,38.1,25.4,65.6C938.9,252.9,938.6,258.5,937.8,265.9z"/>
		<path class="st129" d="M1241.5,159.3c-1.1-1.9-3.6-4.2-9.2-4.2h-70c-5.5,0-9.9,2.5-12.6,7.4l-84.4,134.8l16.4-130.5v-0.3
			c0-7-4.2-11.4-11-11.4h-66c-3.1,0-5.9,1.1-8.1,3.3c-2,2-3.3,4.4-3.9,7.2l0,0.2l-48.4,386.4c-0.6,3.2,0.2,6.2,2.2,8.6
			c2,2.3,4.8,3.6,8.1,3.6h66c3.1,0,5.8-1,8.2-3.1c2.3-2,3.8-4.5,4.4-7.4l0-0.2l14-115.1l0-0.3v0c0.2-0.2,0.3-0.4,0.4-0.5l0.3-0.3
			l17.5-26.2l38.8,144.4c1.3,5.5,5.4,8.6,11.4,8.6h71.2c6.8,0,11-3.9,11-10.2v-0.6l-0.7-2.8l-61.7-215.4l0.1-0.1L1240.3,170l0.1-0.1
			C1242.8,165.7,1243.2,162.2,1241.5,159.3z M1232.6,165.2l-104.2,164.2c-0.7,0.8-1.2,1.7-1.6,2.7c-0.4,1-0.5,2.2-0.5,3.5v0.6
			l62,216.6l0.4,1.6c0,0.2-0.1,0.4-0.1,0.4c-0.1,0.1-0.6,0.3-1.8,0.3h-71.2c-2.2,0-2.4-0.7-2.6-1.6l0-0.1l-40.2-149.4
			c-0.2-2.1-1.2-3.3-2-4c-1.3-1.1-3-1.5-4.8-1.1c-1.8,0.4-3.5,1.3-4.9,2.6l-0.3,0.3l-19.9,29.8c-0.5,0.5-1,1.1-1.4,1.7
			c-0.8,1.2-1.3,2.7-1.4,4.2l-14,114.5c-0.2,0.8-0.7,1.5-1.4,2.2c-0.7,0.6-1.4,0.9-2.3,0.9h-66c-0.9,0-1.1-0.3-1.3-0.4l0,0
			c-0.1-0.2-0.3-0.3-0.1-1l0-0.2l48.4-386.4c0.2-0.9,0.6-1.7,1.3-2.4c0.5-0.5,1-0.7,1.8-0.7h0h66c1.4,0,1.9,0,1.9,2.1l-18,143.5
			c-0.5,2.1-0.2,3.8,0.7,5.3c0.8,1.3,2.2,2.2,3.8,2.5c2.7,0.5,5.8-0.7,7.1-4.5l91.3-145.8l0.1-0.2c1.1-2,2.5-2.8,4.8-2.8h70
			c0.3,0,0.6,0,0.8,0C1233,164.4,1232.9,164.8,1232.6,165.2z"/>
	</g>
	<g>
		<g>
			<path class="st127" d="M1953.5,230c2-2,3.3-4.4,3.9-7.2l0-0.2l7-55.5c0.6-3.2-0.2-6.2-2.2-8.5l0,0c-2-2.3-4.8-3.5-8.1-3.5h-224.7
				c-3.1,0-5.9,1.1-8.1,3.3c-2,2-3.3,4.4-3.9,7.2l0,0.2l-7,55.6l0,0.3v0.3c0,7,4.2,11.4,11,11.4h65.3l-40,318.9
				c-0.6,3.2,0.2,6.2,2.2,8.6c2,2.3,4.8,3.6,8.1,3.6h66.5c3.1,0,5.9-1.1,8.1-3.3c2-2,3.3-4.4,3.9-7.2l0-0.2l40.2-320.3h69.8
				C1948.5,233.3,1951.3,232.2,1953.5,230z M1874.2,224.2c-2,0-3.8,0.7-5.2,2.1c-1.4,1.3-2.1,3-2.2,4.9l-40.2,320.8
				c-0.2,1-0.6,1.7-1.3,2.4c-0.5,0.5-1,0.7-1.8,0.7h-66.5c-0.9,0-1.1-0.3-1.3-0.5c-0.1-0.2-0.3-0.3-0.1-1l0-0.2l40.2-320.9
				c0.9-2.8,0-4.7-0.6-5.6c-0.9-1.3-2.6-2.8-6.2-2.8h-67.7c-1.4,0-1.9,0-1.9-2.1l6.9-55c0.2-0.9,0.6-1.7,1.3-2.4
				c0.5-0.5,1-0.7,1.8-0.7c0,0,0,0,0,0h224.7c0.8,0,1.1,0.3,1.3,0.4c0.1,0.2,0.3,0.3,0.1,1l0,0.2l-7,55.4c-0.2,1-0.6,1.7-1.3,2.4
				c-0.5,0.5-1,0.7-1.8,0.7H1874.2z"/>
			<path class="st127" d="M2222.5,158.6c-2-2.3-4.8-3.5-8.1-3.5h-66.5c-3.1,0-5.9,1.1-8.1,3.3c-2,2-3.3,4.4-3.9,7.2l0,0.2
				l-19.1,154.5h-53.3l19.6-153.2l0-0.3v-0.3c0-7-4.2-11.4-11-11.4h-66c-3.1,0-5.9,1.1-8.1,3.3c-2,2-3.3,4.4-3.9,7.2l0,0.2
				l-48.4,386.4c-0.6,3.2,0.2,6.2,2.2,8.6c2,2.3,4.8,3.6,8.1,3.6h66c3.1,0,5.8-1,8.2-3.1c2.3-2,3.8-4.5,4.4-7.4l0-0.2l19.1-155.1
				h53.3l-19.5,153.7c-0.6,3.2,0.2,6.2,2.2,8.6c2,2.3,4.8,3.6,8.1,3.6h66.5c3.1,0,5.9-1.1,8.1-3.3c2-2,3.3-4.4,3.9-7.2l0-0.2
				l48.5-386.5C2225.4,163.9,2224.6,161,2222.5,158.6z M2215.8,165.6l0,0.2l-48.4,386.4c-0.2,1-0.6,1.7-1.3,2.4
				c-0.5,0.5-1,0.7-1.8,0.7h-66.5c-0.9,0-1.1-0.3-1.3-0.5c-0.1-0.2-0.3-0.3-0.1-1l0-0.2l19.9-156.2l0-0.3v-0.3
				c0-5.1-3.4-7.4-6.9-7.4h-56.6c-5.4,0-7.9,3.5-8,7.1l-19.2,155.6c-0.2,0.8-0.7,1.5-1.4,2.2c-0.7,0.6-1.4,0.9-2.3,0.9h-66
				c-0.9,0-1.1-0.3-1.3-0.5c-0.1-0.2-0.3-0.3-0.1-1l0-0.2l48.4-386.4c0.2-0.9,0.6-1.7,1.3-2.4c0.5-0.5,1-0.7,1.8-0.7c0,0,0,0,0,0h66
				c1.4,0,1.9,0,1.9,2.1l-19.8,155.2l0,0.3v0.3c0,5.1,3.4,7.4,6.9,7.4h56.6c1.6,0,5.6-0.6,7.7-5.7l0.2-0.6l19.3-155.9
				c0.2-0.9,0.6-1.7,1.3-2.4l0,0c0.5-0.5,1-0.7,1.8-0.7c0,0,0,0,0,0h66.5c0.9,0,1.1,0.3,1.3,0.4
				C2215.8,164.7,2216,164.9,2215.8,165.6z"/>
			<path class="st127" d="M2372,219.7c-11.7,0-21.8,4.2-29.8,12.5c-7.9,8.1-12.7,18.9-14.4,32L2304,453.7c-0.4,1.9-0.7,4.4-0.7,7.7
				c0,11.4,3.1,20.7,9.3,27.6c6.3,7.1,14.7,10.7,25,10.7c12.1,0,22.3-4.2,30.4-12.5l0,0c7.9-8.1,12.7-18.9,14.4-32l23.9-189.5
				c0.4-1.9,0.7-4.4,0.7-7.7c0-11.4-3.1-20.7-9.3-27.6C2391.3,223.2,2382.7,219.7,2372,219.7z M2397.4,263.7l-0.1,0.3l-24,190.1
				c-1.4,11.1-5.4,20.2-11.9,26.9c-6.4,6.6-14.2,9.8-23.9,9.8c-7.7,0-13.6-2.5-18.2-7.6c-4.7-5.3-7-12.3-7-21.6
				c0-3.3,0.2-4.9,0.4-5.7l0.1-0.3l24-190.1c1.4-11.1,5.4-20.2,11.9-26.9c6.4-6.6,14-9.8,23.3-9.8c8.1,0,14.2,2.5,18.8,7.6
				c4.7,5.3,7,12.3,7,21.6C2397.9,261.4,2397.6,263,2397.4,263.7z"/>
			<path class="st127" d="M2485.7,268.6c0.8-8.6,1.2-14.8,1.2-18.7c0-30.5-9.7-55-28.9-72.8c-19.1-17.7-45.3-26.6-77.8-26.6
				c-35.6,0-65.9,10.8-90,32c-24.1,21.2-38.5,49.9-42.9,85.2l-22.8,182.9l0,0.1c-0.8,8.4-1.2,14.7-1.2,18.7c0,30.5,9.6,55,28.6,72.8
				c18.9,17.7,45,26.7,77.5,26.7c35.6,0,66-10.8,90.2-32c24.3-21.2,38.8-49.9,43.2-85.2l22.8-182.9L2485.7,268.6z M2476.7,267.7
				l-22.8,182.9c-4.1,33-17.7,59.7-40.2,79.5c-22.6,19.7-50.9,29.8-84.3,29.8c-30.2,0-54.2-8.1-71.3-24.2l0,0
				c-17.1-16-25.7-38.2-25.7-66.1c0-3.7,0.4-9.7,1.1-17.8l22.8-182.9c4.1-33,17.6-59.7,39.9-79.5c22.4-19.7,50.6-29.7,84-29.7
				c30.2,0,54.3,8.2,71.6,24.2c17.2,16,26,38.2,26,66.1C2477.8,253.5,2477.4,259.5,2476.7,267.7z"/>
			<path class="st127" d="M2781.1,158.6c-2-2.3-4.8-3.5-8.1-3.5h-66c-3.1,0-5.9,1.1-8.1,3.3c-2,2-3.3,4.4-3.9,7.2l0,0.2l-24.8,202.7
				l-39.8-204c-1.2-5.9-5.2-9.3-10.9-9.3h-74.1c-3.1,0-5.9,1.1-8.1,3.3c-2,2-3.3,4.4-3.9,7.2l0,0.2l-48.4,386.4
				c-0.6,3.2,0.2,6.2,2.2,8.6c2,2.3,4.8,3.6,8.1,3.6h65.4c3.1,0,5.8-1,8.2-3.1c2.3-2,3.8-4.5,4.4-7.4l0-0.2l24.8-202.4l38.7,203.7
				l0.1,0.5c1.8,5.8,5.8,8.9,11.3,8.9h74.7c3.1,0,5.9-1.1,8.1-3.3c2-2,3.3-4.4,3.9-7.2l0-0.2l48.4-386.5
				C2784,163.9,2783.2,161,2781.1,158.6z M2774.4,165.6l0,0.2L2726,552.1c-0.2,1-0.6,1.7-1.3,2.4c-0.5,0.5-1,0.7-1.8,0.7h-74.7
				c-0.9,0-1.8,0-2.6-2.3l-42-221l-0.1-0.3l-0.1-0.3c-1.1-3.3-4-5-7.2-4.4c-3,0.6-5,3-5.1,6.1l-26.8,219.1c-0.2,0.8-0.7,1.5-1.4,2.2
				c-0.7,0.6-1.4,0.9-2.3,0.9h-65.4c-0.9,0-1.1-0.3-1.3-0.5c-0.1-0.2-0.3-0.3-0.1-1l0-0.2l48.4-386.4c0.2-0.9,0.6-1.7,1.3-2.4
				c0.5-0.5,1-0.7,1.8-0.7c0,0,0,0,0,0h74.1c1,0,1.6,0,2,2.1l43.2,221.2l0.1,0.3l0.1,0.3c1.1,3.3,4,5.1,7.2,4.4c3-0.6,5-3,5.1-6.1
				l26.8-219.1c0.2-0.9,0.6-1.7,1.3-2.4l0,0c0.5-0.5,1-0.7,1.8-0.7h66c0.9,0,1.1,0.3,1.3,0.4
				C2774.4,164.7,2774.6,164.9,2774.4,165.6z"/>
		</g>
	</g>
	
		<linearGradient id="SVGID_00000113345689309648666890000007371009710602270636_" gradientUnits="userSpaceOnUse" x1="1316.724" y1="362.9574" x2="1668.7463" y2="362.9574">
		<stop  offset="0" style="stop-color:#F70D29"/>
		<stop  offset="1" style="stop-color:#EC03FF"/>
	</linearGradient>
	<path style="fill:url(#SVGID_00000113345689309648666890000007371009710602270636_);" d="M1668.7,489.9
		c-21.4,18.9-40.2,9.4-51.9-11.6l-129.4-280.4c-17.7-36.2-62.9-43.3-83.1-40.8s-49.9,15.6-60.4,38.9l-27.2,69.2
		c0,0,59-43.1,94.9,12.5l119.3,249.6c16.7,35,59.2,52.3,94.2,35.6c23.2-11.1,41.2-35.2,43.3-59.1
		C1668.7,500,1668.7,489.9,1668.7,489.9z"/>
	<path class="st8" d="M1463.7,449.2c-0.7-23-19.7-41.6-42.9-41.6c-23.2,0-42.2,18.5-42.9,41.6l0,1.4h0c0.7,23,19.7,41.6,42.9,41.6
		c23.2,0,42.2-18.5,42.9-41.6V449.2L1463.7,449.2z"/>
	<g>
		<g>
			<path class="st11" d="M2404.9,363.1c1.4,0,1.4-2.2,0-2.2C2403.5,360.9,2403.5,363.1,2404.9,363.1L2404.9,363.1z"/>
		</g>
	</g>
	<g>
		<path class="st131" d="M2922.2,520.2c0.3-0.2,0.5-0.4,0.5-0.7l5.8-47.4c0.1-0.8,0.4-1.4,1-1.9c0.6-0.5,1.3-0.6,2-0.5l21.9,2.8
			c0.8,0,1.4,0.3,1.8,0.9c0.5,0.6,0.6,1.3,0.5,2.1l-10.2,83.9c-0.1,0.8-0.4,1.4-1,1.9c-0.6,0.5-1.3,0.6-2,0.5l-22.8-3
			c-1.2,0-2.3-0.5-3.3-1.4c-5.1-4.8-9.9-9.7-14.7-14.7c-15.6-15.7-27.3-26.9-35.1-33.4c-13.6-11.1-25.3-16.6-35.1-16.6
			c-4,0-7.1,0.9-9.5,2.6c-2.3,1.7-3.7,4.1-4.1,7c-0.4,3.6,0.6,6.6,3.1,9c2.5,2.4,6,3.8,10.4,4.1l9.2,1.2c0.7,0.2,1.3,0.5,1.8,1.2
			c0.5,0.6,0.6,1.3,0.5,2.1l-3.3,26.9c-0.1,0.8-0.4,1.4-1,1.9c-0.6,0.5-1.3,0.6-2,0.5l-10.6-1.4c-12.2-2.2-21.6-7.9-28-17.1
			c-6.4-9.2-8.9-20.3-7.3-33.2c1.4-11.4,5.9-20.5,13.4-27.2c7.5-6.8,17-10.2,28.3-10.2c1.4,0,3.7,0.2,7,0.5c7.8,1.1,15,3.4,21.7,6.8
			c6.7,3.4,13.8,8.4,21.4,15c8,7.2,16.8,15.8,26.6,25.9c2.1,1.9,4,3.8,5.9,5.8c1.9,2,3.9,4.1,5.9,6.1
			C2921.6,520.3,2921.9,520.4,2922.2,520.2z"/>
		<path class="st131" d="M2951.3,446.6c-7.9,7-17.7,10.5-29.4,10.5c-1.7,0-4.2-0.2-7.5-0.5l-71.7-9.1c-13.7-1.7-24.2-7.2-31.5-16.5
			c-7.3-9.3-10.2-20.5-8.6-33.8c1.5-12.2,6.1-21.7,13.9-28.7c7.8-7,17.7-10.5,29.6-10.5c1.7,0,4.2,0.2,7.5,0.5l71.7,9.1
			c13.7,1.6,24.2,7,31.5,16.4c7.3,9.3,10.2,20.7,8.5,34.1C2963.9,430.1,2959.2,439.6,2951.3,446.6z M2934.7,404.8
			c-2.7-2.6-6.6-4.4-11.5-5.1l-75.3-9.6c-0.7-0.2-1.8-0.2-3.2-0.2c-4.1,0-7.5,1-10.2,2.9c-2.7,2-4.2,4.6-4.6,8.1
			c-0.5,3.7,0.7,6.9,3.4,9.6c2.7,2.7,6.6,4.3,11.5,4.9l75.3,9.6c0.7,0.2,1.9,0.2,3.4,0.2c4,0,7.3-0.9,10-2.8
			c2.7-1.9,4.2-4.4,4.6-7.7C2938.5,410.7,2937.4,407.4,2934.7,404.8z"/>
		<path class="st131" d="M2946.8,318.3c0.3-0.2,0.5-0.4,0.5-0.7l5.8-47.4c0.1-0.8,0.4-1.4,1-1.9c0.6-0.5,1.3-0.6,2-0.5l21.9,2.8
			c0.8,0,1.4,0.3,1.8,0.9c0.5,0.6,0.6,1.3,0.5,2.1l-10.2,83.9c-0.1,0.8-0.4,1.4-1,1.9c-0.6,0.5-1.3,0.6-2,0.5l-22.7-3
			c-1.2,0-2.3-0.5-3.3-1.4c-5.1-4.8-9.9-9.7-14.7-14.7c-15.6-15.7-27.3-26.9-35.1-33.4c-13.6-11.1-25.3-16.6-35.1-16.6
			c-4,0-7.1,0.9-9.5,2.6c-2.3,1.7-3.7,4.1-4.1,7c-0.4,3.6,0.6,6.6,3.1,9c2.5,2.4,6,3.8,10.4,4.1l9.2,1.2c0.7,0.2,1.3,0.5,1.8,1.2
			c0.5,0.6,0.6,1.3,0.5,2.1l-3.3,26.9c-0.1,0.8-0.4,1.4-1,1.9c-0.6,0.5-1.3,0.6-2,0.5l-10.6-1.4c-12.2-2.2-21.6-7.9-28-17.1
			c-6.4-9.2-8.9-20.3-7.3-33.2c1.4-11.4,5.9-20.5,13.4-27.2c7.5-6.8,17-10.2,28.3-10.2c1.4,0,3.7,0.2,7,0.5c7.8,1.1,15,3.4,21.7,6.8
			c6.7,3.4,13.8,8.4,21.4,15c8,7.2,16.8,15.8,26.6,25.9c2.1,1.9,4,3.8,5.9,5.8c1.9,2,3.9,4.1,5.9,6.1
			C2946.2,318.4,2946.5,318.5,2946.8,318.3z"/>
		<path class="st131" d="M2926.4,152.6c0.6-0.5,1.3-0.6,2-0.5l23.2,2.8c0.7,0.2,1.4,0.5,1.8,1.1c0.5,0.5,0.7,1.2,0.6,2l-0.9,7
			c-0.1,0.9,0.2,1.4,1,1.4l36.1,4.7c0.8,0,1.4,0.3,1.8,0.9c0.5,0.6,0.6,1.3,0.5,2.1l-3.2,26.4c-0.1,0.8-0.4,1.4-1,1.9
			c-0.6,0.5-1.3,0.6-2,0.5l-36.1-4.4c-0.7-0.3-1.1,0-1.3,0.9l-6.9,56.6c-0.2,1.7-1.2,2.6-3.1,2.6l-18.5-2.3l-3.3-0.9l-87.4-41.8
			c-1.4-0.8-2.1-1.9-1.9-3.3l3.5-28.7c0.1-0.9,0.5-1.6,1-2c0.6-0.4,1.4-0.4,2.4,0.1l81.4,38.1c0.9,0.2,1.4-0.1,1.5-0.7l2.6-21.3
			c0.1-0.8-0.2-1.2-1-1.2l-23.4-3c-0.7-0.2-1.3-0.5-1.8-1.1c-0.5-0.5-0.7-1.2-0.6-2l3.2-26.4c0.1-0.8,0.4-1.4,1-2
			c0.6-0.5,1.3-0.7,2-0.6l23.4,3c0.8,0,1.2-0.3,1.3-0.9l0.9-7C2925.5,153.7,2925.8,153,2926.4,152.6z"/>
	</g>
	<g>
		<g>
			<path class="st11" d="M1562.2,3.9c1.1,0,1.1-1.7,0-1.7C1561.2,2.2,1561.2,3.9,1562.2,3.9L1562.2,3.9z"/>
		</g>
	</g>
</g>
<g id="Layer_4">
</g>
</svg>
