<?xml version="1.0" encoding="UTF-8"?>
<svg xmlns="http://www.w3.org/2000/svg" xmlns:xlink="http://www.w3.org/1999/xlink" viewBox="0 0 578 1075">
  <defs>
    <style>
      .cls-1 {
        mix-blend-mode: overlay;
        opacity: .2;
      }

      .cls-2 {
        fill: url(#linear-gradient);
      }

      .cls-2, .cls-3, .cls-4, .cls-5, .cls-6, .cls-7, .cls-8 {
        stroke-width: 0px;
      }

      .cls-9 {
        fill: #ec03ff;
        stroke: #ec03ff;
        stroke-miterlimit: 10;
        stroke-width: 5.13px;
      }

      .cls-3 {
        fill: url(#linear-gradient-4);
      }

      .cls-4 {
        fill: url(#linear-gradient-2);
      }

      .cls-5 {
        fill: url(#linear-gradient-3);
      }

      .cls-6 {
        fill: url(#linear-gradient-5);
      }

      .cls-7 {
        fill: url(#linear-gradient-6);
      }

      .cls-10 {
        isolation: isolate;
      }

      .cls-8 {
        fill: #f70d29;
      }
    </style>
    <linearGradient id="linear-gradient" x1="158.15" y1="915.98" x2="633.14" y2="489.78" gradientUnits="userSpaceOnUse">
      <stop offset="0" stop-color="#960000"/>
      <stop offset="1" stop-color="#b503ff"/>
    </linearGradient>
    <linearGradient id="linear-gradient-2" x1="138.75" y1="894.36" x2="613.74" y2="468.16" xlink:href="#linear-gradient"/>
    <linearGradient id="linear-gradient-3" x1="86.49" y1="836.12" x2="561.48" y2="409.91" xlink:href="#linear-gradient"/>
    <linearGradient id="linear-gradient-4" x1="35.34" y1="779.11" x2="510.32" y2="352.9" xlink:href="#linear-gradient"/>
    <linearGradient id="linear-gradient-5" x1="-26.41" y1="703.35" x2="450.69" y2="275.25" gradientUnits="userSpaceOnUse">
      <stop offset="0" stop-color="#b00000"/>
      <stop offset="1" stop-color="#a503ff"/>
    </linearGradient>
    <linearGradient id="linear-gradient-6" x1="135.82" y1="535.46" x2="552.23" y2="535.46" gradientUnits="userSpaceOnUse">
      <stop offset="0" stop-color="#f70d29"/>
      <stop offset="1" stop-color="#ec03ff"/>
    </linearGradient>
  </defs>
  <g class="cls-10">
    <g id="Layer_2" data-name="Layer 2">
      <g>
        <g>
          <g>
            <path class="cls-2" d="M494.03,482.51c-32.14,0-58.2,23.06-58.2,51.5v161.18c0,28.44,26.06,51.5,58.2,51.5s58.2-23.06,58.2-51.5v-161.18c0-28.44-26.06-51.5-58.2-51.5Z"/>
            <path class="cls-4" d="M494.03,404.76c-32.14,0-58.2,23.06-58.2,51.5v238.62c0,28.44,26.06,51.5,58.2,51.5s58.2-23.06,58.2-51.5v-238.62c0-28.44-26.06-51.5-58.2-51.5Z"/>
            <g class="cls-1">
              <path class="cls-5" d="M552.23,417.38c0,.28-.04.55-.05.83,0,.28.05.55.05.83v-1.67Z"/>
              <path class="cls-3" d="M437.54,419.05c0-.28.04-.55.05-.83,0-.28-.05-.55-.05-.83v1.67Z"/>
            </g>
          </g>
          <path class="cls-9" d="M550.12,328.34v1.84c0-30.98-25.11-56.09-56.09-56.09s-56.09,25.12-56.09,56.09v-1.84c0,30.98,25.12,56.1,56.09,56.1s56.09-25.12,56.09-56.1Z"/>
          <path class="cls-6" d="M63.14,775.72c-31.13-11.73-46.86-46.48-35.13-77.6l137.43-354.14c11.73-31.13,46.47-46.86,77.61-35.13v-2.23c31.13,11.72,46.86,46.47,35.13,77.6l-137.43,356.37c-11.73,31.13-46.47,46.86-77.6,35.13h0Z"/>
        </g>
        <path class="cls-7" d="M552.23,685.64c-25.32,22.34-47.57,11.14-61.43-13.77l-153.01-331.71c-20.99-42.85-74.45-51.17-98.28-48.3-23.83,2.88-59.02,18.51-71.49,46.06l-32.21,81.9s69.81-51,112.26,14.81l141.07,295.26c19.75,41.35,70.04,61.83,111.39,42.08,27.45-13.12,48.77-41.61,51.28-69.86.41-4.56.41-16.48.41-16.48Z"/>
        <path class="cls-8" d="M309.72,637.43c-.88-27.25-23.32-49.15-50.78-49.15s-49.91,21.9-50.79,49.15l-.03,1.66h.03c.88,27.25,23.32,49.15,50.79,49.15s49.9-21.9,50.78-49.15l.03-1.66h-.03Z"/>
      </g>
      <g>
        <path class="cls-8" d="M150.6,12.63l-.05-.06c-1.46-1.66-3.44-2.54-5.74-2.54h-34.25c-2.17,0-4.13.79-5.66,2.3-1.35,1.32-2.22,2.94-2.6,4.79l-9.67,77.94h-23.18l9.77-76.56.03-.5c0-4.77-3.11-7.97-7.75-7.97h-33.95c-2.17,0-4.13.79-5.66,2.3-1.35,1.32-2.22,2.93-2.6,4.8l-.04.2L4.33,216.18c-.42,2.31.14,4.44,1.64,6.14,1.46,1.67,3.44,2.55,5.75,2.55h33.95c2.09,0,3.97-.71,5.6-2.1,1.56-1.34,2.56-3.01,2.96-4.97l9.68-78.26h23.18l-9.74,76.63c-.43,2.31.14,4.44,1.63,6.14,1.46,1.67,3.45,2.55,5.75,2.55h34.25c2.17,0,4.13-.79,5.66-2.3,1.34-1.31,2.21-2.92,2.59-4.78l.04-.21,24.93-198.87c.41-2.28-.14-4.38-1.6-6.09ZM90.73,130.66h-29.14c-4.09,0-6.1,2.9-6.23,5.53l-9.85,79.8H13.3L38.01,18.91h32.2l-10.03,78.62-.03.5c0,3.88,2.84,5.91,5.64,5.91h29.14c.98,0,4.3-.3,5.91-4.23l.23-.55,9.94-80.26h32.21s-24.71,197.08-24.71,197.08h-32.21l10.03-78.85.04-.56c0-3.88-2.84-5.91-5.64-5.91ZM46.34,216.55l-.63-.35.18.02.45.33s0,0,0,0ZM45.51,216.03v.06s-.06-.03-.06-.03c.01,0,.03-.02.06-.03Z"/>
        <path class="cls-8" d="M259.18,17.21l-.05-.32c-.79-4.23-3.85-6.86-7.97-6.86h-39.36c-4.15,0-7.31,2.37-8.43,6.31l-67.61,198.95c-.86,2.76-.62,5.09.73,6.92.89,1.22,2.65,2.67,5.91,2.67h33.95c4.17,0,7.34-2.41,8.47-6.43l7.9-26.52h32.19l1.08,25.34c.03,4.55,3.14,7.61,7.75,7.61h35.15c4.63,0,7.75-2.97,7.75-7.38v-1.12s-17.45-199.16-17.45-199.16ZM231.54,184.33c-1.18-.86-2.46-1.29-3.82-1.29h-36.95c-3.81,0-5.84,2.54-6.19,5.08l-8.3,27.88h-31.39L211.82,19.07l.05-.16h38.54l17.27,197.08h-32.86l-1.13-26.56c.32-1.93-.49-3.88-2.15-5.1Z"/>
        <path class="cls-8" d="M228.32,72.17c-.98-2.86-3.28-3.88-5.1-3.88s-4.15,1.03-5.13,3.96l-23.11,80.24c-.68,1.82-.52,3.61.45,5.05.58.86,1.96,2.31,4.66,2.31h26.14c1.68,0,3.19-.59,4.27-1.67,1.08-1.08,1.67-2.6,1.67-4.34l-3.62-80.77-.22-.9ZM223.15,150.97h-18.49l15.99-55.53,2.49,55.53Z"/>
        <path class="cls-8" d="M369.33,73.98v.1c-.23,2.36.35,4.32,1.71,5.82,1.37,1.51,3.29,2.27,5.73,2.27h.06l34.23-1.47c2.14-.02,4.07-.81,5.59-2.3,1.34-1.31,2.21-2.93,2.6-4.82l.62-3.32.04-.32c.42-4.12.62-7.16.62-9.28,0-16.1-5.12-29.11-15.21-38.68-10.03-9.5-23.79-14.31-40.91-14.31-18.65,0-34.54,5.62-47.23,16.69-12.73,11.1-20.25,26.1-22.37,44.57l-12.02,95.36v.11c-.42,4.4-.63,7.71-.63,9.83,0,16.11,5.12,29.12,15.21,38.68,10.02,9.5,23.68,14.31,40.61,14.31,18.45,0,34.29-5.67,47.08-16.84,12.8-11.18,20.48-26.33,22.82-45.06l.28-2.78c.4-2.28-.17-4.39-1.66-6.09-1.44-1.64-3.39-2.52-5.59-2.54l-33.96-1.47h-.14c-2.17,0-4.13.79-5.66,2.3-1.35,1.32-2.22,2.94-2.61,4.88l-.94,8.15c-.67,4.7-2.39,8.32-5.27,11.06-2.77,2.64-6.09,3.92-10.16,3.92-3.17,0-5.6-.94-7.45-2.89-1.91-2-2.83-4.71-2.83-8.27,0-1.4.12-1.99.16-2.14l.05-.21,12.66-101.79c.66-4.66,2.44-8.44,5.32-11.26,2.77-2.71,5.98-4.03,9.81-4.03,3.37,0,5.9.94,7.75,2.88,1.91,2.01,2.83,4.71,2.83,8.27,0,1.74-.15,2.38-.17,2.44l-1.01,8.23ZM323.39,167.56c-.24,1.09-.36,2.41-.36,4.03,0,5.87,1.78,10.71,5.28,14.39,3.56,3.75,8.23,5.65,13.89,5.65,6.36,0,11.84-2.14,16.28-6.37,4.33-4.12,7.01-9.61,7.95-16.33l.86-7.57,31.95,1.38-.17,1.57c-2.06,16.45-8.74,29.71-19.84,39.4-11.13,9.72-25,14.65-41.24,14.65-14.58,0-26.19-4-34.5-11.88-8.25-7.81-12.43-18.66-12.43-32.23,0-1.84.19-4.85.57-8.9l12.02-95.34c1.86-16.24,8.38-29.34,19.39-38.94,11.03-9.62,24.96-14.5,41.39-14.5,14.77,0,26.48,4,34.8,11.88,8.25,7.82,12.43,18.67,12.43,32.23,0,1.77-.19,4.54-.55,8.16l-.56,3.01-32.19,1.38.66-5.61c.24-1.11.36-2.52.36-4.29,0-5.86-1.78-10.7-5.28-14.39-3.56-3.75-8.34-5.65-14.18-5.65-6.19,0-11.58,2.21-16.03,6.56-4.31,4.22-6.97,9.74-7.9,16.42l-12.59,101.3Z"/>
        <path class="cls-8" d="M571.35,13.26h0c-.86-1.48-2.7-3.23-6.53-3.23h-36.05c-3.58,0-6.54,1.71-8.3,4.77l-38.39,61.31,7.25-57.79v-.32c0-4.77-3.1-7.97-7.74-7.97h-33.95c-2.17,0-4.12.79-5.66,2.3-1.35,1.32-2.22,2.94-2.6,4.8l-.04.2-24.93,198.86c-.42,2.31.14,4.43,1.64,6.14,1.46,1.67,3.45,2.55,5.75,2.55h33.95c2.09,0,3.97-.71,5.6-2.1,1.56-1.34,2.56-3.02,2.96-4.98l7.21-59.06,6.51-9.68,18.76,69.78c.87,3.73,3.91,6.05,7.92,6.05h36.65c4.63,0,7.75-2.97,7.75-7.38v-.43l-.45-1.9-31.48-109.93,53.49-84.29.07-.11c1.66-2.84,1.86-5.39.6-7.56ZM471.86,95.58c.75,1.18,1.92,1.98,3.29,2.24,2.16.44,4.83-.47,5.98-3.48l46.91-74.92.07-.12c.22-.4.26-.4.64-.4h32.69l-51.87,81.74c-.48.58-.85,1.25-1.09,1.97-.26.76-.39,1.57-.39,2.48v.62l31.58,110.27h-34.44l-20.45-76.06c-.21-1.7-1.08-2.74-1.78-3.31-1.16-.96-2.67-1.32-4.24-1.02-1.36.27-2.56.92-3.58,1.92l-.26.25-10.34,15.45c-.28.31-.54.65-.78,1-.65.94-1.02,2.06-1.07,3.16l-7.15,58.61h-32.21l24.71-197.08h32.21l-9.09,72.42c-.35,1.6-.13,3.03.64,4.25Z"/>
      </g>
      <g>
        <path class="cls-8" d="M138.63,883.63c1.34-1.31,2.21-2.92,2.61-4.86l3.62-28.6c.43-2.32-.13-4.46-1.64-6.18-1.46-1.66-3.45-2.54-5.74-2.54H21.81c-2.17,0-4.13.79-5.66,2.3-1.35,1.32-2.22,2.94-2.61,4.87l-3.65,28.85-.03.5c0,4.77,3.11,7.97,7.75,7.97h31.2l-20.27,161.67c-.43,2.31.14,4.44,1.64,6.14,1.46,1.67,3.44,2.55,5.75,2.55h34.25c2.17,0,4.13-.79,5.66-2.3,1.34-1.31,2.21-2.92,2.6-4.79l.04-.2,20.44-163.07h34.05c2.17,0,4.13-.79,5.66-2.3ZM58,883.95c.63-2.18-.12-3.76-.63-4.52-.6-.89-2.03-2.38-4.92-2.38H18.89l3.38-26.72h113.62s-3.37,26.72-3.37,26.72h-36.2c-1.58,0-3.02.59-4.16,1.71-1.08,1.06-1.7,2.4-1.77,3.8l-20.67,164.85h-32.21l20.49-163.46Z"/>
        <path class="cls-8" d="M277.21,844l-.09-.11c-1.45-1.6-3.4-2.44-5.65-2.44h-34.25c-2.17,0-4.12.79-5.66,2.3-1.35,1.32-2.22,2.94-2.6,4.81l-9.67,77.93h-23.18l9.77-76.56.03-.5c0-4.77-3.11-7.97-7.75-7.97h-33.95c-2.17,0-4.12.79-5.66,2.3-1.35,1.32-2.22,2.94-2.6,4.8l-.04.19-24.93,198.85c-.43,2.31.14,4.44,1.64,6.14,1.46,1.67,3.44,2.55,5.75,2.55h33.95c2.09,0,3.97-.71,5.6-2.1,1.56-1.34,2.56-3.02,2.96-4.98l9.67-78.25h23.18l-9.74,76.63c-.43,2.31.14,4.44,1.64,6.14,1.46,1.67,3.44,2.55,5.75,2.55h34.25c2.17,0,4.13-.79,5.66-2.3,1.34-1.31,2.21-2.92,2.6-4.79l.04-.2,24.93-198.87c.42-2.3-.15-4.42-1.64-6.14ZM217.39,962.08h-29.14c-4.09,0-6.1,2.9-6.23,5.53l-9.85,79.8h-32.21l24.71-197.08h32.2l-10.03,78.62-.03.5c0,3.88,2.84,5.91,5.64,5.91h29.14c.98,0,4.3-.3,5.91-4.23l.23-.55,9.94-80.26h32.21s-24.71,197.08-24.71,197.08h-32.21l10.03-78.85.04-.56c0-3.88-2.84-5.91-5.64-5.91Z"/>
        <path class="cls-8" d="M352.58,874.7c-6.63,0-12.3,2.38-16.86,7.09-4.38,4.51-7.06,10.46-7.98,17.69l-12.28,97.4c-.25,1.12-.38,2.55-.38,4.37,0,6.4,1.79,11.66,5.33,15.61,3.67,4.11,8.52,6.19,14.43,6.19,6.83,0,12.6-2.38,17.21-7.14,4.34-4.5,7-10.44,7.92-17.63l12.28-97.41c.25-1.12.38-2.55.38-4.36,0-6.39-1.8-11.65-5.34-15.62-3.68-4.1-8.63-6.19-14.73-6.19ZM363.76,896.5c0,1.74-.15,2.38-.17,2.44l-.05.21-12.37,98c-.67,5.27-2.54,9.52-5.54,12.63-2.86,2.95-6.39,4.39-10.78,4.39-3.31,0-5.87-1.06-7.81-3.23-2.07-2.31-3.07-5.48-3.07-9.69,0-1.71.13-2.32.16-2.42l.05-.21,12.37-98.02c.67-5.27,2.54-9.52,5.54-12.62,2.86-2.95,6.29-4.39,10.48-4.39,3.51,0,6.16,1.05,8.1,3.22,2.07,2.32,3.08,5.49,3.08,9.7Z"/>
        <path class="cls-8" d="M413.18,902.2c.42-4.5.62-7.72.62-9.83,0-16.32-5.23-29.44-15.54-39.01-10.22-9.47-24.18-14.28-41.47-14.28-18.86,0-34.91,5.72-47.7,17-12.8,11.28-20.47,26.47-22.8,45.15l-11.72,94.17v.12c-.42,4.4-.63,7.71-.63,9.83,0,16.31,5.17,29.43,15.37,38.99,10.12,9.49,24.03,14.29,41.34,14.29,18.84,0,34.94-5.71,47.84-16.99,12.9-11.28,20.63-26.48,22.96-45.17l11.72-94.2v-.09ZM404.92,892.38c0,1.79-.19,4.8-.57,8.92l-11.71,94.1c-2.06,16.46-8.79,29.77-20,39.58-11.23,9.81-25.36,14.79-41.99,14.79-14.99,0-26.85-4-35.27-11.89-8.34-7.81-12.57-18.75-12.57-32.51,0-1.83.19-4.84.57-8.9l11.71-94.12c2.05-16.46,8.74-29.78,19.86-39.59s25.2-14.78,41.83-14.78c14.99,0,26.91,4.01,35.44,11.91,8.43,7.82,12.7,18.75,12.7,32.49Z"/>
        <path class="cls-8" d="M564.73,844h0c-1.46-1.67-3.44-2.55-5.74-2.55h-33.95c-2.17,0-4.13.79-5.66,2.3-1.35,1.32-2.22,2.94-2.6,4.8l-11.19,91.38-17.96-91.99c-.83-4-3.76-6.49-7.65-6.49h-38.16c-2.17,0-4.13.79-5.66,2.3-1.35,1.32-2.22,2.94-2.6,4.8l-.04.19-24.93,198.85c-.42,2.31.14,4.44,1.64,6.14,1.46,1.67,3.44,2.55,5.75,2.55h33.65c2.09,0,3.97-.71,5.6-2.1,1.56-1.34,2.56-3.02,2.96-4.97l.03-.13,11.12-90.9,17.42,91.67.09.36c1.17,3.81,4.1,6.08,7.85,6.08h38.46c2.17,0,4.13-.79,5.66-2.3,1.34-1.31,2.21-2.92,2.59-4.78l.04-.21,24.93-198.87c.42-2.3-.15-4.42-1.64-6.14ZM557.39,850.33l-24.71,197.08h-37.37s-21.52-113.27-21.52-113.27l-.15-.54c-.79-2.32-2.79-3.75-5.07-3.75-.35,0-.7.03-1.06.1-2.49.5-4.18,2.49-4.3,5l-13.76,112.46h-31.91l24.71-197.08h36.77l22.12,113.28.13.5c.91,2.71,3.42,4.23,6.11,3.68,2.51-.49,4.21-2.48,4.33-5l13.76-112.46h31.91Z"/>
      </g>
    </g>
  </g>
</svg>