<svg fill="none" height="28" viewBox="0 0 41 28" width="41" xmlns="http://www.w3.org/2000/svg"><g fill="#fff"><path d="m36.2821 13.9173c-.8026 0-1.5746-.4482-1.9466-1.2165l-4.0561-8.36403c-.5198-1.07038-.0697-2.36347 1.0018-2.88266l2.561-1.238805c1.0729-.517793 2.366-.069596 2.8857 1.000785l4.0562 8.36403c.2508.51638.2842 1.10238.0947 1.64808-.1895.5456-.5796.984-1.0966 1.2346l-2.561 1.2402c-.3024.1461-.6229.2157-.9378.2157zm-1.5007-13.083984c-.1937 0-.3888.041757-.5741.132232l-2.561 1.238802c-.6563.31736-.9322 1.11075-.6145 1.76635l4.0561 8.364c.3191.657 1.1119.9298 1.7682.6139l2.5611-1.2402c.3163-.1531.5545-.4218.6716-.7572.117-.3355.0961-.6932-.0572-1.00918l-4.0561-8.36403c-.2285-.47047-.7023-.746066-1.1941-.746066z"/><path d="m4.6258 13.8449c-.36367 0-.73013-.0918-1.06733-.2839l-2.47046-1.41c-1.0338888-.5902-1.394774-1.9111-.803981-2.94393l4.616271-8.06894c.28564-.498308.74963-.857423 1.30699-1.009142.55735-.1517185 1.13978-.0793383 1.63861.206005l2.4705 1.410007c1.0339.59018 1.3947 1.91111.8039 2.94391l-4.61622 8.06889c-.39851.696-1.12864 1.0871-1.87828 1.0871zm2.15556-12.958709c-.11704 0-.23688.015312-.35392.047326-.34277.093263-.62702.313183-.80119.618013l-4.61627 8.06894c-.362279.63333-.140732 1.44203.49326 1.80393l2.47046 1.41c.63399.3619 1.44354.1406 1.80582-.4913l4.61628-8.06898c.3623-.63332.1407-1.44203-.49188-1.80393l-2.47046-1.41001c-.20065-.114136-.42359-.173989-.65071-.173989z"/><path d="m7.80967 14.257c-.10172 0-.20344-.0362-.28286-.1099l-1.57452-1.4518c-.14352-.1322-.17557-.3452-.07942-.515l4.43233-7.74046c.1143-.19905.3679-.26864.5685-.1559l2.8202 1.59375 3.4667-.06264h.0084c.2271 0 .4138.18234.418.41062.0042.23106-.1797.42036-.411.42453l-3.581.06542c-.0753.00139-.1491-.0167-.2132-.05428l-2.5583-1.4462-4.06026 7.09186 1.33067 1.2262c.17.1559.17975.4204.02369.5902-.08221.0891-.19507.1336-.30793.1336z"/><path d="m22.914 27.508c-.5769 0-1.1231-.213-1.5467-.6055l-2.1709-2.0002c-.1699-.1559-.1797-.4204-.0236-.5902.156-.1698.4208-.1795.5908-.0236l2.1722 2.0015c.2829.2617.6493.3981 1.0381.3828.3874-.0153.7455-.1795 1.006-.4607l.131-.142c.5392-.5832.5072-1.4963-.0711-2.0364l-1.6428-1.5213c-.0822-.0752-.1295-.181-.1337-.2937-.0056-.1684.0905-.3271.2452-.3981.1533-.0696.333-.0445.457.0696l2.0581 1.9055c.2828.2617.6535.3995 1.0394.3828.3874-.0153.7427-.1782 1.0019-.4579l.1407-.1476c.5337-.579.5016-1.4935-.078-2.0336l-1.6442-1.5185c-.1171-.1072-.1617-.2715-.1171-.4232.0404-.1392.1519-.2505.2912-.2881.1408-.039.2899-.0056.3972.0932l2.0594 1.9056c.5852.54 1.5034.5038 2.0441-.0794l.1337-.1447c.5379-.5818.5044-1.4949-.0724-2.0336l-1.6428-1.5214c-.0822-.0751-.1296-.1809-.1338-.2937-.0056-.1684.0906-.3271.2439-.3981.1532-.0696.333-.0445.457.0696l2.058 1.9056c.2829.2616.6535.3994 1.0395.3827.3873-.0153.744-.1781 1.0046-.4607l.1393-.1461c.5337-.5791.5016-1.4922-.078-2.0336l-7.1174-6.5643c-.17-.15589-.1797-.42036-.0237-.59017.1561-.16982.4222-.17956.5908-.02366l7.1188 6.56423c.9155.8547.9684 2.2967.1184 3.2168l-.1393.1461c-.4083.4413-.9712.7002-1.5829.7238-.2661.0084-.5253-.025-.7719-.1002.046.611-.1505 1.2374-.5964 1.7218l-.1337.1448c-.6173.6653-1.5439.8783-2.3576.6263.0459.6111-.1505 1.2402-.5978 1.7232l-.1407.1476c-.4069.4398-.9698.6987-1.5801.7224-.2662.0097-.5267-.0251-.7733-.1017.0459.6111-.1519 1.2389-.5978 1.7232l-.1324.1434c-.4138.4454-.9781.7043-1.587.728-.0307 0-.0627.0014-.0934.0014z"/><path d="m11.0829 21.1985c-.0766 0-.1532-.0042-.2299-.0111-.5852-.0599-1.1077-.3425-1.47137-.7962l-.11983-.1531c-.7371-.9271-.60473-2.2939.30515-3.1082.00418-.0042.02229-.0181.02647-.0223l2.42308-2.0015c.4779-.3953 1.0771-.5777 1.6832-.515.5852.0612 1.1064.3438 1.4672.7975l.1171.1448s0 .0014.0028.0028c.7273.9172.6075 2.2716-.2717 3.0845-.0056.0055-.0209.0181-.0265.0236l-2.4538 2.0266c-.4166.3452-.9252.529-1.4505.529zm2.3827-5.7848c-.3316 0-.6521.1169-.9168.3354l-2.4231 2.0016c-.57269.5122-.66465 1.3947-.20762 1.9696l.11842.1517c.2188.2728.5406.4468.9001.483.3804.039.7594-.078 1.0632-.3299l2.4537-2.0266c.5518-.5095.6326-1.3669.177-1.9431l-.1171-.1448c-.2215-.2784-.5406-.4524-.9015-.4886-.0487-.0055-.0975-.0069-.1477-.0069z"/><path d="m13.8919 23.7986c-.078 0-.1561-.0042-.2341-.0126-.5838-.0598-1.105-.3438-1.4686-.7989l-.1171-.1448c-.7343-.9242-.6103-2.2841.2801-3.097.0056-.0042.0293-.0251.0348-.0292l2.4357-2.0114c.4779-.3953 1.077-.579 1.6832-.515.5852.0599 1.1063.3438 1.4686.7976l.117.1462s0 0 .0014.0027c.7274.9173.6075 2.2716-.2717 3.0845-.0083.0084-.0181.0167-.0279.0237l-2.4537 2.0266c-.4166.3452-.9238.5289-1.4491.5289zm2.3827-5.7849c-.3317 0-.6521.117-.9169.3355l-2.4356 2.0113c-.5713.5206-.6563 1.3808-.1951 1.9612l.1171.1448c.2229.2798.542.4538.9015.4913.3818.039.7594-.0779 1.0631-.3298l2.4538-2.0267c.5517-.5108.634-1.3668.1769-1.9431l-.117-.1461c-.223-.2784-.542-.4524-.9015-.49-.0488-.0056-.0976-.007-.1463-.007z"/><path d="m17.4186 25.8015c-.0766 0-.1547-.0042-.2313-.0111-.5852-.0599-1.1077-.3424-1.4686-.7976l-.1171-.1448c-.7273-.9117-.6117-2.2632.2634-3.0775l1.0478-.8671c.4779-.3954 1.0757-.5791 1.6832-.5151.5852.0613 1.1063.3438 1.4672.7976l.1171.1462v.0014c.7217.9061.6089 2.2535-.255 3.0677l-1.059.8742c-.4138.3438-.921.5275-1.4463.5275zm.9433-4.5919c-.3316 0-.6521.1169-.9168.3354l-1.0297.8519c-.5393.5025-.6187 1.3557-.1617 1.9278l.1171.1461c.2215.2784.542.451.9015.4886.3818.039.758-.0779 1.0604-.3285l1.0394-.8574c.5295-.5011.6075-1.3516.1547-1.9209l-.1171-.1461c-.2229-.2784-.542-.4524-.9001-.4886-.0488-.0055-.0975-.0069-.1463-.0069z"/><path d="m8.99416 18.004c-.07664 0-.15328-.0042-.23131-.0125-.58382-.0599-1.10634-.3424-1.46862-.7948l-.12122-.1545c-.71899-.9034-.60612-2.2507.25777-3.065l1.05897-.8741c.47514-.3939 1.07012-.5777 1.67765-.515.5838.0598 1.1063.3424 1.4686.7948l.1184.1461v.0014c.7162.9006.6103 2.2438-.2438 3.058-.007.007-.0139.014-.0223.0195l-1.0464.8658c-.4166.3452-.92523.5289-1.45053.5289zm.9461-4.5933c-.33162 0-.6521.1169-.91684.3354l-1.03947.8561c-.52948.5011-.60751 1.3529-.15466 1.9222l.11983.1531c.21876.2728.53924.4454.89734.4816.379.039.75939-.0779 1.06315-.3299l1.03389-.856c.5351-.5192.6047-1.3627.1574-1.9236l-.117-.1462c-.2229-.277-.542-.4496-.9015-.4871-.0488-.0056-.09616-.007-.14493-.007z"/><path d="m31.8162 15.0266c-.1227 0-.2439-.0529-.3261-.1559-.1449-.1795-.1156-.4426.0641-.5873l2.5541-2.0503-3.5657-7.35354-2.6516 1.26943c-.0683.03202-.1435.04594-.2174.03898l-8.8354-.76695-4.7012 3.78462c-.5839.48996-.6717 1.42116-.184 2.02806l.1226.1531c.4989.6208 1.4115.7224 2.0344.2241l3.5029-2.82423c.085-.0682.1923-.10021.2982-.09047l6.6005.57347c.2299.01949.3999.22271.3804.45237-.0196.22967-.2258.39806-.4529.37996l-6.4332-.55812-3.3734 2.71982c-.4751.3814-1.0715.5526-1.679.4858-.6075-.0669-1.1524-.3647-1.5314-.838l-.1226-.1531c-.7775-.9688-.6409-2.40243.3052-3.19443l4.8378-3.89458c.0836-.06821.1909-.10022.2982-.09048l8.8897.77112 2.9234-1.39887c.2076-.09883.457-.01253.5573.19486l3.8917 8.02578c.085.1754.0376.3856-.1142.5081l-2.8133 2.259c-.0766.0627-.17.0919-.2619.0919z"/></g></svg>