<svg fill="none" height="28" viewBox="0 0 27 28" width="27" xmlns="http://www.w3.org/2000/svg" xmlns:xlink="http://www.w3.org/1999/xlink"><clipPath id="a"><path d="m0 0h27v28h-27z"/></clipPath><g clip-path="url(#a)" fill="#fff"><path d="m13.4989 17.0236c-2.1562 0-4.29976-.5006-6.19842-1.4476-.61114-.3051-1.19481-.6525-1.73614-1.0353-3.48372-2.4323-5.56434-6.35928-5.56434-10.5018 0-.19552.153357-.35335.343337-.35335h2.150433c.18998 0 .34334.15783.34334.35335 0 .19553-.15336.35336-.34334.35336h-1.801374c.114445 3.77739 2.062304 7.33334 5.258774 9.56534.51386.3628 1.06892.6938 1.64802.9835 1.80709.8999 3.84651 1.377 5.89971 1.377 2.0531 0 4.0925-.4759 5.8996-1.377.5826-.2909 1.1365-.6207 1.6446-.9788 3.2011-2.2343 5.1512-5.7903 5.2657-9.56886h-1.8014c-.19 0-.3434-.15783-.3434-.35336 0-.19552.1534-.35336.3434-.35336h2.1504c.19 0 .3433.15784.3433.35336 0 4.1437-2.0829 8.07182-5.5712 10.50652-.5356.3781-1.1181.7255-1.7315 1.0318-1.8998.947-4.0434 1.4475-6.1984 1.4475z"/><path d="m13.5 17.0236c-4.94858 0-8.97363-7.47825-8.97363-16.670243 0-.195524.15335-.353357.34333-.353357h17.2607c.19 0 .3433.157833.3433.353357 0 9.191993-4.025 16.670243-8.9737 16.670243zm-8.28581-16.316886c.09842 8.639576 3.7767 15.610086 8.28471 15.610086 4.508 0 8.1886-6.97051 8.2859-15.610086z"/><path d="m15.1023 24.6867c-.19 0-.3434-.1578-.3434-.3534v-7.3109h-2.5178v7.3109c0 .1956-.1533.3534-.3433.3534s-.3434-.1578-.3434-.3534v-7.6643c0-.1955.1534-.3533.3434-.3533h3.2045c.1899 0 .3433.1578.3433.3533v7.6643c0 .1956-.1534.3534-.3433.3534z"/><path d="m13.5001 28c-1.9421 0-3.77099-.0872-5.14777-.2462-2.02568-.2332-2.42167-.5218-2.42167-.9399 0-1.8822 3.90031-2.8987 7.56944-2.8987 3.6691 0 7.5694 1.0153 7.5694 2.8987 0 .4181-.396.7067-2.4216.9399-1.3768.159-3.2057.2462-5.1478.2462zm-6.87132-1.3016c.5276.2627 3.05112.5949 6.87132.5949s6.3437-.3322 6.8713-.5949c-.1991-1.0047-2.9653-2.0753-6.8713-2.0753-3.90603 0-6.67218 1.0706-6.87132 2.0753z"/><path d="m16.1207 11.3156c-.0549 0-.1098-.0129-.1602-.04l-2.3324-1.2627-2.3324 1.2627c-.1156.0624-.2552.0518-.3616-.0271-.1053-.0789-.1591-.2132-.1362-.3463l.4452-2.67373-1.88723-1.89282c-.09384-.09423-.12703-.23439-.08698-.36278.04006-.12838.14764-.22143.27696-.24028l2.60825-.38987 1.1662-2.43227c.0572-.12014.1774-.1967.3078-.1967.1305 0 .2507.07656.3079.1967l1.1662 2.43227 2.6082.38987c.1293.01885.2369.11307.277.24028.04.12839.0068.26855-.087.36278l-1.8872 1.89282.4452 2.67373c.0217.1331-.0309.2662-.1362.3463-.0595.0448-.1305.0671-.2015.0671zm-5.7886-4.98701 1.5187 1.52296c.0812.08128.1179.19788.0984.31331l-.3582 2.15074 1.8769-1.01528c.1007-.05418.2197-.05418.3193 0l1.8769 1.01528-.3582-2.15074c-.0195-.11425.0183-.23203.0984-.31331l1.5187-1.52296-2.0989-.31331c-.1122-.01649-.2083-.08952-.2587-.19317l-.9384-1.9576-.9385 1.9576c-.0503.10365-.1465.17668-.2586.19317l-2.099.31331z"/></g></svg>