<svg xmlns="http://www.w3.org/2000/svg" width="28" height="28" viewBox="0 0 24 24"><g fill="none" stroke="white" stroke-linecap="round" stroke-width="1"><path d="M15.08 2.752H8.92a1.97 1.97 0 0 0-2.062 1.85v6.077a5.494 5.494 0 0 0 3.024 4.8a4.523 4.523 0 0 0 4.236 0a5.494 5.494 0 0 0 3.024-4.8V4.602a1.97 1.97 0 0 0-2.062-1.85Z"/><path d="M17.142 4.602h2.054a1.97 1.97 0 0 1 2.053 1.85a6.806 6.806 0 0 1-.87 3.311a7.74 7.74 0 0 1-2.423 2.608l-.814.555l-.795.481M6.858 4.602H4.804a1.97 1.97 0 0 0-2.053 1.85c.003 1.16.302 2.3.87 3.311a7.74 7.74 0 0 0 2.423 2.608l.814.555l.795.481m2.294 5.068v-2.969m4.106 2.969v-2.969M8.81 18.475h6.38a1.952 1.952 0 0 1 1.952 1.952v.333a.49.49 0 0 1-.49.49H7.348a.49.49 0 0 1-.49-.49v-.333a1.952 1.952 0 0 1 1.951-1.952Z"/><path stroke-linejoin="round" d="m12.143 10.308l1.18.62a.302.302 0 0 0 .437-.319l-.226-1.313a.302.302 0 0 1 .087-.268l.955-.93a.3.3 0 0 0-.166-.515l-1.319-.19a.3.3 0 0 1-.225-.165l-.603-1.205a.302.302 0 0 0-.542 0l-.602 1.205a.301.301 0 0 1-.226.165l-1.3.19a.301.301 0 0 0-.17.515l.955.93a.301.301 0 0 1 .088.268l-.226 1.313a.3.3 0 0 0 .436.32l1.18-.62a.3.3 0 0 1 .287 0"/></g></svg>