<svg fill="none" height="27" viewBox="0 0 25 27" width="25" xmlns="http://www.w3.org/2000/svg" xmlns:xlink="http://www.w3.org/1999/xlink"><clipPath id="a"><path d="m0 0h25v27h-25z"/></clipPath><g clip-path="url(#a)" fill="#fff"><path d="m19.3472 27h-19.024675c-.178464 0-.322525-.1478-.322525-.3308v-23.88435c0-.18301.144061-.33075.322525-.33075s.322525.14774.322525.33075v23.55255h18.70215c.1785 0 .3225.1477.3225.3307s-.144.3308-.3225.3308z"/><path d="m21.7403 24.5448h-19.02471c-.17846 0-.32252-.1478-.32252-.3308v-23.883253c0-.183013.14406-.330747.32252-.330747h19.02581c.1784 0 .3225.147734.3225.330747v3.278813c0 .18301-.1441.33074-.3225.33074-.1785 0-.3226-.14773-.3226-.33074v-2.948066h-18.38068v23.221806h18.38068v-8.0681c0-.183.1441-.3307.3226-.3307.1784 0 .3225.1477.3225.3307v8.3988c0 .183-.1441.3308-.3225.3308z"/><path d="m15.6036 4.00647h-6.75153c-.17847 0-.32253-.14774-.32253-.33075 0-.18302.14406-.33075.32253-.33075h6.75153c.1785 0 .3225.14773.3225.33075 0 .18301-.144.33075-.3225.33075z"/><path d="m18.4527 6.99426h-13.03105c-.17847 0-.32253-.14774-.32253-.33075s.14406-.33075.32253-.33075h13.03105c.1785 0 .3226.14774.3226.33075s-.1441.33075-.3226.33075z"/><path d="m17.4228 9.98083h-12.00115c-.17847 0-.32253-.14773-.32253-.33075 0-.18301.14406-.33074.32253-.33074h12.00115c.1785 0 .3225.14773.3225.33074 0 .18302-.144.33075-.3225.33075z"/><path d="m13.9643 12.9234h-8.63296c-.12794 0-.23222-.1279-.23222-.2867 0-.1587.10428-.2866.23222-.2866h8.63296c.1279 0 .2322.1279.2322.2866 0 .1588-.1043.2867-.2322.2867z"/><path d="m15.6468 21.0686h-8.21148c-.17847 0-.32253-.1477-.32253-.3307 0-.1831.14406-.3308.32253-.3308h8.21148c.1785 0 .3225.1477.3225.3308 0 .183-.144.3307-.3225.3307z"/><path d="m15.6381 18.9761c-.3161 0-.6214-.1047-.8762-.3043l-.2451-.1907c-.3086-.2403-.5075-.5909-.5591-.9867-.0526-.3958.0484-.7883.2828-1.1047l7.6793-10.34911c.4859-.65488 1.4008-.78167 2.0394-.28444l.2452.19073c.6386.49832.7622 1.43654.2773 2.09142l-7.6804 10.3491c-.2343.3164-.5762.5204-.9622.5733-.0666.0099-.1333.0143-.1999.0143zm7.4396-12.86275c-.2441 0-.486.11246-.6462.32744l-7.6793 10.34911c-.2709.3649-.201.8864.1538 1.1642l.2451.1907c.172.1334.3849.1908.5988.161.215-.0298.4053-.1433.5354-.3186l7.6793-10.3491c.2699-.36493.2011-.8864-.1537-1.16423l-.2451-.19073c-.1463-.11356-.3183-.16979-.4892-.16979z"/><path d="m21.8522 13.3435c-.0677 0-.1365-.0221-.1946-.0673-.1419-.1102-.1688-.3186-.0613-.463l2.8253-3.80692c.1075-.14553.3097-.17419.4516-.06284.1419.11025.1688.31862.0613.46304l-2.8254 3.80692c-.0634.086-.1591.1301-.2569.1301z"/><path d="m14.119 19.6078c-.0677 0-.1365-.022-.1946-.0672-.1419-.1103-.1687-.3175-.0612-.4631l.7149-.9636c.1075-.1455.3096-.1741.4515-.0628.1419.1103.1688.3175.0613.463l-.7149.9636c-.0635.086-.1591.1301-.257.1301z"/><path d="m17.1142 17.7491c-.0677 0-.1365-.0221-.1946-.0673l-2.0469-1.5975c-.1419-.1102-.1688-.3175-.0613-.463.1075-.1456.3096-.1742.4515-.0629l2.047 1.5975c.1419.1103.1688.3176.0613.4631-.0634.086-.1591.1301-.257.1301z"/></g></svg>