<svg width="27" height="28" viewBox="0 0 27 28" fill="none" xmlns="http://www.w3.org/2000/svg">
    <g clip-path="url(#clip0_7_279)">
        <path d="M25.4349 27.2706L0.248272 1.48372C-0.0956981 1.13087 -0.0801137 0.574089 0.283894 0.240666C0.647901 -0.0927575 1.22118 -0.0776509 1.56516 0.274116L26.7518 26.0621C27.0958 26.4149 27.0802 26.9706 26.7173 27.3041C26.3533 27.6375 25.78 27.6224 25.436 27.2706H25.4349Z" fill="white"/>
        <path d="M21.079 28.0001H1.38034C1.19555 28.0001 1.04639 27.8555 1.04639 27.6763V4.30003C1.04639 4.12091 1.19555 3.97632 1.38034 3.97632C1.56513 3.97632 1.71429 4.12091 1.71429 4.30003V27.3516H21.079C21.2638 27.3516 21.413 27.4961 21.413 27.6753C21.413 27.8544 21.2638 27.999 21.079 27.999V28.0001Z" fill="white"/>
        <path d="M23.5582 25.597H3.85837C3.67358 25.597 3.52441 25.4524 3.52441 25.2733V1.89805C3.52441 1.71893 3.67358 1.57434 3.85837 1.57434H23.5582C23.743 1.57434 23.8921 1.71893 23.8921 1.89805V5.10712C23.8921 5.28624 23.743 5.43083 23.5582 5.43083C23.3734 5.43083 23.2242 5.28624 23.2242 5.10712V2.22176H4.19232V24.9496H23.2242V4.5622C23.2242 4.38308 23.3734 4.23849 23.5582 4.23849C23.743 4.23849 23.8921 4.38308 23.8921 4.5622V25.2733C23.8921 25.4524 23.743 25.597 23.5582 25.597Z" fill="white"/>
        <path d="M17.2031 5.49557H10.2124C10.0276 5.49557 9.87842 5.35098 9.87842 5.17186C9.87842 4.99274 10.0276 4.84814 10.2124 4.84814H17.2031C17.3879 4.84814 17.537 4.99274 17.537 5.17186C17.537 5.35098 17.3879 5.49557 17.2031 5.49557Z" fill="white"/>
        <path d="M20.1541 8.41866H6.66134C6.47656 8.41866 6.32739 8.27407 6.32739 8.09495C6.32739 7.91583 6.47656 7.77124 6.66134 7.77124H20.1541C20.3389 7.77124 20.4881 7.91583 20.4881 8.09495C20.4881 8.27407 20.3389 8.41866 20.1541 8.41866Z" fill="white"/>
        <path d="M20.1541 10.8173H6.66134C6.47656 10.8173 6.32739 10.6728 6.32739 10.4936C6.32739 10.3145 6.47656 10.1699 6.66134 10.1699H20.1541C20.3389 10.1699 20.4881 10.3145 20.4881 10.4936C20.4881 10.6728 20.3389 10.8173 20.1541 10.8173Z" fill="white"/>
        <path d="M20.1541 13.365H6.66134C6.47656 13.365 6.32739 13.2204 6.32739 13.0412C6.32739 12.8621 6.47656 12.7175 6.66134 12.7175H20.1541C20.3389 12.7175 20.4881 12.8621 20.4881 13.0412C20.4881 13.2204 20.3389 13.365 20.1541 13.365Z" fill="white"/>
        <path d="M20.1541 16.0615H6.66134C6.47656 16.0615 6.32739 15.9169 6.32739 15.7378C6.32739 15.5587 6.47656 15.4141 6.66134 15.4141H20.1541C20.3389 15.4141 20.4881 15.5587 20.4881 15.7378C20.4881 15.9169 20.3389 16.0615 20.1541 16.0615Z" fill="white"/>
        <path d="M17.2475 22.1948H8.74508C8.5603 22.1948 8.41113 22.0502 8.41113 21.8711C8.41113 21.692 8.5603 21.5474 8.74508 21.5474H17.2475C17.4323 21.5474 17.5814 21.692 17.5814 21.8711C17.5814 22.0502 17.4323 22.1948 17.2475 22.1948Z" fill="white"/>
    </g>
    <defs>
        <clipPath id="clip0_7_279">
            <rect width="27" height="28" fill="white"/>
        </clipPath>
    </defs>
</svg>
