<svg fill="none" height="30" viewBox="0 0 29 30" width="29" xmlns="http://www.w3.org/2000/svg" xmlns:xlink="http://www.w3.org/1999/xlink"><clipPath id="a"><path d="m0 0h29v30h-29z"/></clipPath><g clip-path="url(#a)" fill="#fff"><path d="m9.71918 27.3993c-.17913 0-.32372-.1454-.32372-.3255 0-.6402-.26977-1.2554-.74132-1.6861-.41653-.3819-.95714-.5913-1.52149-.5913-.29351 0-.57515.0542-.83844.1616-.16618.0673-.35501-.013-.42192-.179-.0669-.1671.01295-.3569.17805-.4242.34099-.1389.70463-.2094 1.08123-.2094.72621 0 1.42221.2701 1.95743.7616.60536.5545.9528 1.3444.9528 2.1679 0 .1801-.14458.3255-.3237.3255z"/><path d="m7.13273 30c-1.60566 0-2.91349-1.3128-2.91349-2.9262 0-.2344.02805-.4676.08417-.6933.04316-.1747.21797-.281.3917-.2376s.27948.2191.23631.3938c-.04316.1747-.06474.3548-.06474.5371 0 1.2542 1.01648 2.2752 2.26605 2.2752.17912 0 .32372.1454.32372.3255s-.1446.3255-.32372.3255z"/><path d="m12.2269 30.0001h-8.70482c-1.94232 0-3.52208-1.5885-3.52208-3.5415 0-1.9529 1.57976-3.5414 3.52208-3.5414 1.16972 0 2.26065.5816 2.91889 1.5548.39494.5881.6032 1.2749.6032 1.9866 0 .1802-.1446.3255-.32372.3255-.17913 0-.32372-.1453-.32372-.3255 0-.5815-.1705-1.1414-.49206-1.6209-.53738-.7942-1.42761-1.2695-2.38259-1.2695-1.58515 0-2.874638 1.2966-2.874638 2.8904 0 1.5939 1.289488 2.8905 2.874638 2.8905h8.70482c.1792 0 .3238.1454.3238.3255s-.1446.3255-.3238.3255z"/><path d="m19.2808 27.3994c-.1792 0-.3238-.1454-.3238-.3255 0-.8224.3475-1.6134.9529-2.1678.5362-.4915 1.2312-.7617 1.9574-.7617.3766 0 .7402.0705 1.0812.2094.1662.0673.246.2572.1781.4242-.0669.1671-.2558.2474-.422.1791-.2633-.1074-.5449-.1617-.8384-.1617-.5643 0-1.105.2105-1.5215.5913-.4715.4318-.7413 1.046-.7413 1.6861 0 .1801-.1446.3255-.3237.3255z"/><path d="m21.8672 30c-.1791 0-.3237-.1454-.3237-.3255s.1446-.3255.3237-.3255c1.2495 0 2.266-1.0209 2.266-2.2752 0-.1812-.0216-.3624-.0647-.5371-.0432-.1746.0626-.3504.2363-.3938.1737-.0423.3496.0629.3917.2376.055.2257.0842.459.0842.6933 0 1.6134-1.3068 2.9262-2.9135 2.9262z"/><path d="m25.4778 30.0001h-8.7049c-.1791 0-.3237-.1454-.3237-.3255s.1446-.3255.3237-.3255h8.7049c1.5851 0 2.8746-1.2966 2.8746-2.8905 0-1.5938-1.2895-2.8904-2.8746-2.8904-.955 0-1.8452.4753-2.3826 1.2695-.3216.4785-.491 1.0394-.491 1.6209 0 .1802-.1446.3255-.3237.3255s-.3237-.1453-.3237-.3255c0-.7117.2083-1.3985.6032-1.9855.6582-.9743 1.7492-1.5559 2.9189-1.5559 1.9423 0 3.5221 1.5885 3.5221 3.5414 0 1.953-1.5798 3.5415-3.5221 3.5415z"/><path d="m10.0139 21.2538h-5.73744c-.09388 0-.18236-.0401-.24387-.1106-.06151-.0706-.08956-.1649-.07661-.2572.6291-4.724 2.78076-6.8018 5.31873-8.8492.09388-.0759.22337-.0933.33344-.0434.11006.0489.18452.1563.19207.2778l.53738 8.6387c.0054.0901-.0259.1779-.0874.243s-.1468.1031-.2363.1031zm-5.363-.651h5.01875l-.47695-7.6611c-2.14519 1.7837-3.92889 3.7281-4.5418 7.6611z"/><path d="m19.1666 18.4134h-9.32854c-.17049 0-.31185-.1335-.32264-.3049l-.42191-6.7552c0-4.33124 1.49989-7.5873 5.17949-11.2589058.1263-.1258589.3292-.1258589.4565 0 3.6796 3.6716058 5.1806 6.9276658 5.1806 11.2383058l-.4208 6.7758c-.0108.1714-.1522.3049-.3227.3049zm-9.0242-.651h8.7199l.4004-6.4503c0-4.00903-1.3834-7.08389-4.762-10.526567-3.3775 3.441587-4.76083 6.517537-4.76083 10.546067l.40143 6.4297z"/><path d="m24.7258 21.2539h-5.7374c-.0896 0-.1748-.0368-.2363-.103-.0615-.0651-.0928-.1541-.0874-.2431l.5373-8.6387c.0076-.1215.082-.2278.1921-.2777.1101-.0488.2396-.0326.3334.0434 2.5369 2.0463 4.6886 4.1251 5.3177 8.8492.0129.0933-.0151.1866-.0766.2571s-.15.1107-.2439.1107zm-5.3932-.6509h5.0188c-.614-3.9331-2.3967-5.8764-4.5418-7.6612z"/><path d="m14.5018 25.174c-.0323 0-.0658-.0055-.0971-.0152-.4758-.1508-1.5182-1.2543-1.5182-3.5545 0-.205.0151-.4068.0442-.5978.0281-.1779.1942-.2994.3701-.2712.177.0271.2979.1942.2698.3721-.0248.1584-.0367.3266-.0367.498 0 1.7165.6615 2.6376.9679 2.8753.3054-.2387.9669-1.1621.9669-2.8753 0-.1833-.0119-.3504-.0345-.498-.0281-.1779.0928-.3439.2697-.3721.1759-.0272.3421.0933.3701.2712.0281.1801.0421.3819.0421.5989 0 2.298-1.0402 3.4036-1.515 3.5545-.0313.0097-.0647.0152-.0982.0152z"/><path d="m14.5006 10.4713c-1.161 0-2.1063-.94939-2.1063-2.11792 0-1.16854.9442-2.11791 2.1063-2.11791 1.1622 0 2.1064.94937 2.1064 2.11791 0 1.16853-.9453 2.11792-2.1064 2.11792zm0-3.58375c-.8039 0-1.4589.65751-1.4589 1.46691s.6539 1.46691 1.4589 1.46691 1.4589-.65751 1.4589-1.46691-.6539-1.46691-1.4589-1.46691z"/></g></svg>