<svg fill="none" height="29" viewBox="0 0 29 29" width="29" xmlns="http://www.w3.org/2000/svg" xmlns:xlink="http://www.w3.org/1999/xlink"><mask id="a" fill="#fff"><path d="m6.15151 18.4577c-.00125 1.9413-1.37955 3.5135-3.07826 3.5121-1.69872-.002-3.07450404-1.577-3.07324914-3.5183.0012549-1.9403 1.37829914-3.512 3.07575914-3.512h3.07575v3.5177z" fill="#fff"/></mask><mask id="b" fill="#fff"><path d="m7.03125 18.06c.00096-1.7242 1.5752-3.1214 3.51655-3.1205 1.94.0008 3.5128 1.3972 3.5138 3.1205v7.817c.0009 1.7241-1.5724 3.1226-3.5138 3.1231-1.94135.0008-3.51607-1.3964-3.51655-3.1206v-7.8199z" fill="#fff"/></mask><mask id="c" fill="#fff"><path d="m10.5435 6.15151c-1.94135-.00125-3.51368-1.37955-3.51225-3.07826.00144-1.69872 1.57663-3.07450404 3.51805-3.07324914 1.9404.0012549 3.5123 1.37829914 3.5123 3.07575914v3.07575z" fill="#fff"/></mask><mask id="d" fill="#fff"><path d="m10.9396 7.03027c1.7244.00096 3.1219 1.5752 3.121 3.51663-.0008 1.9399-1.3974 3.5127-3.121 3.5137h-7.81861c-1.7244-.001-3.12183886-1.5752-3.12098961-3.5166.00084925-1.93996 1.39743961-3.51277 3.12098961-3.51373h7.81821z" fill="#fff"/></mask><mask id="e" fill="#fff"><path d="m22.8477 10.5426c.0012-1.94143 1.3795-3.51376 3.0782-3.51233 1.6987.00144 3.0745 1.57664 3.0733 3.51803-.0013 1.9404-1.3783 3.5123-3.0758 3.5123h-3.0757z" fill="#fff"/></mask><mask id="f" fill="#fff"><path d="m21.9678 10.9402c-.001 1.7241-1.5752 3.1213-3.5166 3.1204-1.9399-.0008-3.5127-1.3972-3.5137-3.1204v-7.81722c-.001-1.72409 1.5723-3.12213052 3.5137-3.12297961 1.9414-.0008491 3.5161 1.39633961 3.5166 3.12042961z" fill="#fff"/></mask><mask id="g" fill="#fff"><path d="m18.4555 22.8486c1.9414.0013 3.5137 1.3796 3.5123 3.0783s-1.5766 3.0745-3.518 3.0732c-1.9404-.0012-3.5123-1.3783-3.5123-3.0757v-3.0758z" fill="#fff"/></mask><mask id="h" fill="#fff"><path d="m18.058 21.9698c-1.7241-.001-3.1213-1.5752-3.1205-3.5166.0008-1.94 1.3972-3.5128 3.1205-3.5137h7.817c1.7242-.001 3.1227 1.5723 3.1231 3.5137.0009 1.9414-1.3964 3.5161-3.1205 3.5166h-7.82z" fill="#fff"/></mask><g stroke="#fff" stroke-width="1.2"><path d="m6.15151 18.4577c-.00125 1.9413-1.37955 3.5135-3.07826 3.5121-1.69872-.002-3.07450404-1.577-3.07324914-3.5183.0012549-1.9403 1.37829914-3.512 3.07575914-3.512h3.07575v3.5177z" mask="url(#a)"/><path d="m7.03125 18.06c.00096-1.7242 1.5752-3.1214 3.51655-3.1205 1.94.0008 3.5128 1.3972 3.5138 3.1205v7.817c.0009 1.7241-1.5724 3.1226-3.5138 3.1231-1.94135.0008-3.51607-1.3964-3.51655-3.1206v-7.8199z" mask="url(#b)"/><path d="m10.5435 6.15151c-1.94135-.00125-3.51368-1.37955-3.51225-3.07826.00144-1.69872 1.57663-3.07450404 3.51805-3.07324914 1.9404.0012549 3.5123 1.37829914 3.5123 3.07575914v3.07575z" mask="url(#c)"/><path d="m10.9396 7.03027c1.7244.00096 3.1219 1.5752 3.121 3.51663-.0008 1.9399-1.3974 3.5127-3.121 3.5137h-7.81861c-1.7244-.001-3.12183886-1.5752-3.12098961-3.5166.00084925-1.93996 1.39743961-3.51277 3.12098961-3.51373h7.81821z" mask="url(#d)"/><path d="m22.8477 10.5426c.0012-1.94143 1.3795-3.51376 3.0782-3.51233 1.6987.00144 3.0745 1.57664 3.0733 3.51803-.0013 1.9404-1.3783 3.5123-3.0758 3.5123h-3.0757z" mask="url(#e)"/><path d="m21.9678 10.9402c-.001 1.7241-1.5752 3.1213-3.5166 3.1204-1.9399-.0008-3.5127-1.3972-3.5137-3.1204v-7.81722c-.001-1.72409 1.5723-3.12213052 3.5137-3.12297961 1.9414-.0008491 3.5161 1.39633961 3.5166 3.12042961z" mask="url(#f)"/><path d="m18.4555 22.8486c1.9414.0013 3.5137 1.3796 3.5123 3.0783s-1.5766 3.0745-3.518 3.0732c-1.9404-.0012-3.5123-1.3783-3.5123-3.0757v-3.0758z" mask="url(#g)"/><path d="m18.058 21.9698c-1.7241-.001-3.1213-1.5752-3.1205-3.5166.0008-1.94 1.3972-3.5128 3.1205-3.5137h7.817c1.7242-.001 3.1227 1.5723 3.1231 3.5137.0009 1.9414-1.3964 3.5161-3.1205 3.5166h-7.82z" mask="url(#h)"/></g></svg>