<svg width="29" height="29" viewBox="0 0 29 29" fill="none" xmlns="http://www.w3.org/2000/svg">
<mask id="path-1-inside-1_2187_617" fill="white">
<path d="M6.15151 18.4577C6.15026 20.399 4.77196 21.9712 3.07325 21.9698C1.37453 21.9678 -0.00125404 20.3928 8.57792e-07 18.4515C0.00125576 16.5112 1.3783 14.9395 3.07576 14.9395H6.15151V18.4572V18.4577Z"/>
</mask>
<path d="M6.15151 18.4577C6.15026 20.399 4.77196 21.9712 3.07325 21.9698C1.37453 21.9678 -0.00125404 20.3928 8.57792e-07 18.4515C0.00125576 16.5112 1.3783 14.9395 3.07576 14.9395H6.15151V18.4572V18.4577Z" stroke="white" stroke-width="1.2" mask="url(#path-1-inside-1_2187_617)"/>
<mask id="path-2-inside-2_2187_617" fill="white">
<path d="M7.03125 18.06C7.03221 16.3358 8.60645 14.9386 10.5478 14.9395C12.4878 14.9403 14.0606 16.3367 14.0616 18.06V25.877C14.0625 27.6011 12.4892 28.9996 10.5478 29.0001C8.60645 29.0009 7.03173 27.6037 7.03125 25.8795V18.0596V18.06Z"/>
</mask>
<path d="M7.03125 18.06C7.03221 16.3358 8.60645 14.9386 10.5478 14.9395C12.4878 14.9403 14.0606 16.3367 14.0616 18.06V25.877C14.0625 27.6011 12.4892 28.9996 10.5478 29.0001C8.60645 29.0009 7.03173 27.6037 7.03125 25.8795V18.0596V18.06Z" stroke="white" stroke-width="1.2" mask="url(#path-2-inside-2_2187_617)"/>
<mask id="path-3-inside-3_2187_617" fill="white">
<path d="M10.5435 6.15151C8.60215 6.15026 7.02982 4.77196 7.03125 3.07325C7.03269 1.37453 8.60788 -0.00125404 10.5493 8.57792e-07C12.4897 0.00125576 14.0616 1.3783 14.0616 3.07576V6.15151H10.5435Z"/>
</mask>
<path d="M10.5435 6.15151C8.60215 6.15026 7.02982 4.77196 7.03125 3.07325C7.03269 1.37453 8.60788 -0.00125404 10.5493 8.57792e-07C12.4897 0.00125576 14.0616 1.3783 14.0616 3.07576V6.15151H10.5435Z" stroke="white" stroke-width="1.2" mask="url(#path-3-inside-3_2187_617)"/>
<mask id="path-4-inside-4_2187_617" fill="white">
<path d="M10.9396 7.03027C12.664 7.03123 14.0615 8.60547 14.0606 10.5469C14.0598 12.4868 12.6632 14.0596 10.9396 14.0606H3.12099C1.39659 14.0596 -0.000848863 12.4854 3.86873e-07 10.544C0.000849637 8.60404 1.39744 7.03123 3.12099 7.03027H10.9392H10.9396Z"/>
</mask>
<path d="M10.9396 7.03027C12.664 7.03123 14.0615 8.60547 14.0606 10.5469C14.0598 12.4868 12.6632 14.0596 10.9396 14.0606H3.12099C1.39659 14.0596 -0.000848863 12.4854 3.86873e-07 10.544C0.000849637 8.60404 1.39744 7.03123 3.12099 7.03027H10.9392H10.9396Z" stroke="white" stroke-width="1.2" mask="url(#path-4-inside-4_2187_617)"/>
<mask id="path-5-inside-5_2187_617" fill="white">
<path d="M22.8477 10.5426C22.8489 8.60117 24.2272 7.02884 25.9259 7.03027C27.6246 7.03171 29.0004 8.60691 28.9992 10.5483C28.9979 12.4887 27.6209 14.0606 25.9234 14.0606H22.8477V10.5426Z"/>
</mask>
<path d="M22.8477 10.5426C22.8489 8.60117 24.2272 7.02884 25.9259 7.03027C27.6246 7.03171 29.0004 8.60691 28.9992 10.5483C28.9979 12.4887 27.6209 14.0606 25.9234 14.0606H22.8477V10.5426Z" stroke="white" stroke-width="1.2" mask="url(#path-5-inside-5_2187_617)"/>
<mask id="path-6-inside-6_2187_617" fill="white">
<path d="M21.9678 10.9402C21.9668 12.6643 20.3926 14.0615 18.4512 14.0606C16.5113 14.0598 14.9385 12.6634 14.9375 10.9402V3.12298C14.9365 1.39889 16.5098 0.000849483 18.4512 3.86803e-07C20.3926 -0.000848709 21.9673 1.39634 21.9678 3.12043V10.9402Z"/>
</mask>
<path d="M21.9678 10.9402C21.9668 12.6643 20.3926 14.0615 18.4512 14.0606C16.5113 14.0598 14.9385 12.6634 14.9375 10.9402V3.12298C14.9365 1.39889 16.5098 0.000849483 18.4512 3.86803e-07C20.3926 -0.000848709 21.9673 1.39634 21.9678 3.12043V10.9402Z" stroke="white" stroke-width="1.2" mask="url(#path-6-inside-6_2187_617)"/>
<mask id="path-7-inside-7_2187_617" fill="white">
<path d="M18.4555 22.8486C20.3969 22.8499 21.9692 24.2282 21.9678 25.9269C21.9664 27.6256 20.3912 29.0014 18.4498 29.0001C16.5094 28.9989 14.9375 27.6218 14.9375 25.9244V22.8486H18.4555Z"/>
</mask>
<path d="M18.4555 22.8486C20.3969 22.8499 21.9692 24.2282 21.9678 25.9269C21.9664 27.6256 20.3912 29.0014 18.4498 29.0001C16.5094 28.9989 14.9375 27.6218 14.9375 25.9244V22.8486H18.4555Z" stroke="white" stroke-width="1.2" mask="url(#path-7-inside-7_2187_617)"/>
<mask id="path-8-inside-8_2187_617" fill="white">
<path d="M18.058 21.9698C16.3339 21.9688 14.9367 20.3946 14.9375 18.4532C14.9383 16.5132 16.3347 14.9404 18.058 14.9395H25.875C27.5992 14.9385 28.9977 16.5118 28.9981 18.4532C28.999 20.3946 27.6017 21.9693 25.8776 21.9698H18.0576H18.058Z"/>
</mask>
<path d="M18.058 21.9698C16.3339 21.9688 14.9367 20.3946 14.9375 18.4532C14.9383 16.5132 16.3347 14.9404 18.058 14.9395H25.875C27.5992 14.9385 28.9977 16.5118 28.9981 18.4532C28.999 20.3946 27.6017 21.9693 25.8776 21.9698H18.0576H18.058Z" stroke="white" stroke-width="1.2" mask="url(#path-8-inside-8_2187_617)"/>
</svg>
