<svg width="27" height="27" viewBox="0 0 27 27" fill="none" xmlns="http://www.w3.org/2000/svg">
<g clip-path="url(#clip0_1_101)">
<g clip-path="url(#clip1_1_101)">
<path fill-rule="evenodd" clip-rule="evenodd" d="M25.8152 1.18513C26.4381 1.80807 26.7882 2.65284 26.7886 3.53381V23.4666C26.7882 24.3476 26.4381 25.1924 25.8152 25.8153C25.1922 26.4383 24.3475 26.7884 23.4665 26.7888H3.53366C2.65269 26.7884 1.80792 26.4383 1.18498 25.8153C0.562044 25.1924 0.211909 24.3476 0.211517 23.4666V3.53381C0.211909 2.65284 0.562044 1.80807 1.18498 1.18513C1.80792 0.562197 2.65269 0.212061 3.53366 0.21167H23.4665C24.3475 0.212061 25.1922 0.562197 25.8152 1.18513ZM5.72914 10.2906H9.14768V20.5735H5.72914V10.2906ZM7.46161 5.33246C6.29186 5.33246 5.52765 6.10139 5.52765 7.10881C5.52765 8.09544 6.26862 8.88516 7.41625 8.88516H7.43836C8.63041 8.88516 9.37232 8.09506 9.37232 7.10881C9.35021 6.10101 8.63041 5.33246 7.46142 5.33246H7.46161ZM14.4569 11.7465C14.9117 11.046 15.723 10.0488 17.5371 10.0488C19.7859 10.0488 21.4723 11.518 21.4731 14.6771V20.5731H18.0553V15.0709C18.0553 13.6899 17.56 12.7466 16.3239 12.7466C15.3796 12.7466 14.8169 13.3825 14.5703 13.9964C14.479 14.216 14.4569 14.5233 14.4569 14.8308V20.5741H11.0393C11.0393 20.5741 11.0845 11.2552 11.0393 10.2914H14.4569V11.7465Z" fill="white"/>
</g>
</g>
<defs>
<clipPath id="clip0_1_101">
<rect width="27" height="27" fill="white" transform="translate(0 0.000244141)"/>
</clipPath>
<clipPath id="clip1_1_101">
<rect width="26.5772" height="26.5772" fill="white" transform="translate(0.211395 0.21167)"/>
</clipPath>
</defs>
</svg>
