<svg width="27" height="27" viewBox="0 0 27 27" fill="none" xmlns="http://www.w3.org/2000/svg">
<path d="M23.6902 26.7886H3.31003C1.59864 26.7886 0.211395 25.4014 0.211395 23.69V3.31003C0.211395 1.59865 1.59864 0.211426 3.31003 0.211426H23.6899C25.4013 0.211426 26.7886 1.59865 26.7886 3.31003V23.6897C26.7889 25.4014 25.4016 26.7886 23.6902 26.7886Z" fill="white"/>
<path d="M4.29426 4.86328L11.4376 14.4592L4.24924 22.261H5.86717L12.1607 15.4303L17.2455 22.261H22.751L15.2056 12.1254L21.8966 4.86328H20.2786L14.4828 11.154L9.79977 4.86328H4.29426ZM6.6735 6.06079H9.20271L20.3715 21.0638H17.8423L6.6735 6.06079Z" fill="#1D1D1D"/>
</svg>
