<svg width="351" height="359" viewBox="0 0 351 359" fill="none" xmlns="http://www.w3.org/2000/svg">
    <path d="M195.167 174.258C191.776 174.258 189.028 176.687 189.028 179.685V196.666C189.028 199.664 191.776 202.093 195.167 202.093C198.558 202.093 201.306 199.664 201.306 196.666V179.685C201.306 176.687 198.558 174.258 195.167 174.258Z" fill="url(#paint0_linear_281_1874)"/>
    <path d="M195.167 166.067C191.776 166.067 189.028 168.496 189.028 171.493V196.634C189.028 199.631 191.776 202.06 195.167 202.06C198.558 202.06 201.306 199.631 201.306 196.634V171.493C201.306 168.496 198.558 166.067 195.167 166.067Z" fill="url(#paint1_linear_281_1874)"/>
    <g style="mix-blend-mode:overlay" opacity="0.2">
        <path d="M201.306 167.396C201.306 167.426 201.301 167.455 201.301 167.484C201.301 167.514 201.306 167.543 201.306 167.572V167.396Z" fill="url(#paint2_linear_281_1874)"/>
        <path d="M189.209 167.571C189.209 167.541 189.214 167.512 189.214 167.483C189.214 167.453 189.209 167.424 189.209 167.395V167.571Z" fill="url(#paint3_linear_281_1874)"/>
    </g>
    <path d="M201.084 158.014V158.208C201.084 154.944 198.435 152.298 195.168 152.298C191.902 152.298 189.251 154.944 189.251 158.208V158.014C189.251 161.279 191.9 163.925 195.168 163.925C198.437 163.925 201.084 161.279 201.084 158.014Z" fill="url(#paint4_linear_281_1874)"/>
    <path d="M149.717 205.151C146.434 203.914 144.775 200.254 146.011 196.974L160.507 159.663C161.745 156.383 165.408 154.727 168.693 155.962V155.727C171.976 156.962 173.637 160.624 172.399 163.903L157.903 201.449C156.666 204.729 153.002 206.386 149.717 205.151Z" fill="url(#paint5_linear_281_1874)"/>
    <path d="M201.306 195.66C198.636 198.014 196.287 196.834 194.826 194.208L178.686 159.261C176.471 154.746 170.833 153.87 168.32 154.173C165.806 154.476 162.094 156.123 160.78 159.026L157.382 167.655C157.382 167.655 164.746 162.281 169.223 169.216L184.102 200.324C186.185 204.68 191.489 206.839 195.852 204.758C198.747 203.375 200.996 200.374 201.26 197.398C201.304 196.917 201.304 195.663 201.304 195.663L201.306 195.66Z" fill="url(#paint6_linear_281_1874)"/>
    <path d="M175.695 190.58V190.754C175.695 187.817 173.31 185.435 170.37 185.435C167.429 185.435 165.045 187.817 165.045 190.754V190.58C165.045 193.517 167.429 195.899 170.37 195.899C173.31 195.899 175.695 193.517 175.695 190.58Z" fill="#F70D29" stroke="#F70D29" stroke-width="0.42" stroke-miterlimit="10"/>
    <g filter="url(#filter0_d_281_1874)">
        <path d="M206.026 134.931H142.397C135.035 134.931 129.045 140.915 129.045 148.269V211.825C129.045 219.179 135.035 225.163 142.397 225.163H206.026C213.388 225.163 219.378 219.179 219.378 211.825V148.269C219.378 140.915 213.388 134.931 206.026 134.931ZM216.229 211.825C216.229 217.444 211.653 222.015 206.027 222.015H142.399C136.774 222.015 132.197 217.444 132.197 211.825V148.269C132.197 142.65 136.774 138.079 142.399 138.079H206.027C211.653 138.079 216.229 142.65 216.229 148.269V211.825Z" fill="url(#paint7_linear_281_1874)"/>
    </g>
    <g filter="url(#filter1_d_281_1874)">
        <path d="M143.217 148.664C144.447 147.436 144.447 145.445 143.217 144.217C141.988 142.989 139.995 142.989 138.766 144.217C137.537 145.445 137.537 147.436 138.766 148.664C139.995 149.892 141.988 149.892 143.217 148.664Z" fill="url(#paint8_linear_281_1874)"/>
    </g>
    <g filter="url(#filter2_d_281_1874)">
        <path d="M142.196 216.447C143.802 215.782 144.564 213.943 143.899 212.338C143.234 210.734 141.392 209.972 139.786 210.637C138.18 211.301 137.417 213.141 138.083 214.745C138.748 216.349 140.589 217.111 142.196 216.447Z" fill="url(#paint9_linear_281_1874)"/>
    </g>
    <g filter="url(#filter3_d_281_1874)">
        <path d="M209.108 148.664C210.338 147.436 210.338 145.445 209.108 144.217C207.879 142.989 205.886 142.989 204.657 144.217C203.427 145.445 203.427 147.436 204.657 148.664C205.886 149.892 207.879 149.892 209.108 148.664Z" fill="url(#paint10_linear_281_1874)"/>
    </g>
    <g filter="url(#filter4_d_281_1874)">
        <path d="M208.087 216.446C209.693 215.781 210.456 213.942 209.791 212.338C209.126 210.733 207.284 209.972 205.678 210.636C204.072 211.301 203.309 213.14 203.975 214.744C204.64 216.348 206.481 217.11 208.087 216.446Z" fill="url(#paint11_linear_281_1874)"/>
    </g>
    <path d="M236.517 183.581V182.218H239.416V181.649H294.587L333.669 147.505H341.697C342.041 149.572 343.843 151.152 346.009 151.152C348.421 151.152 350.382 149.193 350.382 146.785C350.382 144.377 348.42 142.417 346.009 142.417C343.91 142.417 342.152 143.903 341.731 145.876H333.056L293.974 180.02H239.415V177.875H236.515V176.511H231.169V173.572H236.515V172.209H239.415V170.835H290.754C291.137 172.85 292.913 174.379 295.04 174.379C297.446 174.379 299.403 172.424 299.403 170.021C299.403 167.618 297.446 165.663 295.04 165.663C292.913 165.663 291.137 167.191 290.754 169.206H239.415V167.865H236.515V166.503H231.169V163.565H236.515V162.201H239.415V160.837H270.365C270.749 162.853 272.525 164.381 274.652 164.381C277.057 164.381 279.014 162.426 279.014 160.023C279.014 157.62 277.057 155.665 274.652 155.665C272.525 155.665 270.749 157.193 270.365 159.208H239.415V157.856H236.515V156.493H231.169V153.554H236.515V152.19H239.415V149.372H281.107L330.455 91.8628H341.712C342.093 93.8861 343.874 95.4208 346.009 95.4208C348.421 95.4208 350.382 93.461 350.382 91.0531C350.382 88.6453 348.42 86.6855 346.009 86.6855C343.878 86.6855 342.1 88.2169 341.715 90.2337H329.78L280.432 147.743H236.515V146.483H231.169V143.544H236.515V142.181H239.415V140.819H271.442L284.245 128.029C284.989 128.617 285.928 128.971 286.947 128.971C289.353 128.971 291.31 127.016 291.31 124.613C291.31 122.21 289.353 120.255 286.947 120.255C284.542 120.255 282.585 122.21 282.585 124.613C282.585 125.408 282.8 126.154 283.173 126.796L270.765 139.19H239.413V137.836H236.513V136.474H230.815C229.458 129.971 224.314 124.839 217.8 123.493V117.474H216.436V114.577H215.078V94.3423L228.016 81.4186V67.7064C230.033 67.3236 231.563 65.5495 231.563 63.4252C231.563 61.0222 229.606 59.0673 227.201 59.0673C224.795 59.0673 222.838 61.0222 222.838 63.4252C222.838 65.5495 224.368 67.3236 226.385 67.7064V80.7442L213.447 93.6678V114.577H212.088V117.474H210.725V123.146H207.784V117.474H206.42V114.577H205.062V83.8932C207.079 83.5104 208.609 81.7363 208.609 79.6119C208.609 77.209 206.652 75.2541 204.246 75.2541C201.841 75.2541 199.884 77.209 199.884 79.6119C199.884 81.7363 201.413 83.5104 203.431 83.8932V114.577H202.072V117.474H200.709V123.146H197.768V117.474H196.405V114.577H195.046V72.25L216.079 51.2411C216.777 51.7135 217.617 51.9888 218.521 51.9888C220.926 51.9888 222.883 50.0339 222.883 47.631C222.883 45.2281 220.926 43.2731 218.521 43.2731C216.115 43.2731 214.158 45.2281 214.158 47.631C214.158 48.5433 214.442 49.3921 214.923 50.0926L193.415 71.5756V114.579H192.057V117.476H190.693V123.148H187.753V117.476H186.389V114.579H182.043V117.476H180.679V123.148H177.738V117.476H176.375V114.579H175.016V44.9853L156.006 25.9965V9.62888C158.023 9.24605 159.553 7.47195 159.553 5.3476C159.553 2.94467 157.596 0.989746 155.19 0.989746C152.785 0.989746 150.828 2.94467 150.828 5.3476C150.828 7.47195 152.358 9.24605 154.375 9.62888V26.6775L173.385 45.6663V114.586H172.027V117.482H170.663V123.155H167.723V117.482H166.359V114.586H165.001V63.5359C167.018 63.1531 168.548 61.379 168.548 59.2547C168.548 56.8517 166.591 54.8968 164.185 54.8968C161.78 54.8968 159.822 56.8517 159.822 59.2547C159.822 61.379 161.352 63.1531 163.37 63.5359V114.586H162.011V117.482H160.648V123.155H157.707V117.482H156.344V114.586H154.985V71.5821L130.912 47.5365H102.984C102.6 45.5213 100.824 43.9932 98.6974 43.9932C96.2917 43.9932 94.3346 45.9481 94.3346 48.3511C94.3346 50.754 96.2917 52.7089 98.6974 52.7089C100.824 52.7089 102.6 51.1808 102.984 49.1656H130.237L153.354 72.2565V114.584H151.995V117.48H150.632V123.153H147.691V117.48H146.328V114.584H144.969V83.8997C146.987 83.5169 148.517 81.7428 148.517 79.6185C148.517 77.2155 146.559 75.2606 144.154 75.2606C141.748 75.2606 139.791 77.2155 139.791 79.6185C139.791 81.7428 141.321 83.5169 143.338 83.8997V114.584H141.98V117.48H140.616V123.153H137.676V117.48H136.312V114.584H134.954V82.8245L122.149 70.0361C122.738 69.2932 123.092 68.3548 123.092 67.3366C123.092 64.9337 121.134 62.9788 118.729 62.9788C116.323 62.9788 114.366 64.9337 114.366 67.3366C114.366 69.7396 116.323 71.6945 118.729 71.6945C119.525 71.6945 120.272 71.4794 120.914 71.1064L133.323 83.5006V114.584H131.964V117.48H130.601V123.503C124.093 124.854 118.955 129.982 117.6 136.481H111.35V137.843H108.451V139.123H67.3895L18.0498 81.6141H8.66691C8.28037 79.5973 6.50263 78.0692 4.3726 78.0692C1.96041 78.0692 0 80.029 0 82.4368C0 84.8446 1.96204 86.8044 4.3726 86.8044C6.50915 86.8044 8.29016 85.2666 8.67017 83.2416H17.373L66.7208 140.751H108.457V142.186H111.357V143.549H117.254V146.488H111.357V147.852H108.457V149.127H77.9695C77.5863 147.112 75.8102 145.584 73.6834 145.584C71.2777 145.584 69.3206 147.539 69.3206 149.942C69.3206 152.345 71.2777 154.3 73.6834 154.3C75.8102 154.3 77.5863 152.772 77.9695 150.757H108.457V152.195H111.357V153.559H117.254V156.497H111.357V157.861H108.457V159.133H66.3131L45.2803 138.124C45.7532 137.427 46.0289 136.588 46.0289 135.686C46.0289 133.283 44.0717 131.328 41.6661 131.328C39.2604 131.328 37.3033 133.283 37.3033 135.686C37.3033 138.089 39.2604 140.044 41.6661 140.044C42.5794 140.044 43.4291 139.76 44.1304 139.279L65.6379 160.762H108.459V162.206H111.359V163.569H117.256V166.508H111.359V167.87H108.459V169.532H53.8558L14.7732 137.256H8.69137C8.35866 135.176 6.54992 133.579 4.37423 133.579C1.96204 133.579 0.00163096 135.539 0.00163096 137.947C0.00163096 140.355 1.96367 142.315 4.37423 142.315C6.46348 142.315 8.2135 140.843 8.6457 138.884H14.1616L53.2442 171.159H108.46V172.212H111.36V173.575H117.258V176.514H111.36V177.878H108.46V179.142H39.0174L20.007 198.131H8.59678C8.09607 196.27 6.39335 194.895 4.37423 194.895C1.96204 194.895 0.00163096 196.855 0.00163096 199.263C0.00163096 201.671 1.96367 203.631 4.37423 203.631C6.61842 203.631 8.47119 201.935 8.7191 199.758H20.6838L39.6942 180.77H108.46V182.221H111.36V183.585H117.258V186.524H111.36V187.887H108.46V189.146H57.5842C57.2009 187.131 55.4248 185.603 53.2981 185.603C50.8924 185.603 48.9352 187.558 48.9352 189.961C48.9352 192.364 50.8924 194.319 53.2981 194.319C55.4248 194.319 57.2009 192.791 57.5842 190.775H108.46V192.23H111.36V193.594H117.258V196.533H111.36V197.896H108.46V199.569H53.2344L13.6527 235.727V277.445H8.72236C8.48261 275.261 6.62495 273.557 4.37586 273.557C1.96367 273.557 0.00326191 275.517 0.00326191 277.924C0.00326191 280.332 1.9653 282.292 4.37586 282.292C6.38846 282.292 8.08792 280.927 8.59351 279.073H15.2837V236.444L53.8673 201.197H108.46V202.239H111.36V203.603H117.258V206.542H111.36V207.906H108.46V209.157H77.9728C77.5895 207.141 75.8134 205.613 73.6866 205.613C71.281 205.613 69.3238 207.568 69.3238 209.971C69.3238 212.374 71.281 214.329 73.6866 214.329C75.8134 214.329 77.5895 212.801 77.9728 210.786H108.46V212.249H111.36V213.612H117.258V216.551H111.36V217.915H108.46V219.163H76.8964L64.0934 231.953C63.3496 231.365 62.4102 231.011 61.3909 231.011C58.9852 231.011 57.0281 232.966 57.0281 235.369C57.0281 237.772 58.9852 239.727 61.3909 239.727C63.7965 239.727 65.7537 237.772 65.7537 235.369C65.7537 234.574 65.5384 233.828 65.1649 233.186L77.5732 220.792H108.46V222.26H111.36V223.623H117.61C118.965 230.122 124.103 235.25 130.61 236.601V242.509H131.975V245.406H133.261V265.641L120.322 278.565V292.277C118.305 292.66 116.775 294.434 116.775 296.558C116.775 298.961 118.732 300.916 121.138 300.916C123.543 300.916 125.501 298.961 125.501 296.558C125.501 294.434 123.971 292.66 121.953 292.277V279.239L134.892 266.315V245.406H136.325V242.509H137.69V236.951H140.633V242.509H141.998V245.406H143.278V276.09C141.26 276.473 139.731 278.247 139.731 280.371C139.731 282.774 141.688 284.729 144.093 284.729C146.499 284.729 148.456 282.774 148.456 280.371C148.456 278.247 146.926 276.473 144.909 276.09V245.406H146.346V242.509H147.711V236.951H150.653V242.509H152.018V245.406H153.295V287.733L132.262 308.742C131.564 308.27 130.724 307.994 129.821 307.994C127.415 307.994 125.458 309.949 125.458 312.352C125.458 314.755 127.415 316.71 129.821 316.71C132.227 316.71 134.184 314.755 134.184 312.352C134.184 311.44 133.9 310.591 133.419 309.891L154.926 288.408V245.404H156.368V242.508H157.733V236.949H160.675V242.508H162.04V245.404H166.389V242.508H167.754V236.949H170.696V242.508H172.061V245.404H173.33V314.998L192.34 333.987V350.361C190.323 350.744 188.793 352.518 188.793 354.642C188.793 357.045 190.75 359 193.156 359C195.562 359 197.519 357.045 197.519 354.642C197.519 352.518 195.989 350.744 193.971 350.361V333.312L174.961 314.323V245.404H176.411V242.508H177.776V236.949H180.718V242.508H182.083V245.404H183.347V296.454C181.33 296.837 179.8 298.611 179.8 300.735C179.8 303.138 181.757 305.093 184.163 305.093C186.568 305.093 188.526 303.138 188.526 300.735C188.526 298.611 186.996 296.837 184.978 296.454V245.404H186.431V242.508H187.797V236.949H190.739V242.508H192.104V245.404H193.365V288.408L217.199 312.214L217.438 312.452H245.366C245.749 314.467 247.525 315.995 249.652 315.995C252.058 315.995 254.015 314.04 254.015 311.637C254.015 309.234 252.058 307.279 249.652 307.279C247.525 307.279 245.749 308.807 245.366 310.823H218.113L194.996 287.732V245.404H196.454V242.508H197.819V236.949H200.761V242.508H202.126V245.404H203.382V276.088C201.365 276.471 199.835 278.245 199.835 280.37C199.835 282.773 201.792 284.728 204.197 284.728C206.603 284.728 208.56 282.773 208.56 280.37C208.56 278.245 207.03 276.471 205.013 276.088V245.404H206.474V242.508H207.839V236.949H210.782V242.508H212.147V245.404H213.399V277.164L226.204 289.954C225.615 290.697 225.261 291.635 225.261 292.655C225.261 295.058 227.218 297.013 229.624 297.013C232.03 297.013 233.987 295.058 233.987 292.655C233.987 290.252 232.03 288.297 229.624 288.297C228.828 288.297 228.081 288.512 227.439 288.885L215.03 276.491V245.407H216.497V242.511H217.862V236.599C224.359 235.242 229.485 230.117 230.841 223.626H236.539V222.263H239.439V220.868H259.929L272.867 233.792H286.595C286.978 235.807 288.754 237.335 290.881 237.335C293.287 237.335 295.244 235.38 295.244 232.977C295.244 230.574 293.287 228.62 290.881 228.62C288.754 228.62 286.978 230.148 286.595 232.163H273.543L260.604 219.239H239.439V217.92H236.539V216.556H231.193V213.617H236.539V212.254H239.439V209.867H293.987L332.57 245.114V287.743H341.708C342.026 289.841 343.843 291.456 346.032 291.456C348.444 291.456 350.405 289.496 350.405 287.088C350.405 284.68 348.443 282.72 346.032 282.72C343.956 282.72 342.214 284.174 341.769 286.116H334.201V244.397L294.619 208.239H239.438V207.91H236.538V206.547H231.191V203.608H236.538V202.244H239.438V200.892H258.671C259.055 202.907 260.831 204.436 262.958 204.436C265.363 204.436 267.32 202.481 267.32 200.078C267.32 197.675 265.363 195.72 262.958 195.72C260.831 195.72 259.055 197.248 258.671 199.263H239.438V197.901H236.538V196.538H231.191V193.599H236.538V192.235H239.438V189.401H308.158L327.168 208.389H341.757C342.181 210.357 343.936 211.837 346.032 211.837C348.444 211.837 350.405 209.877 350.405 207.469C350.405 205.061 348.443 203.101 346.032 203.101C343.863 203.101 342.057 204.688 341.717 206.762H327.844L308.833 187.773H236.538V186.53H231.191V183.591H236.538L236.517 183.581ZM346.011 144.035C347.529 144.035 348.766 145.27 348.766 146.786C348.766 148.303 347.529 149.538 346.011 149.538C344.492 149.538 343.256 148.303 343.256 146.786C343.256 145.27 344.492 144.035 346.011 144.035ZM295.042 167.294C296.549 167.294 297.774 168.519 297.774 170.022C297.774 171.526 296.547 172.751 295.042 172.751C293.536 172.751 292.31 171.526 292.31 170.022C292.31 168.519 293.536 167.294 295.042 167.294ZM274.653 157.296C276.16 157.296 277.385 158.521 277.385 160.025C277.385 161.528 276.159 162.753 274.653 162.753C273.148 162.753 271.921 161.528 271.921 160.025C271.921 158.521 273.148 157.296 274.653 157.296ZM346.011 88.3065C347.529 88.3065 348.766 89.5413 348.766 91.058C348.766 92.5747 347.529 93.8096 346.011 93.8096C344.492 93.8096 343.256 92.5747 343.256 91.058C343.256 89.5413 344.492 88.3065 346.011 88.3065ZM286.951 121.889C288.458 121.889 289.682 123.114 289.682 124.618C289.682 126.121 288.456 127.346 286.951 127.346C285.445 127.346 284.219 126.121 284.219 124.618C284.219 123.114 285.445 121.889 286.951 121.889ZM224.472 63.4333C224.472 61.928 225.698 60.7046 227.204 60.7046C228.709 60.7046 229.936 61.9296 229.936 63.4333C229.936 64.937 228.709 66.162 227.204 66.162C225.698 66.162 224.472 64.937 224.472 63.4333ZM218.525 44.9071C220.032 44.9071 221.257 46.1322 221.257 47.6359C221.257 49.1395 220.031 50.3646 218.525 50.3646C217.02 50.3646 215.794 49.1395 215.794 47.6359C215.794 46.1322 217.02 44.9071 218.525 44.9071ZM152.464 5.3476C152.464 3.84231 153.69 2.61885 155.195 2.61885C156.701 2.61885 157.927 3.84394 157.927 5.3476C157.927 6.85126 156.701 8.07635 155.195 8.07635C153.69 8.07635 152.464 6.85126 152.464 5.3476ZM98.7039 51.0798C97.1969 51.0798 95.9721 49.8547 95.9721 48.3511C95.9721 46.8474 97.1985 45.6223 98.7039 45.6223C100.209 45.6223 101.436 46.8474 101.436 48.3511C101.436 49.8547 100.209 51.0798 98.7039 51.0798ZM118.735 70.0654C117.228 70.0654 116.003 68.8403 116.003 67.3366C116.003 65.833 117.23 64.6079 118.735 64.6079C120.241 64.6079 121.467 65.833 121.467 67.3366C121.467 68.8403 120.241 70.0654 118.735 70.0654ZM4.3726 85.19C2.85418 85.19 1.61791 83.9551 1.61791 82.4384C1.61791 80.9217 2.85418 79.6869 4.3726 79.6869C5.89102 79.6869 7.12728 80.9217 7.12728 82.4384C7.12728 83.9551 5.89102 85.19 4.3726 85.19ZM73.685 152.671C72.178 152.671 70.9532 151.446 70.9532 149.942C70.9532 148.438 72.1796 147.213 73.685 147.213C75.1904 147.213 76.4169 148.438 76.4169 149.942C76.4169 151.446 75.1904 152.671 73.685 152.671ZM41.6661 138.413C40.1591 138.413 38.9342 137.188 38.9342 135.684C38.9342 134.18 40.1607 132.955 41.6661 132.955C43.1714 132.955 44.3979 134.18 44.3979 135.684C44.3979 137.188 43.1714 138.413 41.6661 138.413ZM4.3726 140.697C2.85418 140.697 1.61791 139.462 1.61791 137.945C1.61791 136.429 2.85418 135.194 4.3726 135.194C5.89102 135.194 7.12728 136.429 7.12728 137.945C7.12728 139.462 5.89102 140.697 4.3726 140.697ZM4.3726 202.011C2.85418 202.011 1.61791 200.777 1.61791 199.26C1.61791 197.743 2.85418 196.508 4.3726 196.508C5.89102 196.508 7.12728 197.743 7.12728 199.26C7.12728 200.777 5.89102 202.011 4.3726 202.011ZM53.2964 192.686C51.7894 192.686 50.5646 191.461 50.5646 189.958C50.5646 188.454 51.791 187.229 53.2964 187.229C54.8018 187.229 56.0283 188.454 56.0283 189.958C56.0283 191.461 54.8018 192.686 53.2964 192.686ZM4.3726 280.669C2.85418 280.669 1.61791 279.435 1.61791 277.918C1.61791 276.401 2.85418 275.166 4.3726 275.166C5.89102 275.166 7.12728 276.401 7.12728 277.918C7.12728 279.435 5.89102 280.669 4.3726 280.669ZM73.685 212.693C72.178 212.693 70.9532 211.468 70.9532 209.965C70.9532 208.461 72.1796 207.236 73.685 207.236C75.1904 207.236 76.4169 208.461 76.4169 209.965C76.4169 211.468 75.1904 212.693 73.685 212.693ZM61.3876 238.09C59.8806 238.09 58.6558 236.864 58.6558 235.361C58.6558 233.857 59.8822 232.632 61.3876 232.632C62.893 232.632 64.1195 233.857 64.1195 235.361C64.1195 236.864 62.893 238.09 61.3876 238.09ZM123.866 296.545C123.866 298.05 122.64 299.274 121.134 299.274C119.629 299.274 118.403 298.049 118.403 296.545C118.403 295.041 119.629 293.816 121.134 293.816C122.64 293.816 123.866 295.041 123.866 296.545ZM129.811 315.071C128.304 315.071 127.079 313.846 127.079 312.342C127.079 310.839 128.306 309.614 129.811 309.614C131.317 309.614 132.543 310.839 132.543 312.342C132.543 313.846 131.317 315.071 129.811 315.071ZM195.875 354.631C195.875 356.136 194.648 357.359 193.143 357.359C191.637 357.359 190.411 356.134 190.411 354.631C190.411 353.127 191.637 351.902 193.143 351.902C194.648 351.902 195.875 353.127 195.875 354.631ZM249.634 308.899C251.141 308.899 252.366 310.124 252.366 311.627C252.366 313.131 251.14 314.356 249.634 314.356C248.129 314.356 246.902 313.131 246.902 311.627C246.902 310.124 248.129 308.899 249.634 308.899ZM229.603 289.913C231.11 289.913 232.335 291.138 232.335 292.642C232.335 294.145 231.108 295.37 229.603 295.37C228.098 295.37 226.871 294.145 226.871 292.642C226.871 291.138 228.098 289.913 229.603 289.913ZM201.519 79.6201C201.519 78.1148 202.746 76.8913 204.251 76.8913C205.757 76.8913 206.983 78.1164 206.983 79.6201C206.983 81.1237 205.757 82.3488 204.251 82.3488C202.746 82.3488 201.519 81.1237 201.519 79.6201ZM161.458 59.2547C161.458 57.7494 162.685 56.5259 164.19 56.5259C165.695 56.5259 166.922 57.751 166.922 59.2547C166.922 60.7583 165.695 61.9834 164.19 61.9834C162.685 61.9834 161.458 60.7583 161.458 59.2547ZM141.427 79.6201C141.427 78.1148 142.653 76.8913 144.159 76.8913C145.664 76.8913 146.891 78.1164 146.891 79.6201C146.891 81.1237 145.664 82.3488 144.159 82.3488C142.653 82.3488 141.427 81.1237 141.427 79.6201ZM146.819 280.36C146.819 281.865 145.592 283.089 144.087 283.089C142.582 283.089 141.355 281.864 141.355 280.36C141.355 278.856 142.582 277.631 144.087 277.631C145.592 277.631 146.819 278.856 146.819 280.36ZM186.88 300.725C186.88 302.231 185.653 303.454 184.148 303.454C182.643 303.454 181.416 302.229 181.416 300.725C181.416 299.222 182.643 297.997 184.148 297.997C185.653 297.997 186.88 299.222 186.88 300.725ZM206.911 280.36C206.911 281.865 205.685 283.089 204.18 283.089C202.674 283.089 201.448 281.864 201.448 280.36C201.448 278.856 202.674 277.631 204.18 277.631C205.685 277.631 206.911 278.856 206.911 280.36ZM227.39 220.191C227.39 227.344 221.564 233.163 214.402 233.163H134.022C126.861 233.163 121.035 227.344 121.035 220.191V139.902C121.035 132.748 126.861 126.929 134.022 126.929H214.402C221.564 126.929 227.39 132.748 227.39 139.902V220.191ZM290.857 230.236C292.364 230.236 293.589 231.461 293.589 232.964C293.589 234.468 292.362 235.693 290.857 235.693C289.351 235.693 288.125 234.468 288.125 232.964C288.125 231.461 289.351 230.236 290.857 230.236ZM346.011 284.324C347.529 284.324 348.766 285.558 348.766 287.075C348.766 288.592 347.529 289.827 346.011 289.827C344.492 289.827 343.256 288.592 343.256 287.075C343.256 285.558 344.492 284.324 346.011 284.324ZM262.935 197.338C264.442 197.338 265.667 198.563 265.667 200.066C265.667 201.57 264.44 202.795 262.935 202.795C261.429 202.795 260.203 201.57 260.203 200.066C260.203 198.563 261.429 197.338 262.935 197.338ZM346.011 204.708C347.529 204.708 348.766 205.942 348.766 207.459C348.766 208.976 347.529 210.211 346.011 210.211C344.492 210.211 343.256 208.976 343.256 207.459C343.256 205.942 344.492 204.708 346.011 204.708Z" fill="url(#paint12_linear_281_1874)"/>
    <defs>
        <filter id="filter0_d_281_1874" x="109.045" y="114.931" width="130.334" height="130.231" filterUnits="userSpaceOnUse" color-interpolation-filters="sRGB">
            <feFlood flood-opacity="0" result="BackgroundImageFix"/>
            <feColorMatrix in="SourceAlpha" type="matrix" values="0 0 0 0 0 0 0 0 0 0 0 0 0 0 0 0 0 0 127 0" result="hardAlpha"/>
            <feOffset/>
            <feGaussianBlur stdDeviation="10"/>
            <feColorMatrix type="matrix" values="0 0 0 0 0.960784 0 0 0 0 0 0 0 0 0 0.988235 0 0 0 1 0"/>
            <feBlend mode="normal" in2="BackgroundImageFix" result="effect1_dropShadow_281_1874"/>
            <feBlend mode="normal" in="SourceGraphic" in2="effect1_dropShadow_281_1874" result="shape"/>
        </filter>
        <filter id="filter1_d_281_1874" x="117.844" y="123.296" width="46.2955" height="46.2886" filterUnits="userSpaceOnUse" color-interpolation-filters="sRGB">
            <feFlood flood-opacity="0" result="BackgroundImageFix"/>
            <feColorMatrix in="SourceAlpha" type="matrix" values="0 0 0 0 0 0 0 0 0 0 0 0 0 0 0 0 0 0 127 0" result="hardAlpha"/>
            <feOffset/>
            <feGaussianBlur stdDeviation="10"/>
            <feColorMatrix type="matrix" values="0 0 0 0 0.960784 0 0 0 0 0 0 0 0 0 0.988235 0 0 0 1 0"/>
            <feBlend mode="normal" in2="BackgroundImageFix" result="effect1_dropShadow_281_1874"/>
            <feBlend mode="normal" in="SourceGraphic" in2="effect1_dropShadow_281_1874" result="shape"/>
        </filter>
        <filter id="filter2_d_281_1874" x="117.842" y="190.397" width="46.2971" height="46.29" filterUnits="userSpaceOnUse" color-interpolation-filters="sRGB">
            <feFlood flood-opacity="0" result="BackgroundImageFix"/>
            <feColorMatrix in="SourceAlpha" type="matrix" values="0 0 0 0 0 0 0 0 0 0 0 0 0 0 0 0 0 0 127 0" result="hardAlpha"/>
            <feOffset/>
            <feGaussianBlur stdDeviation="10"/>
            <feColorMatrix type="matrix" values="0 0 0 0 0.960784 0 0 0 0 0 0 0 0 0 0.988235 0 0 0 1 0"/>
            <feBlend mode="normal" in2="BackgroundImageFix" result="effect1_dropShadow_281_1874"/>
            <feBlend mode="normal" in="SourceGraphic" in2="effect1_dropShadow_281_1874" result="shape"/>
        </filter>
        <filter id="filter3_d_281_1874" x="183.735" y="123.296" width="46.2955" height="46.2886" filterUnits="userSpaceOnUse" color-interpolation-filters="sRGB">
            <feFlood flood-opacity="0" result="BackgroundImageFix"/>
            <feColorMatrix in="SourceAlpha" type="matrix" values="0 0 0 0 0 0 0 0 0 0 0 0 0 0 0 0 0 0 127 0" result="hardAlpha"/>
            <feOffset/>
            <feGaussianBlur stdDeviation="10"/>
            <feColorMatrix type="matrix" values="0 0 0 0 0.960784 0 0 0 0 0 0 0 0 0 0.988235 0 0 0 1 0"/>
            <feBlend mode="normal" in2="BackgroundImageFix" result="effect1_dropShadow_281_1874"/>
            <feBlend mode="normal" in="SourceGraphic" in2="effect1_dropShadow_281_1874" result="shape"/>
        </filter>
        <filter id="filter4_d_281_1874" x="183.734" y="190.396" width="46.2971" height="46.29" filterUnits="userSpaceOnUse" color-interpolation-filters="sRGB">
            <feFlood flood-opacity="0" result="BackgroundImageFix"/>
            <feColorMatrix in="SourceAlpha" type="matrix" values="0 0 0 0 0 0 0 0 0 0 0 0 0 0 0 0 0 0 127 0" result="hardAlpha"/>
            <feOffset/>
            <feGaussianBlur stdDeviation="10"/>
            <feColorMatrix type="matrix" values="0 0 0 0 0.960784 0 0 0 0 0 0 0 0 0 0.988235 0 0 0 1 0"/>
            <feBlend mode="normal" in2="BackgroundImageFix" result="effect1_dropShadow_281_1874"/>
            <feBlend mode="normal" in="SourceGraphic" in2="effect1_dropShadow_281_1874" result="shape"/>
        </filter>
        <linearGradient id="paint0_linear_281_1874" x1="159.739" y1="219.928" x2="209.79" y2="174.967" gradientUnits="userSpaceOnUse">
            <stop stop-color="#960000"/>
            <stop offset="1" stop-color="#B503FF"/>
        </linearGradient>
        <linearGradient id="paint1_linear_281_1874" x1="157.692" y1="217.649" x2="207.743" y2="172.688" gradientUnits="userSpaceOnUse">
            <stop stop-color="#960000"/>
            <stop offset="1" stop-color="#B503FF"/>
        </linearGradient>
        <linearGradient id="paint2_linear_281_1874" x1="152.133" y1="211.512" x2="202.186" y2="166.502" gradientUnits="userSpaceOnUse">
            <stop stop-color="#960000"/>
            <stop offset="1" stop-color="#B503FF"/>
        </linearGradient>
        <linearGradient id="paint3_linear_281_1874" x1="146.743" y1="205.508" x2="196.8" y2="160.499" gradientUnits="userSpaceOnUse">
            <stop stop-color="#960000"/>
            <stop offset="1" stop-color="#B503FF"/>
        </linearGradient>
        <linearGradient id="paint4_linear_281_1874" x1="139.74" y1="207.79" x2="194.794" y2="158.333" gradientUnits="userSpaceOnUse">
            <stop stop-color="#960000"/>
            <stop offset="1" stop-color="#B503FF"/>
        </linearGradient>
        <linearGradient id="paint5_linear_281_1874" x1="140.272" y1="197.525" x2="190.544" y2="152.363" gradientUnits="userSpaceOnUse">
            <stop stop-color="#960000"/>
            <stop offset="1" stop-color="#B503FF"/>
        </linearGradient>
        <linearGradient id="paint6_linear_281_1874" x1="157.384" y1="179.836" x2="201.306" y2="179.836" gradientUnits="userSpaceOnUse">
            <stop stop-color="#F70D29"/>
            <stop offset="1" stop-color="#EC03FF"/>
        </linearGradient>
        <linearGradient id="paint7_linear_281_1874" x1="-265.959" y1="180.046" x2="610.11" y2="180.046" gradientUnits="userSpaceOnUse">
            <stop stop-color="#F70D29"/>
            <stop offset="1" stop-color="#EC03FF"/>
        </linearGradient>
        <linearGradient id="paint8_linear_281_1874" x1="-265.958" y1="146.441" x2="610.111" y2="146.441" gradientUnits="userSpaceOnUse">
            <stop stop-color="#F70D29"/>
            <stop offset="1" stop-color="#EC03FF"/>
        </linearGradient>
        <linearGradient id="paint9_linear_281_1874" x1="-265.96" y1="213.543" x2="610.109" y2="213.543" gradientUnits="userSpaceOnUse">
            <stop stop-color="#F70D29"/>
            <stop offset="1" stop-color="#EC03FF"/>
        </linearGradient>
        <linearGradient id="paint10_linear_281_1874" x1="-265.958" y1="146.439" x2="610.11" y2="146.439" gradientUnits="userSpaceOnUse">
            <stop stop-color="#F70D29"/>
            <stop offset="1" stop-color="#EC03FF"/>
        </linearGradient>
        <linearGradient id="paint11_linear_281_1874" x1="-265.957" y1="213.54" x2="610.111" y2="213.54" gradientUnits="userSpaceOnUse">
            <stop stop-color="#F70D29"/>
            <stop offset="1" stop-color="#EC03FF"/>
        </linearGradient>
        <linearGradient id="paint12_linear_281_1874" x1="0" y1="179.989" x2="350.383" y2="179.989" gradientUnits="userSpaceOnUse">
            <stop stop-color="#F70D29"/>
            <stop offset="1" stop-color="#EC03FF"/>
        </linearGradient>
    </defs>
</svg>
