<svg width="324" height="330" viewBox="0 0 324 330" fill="none" xmlns="http://www.w3.org/2000/svg">
<path d="M218.528 168.301V167.044H221.201V166.52H272.054L308.077 135.048H315.477C315.794 136.953 317.455 138.41 319.451 138.41C321.675 138.41 323.482 136.603 323.482 134.384C323.482 132.165 321.673 130.358 319.451 130.358C317.517 130.358 315.896 131.728 315.508 133.546H307.512L271.488 165.018H221.2V163.041H218.527V161.784H213.599V159.075H218.527V157.818H221.2V156.552H268.521C268.874 158.41 270.511 159.818 272.472 159.818C274.689 159.818 276.493 158.016 276.493 155.801C276.493 153.586 274.689 151.785 272.472 151.785C270.511 151.785 268.874 153.193 268.521 155.051H221.2V153.815H218.527V152.559H213.599V149.85H218.527V148.594H221.2V147.337H249.728C250.081 149.194 251.718 150.603 253.679 150.603C255.896 150.603 257.7 148.801 257.7 146.586C257.7 144.371 255.896 142.569 253.679 142.569C251.718 142.569 250.081 143.978 249.728 145.835H221.2V144.589H218.527V143.332H213.599V140.623H218.527V139.366H221.2V136.769H259.629L305.114 83.7606H315.49C315.842 85.6256 317.484 87.0401 319.451 87.0401C321.675 87.0401 323.482 85.2337 323.482 83.0144C323.482 80.795 321.673 78.9886 319.451 78.9886C317.487 78.9886 315.848 80.4001 315.493 82.259H304.492L259.006 135.267H218.527V134.106H213.599V131.397H218.527V130.14H221.2V128.885H250.72L262.521 117.096C263.207 117.638 264.073 117.964 265.012 117.964C267.23 117.964 269.033 116.162 269.033 113.947C269.033 111.732 267.23 109.93 265.012 109.93C262.795 109.93 260.991 111.732 260.991 113.947C260.991 114.68 261.189 115.368 261.533 115.959L250.096 127.384H221.198V126.136H218.525V124.88H213.273C212.022 118.886 207.281 114.156 201.276 112.916V107.367H200.02V104.697H198.767V86.0461L210.693 74.1339V61.4949C212.553 61.1421 213.963 59.5068 213.963 57.5487C213.963 55.3339 212.159 53.532 209.942 53.532C207.724 53.532 205.92 55.3339 205.92 57.5487C205.92 59.5068 207.33 61.1421 209.19 61.4949V73.5122L197.264 85.4244V104.697H196.012V107.367H194.755V112.596H192.045V107.367H190.788V104.697H189.536V76.4148C191.395 76.062 192.805 74.4267 192.805 72.4686C192.805 70.2538 191.001 68.4518 188.784 68.4518C186.567 68.4518 184.763 70.2538 184.763 72.4686C184.763 74.4267 186.173 76.062 188.032 76.4148V104.697H186.78V107.367H185.523V112.596H182.813V107.367H181.556V104.697H180.304V65.6829L199.69 46.3183C200.334 46.7538 201.108 47.0075 201.941 47.0075C204.158 47.0075 205.962 45.2056 205.962 42.9908C205.962 40.7759 204.158 38.974 201.941 38.974C199.724 38.974 197.92 40.7759 197.92 42.9908C197.92 43.8316 198.181 44.614 198.625 45.2597L178.801 65.0612V104.699H177.548V107.369H176.292V112.597H173.581V107.369H172.324V104.699H168.318V107.369H167.061V112.597H164.351V107.369H163.094V104.699H161.842V40.5522L144.319 23.0495V7.96297C146.179 7.6101 147.589 5.97486 147.589 4.01677C147.589 1.80192 145.785 0 143.568 0C141.35 0 139.546 1.80192 139.546 4.01677C139.546 5.97486 140.956 7.6101 142.816 7.96297V23.6772L160.338 41.1798V104.705H159.086V107.375H157.829V112.603H155.119V107.375H153.862V104.705H152.61V57.6509C154.47 57.298 155.88 55.6627 155.88 53.7047C155.88 51.4898 154.076 49.6879 151.858 49.6879C149.641 49.6879 147.837 51.4898 147.837 53.7047C147.837 55.6627 149.247 57.298 151.107 57.6509V104.705H149.854V107.375H148.598V112.603H145.887V107.375H144.63V104.705H143.378V65.0672L121.189 42.9037H95.4467C95.0934 41.0462 93.4563 39.6377 91.496 39.6377C89.2786 39.6377 87.4747 41.4396 87.4747 43.6545C87.4747 45.8693 89.2786 47.6712 91.496 47.6712C93.4563 47.6712 95.0934 46.2627 95.4467 44.4053H120.567L141.875 65.6889V104.703H140.623V107.373H139.366V112.602H136.655V107.373H135.399V104.703H134.146V76.4208C136.006 76.068 137.416 74.4327 137.416 72.4746C137.416 70.2598 135.612 68.4579 133.395 68.4579C131.177 68.4579 129.373 70.2598 129.373 72.4746C129.373 74.4327 130.783 76.068 132.643 76.4208V104.703H131.391V107.373H130.134V112.602H127.424V107.373H126.167V104.703H124.915V75.4298L113.112 63.6422C113.655 62.9575 113.981 62.0926 113.981 61.1541C113.981 58.9392 112.177 57.1373 109.96 57.1373C107.742 57.1373 105.938 58.9392 105.938 61.1541C105.938 63.3689 107.742 65.1709 109.96 65.1709C110.693 65.1709 111.382 64.9726 111.974 64.6288L123.411 76.0529V104.703H122.159V107.373H120.902V112.925C114.904 114.17 110.169 118.897 108.919 124.886H103.159V126.142H100.486V127.322H62.6386L17.1605 74.3141H8.51201C8.15572 72.4551 6.51712 71.0466 4.5538 71.0466C2.33041 71.0466 0.523438 72.853 0.523438 75.0724C0.523438 77.2918 2.33191 79.0982 4.5538 79.0982C6.52313 79.0982 8.16474 77.6807 8.51501 75.8142H16.5367L62.0222 128.822H100.492V130.145H103.165V131.402H108.601V134.111H103.165V135.368H100.492V136.543H72.3905C72.0372 134.686 70.4001 133.277 68.4398 133.277C66.2224 133.277 64.4185 135.079 64.4185 137.294C64.4185 139.509 66.2224 141.311 68.4398 141.311C70.4001 141.311 72.0372 139.902 72.3905 138.045H100.492V139.371H103.165V140.628H108.601V143.337H103.165V144.593H100.492V145.766H61.6464L42.2597 126.402C42.6957 125.759 42.9497 124.986 42.9497 124.154C42.9497 121.939 41.1458 120.137 38.9284 120.137C36.711 120.137 34.9071 121.939 34.9071 124.154C34.9071 126.368 36.711 128.17 38.9284 128.17C39.7703 128.17 40.5535 127.909 41.1999 127.466L61.024 147.268H100.493V148.598H103.166V149.855H108.602V152.564H103.166V153.819H100.493V155.351H50.1641L14.1404 125.601H8.53456C8.22788 123.684 6.56072 122.212 4.55531 122.212C2.33191 122.212 0.524941 124.018 0.524941 126.238C0.524941 128.457 2.33342 130.264 4.55531 130.264C6.48104 130.264 8.09409 128.908 8.49246 127.101H13.5766L49.6004 156.851H100.495V157.821H103.168V159.078H108.604V161.787H103.168V163.044H100.495V164.209H36.487L18.9645 181.711H8.44737C7.98585 179.997 6.4164 178.729 4.55531 178.729C2.33191 178.729 0.524941 180.536 0.524941 182.755C0.524941 184.974 2.33342 186.781 4.55531 186.781C6.62385 186.781 8.33161 185.218 8.56011 183.211H19.5884L37.1109 165.709H100.495V167.047H103.168V168.304H108.604V171.012H103.168V172.269H100.495V173.43H53.6007C53.2474 171.573 51.6103 170.164 49.65 170.164C47.4326 170.164 45.6286 171.966 45.6286 174.181C45.6286 176.396 47.4326 178.198 49.65 178.198C51.6103 178.198 53.2474 176.789 53.6007 174.932H100.495V176.273H103.168V177.529H108.604V180.238H103.168V181.495H100.495V183.037H49.5914L13.1076 216.365V254.818H8.56312C8.34213 252.805 6.62987 251.234 4.55681 251.234C2.33342 251.234 0.526444 253.04 0.526444 255.26C0.526444 257.479 2.33492 259.285 4.55681 259.285C6.41189 259.285 7.97833 258.027 8.44436 256.318H14.6109V217.026L50.1746 184.537H100.495V185.498H103.168V186.755H108.604V189.464H103.168V190.721H100.495V191.874H72.3935C72.0402 190.017 70.4031 188.608 68.4428 188.608C66.2254 188.608 64.4215 190.41 64.4215 192.625C64.4215 194.84 66.2254 196.642 68.4428 196.642C70.4031 196.642 72.0402 195.233 72.3935 193.376H100.495V194.724H103.168V195.981H108.604V198.69H103.168V199.947H100.495V201.097H71.4013L59.6004 212.886C58.9149 212.344 58.049 212.018 57.1094 212.018C54.892 212.018 53.088 213.82 53.088 216.035C53.088 218.25 54.892 220.052 57.1094 220.052C59.3268 220.052 61.1307 218.25 61.1307 216.035C61.1307 215.302 60.9323 214.614 60.588 214.023L72.0252 202.599H100.495V203.952H103.168V205.208H108.928C110.178 211.198 114.913 215.925 120.911 217.17V222.616H122.169V225.286H123.354V243.938L111.428 255.85V268.489C109.569 268.842 108.159 270.477 108.159 272.435C108.159 274.65 109.963 276.452 112.18 276.452C114.397 276.452 116.201 274.65 116.201 272.435C116.201 270.477 114.791 268.842 112.932 268.489V256.471L124.857 244.559V225.286H126.179V222.616H127.437V217.493H130.149V222.616H131.407V225.286H132.587V253.569C130.728 253.922 129.318 255.557 129.318 257.515C129.318 259.73 131.122 261.532 133.339 261.532C135.556 261.532 137.36 259.73 137.36 257.515C137.36 255.557 135.95 253.922 134.091 253.569V225.286H135.415V222.616H136.673V217.493H139.385V222.616H140.644V225.286H141.821V264.301L122.434 283.665C121.791 283.23 121.016 282.976 120.184 282.976C117.966 282.976 116.162 284.778 116.162 286.993C116.162 289.208 117.966 291.01 120.184 291.01C122.401 291.01 124.205 289.208 124.205 286.993C124.205 286.152 123.943 285.37 123.5 284.724L143.324 264.922V225.285H144.653V222.615H145.911V217.491H148.623V222.615H149.881V225.285H153.889V222.615H155.148V217.491H157.859V222.615H159.118V225.285H160.287V289.432L177.81 306.934V322.027C175.95 322.38 174.54 324.015 174.54 325.973C174.54 328.188 176.344 329.99 178.562 329.99C180.779 329.99 182.583 328.188 182.583 325.973C182.583 324.015 181.173 322.38 179.313 322.027V306.312L161.791 288.81V225.285H163.127V222.615H164.385V217.491H167.097V222.615H168.356V225.285H169.521V272.339C167.661 272.692 166.251 274.327 166.251 276.285C166.251 278.5 168.055 280.302 170.272 280.302C172.49 280.302 174.294 278.5 174.294 276.285C174.294 274.327 172.884 272.692 171.024 272.339V225.285H172.363V222.615H173.622V217.491H176.334V222.615H177.592V225.285H178.754V264.922L200.723 286.865L200.943 287.085H226.685C227.039 288.942 228.676 290.351 230.636 290.351C232.853 290.351 234.657 288.549 234.657 286.334C234.657 284.119 232.853 282.317 230.636 282.317C228.676 282.317 227.039 283.725 226.685 285.583H201.565L180.257 264.299V225.285H181.601V222.615H182.859V217.491H185.571V222.615H186.83V225.285H187.987V253.567C186.128 253.92 184.718 255.555 184.718 257.514C184.718 259.728 186.522 261.53 188.739 261.53C190.956 261.53 192.76 259.728 192.76 257.514C192.76 255.555 191.35 253.92 189.491 253.567V225.285H190.838V222.615H192.096V217.491H194.808V222.615H196.066V225.285H197.221V254.558L209.023 266.347C208.48 267.032 208.154 267.897 208.154 268.837C208.154 271.052 209.958 272.854 212.175 272.854C214.393 272.854 216.197 271.052 216.197 268.837C216.197 266.622 214.393 264.82 212.175 264.82C211.442 264.82 210.753 265.019 210.161 265.362L198.724 253.938V225.288H200.075V222.618H201.334V217.169C207.323 215.918 212.048 211.194 213.297 205.211H218.549V203.955H221.222V202.669H240.108L252.034 214.581H264.687C265.041 216.439 266.678 217.847 268.638 217.847C270.855 217.847 272.659 216.045 272.659 213.831C272.659 211.616 270.855 209.814 268.638 209.814C266.678 209.814 265.041 211.222 264.687 213.08H252.656L240.731 201.168H221.222V199.951H218.549V198.694H213.622V195.986H218.549V194.729H221.222V192.529H271.5L307.064 225.017V264.31H315.487C315.78 266.244 317.455 267.732 319.472 267.732C321.696 267.732 323.503 265.926 323.503 263.706C323.503 261.487 321.694 259.68 319.472 259.68C317.559 259.68 315.953 261.02 315.543 262.81H308.567V224.357L272.084 191.029H221.221V190.725H218.548V189.469H213.62V186.76H218.548V185.503H221.221V184.257H238.949C239.303 186.114 240.94 187.523 242.9 187.523C245.117 187.523 246.921 185.721 246.921 183.506C246.921 181.291 245.117 179.489 242.9 179.489C240.94 179.489 239.303 180.898 238.949 182.755H221.221V181.5H218.548V180.243H213.62V177.534H218.548V176.277H221.221V173.664H284.563L302.085 191.167H315.532C315.923 192.981 317.541 194.344 319.472 194.344C321.696 194.344 323.503 192.538 323.503 190.319C323.503 188.099 321.694 186.293 319.472 186.293C317.473 186.293 315.809 187.755 315.495 189.667H302.708L285.185 172.164H218.548V171.019H213.62V168.31H218.548L218.528 168.301ZM319.453 131.849C320.852 131.849 321.992 132.988 321.992 134.386C321.992 135.784 320.852 136.922 319.453 136.922C318.053 136.922 316.914 135.784 316.914 134.386C316.914 132.988 318.053 131.849 319.453 131.849ZM272.473 153.288C273.862 153.288 274.991 154.417 274.991 155.803C274.991 157.189 273.861 158.318 272.473 158.318C271.086 158.318 269.955 157.189 269.955 155.803C269.955 154.417 271.086 153.288 272.473 153.288ZM253.68 144.072C255.069 144.072 256.198 145.202 256.198 146.588C256.198 147.973 255.068 149.103 253.68 149.103C252.293 149.103 251.162 147.973 251.162 146.588C251.162 145.202 252.293 144.072 253.68 144.072ZM319.453 80.4826C320.852 80.4826 321.992 81.6209 321.992 83.0189C321.992 84.4168 320.852 85.5551 319.453 85.5551C318.053 85.5551 316.914 84.4168 316.914 83.0189C316.914 81.6209 318.053 80.4826 319.453 80.4826ZM265.015 111.437C266.404 111.437 267.533 112.566 267.533 113.952C267.533 115.338 266.403 116.467 265.015 116.467C263.628 116.467 262.497 115.338 262.497 113.952C262.497 112.566 263.628 111.437 265.015 111.437ZM207.426 57.5563C207.426 56.1688 208.557 55.0411 209.945 55.0411C211.332 55.0411 212.463 56.1703 212.463 57.5563C212.463 58.9422 211.332 60.0714 209.945 60.0714C208.557 60.0714 207.426 58.9422 207.426 57.5563ZM201.945 40.4801C203.334 40.4801 204.463 41.6093 204.463 42.9953C204.463 44.3812 203.333 45.5104 201.945 45.5104C200.558 45.5104 199.427 44.3812 199.427 42.9953C199.427 41.6093 200.558 40.4801 201.945 40.4801ZM141.054 4.01677C141.054 2.6293 142.185 1.5016 143.572 1.5016C144.96 1.5016 146.09 2.6308 146.09 4.01677C146.09 5.40275 144.96 6.53195 143.572 6.53195C142.185 6.53195 141.054 5.40275 141.054 4.01677ZM91.502 46.1696C90.113 46.1696 88.984 45.0404 88.984 43.6545C88.984 42.2685 90.1145 41.1393 91.502 41.1393C92.8896 41.1393 94.0201 42.2685 94.0201 43.6545C94.0201 45.0404 92.8896 46.1696 91.502 46.1696ZM109.966 63.6693C108.577 63.6693 107.448 62.5401 107.448 61.1541C107.448 59.7681 108.578 58.6389 109.966 58.6389C111.353 58.6389 112.484 59.7681 112.484 61.1541C112.484 62.5401 111.353 63.6693 109.966 63.6693ZM4.5538 77.6101C3.15422 77.6101 2.01472 76.4719 2.01472 75.0739C2.01472 73.6759 3.15422 72.5377 4.5538 72.5377C5.95338 72.5377 7.09289 73.6759 7.09289 75.0739C7.09289 76.4719 5.95338 77.6101 4.5538 77.6101ZM68.4413 139.809C67.0523 139.809 65.9233 138.68 65.9233 137.294C65.9233 135.908 67.0538 134.779 68.4413 134.779C69.8289 134.779 70.9594 135.908 70.9594 137.294C70.9594 138.68 69.8289 139.809 68.4413 139.809ZM38.9284 126.667C37.5393 126.667 36.4104 125.538 36.4104 124.152C36.4104 122.766 37.5409 121.637 38.9284 121.637C40.316 121.637 41.4464 122.766 41.4464 124.152C41.4464 125.538 40.316 126.667 38.9284 126.667ZM4.5538 128.773C3.15422 128.773 2.01472 127.634 2.01472 126.236C2.01472 124.838 3.15422 123.7 4.5538 123.7C5.95338 123.7 7.09289 124.838 7.09289 126.236C7.09289 127.634 5.95338 128.773 4.5538 128.773ZM4.5538 185.288C3.15422 185.288 2.01472 184.15 2.01472 182.752C2.01472 181.354 3.15422 180.216 4.5538 180.216C5.95338 180.216 7.09289 181.354 7.09289 182.752C7.09289 184.15 5.95338 185.288 4.5538 185.288ZM49.6485 176.693C48.2594 176.693 47.1304 175.564 47.1304 174.178C47.1304 172.792 48.2609 171.663 49.6485 171.663C51.036 171.663 52.1665 172.792 52.1665 174.178C52.1665 175.564 51.036 176.693 49.6485 176.693ZM4.5538 257.79C3.15422 257.79 2.01472 256.652 2.01472 255.254C2.01472 253.856 3.15422 252.717 4.5538 252.717C5.95338 252.717 7.09289 253.856 7.09289 255.254C7.09289 256.652 5.95338 257.79 4.5538 257.79ZM68.4413 195.134C67.0523 195.134 65.9233 194.005 65.9233 192.619C65.9233 191.233 67.0538 190.104 68.4413 190.104C69.8289 190.104 70.9594 191.233 70.9594 192.619C70.9594 194.005 69.8289 195.134 68.4413 195.134ZM57.1064 218.543C55.7173 218.543 54.5883 217.413 54.5883 216.027C54.5883 214.641 55.7188 213.512 57.1064 213.512C58.4939 213.512 59.6244 214.641 59.6244 216.027C59.6244 217.413 58.4939 218.543 57.1064 218.543ZM114.695 272.423C114.695 273.81 113.565 274.938 112.177 274.938C110.789 274.938 109.659 273.809 109.659 272.423C109.659 271.037 110.789 269.908 112.177 269.908C113.565 269.908 114.695 271.037 114.695 272.423ZM120.175 289.499C118.786 289.499 117.657 288.37 117.657 286.984C117.657 285.598 118.787 284.469 120.175 284.469C121.562 284.469 122.693 285.598 122.693 286.984C122.693 288.37 121.562 289.499 120.175 289.499ZM181.068 325.962C181.068 327.35 179.937 328.478 178.549 328.478C177.162 328.478 176.031 327.348 176.031 325.962C176.031 324.576 177.162 323.447 178.549 323.447C179.937 323.447 181.068 324.576 181.068 325.962ZM230.62 283.81C232.009 283.81 233.138 284.939 233.138 286.325C233.138 287.711 232.007 288.84 230.62 288.84C229.232 288.84 228.101 287.711 228.101 286.325C228.101 284.939 229.232 283.81 230.62 283.81ZM212.156 266.31C213.545 266.31 214.674 267.439 214.674 268.825C214.674 270.211 213.543 271.34 212.156 271.34C210.768 271.34 209.638 270.211 209.638 268.825C209.638 267.439 210.768 266.31 212.156 266.31ZM186.27 72.4761C186.27 71.0887 187.401 69.961 188.788 69.961C190.176 69.961 191.307 71.0902 191.307 72.4761C191.307 73.8621 190.176 74.9913 188.788 74.9913C187.401 74.9913 186.27 73.8621 186.27 72.4761ZM149.345 53.7047C149.345 52.3172 150.475 51.1895 151.863 51.1895C153.25 51.1895 154.381 52.3187 154.381 53.7047C154.381 55.0906 153.25 56.2198 151.863 56.2198C150.475 56.2198 149.345 55.0906 149.345 53.7047ZM130.881 72.4761C130.881 71.0887 132.012 69.961 133.399 69.961C134.787 69.961 135.917 71.0902 135.917 72.4761C135.917 73.8621 134.787 74.9913 133.399 74.9913C132.012 74.9913 130.881 73.8621 130.881 72.4761ZM135.851 257.505C135.851 258.892 134.721 260.02 133.333 260.02C131.945 260.02 130.815 258.891 130.815 257.505C130.815 256.119 131.945 254.989 133.333 254.989C134.721 254.989 135.851 256.119 135.851 257.505ZM172.777 276.276C172.777 277.664 171.646 278.791 170.259 278.791C168.871 278.791 167.741 277.662 167.741 276.276C167.741 274.89 168.871 273.761 170.259 273.761C171.646 273.761 172.777 274.89 172.777 276.276ZM191.24 257.505C191.24 258.892 190.11 260.02 188.722 260.02C187.335 260.02 186.204 258.891 186.204 257.505C186.204 256.119 187.335 254.989 188.722 254.989C190.11 254.989 191.24 256.119 191.24 257.505ZM210.116 202.045C210.116 208.638 204.746 214.002 198.145 214.002H124.056C117.455 214.002 112.085 208.638 112.085 202.045V128.04C112.085 121.446 117.455 116.083 124.056 116.083H198.145C204.746 116.083 210.116 121.446 210.116 128.04V202.045ZM268.616 211.303C270.005 211.303 271.134 212.433 271.134 213.819C271.134 215.205 270.003 216.334 268.616 216.334C267.228 216.334 266.098 215.205 266.098 213.819C266.098 212.433 267.228 211.303 268.616 211.303ZM319.453 261.158C320.852 261.158 321.992 262.296 321.992 263.694C321.992 265.092 320.852 266.23 319.453 266.23C318.053 266.23 316.914 265.092 316.914 263.694C316.914 262.296 318.053 261.158 319.453 261.158ZM242.879 180.98C244.268 180.98 245.397 182.109 245.397 183.495C245.397 184.881 244.267 186.01 242.879 186.01C241.491 186.01 240.361 184.881 240.361 183.495C240.361 182.109 241.491 180.98 242.879 180.98ZM319.453 187.773C320.852 187.773 321.992 188.912 321.992 190.31C321.992 191.708 320.852 192.846 319.453 192.846C318.053 192.846 316.914 191.708 316.914 190.31C316.914 188.912 318.053 187.773 319.453 187.773Z" fill="url(#paint0_linear_2102_4370)"/>
<defs>
<linearGradient id="paint0_linear_2102_4370" x1="0.523437" y1="164.99" x2="323.483" y2="164.99" gradientUnits="userSpaceOnUse">
<stop stop-color="#F70D29"/>
<stop offset="1" stop-color="#EC03FF"/>
</linearGradient>
</defs>
</svg>
