<svg fill="none" height="359" viewBox="0 0 351 359" width="351" xmlns="http://www.w3.org/2000/svg" xmlns:xlink="http://www.w3.org/1999/xlink"><filter id="a" color-interpolation-filters="sRGB" filterUnits="userSpaceOnUse" height="130.231" width="130.334" x="109.045" y="114.931"><feFlood flood-opacity="0" result="BackgroundImageFix"/><feColorMatrix in="SourceAlpha" result="hardAlpha" type="matrix" values="0 0 0 0 0 0 0 0 0 0 0 0 0 0 0 0 0 0 127 0"/><feOffset/><feGaussianBlur stdDeviation="10"/><feColorMatrix type="matrix" values="0 0 0 0 0.960784 0 0 0 0 0 0 0 0 0 0.988235 0 0 0 1 0"/><feBlend in2="BackgroundImageFix" mode="normal" result="effect1_dropShadow_281_1874"/><feBlend in="SourceGraphic" in2="effect1_dropShadow_281_1874" mode="normal" result="shape"/></filter><filter id="b" color-interpolation-filters="sRGB" filterUnits="userSpaceOnUse" height="46.2886" width="46.2955" x="117.844" y="123.296"><feFlood flood-opacity="0" result="BackgroundImageFix"/><feColorMatrix in="SourceAlpha" result="hardAlpha" type="matrix" values="0 0 0 0 0 0 0 0 0 0 0 0 0 0 0 0 0 0 127 0"/><feOffset/><feGaussianBlur stdDeviation="10"/><feColorMatrix type="matrix" values="0 0 0 0 0.960784 0 0 0 0 0 0 0 0 0 0.988235 0 0 0 1 0"/><feBlend in2="BackgroundImageFix" mode="normal" result="effect1_dropShadow_281_1874"/><feBlend in="SourceGraphic" in2="effect1_dropShadow_281_1874" mode="normal" result="shape"/></filter><filter id="c" color-interpolation-filters="sRGB" filterUnits="userSpaceOnUse" height="46.29" width="46.2971" x="117.842" y="190.397"><feFlood flood-opacity="0" result="BackgroundImageFix"/><feColorMatrix in="SourceAlpha" result="hardAlpha" type="matrix" values="0 0 0 0 0 0 0 0 0 0 0 0 0 0 0 0 0 0 127 0"/><feOffset/><feGaussianBlur stdDeviation="10"/><feColorMatrix type="matrix" values="0 0 0 0 0.960784 0 0 0 0 0 0 0 0 0 0.988235 0 0 0 1 0"/><feBlend in2="BackgroundImageFix" mode="normal" result="effect1_dropShadow_281_1874"/><feBlend in="SourceGraphic" in2="effect1_dropShadow_281_1874" mode="normal" result="shape"/></filter><filter id="d" color-interpolation-filters="sRGB" filterUnits="userSpaceOnUse" height="46.2886" width="46.2955" x="183.735" y="123.296"><feFlood flood-opacity="0" result="BackgroundImageFix"/><feColorMatrix in="SourceAlpha" result="hardAlpha" type="matrix" values="0 0 0 0 0 0 0 0 0 0 0 0 0 0 0 0 0 0 127 0"/><feOffset/><feGaussianBlur stdDeviation="10"/><feColorMatrix type="matrix" values="0 0 0 0 0.960784 0 0 0 0 0 0 0 0 0 0.988235 0 0 0 1 0"/><feBlend in2="BackgroundImageFix" mode="normal" result="effect1_dropShadow_281_1874"/><feBlend in="SourceGraphic" in2="effect1_dropShadow_281_1874" mode="normal" result="shape"/></filter><filter id="e" color-interpolation-filters="sRGB" filterUnits="userSpaceOnUse" height="46.29" width="46.2971" x="183.734" y="190.396"><feFlood flood-opacity="0" result="BackgroundImageFix"/><feColorMatrix in="SourceAlpha" result="hardAlpha" type="matrix" values="0 0 0 0 0 0 0 0 0 0 0 0 0 0 0 0 0 0 127 0"/><feOffset/><feGaussianBlur stdDeviation="10"/><feColorMatrix type="matrix" values="0 0 0 0 0.960784 0 0 0 0 0 0 0 0 0 0.988235 0 0 0 1 0"/><feBlend in2="BackgroundImageFix" mode="normal" result="effect1_dropShadow_281_1874"/><feBlend in="SourceGraphic" in2="effect1_dropShadow_281_1874" mode="normal" result="shape"/></filter><linearGradient id="f"><stop offset="0" stop-color="#960000"/><stop offset="1" stop-color="#b503ff"/></linearGradient><linearGradient id="g" gradientUnits="userSpaceOnUse" x1="159.739" x2="209.79" xlink:href="#f" y1="219.928" y2="174.967"/><linearGradient id="h" gradientUnits="userSpaceOnUse" x1="157.692" x2="207.743" xlink:href="#f" y1="217.649" y2="172.688"/><linearGradient id="i" gradientUnits="userSpaceOnUse" x1="152.133" x2="202.186" xlink:href="#f" y1="211.512" y2="166.502"/><linearGradient id="j" gradientUnits="userSpaceOnUse" x1="146.743" x2="196.8" xlink:href="#f" y1="205.508" y2="160.499"/><linearGradient id="k" gradientUnits="userSpaceOnUse" x1="139.74" x2="194.794" xlink:href="#f" y1="207.79" y2="158.333"/><linearGradient id="l" gradientUnits="userSpaceOnUse" x1="140.272" x2="190.544" xlink:href="#f" y1="197.525" y2="152.363"/><linearGradient id="m"><stop offset="0" stop-color="#f70d29"/><stop offset="1" stop-color="#ec03ff"/></linearGradient><linearGradient id="n" gradientUnits="userSpaceOnUse" x1="157.384" x2="201.306" xlink:href="#m" y1="179.836" y2="179.836"/><linearGradient id="o" gradientUnits="userSpaceOnUse" x1="-265.959" x2="610.11" xlink:href="#m" y1="180.046" y2="180.046"/><linearGradient id="p" gradientUnits="userSpaceOnUse" x1="-265.958" x2="610.111" xlink:href="#m" y1="146.441" y2="146.441"/><linearGradient id="q" gradientUnits="userSpaceOnUse" x1="-265.96" x2="610.109" xlink:href="#m" y1="213.543" y2="213.543"/><linearGradient id="r" gradientUnits="userSpaceOnUse" x1="-265.958" x2="610.11" xlink:href="#m" y1="146.439" y2="146.439"/><linearGradient id="s" gradientUnits="userSpaceOnUse" x1="-265.957" x2="610.111" xlink:href="#m" y1="213.54" y2="213.54"/><linearGradient id="t" gradientUnits="userSpaceOnUse" x1="0" x2="350.383" xlink:href="#m" y1="179.989" y2="179.989"/><path d="m195.167 174.258c-3.391 0-6.139 2.429-6.139 5.427v16.981c0 2.998 2.748 5.427 6.139 5.427s6.139-2.429 6.139-5.427v-16.981c0-2.998-2.748-5.427-6.139-5.427z" fill="url(#g)"/><path d="m195.167 166.067c-3.391 0-6.139 2.429-6.139 5.426v25.141c0 2.997 2.748 5.426 6.139 5.426s6.139-2.429 6.139-5.426v-25.141c0-2.997-2.748-5.426-6.139-5.426z" fill="url(#h)"/><g opacity=".2"><path d="m201.306 167.396c0 .03-.005.059-.005.088 0 .03.005.059.005.088z" fill="url(#i)"/><path d="m189.209 167.571c0-.03.005-.059.005-.088 0-.03-.005-.059-.005-.088z" fill="url(#j)"/></g><path d="m201.084 158.014v.194c0-3.264-2.649-5.91-5.916-5.91-3.266 0-5.917 2.646-5.917 5.91v-.194c0 3.265 2.649 5.911 5.917 5.911 3.269 0 5.916-2.646 5.916-5.911z" fill="url(#k)"/><path d="m149.717 205.151c-3.283-1.237-4.942-4.897-3.706-8.177l14.496-37.311c1.238-3.28 4.901-4.936 8.186-3.701v-.235c3.283 1.235 4.944 4.897 3.706 8.176l-14.496 37.546c-1.237 3.28-4.901 4.937-8.186 3.702z" fill="url(#l)"/><path d="m201.306 195.66c-2.67 2.354-5.019 1.174-6.48-1.452l-16.14-34.947c-2.215-4.515-7.853-5.391-10.366-5.088-2.514.303-6.226 1.95-7.54 4.853l-3.398 8.629s7.364-5.374 11.841 1.561l14.879 31.108c2.083 4.356 7.387 6.515 11.75 4.434 2.895-1.383 5.144-4.384 5.408-7.36.044-.481.044-1.735.044-1.735z" fill="url(#n)"/><path d="m175.695 190.58v.174c0-2.937-2.385-5.319-5.325-5.319-2.941 0-5.325 2.382-5.325 5.319v-.174c0 2.937 2.384 5.319 5.325 5.319 2.94 0 5.325-2.382 5.325-5.319z" fill="#f70d29" stroke="#f70d29" stroke-miterlimit="10" stroke-width=".42"/><g filter="url(#a)"><path d="m206.026 134.931h-63.629c-7.362 0-13.352 5.984-13.352 13.338v63.556c0 7.354 5.99 13.338 13.352 13.338h63.629c7.362 0 13.352-5.984 13.352-13.338v-63.556c0-7.354-5.99-13.338-13.352-13.338zm10.203 76.894c0 5.619-4.576 10.19-10.202 10.19h-63.628c-5.625 0-10.202-4.571-10.202-10.19v-63.556c0-5.619 4.577-10.19 10.202-10.19h63.628c5.626 0 10.202 4.571 10.202 10.19z" fill="url(#o)"/></g><g filter="url(#b)"><path d="m143.217 148.664c1.23-1.228 1.23-3.219 0-4.447-1.229-1.228-3.222-1.228-4.451 0s-1.229 3.219 0 4.447 3.222 1.228 4.451 0z" fill="url(#p)"/></g><g filter="url(#c)"><path d="m142.196 216.447c1.606-.665 2.368-2.504 1.703-4.109-.665-1.604-2.507-2.366-4.113-1.701-1.606.664-2.369 2.504-1.703 4.108.665 1.604 2.506 2.366 4.113 1.702z" fill="url(#q)"/></g><g filter="url(#d)"><path d="m209.108 148.664c1.23-1.228 1.23-3.219 0-4.447-1.229-1.228-3.222-1.228-4.451 0-1.23 1.228-1.23 3.219 0 4.447 1.229 1.228 3.222 1.228 4.451 0z" fill="url(#r)"/></g><g filter="url(#e)"><path d="m208.087 216.446c1.606-.665 2.369-2.504 1.704-4.108-.665-1.605-2.507-2.366-4.113-1.702-1.606.665-2.369 2.504-1.703 4.108.665 1.604 2.506 2.366 4.112 1.702z" fill="url(#s)"/></g><path d="m236.517 183.581v-1.363h2.899v-.569h55.171l39.082-34.144h8.028c.344 2.067 2.146 3.647 4.312 3.647 2.412 0 4.373-1.959 4.373-4.367s-1.962-4.368-4.373-4.368c-2.099 0-3.857 1.486-4.278 3.459h-8.675l-39.082 34.144h-54.559v-2.145h-2.9v-1.364h-5.346v-2.939h5.346v-1.363h2.9v-1.374h51.339c.383 2.015 2.159 3.544 4.286 3.544 2.406 0 4.363-1.955 4.363-4.358s-1.957-4.358-4.363-4.358c-2.127 0-3.903 1.528-4.286 3.543h-51.339v-1.341h-2.9v-1.362h-5.346v-2.938h5.346v-1.364h2.9v-1.364h30.95c.384 2.016 2.16 3.544 4.287 3.544 2.405 0 4.362-1.955 4.362-4.358s-1.957-4.358-4.362-4.358c-2.127 0-3.903 1.528-4.287 3.543h-30.95v-1.352h-2.9v-1.363h-5.346v-2.939h5.346v-1.364h2.9v-2.818h41.692l49.348-57.5092h11.257c.381 2.0233 2.162 3.558 4.297 3.558 2.412 0 4.373-1.9598 4.373-4.3677 0-2.4078-1.962-4.3676-4.373-4.3676-2.131 0-3.909 1.5314-4.294 3.5482h-11.935l-49.348 57.5093h-43.917v-1.26h-5.346v-2.939h5.346v-1.363h2.9v-1.362h32.027l12.803-12.79c.744.588 1.683.942 2.702.942 2.406 0 4.363-1.955 4.363-4.358s-1.957-4.358-4.363-4.358c-2.405 0-4.362 1.955-4.362 4.358 0 .795.215 1.541.588 2.183l-12.408 12.394h-31.352v-1.354h-2.9v-1.362h-5.698c-1.357-6.503-6.501-11.635-13.015-12.981v-6.019h-1.364v-2.897h-1.358v-20.2347l12.938-12.9237v-13.7122c2.017-.3828 3.547-2.1569 3.547-4.2812 0-2.403-1.957-4.3579-4.362-4.3579-2.406 0-4.363 1.9549-4.363 4.3579 0 2.1243 1.53 3.8984 3.547 4.2812v13.0378l-12.938 12.9236v20.9092h-1.359v2.897h-1.363v5.672h-2.941v-5.672h-1.364v-2.897h-1.358v-30.6838c2.017-.3828 3.547-2.1569 3.547-4.2813 0-2.4029-1.957-4.3578-4.363-4.3578-2.405 0-4.362 1.9549-4.362 4.3578 0 2.1244 1.529 3.8985 3.547 4.2813v30.6838h-1.359v2.897h-1.363v5.672h-2.941v-5.672h-1.363v-2.897h-1.359v-42.327l21.033-21.0089c.698.4724 1.538.7477 2.442.7477 2.405 0 4.362-1.9549 4.362-4.3578s-1.957-4.3579-4.362-4.3579c-2.406 0-4.363 1.955-4.363 4.3579 0 .9123.284 1.7611.765 2.4616l-21.508 21.483v43.0034h-1.358v2.897h-1.364v5.672h-2.94v-5.672h-1.364v-2.897h-4.346v2.897h-1.364v5.672h-2.941v-5.672h-1.363v-2.897h-1.359v-69.5937l-19.01-18.9888v-16.36762c2.017-.38283 3.547-2.15693 3.547-4.28128 0-2.40293-1.957-4.357854-4.363-4.357854-2.405 0-4.362 1.954924-4.362 4.357854 0 2.12435 1.53 3.89845 3.547 4.28128v17.04862l19.01 18.9888v68.9197h-1.358v2.896h-1.364v5.673h-2.94v-5.673h-1.364v-2.896h-1.358v-51.0501c2.017-.3828 3.547-2.1569 3.547-4.2812 0-2.403-1.957-4.3579-4.363-4.3579-2.405 0-4.363 1.9549-4.363 4.3579 0 2.1243 1.53 3.8984 3.548 4.2812v51.0501h-1.359v2.896h-1.363v5.673h-2.941v-5.673h-1.363v-2.896h-1.359v-43.0039l-24.073-24.0456h-27.928c-.384-2.0152-2.16-3.5433-4.2866-3.5433-2.4057 0-4.3628 1.9549-4.3628 4.3579 0 2.4029 1.9571 4.3578 4.3628 4.3578 2.1266 0 3.9026-1.5281 4.2866-3.5433h27.253l23.117 23.0909v42.3275h-1.359v2.896h-1.363v5.673h-2.941v-5.673h-1.363v-2.896h-1.359v-30.6843c2.018-.3828 3.548-2.1569 3.548-4.2812 0-2.403-1.958-4.3579-4.363-4.3579-2.406 0-4.363 1.9549-4.363 4.3579 0 2.1243 1.53 3.8984 3.547 4.2812v30.6843h-1.358v2.896h-1.364v5.673h-2.94v-5.673h-1.364v-2.896h-1.358v-31.7595l-12.805-12.7884c.589-.7429.943-1.6813.943-2.6995 0-2.4029-1.958-4.3578-4.363-4.3578-2.406 0-4.363 1.9549-4.363 4.3578 0 2.403 1.957 4.3579 4.363 4.3579.796 0 1.543-.2151 2.185-.5881l12.409 12.3942v31.0834h-1.359v2.896h-1.363v6.023c-6.508 1.351-11.646 6.479-13.001 12.978h-6.25v1.362h-2.899v1.28h-41.0615l-49.3397-57.5089h-9.38289c-.38654-2.0168-2.16428-3.5449-4.29431-3.5449-2.41219 0-4.3726 1.9598-4.3726 4.3676s1.96204 4.3676 4.3726 4.3676c2.13655 0 3.91756-1.5378 4.29757-3.5628h8.70283l49.3478 57.5094h41.7362v1.435h2.9v1.363h5.897v2.939h-5.897v1.364h-2.9v1.275h-30.4875c-.3832-2.015-2.1593-3.543-4.2861-3.543-2.4057 0-4.3628 1.955-4.3628 4.358s1.9571 4.358 4.3628 4.358c2.1268 0 3.9029-1.528 4.2861-3.543h30.4875v1.438h2.9v1.364h5.897v2.938h-5.897v1.364h-2.9v1.272h-42.1439l-21.0328-21.009c.4729-.697.7486-1.536.7486-2.438 0-2.403-1.9572-4.358-4.3628-4.358-2.4057 0-4.3628 1.955-4.3628 4.358s1.9571 4.358 4.3628 4.358c.9133 0 1.763-.284 2.4643-.765l21.5075 21.483h42.8211v1.444h2.9v1.363h5.897v2.939h-5.897v1.362h-2.9v1.662h-54.6032l-39.0826-32.276h-6.08183c-.33271-2.08-2.14145-3.677-4.31714-3.677-2.41219 0-4.37259904 1.96-4.37259904 4.368s1.96203904 4.368 4.37259904 4.368c2.08925 0 3.83927-1.472 4.27147-3.431h5.5159l39.0826 32.275h55.2158v1.053h2.9v1.363h5.898v2.939h-5.898v1.364h-2.9v1.264h-69.4426l-19.0104 18.989h-11.41022c-.50071-1.861-2.20343-3.236-4.22255-3.236-2.41219 0-4.37259904 1.96-4.37259904 4.368s1.96203904 4.368 4.37259904 4.368c2.24419 0 4.09696-1.696 4.34487-3.873h11.9647l19.0104-18.988h68.7658v1.451h2.9v1.364h5.898v2.939h-5.898v1.363h-2.9v1.259h-50.8758c-.3833-2.015-2.1594-3.543-4.2861-3.543-2.4057 0-4.3629 1.955-4.3629 4.358s1.9572 4.358 4.3629 4.358c2.1267 0 3.9028-1.528 4.2861-3.544h50.8758v1.455h2.9v1.364h5.898v2.939h-5.898v1.363h-2.9v1.673h-55.2256l-39.5817 36.158v41.718h-4.93034c-.23975-2.184-2.09741-3.888-4.3465-3.888-2.41219 0-4.37259809 1.96-4.37259809 4.367 0 2.408 1.96203809 4.368 4.37259809 4.368 2.0126 0 3.71206-1.365 4.21765-3.219h6.69019v-42.629l38.5836-35.247h54.5927v1.042h2.9v1.364h5.898v2.939h-5.898v1.364h-2.9v1.251h-30.4872c-.3833-2.016-2.1594-3.544-4.2862-3.544-2.4056 0-4.3628 1.955-4.3628 4.358s1.9572 4.358 4.3628 4.358c2.1268 0 3.9029-1.528 4.2862-3.543h30.4872v1.463h2.9v1.363h5.898v2.939h-5.898v1.364h-2.9v1.248h-31.5636l-12.803 12.79c-.7438-.588-1.6832-.942-2.7025-.942-2.4057 0-4.3628 1.955-4.3628 4.358s1.9571 4.358 4.3628 4.358c2.4056 0 4.3628-1.955 4.3628-4.358 0-.795-.2153-1.541-.5888-2.183l12.4083-12.394h30.8868v1.468h2.9v1.363h6.25c1.355 6.499 6.493 11.627 13 12.978v5.908h1.365v2.897h1.286v20.235l-12.939 12.924v13.712c-2.017.383-3.547 2.157-3.547 4.281 0 2.403 1.957 4.358 4.363 4.358 2.405 0 4.363-1.955 4.363-4.358 0-2.124-1.53-3.898-3.548-4.281v-13.038l12.939-12.924v-20.909h1.433v-2.897h1.365v-5.558h2.943v5.558h1.365v2.897h1.28v30.684c-2.018.383-3.547 2.157-3.547 4.281 0 2.403 1.957 4.358 4.362 4.358 2.406 0 4.363-1.955 4.363-4.358 0-2.124-1.53-3.898-3.547-4.281v-30.684h1.437v-2.897h1.365v-5.558h2.942v5.558h1.365v2.897h1.277v42.327l-21.033 21.009c-.698-.472-1.538-.748-2.441-.748-2.406 0-4.363 1.955-4.363 4.358s1.957 4.358 4.363 4.358 4.363-1.955 4.363-4.358c0-.912-.284-1.761-.765-2.461l21.507-21.483v-43.004h1.442v-2.896h1.365v-5.559h2.942v5.559h1.365v2.896h4.349v-2.896h1.365v-5.559h2.942v5.559h1.365v2.896h1.269v69.594l19.01 18.989v16.374c-2.017.383-3.547 2.157-3.547 4.281 0 2.403 1.957 4.358 4.363 4.358s4.363-1.955 4.363-4.358c0-2.124-1.53-3.898-3.548-4.281v-17.049l-19.01-18.989v-68.919h1.45v-2.896h1.365v-5.559h2.942v5.559h1.365v2.896h1.264v51.05c-2.017.383-3.547 2.157-3.547 4.281 0 2.403 1.957 4.358 4.363 4.358 2.405 0 4.363-1.955 4.363-4.358 0-2.124-1.53-3.898-3.548-4.281v-51.05h1.453v-2.896h1.366v-5.559h2.942v5.559h1.365v2.896h1.261v43.004l23.834 23.806.239.238h27.928c.383 2.015 2.159 3.543 4.286 3.543 2.406 0 4.363-1.955 4.363-4.358s-1.957-4.358-4.363-4.358c-2.127 0-3.903 1.528-4.286 3.544h-27.253l-23.117-23.091v-42.328h1.458v-2.896h1.365v-5.559h2.942v5.559h1.365v2.896h1.256v30.684c-2.017.383-3.547 2.157-3.547 4.282 0 2.403 1.957 4.358 4.362 4.358 2.406 0 4.363-1.955 4.363-4.358 0-2.125-1.53-3.899-3.547-4.282v-30.684h1.461v-2.896h1.365v-5.559h2.943v5.559h1.365v2.896h1.252v31.76l12.805 12.79c-.589.743-.943 1.681-.943 2.701 0 2.403 1.957 4.358 4.363 4.358s4.363-1.955 4.363-4.358-1.957-4.358-4.363-4.358c-.796 0-1.543.215-2.185.588l-12.409-12.394v-31.084h1.467v-2.896h1.365v-5.912c6.497-1.357 11.623-6.482 12.979-12.973h5.698v-1.363h2.9v-1.395h20.49l12.938 12.924h13.728c.383 2.015 2.159 3.543 4.286 3.543 2.406 0 4.363-1.955 4.363-4.358s-1.957-4.357-4.363-4.357c-2.127 0-3.903 1.528-4.286 3.543h-13.052l-12.939-12.924h-21.165v-1.319h-2.9v-1.364h-5.346v-2.939h5.346v-1.363h2.9v-2.387h54.548l38.583 35.247v42.629h9.138c.318 2.098 2.135 3.713 4.324 3.713 2.412 0 4.373-1.96 4.373-4.368s-1.962-4.368-4.373-4.368c-2.076 0-3.818 1.454-4.263 3.396h-7.568v-41.719l-39.582-36.158h-55.181v-.329h-2.9v-1.363h-5.347v-2.939h5.347v-1.364h2.9v-1.352h19.233c.384 2.015 2.16 3.544 4.287 3.544 2.405 0 4.362-1.955 4.362-4.358s-1.957-4.358-4.362-4.358c-2.127 0-3.903 1.528-4.287 3.543h-19.233v-1.362h-2.9v-1.363h-5.347v-2.939h5.347v-1.364h2.9v-2.834h68.72l19.01 18.988h14.589c.424 1.968 2.179 3.448 4.275 3.448 2.412 0 4.373-1.96 4.373-4.368s-1.962-4.368-4.373-4.368c-2.169 0-3.975 1.587-4.315 3.661h-13.873l-19.011-18.989h-72.295v-1.243h-5.347v-2.939h5.347zm109.494-39.546c1.518 0 2.755 1.235 2.755 2.751 0 1.517-1.237 2.752-2.755 2.752-1.519 0-2.755-1.235-2.755-2.752 0-1.516 1.236-2.751 2.755-2.751zm-50.969 23.259c1.507 0 2.732 1.225 2.732 2.728 0 1.504-1.227 2.729-2.732 2.729-1.506 0-2.732-1.225-2.732-2.729 0-1.503 1.226-2.728 2.732-2.728zm-20.389-9.998c1.507 0 2.732 1.225 2.732 2.729 0 1.503-1.226 2.728-2.732 2.728-1.505 0-2.732-1.225-2.732-2.728 0-1.504 1.227-2.729 2.732-2.729zm71.358-68.9895c1.518 0 2.755 1.2348 2.755 2.7515s-1.237 2.7516-2.755 2.7516c-1.519 0-2.755-1.2349-2.755-2.7516s1.236-2.7515 2.755-2.7515zm-59.06 33.5825c1.507 0 2.731 1.225 2.731 2.729 0 1.503-1.226 2.728-2.731 2.728-1.506 0-2.732-1.225-2.732-2.728 0-1.504 1.226-2.729 2.732-2.729zm-62.479-58.4557c0-1.5053 1.226-2.7287 2.732-2.7287 1.505 0 2.732 1.225 2.732 2.7287s-1.227 2.7287-2.732 2.7287c-1.506 0-2.732-1.225-2.732-2.7287zm-5.947-18.5262c1.507 0 2.732 1.2251 2.732 2.7288 0 1.5036-1.226 2.7287-2.732 2.7287-1.505 0-2.731-1.2251-2.731-2.7287 0-1.5037 1.226-2.7288 2.731-2.7288zm-66.061-39.5595c0-1.50529 1.226-2.72875 2.731-2.72875 1.506 0 2.732 1.22509 2.732 2.72875s-1.226 2.72875-2.732 2.72875c-1.505 0-2.731-1.22509-2.731-2.72875zm-53.7601 45.7322c-1.507 0-2.7318-1.2251-2.7318-2.7287 0-1.5037 1.2264-2.7288 2.7318-2.7288 1.5051 0 2.7321 1.2251 2.7321 2.7288 0 1.5036-1.227 2.7287-2.7321 2.7287zm20.0311 18.9856c-1.507 0-2.732-1.2251-2.732-2.7288 0-1.5036 1.227-2.7287 2.732-2.7287 1.506 0 2.732 1.2251 2.732 2.7287 0 1.5037-1.226 2.7288-2.732 2.7288zm-114.3624 15.1246c-1.51842 0-2.75469-1.2349-2.75469-2.7516s1.23627-2.7515 2.75469-2.7515 2.75468 1.2348 2.75468 2.7515-1.23626 2.7516-2.75468 2.7516zm69.3124 67.481c-1.507 0-2.7318-1.225-2.7318-2.729s1.2264-2.729 2.7318-2.729 2.7319 1.225 2.7319 2.729-1.2265 2.729-2.7319 2.729zm-32.0189-14.258c-1.507 0-2.7319-1.225-2.7319-2.729s1.2265-2.729 2.7319-2.729c1.5053 0 2.7318 1.225 2.7318 2.729s-1.2265 2.729-2.7318 2.729zm-37.2935 2.284c-1.51842 0-2.75469-1.235-2.75469-2.752 0-1.516 1.23627-2.751 2.75469-2.751s2.75468 1.235 2.75468 2.751c0 1.517-1.23626 2.752-2.75468 2.752zm0 61.314c-1.51842 0-2.75469-1.234-2.75469-2.751s1.23627-2.752 2.75469-2.752 2.75468 1.235 2.75468 2.752-1.23626 2.751-2.75468 2.751zm48.9238-9.325c-1.507 0-2.7318-1.225-2.7318-2.728 0-1.504 1.2264-2.729 2.7318-2.729s2.7319 1.225 2.7319 2.729c0 1.503-1.2265 2.728-2.7319 2.728zm-48.9238 87.983c-1.51842 0-2.75469-1.234-2.75469-2.751s1.23627-2.752 2.75469-2.752 2.75468 1.235 2.75468 2.752-1.23626 2.751-2.75468 2.751zm69.3124-67.976c-1.507 0-2.7318-1.225-2.7318-2.728 0-1.504 1.2264-2.729 2.7318-2.729s2.7319 1.225 2.7319 2.729c0 1.503-1.2265 2.728-2.7319 2.728zm-12.2974 25.397c-1.507 0-2.7318-1.226-2.7318-2.729 0-1.504 1.2264-2.729 2.7318-2.729s2.7319 1.225 2.7319 2.729c0 1.503-1.2265 2.729-2.7319 2.729zm62.4784 58.455c0 1.505-1.226 2.729-2.732 2.729-1.505 0-2.731-1.225-2.731-2.729s1.226-2.729 2.731-2.729c1.506 0 2.732 1.225 2.732 2.729zm5.945 18.526c-1.507 0-2.732-1.225-2.732-2.729 0-1.503 1.227-2.728 2.732-2.728 1.506 0 2.732 1.225 2.732 2.728 0 1.504-1.226 2.729-2.732 2.729zm66.064 39.56c0 1.505-1.227 2.728-2.732 2.728-1.506 0-2.732-1.225-2.732-2.728 0-1.504 1.226-2.729 2.732-2.729 1.505 0 2.732 1.225 2.732 2.729zm53.759-45.732c1.507 0 2.732 1.225 2.732 2.728 0 1.504-1.226 2.729-2.732 2.729-1.505 0-2.732-1.225-2.732-2.729 0-1.503 1.227-2.728 2.732-2.728zm-20.031-18.986c1.507 0 2.732 1.225 2.732 2.729 0 1.503-1.227 2.728-2.732 2.728s-2.732-1.225-2.732-2.728c0-1.504 1.227-2.729 2.732-2.729zm-28.084-210.2929c0-1.5053 1.227-2.7288 2.732-2.7288 1.506 0 2.732 1.2251 2.732 2.7288 0 1.5036-1.226 2.7287-2.732 2.7287-1.505 0-2.732-1.2251-2.732-2.7287zm-40.061-20.3654c0-1.5053 1.227-2.7288 2.732-2.7288s2.732 1.2251 2.732 2.7288c0 1.5036-1.227 2.7287-2.732 2.7287s-2.732-1.2251-2.732-2.7287zm-20.031 20.3654c0-1.5053 1.226-2.7288 2.732-2.7288 1.505 0 2.732 1.2251 2.732 2.7288 0 1.5036-1.227 2.7287-2.732 2.7287-1.506 0-2.732-1.2251-2.732-2.7287zm5.392 200.7399c0 1.505-1.227 2.729-2.732 2.729s-2.732-1.225-2.732-2.729 1.227-2.729 2.732-2.729 2.732 1.225 2.732 2.729zm40.061 20.365c0 1.506-1.227 2.729-2.732 2.729s-2.732-1.225-2.732-2.729c0-1.503 1.227-2.728 2.732-2.728s2.732 1.225 2.732 2.728zm20.031-20.365c0 1.505-1.226 2.729-2.731 2.729-1.506 0-2.732-1.225-2.732-2.729s1.226-2.729 2.732-2.729c1.505 0 2.731 1.225 2.731 2.729zm20.479-60.169c0 7.153-5.826 12.972-12.988 12.972h-80.38c-7.161 0-12.987-5.819-12.987-12.972v-80.289c0-7.154 5.826-12.973 12.987-12.973h80.38c7.162 0 12.988 5.819 12.988 12.973zm63.467 10.045c1.507 0 2.732 1.225 2.732 2.728 0 1.504-1.227 2.729-2.732 2.729-1.506 0-2.732-1.225-2.732-2.729 0-1.503 1.226-2.728 2.732-2.728zm55.154 54.088c1.518 0 2.755 1.234 2.755 2.751s-1.237 2.752-2.755 2.752c-1.519 0-2.755-1.235-2.755-2.752s1.236-2.751 2.755-2.751zm-83.076-86.986c1.507 0 2.732 1.225 2.732 2.728 0 1.504-1.227 2.729-2.732 2.729-1.506 0-2.732-1.225-2.732-2.729 0-1.503 1.226-2.728 2.732-2.728zm83.076 7.37c1.518 0 2.755 1.234 2.755 2.751s-1.237 2.752-2.755 2.752c-1.519 0-2.755-1.235-2.755-2.752s1.236-2.751 2.755-2.751z" fill="url(#t)"/></svg>