<svg enable-background="new 0 0 116 32" viewBox="0 0 116 32" xmlns="http://www.w3.org/2000/svg" xmlns:xlink="http://www.w3.org/1999/xlink"><defs><clipPath><use xlink:href="#a"/></clipPath><path id="a" d="m35.5 9v.5c0 .6-.1 1.2-.2 1.7s-.4.9-.7 1.2-.9.4-1.6.4c-.8 0-1.3-.2-1.7-.5s-.6-.8-.7-1.4-.2-1.2-.2-1.9v-2.3c0-.9.1-1.6.2-2.2s.4-1 .8-1.3c.4-.2.9-.4 1.6-.4s1.2.1 1.6.4.6.6.7 1.1.2 1 .2 1.6v.4h-1.1v-.4c0-.6 0-1-.1-1.3s-.2-.5-.4-.7c-.2-.1-.5-.2-.8-.2-.4 0-.7.1-.9.3s-.3.5-.4.9-.1 1-.1 1.6v2.7c0 1 .1 1.7.3 2 .2.4.6.6 1.1.6.4 0 .7-.1.9-.3s.3-.4.4-.8c.1-.3.1-.8.1-1.3v-.4zm5.4 3.7c0-.2-.1-.4-.1-.7s-.1-.5-.1-.6c-.1.4-.4.7-.7 1s-.8.5-1.3.5c-.4 0-.7-.1-1-.3s-.5-.5-.7-.8-.3-.7-.3-1.1c0-.5.1-.9.2-1.3.1-.3.4-.7.7-.9.3-.3.7-.5 1.2-.8s1.1-.6 1.8-.9v-.7c0-.6 0-1.1-.1-1.4s-.2-.6-.4-.7-.4-.2-.7-.2-.5.1-.7.1c-.2.1-.4.3-.5.5s-.2.6-.2 1v.3h-1.2c0-1 .2-1.7.6-2.2s1.1-.7 2-.7 1.5.3 1.8.8c.6.5.8 1.3.8 2.4v4.7.6.7.5zm-.2-5.1c-.5.3-.9.5-1.2.7s-.6.4-.8.6-.4.4-.5.6-.1.5-.1.8c0 .5.1.9.3 1.1s.5.3.8.3c.2 0 .5-.1.7-.2s.4-.3.5-.4c.2-.2.3-.4.4-.5v-3zm8.1 3.3c-.1.6-.4 1.1-.7 1.4s-.8.5-1.4.5c-.4 0-.7-.1-1-.3s-.5-.4-.7-.6v4h-1.2v-12.9h1.2v.8c.2-.2.5-.5.8-.7s.7-.3 1.1-.3c.5 0 .8.1 1.1.3s.5.5.7.9.3.8.3 1.2v1.5 2c0 .8-.1 1.6-.2 2.2zm-1-4.2c0-.6 0-1.2-.1-1.6s-.2-.8-.4-1-.5-.3-.9-.3c-.3 0-.6.1-.9.3s-.5.3-.6.5v6.6c.2.2.4.4.7.5s.5.2.9.2.6-.1.8-.4c.2-.2.3-.6.4-1.1s.1-1 .1-1.7zm6.8 6c0-.2-.1-.4-.1-.7s-.1-.5-.1-.6c-.1.4-.4.7-.7 1s-.8.5-1.3.5c-.4 0-.7-.1-1-.3s-.5-.5-.7-.8-.3-.7-.3-1.1c0-.5.1-.9.2-1.3.1-.3.4-.7.7-.9.3-.3.7-.5 1.2-.8s1.1-.6 1.8-.9v-.7c0-.6 0-1.1-.1-1.4s-.2-.6-.4-.7-.4-.2-.7-.2-.5.1-.7.1c-.1.1-.3.3-.4.5s-.2.6-.2 1v.3h-1.2c0-1 .2-1.7.6-2.2s1.1-.7 2-.7 1.5.3 1.8.8c.4.5.5 1.3.5 2.4v4.7.6.7.5zm-.2-5.1c-.5.3-.9.5-1.2.7s-.6.4-.8.6-.4.4-.5.6-.1.5-.1.8c0 .5.1.9.3 1.1s.5.3.8.3c.2 0 .5-.1.7-.2s.4-.3.5-.4c.2-.2.3-.4.4-.5v-3zm7.8 1.4v.5c0 .6-.1 1.2-.2 1.7s-.4.9-.7 1.2-.9.4-1.6.4c-.8 0-1.3-.2-1.7-.5s-.6-.8-.7-1.4-.2-1.2-.2-1.9v-2.3c0-.9.1-1.6.2-2.2s.4-1 .8-1.3.9-.4 1.6-.4 1.2.1 1.6.4.6.6.7 1.1.2 1 .2 1.6v.4h-1.1v-.4c0-.6 0-1-.1-1.3s-.2-.5-.4-.7c-.2-.1-.5-.2-.8-.2-.4 0-.7.1-.9.3s-.3.5-.4.9-.1 1-.1 1.6v2.7c0 1 .1 1.7.3 2 .2.4.6.6 1.1.6.4 0 .7-.1.9-.3s.3-.4.4-.8c.1-.3.1-.8.1-1.3v-.4zm1.8 3.7v-9.7h1.2v9.7zm0-12.7h1.2v1.7h-1.2zm5.1 3.8v6.8c0 .5.1.8.2 1s.3.3.7.3h.3.3v.9c-.2 0-.3.1-.5.1s-.3 0-.5 0c-.5 0-.8-.1-1.1-.3s-.4-.4-.5-.8c-.1-.3-.1-.7-.1-1.1v-6.9h-1.2v-.8h1.2v-3h1.2v3h1.6v.8zm7.6 7.3c-.1.5-.4 1-.8 1.2-.4.3-.9.4-1.6.4s-1.2-.1-1.6-.4-.6-.7-.8-1.2c-.1-.5-.2-1.2-.2-2v-2.6c0-.8.1-1.4.2-2 .1-.5.4-1 .8-1.2.4-.3.9-.4 1.6-.4s1.2.1 1.6.4.6.7.8 1.2c.1.5.2 1.2.2 2v2.7c0 .7 0 1.4-.2 1.9zm-1-4.7c0-.5 0-1-.1-1.4 0-.4-.2-.7-.4-.9s-.5-.3-.9-.3-.7.1-.9.3-.3.5-.4.9v1.4 2.8c0 .5 0 1 .1 1.4s.2.7.4.9.5.3.9.3.7-.1.9-.3.3-.5.4-.9c0-.4.1-.9.1-1.4v-2.8zm6.4-2.3c-.1 0-.2 0-.3 0-.4 0-.7.1-1 .3s-.6.5-.8.9v7.4h-1.2v-9.7h1.2v1.3c.3-.5.7-.9 1.1-1.1s.8-.3 1.2-.3h.1.1v1.3c-.2 0-.3-.1-.4-.1zm-51 24.8h-1.1l3.9-13.6h1.1zm10.3-1.8c-.1.6-.4 1.1-.7 1.4s-.8.5-1.4.5c-.4 0-.7-.1-1-.3s-.5-.4-.7-.6v4h-1.2v-12.9h1.2v.8c.2-.2.5-.4.8-.7.3-.2.7-.3 1.1-.3.5 0 .8.1 1.1.3s.5.5.7.9.3.8.3 1.2c.1.5.1.9.1 1.4v2c-.1 1-.1 1.7-.3 2.3zm-1-4.2c0-.6 0-1.2-.1-1.6s-.2-.8-.4-1-.5-.3-.9-.3c-.3 0-.6.1-.9.3s-.5.3-.6.5v6.6c.2.2.4.4.7.5s.5.2.9.2.6-.1.8-.4c.2-.2.3-.6.4-1.1s.1-1 .1-1.7zm6.8 6c0-.2-.1-.4-.1-.7s-.1-.5-.1-.6c-.1.4-.4.7-.7 1s-.8.4-1.3.4c-.4 0-.7-.1-1-.3s-.5-.5-.7-.8-.3-.7-.3-1.1c0-.5.1-.9.2-1.3.1-.3.4-.7.7-.9.3-.3.7-.5 1.2-.8s1.1-.6 1.8-.9v-.7c0-.6 0-1.1-.1-1.4s-.2-.6-.4-.7c-.1-.1-.3-.1-.6-.1s-.5.1-.7.1c-.2.1-.4.3-.5.5s-.2.6-.2 1v.4h-1.2c0-1 .2-1.7.6-2.2s1.1-.7 2-.7 1.5.3 1.8.8c.4.5.5 1.3.5 2.4v4.7.6.7.5zm-.2-5.1c-.5.3-.9.5-1.2.7s-.6.4-.8.6-.4.4-.5.6-.1.5-.1.8c0 .5.1.9.3 1.1s.5.3.8.3c.2 0 .5-.1.7-.2s.4-.3.5-.4c.2-.2.3-.4.4-.5v-3zm6.5-3.5c-.1 0-.2 0-.3 0-.4 0-.7.1-1 .3s-.6.5-.8.9v7.4h-1.2v-9.7h1.2v1.3c.3-.5.7-.9 1.1-1.1s.8-.3 1.2-.3h.1.1v1.3c-.2 0-.3-.1-.4-.1zm3.2-.3v6.8c0 .5.1.8.2 1s.3.3.7.3h.3.3v.9c-.2 0-.3.1-.5.1s-.3 0-.5 0c-.5 0-.8-.1-1.1-.3s-.4-.4-.5-.8c-.1-.3-.1-.7-.1-1.1v-6.9h-1.2v-.8h1.2v-3h1.2v3h1.6v.8zm6.8 8.9v-7.5c0-.5-.1-.9-.2-1.1-.2-.2-.4-.3-.7-.3s-.5.1-.8.3-.6.4-.8.6v8h-1.2v-9.7h1.2v1c.3-.3.7-.6 1.1-.8s.8-.3 1.3-.3c.3 0 .6.1.8.2.2.2.4.4.5.7s.2.7.2 1.1v7.8zm4-5v1.7c0 .6 0 1.1.1 1.5s.2.6.5.8.5.2.8.2c.2 0 .5 0 .7-.1s.4-.3.5-.5c.1-.3.2-.7.2-1.2v-.7h1.2v.5c0 .9-.2 1.6-.5 2.1-.4.5-1 .8-2 .8-.6 0-1.1-.1-1.5-.4-.4-.2-.7-.6-.9-1.2s-.3-1.3-.3-2.2v-2.4c0-1 .1-1.7.3-2.3.2-.5.5-.9.9-1.2.4-.2.9-.3 1.5-.3.7 0 1.2.1 1.6.4s.6.7.7 1.3.2 1.3.2 2.3v.9zm2.7-1.5c0-.5 0-1-.1-1.3-.1-.4-.2-.6-.4-.8s-.4-.3-.8-.3c-.3 0-.6.1-.8.2s-.4.4-.4.8-.1.9-.1 1.6v.7h2.7zm6.4-2.1c-.1 0-.2 0-.3 0-.4 0-.7.1-1 .3s-.6.5-.8.9v7.4h-1.2v-9.7h1.2v1.3c.3-.5.7-.9 1.1-1.1s.8-.3 1.2-.3h.1.1v1.3c-.2 0-.3-.1-.4-.1zm3.2 2.4 1.4 1.2c.3.2.5.5.8.8.2.3.4.6.6.9s.2.7.2 1.2-.1.9-.3 1.3c-.2.3-.5.6-.9.8s-.8.3-1.3.3c-.8 0-1.4-.2-1.8-.7-.5-.5-.7-1.2-.8-2l1-.3c.1.7.2 1.3.5 1.6s.7.5 1.2.5c.4 0 .8-.1 1-.4.2-.2.3-.6.3-1 0-.3-.1-.6-.3-.9s-.5-.6-.9-1l-1.3-1.1c-.4-.4-.8-.7-1-1.1s-.3-.8-.3-1.3.1-.9.3-1.2.5-.6.8-.7c.3-.2.7-.3 1.2-.3.7 0 1.3.2 1.7.7s.6 1.1.6 1.8l-.9.3c0-.4-.1-.8-.2-1.1s-.3-.5-.5-.6-.4-.4-.7-.4c-.4 0-.7.1-.9.3s-.3.5-.3.9c0 .3.1.5.2.8.1.1.3.4.6.7z"/></defs><g fill="#fff"><path d="m35.5 9v.5c0 .6-.1 1.2-.2 1.7s-.4.9-.7 1.2-.9.4-1.6.4c-.8 0-1.3-.2-1.7-.5s-.6-.8-.7-1.4-.2-1.2-.2-1.9v-2.3c0-.9.1-1.6.2-2.2s.4-1 .8-1.3c.4-.2.9-.4 1.6-.4s1.2.1 1.6.4.6.6.7 1.1.2 1 .2 1.6v.4h-1.1v-.4c0-.6 0-1-.1-1.3s-.2-.5-.4-.7c-.2-.1-.5-.2-.8-.2-.4 0-.7.1-.9.3s-.3.5-.4.9-.1 1-.1 1.6v2.7c0 1 .1 1.7.3 2 .2.4.6.6 1.1.6.4 0 .7-.1.9-.3s.3-.4.4-.8c.1-.3.1-.8.1-1.3v-.4zm5.4 3.7c0-.2-.1-.4-.1-.7s-.1-.5-.1-.6c-.1.4-.4.7-.7 1s-.8.5-1.3.5c-.4 0-.7-.1-1-.3s-.5-.5-.7-.8-.3-.7-.3-1.1c0-.5.1-.9.2-1.3.1-.3.4-.7.7-.9.3-.3.7-.5 1.2-.8s1.1-.6 1.8-.9v-.7c0-.6 0-1.1-.1-1.4s-.2-.6-.4-.7-.4-.2-.7-.2-.5.1-.7.1c-.2.1-.4.3-.5.5s-.2.6-.2 1v.3h-1.2c0-1 .2-1.7.6-2.2s1.1-.7 2-.7 1.5.3 1.8.8c.6.5.8 1.3.8 2.4v4.7.6.7.5zm-.2-5.1c-.5.3-.9.5-1.2.7s-.6.4-.8.6-.4.4-.5.6-.1.5-.1.8c0 .5.1.9.3 1.1s.5.3.8.3c.2 0 .5-.1.7-.2s.4-.3.5-.4c.2-.2.3-.4.4-.5v-3zm8.1 3.3c-.1.6-.4 1.1-.7 1.4s-.8.5-1.4.5c-.4 0-.7-.1-1-.3s-.5-.4-.7-.6v4h-1.2v-12.9h1.2v.8c.2-.2.5-.5.8-.7s.7-.3 1.1-.3c.5 0 .8.1 1.1.3s.5.5.7.9.3.8.3 1.2v1.5 2c0 .8-.1 1.6-.2 2.2zm-1-4.2c0-.6 0-1.2-.1-1.6s-.2-.8-.4-1-.5-.3-.9-.3c-.3 0-.6.1-.9.3s-.5.3-.6.5v6.6c.2.2.4.4.7.5s.5.2.9.2.6-.1.8-.4c.2-.2.3-.6.4-1.1s.1-1 .1-1.7zm6.8 6c0-.2-.1-.4-.1-.7s-.1-.5-.1-.6c-.1.4-.4.7-.7 1s-.8.5-1.3.5c-.4 0-.7-.1-1-.3s-.5-.5-.7-.8-.3-.7-.3-1.1c0-.5.1-.9.2-1.3.1-.3.4-.7.7-.9.3-.3.7-.5 1.2-.8s1.1-.6 1.8-.9v-.7c0-.6 0-1.1-.1-1.4s-.2-.6-.4-.7-.4-.2-.7-.2-.5.1-.7.1c-.1.1-.3.3-.4.5s-.2.6-.2 1v.3h-1.2c0-1 .2-1.7.6-2.2s1.1-.7 2-.7 1.5.3 1.8.8c.4.5.5 1.3.5 2.4v4.7.6.7.5zm-.2-5.1c-.5.3-.9.5-1.2.7s-.6.4-.8.6-.4.4-.5.6-.1.5-.1.8c0 .5.1.9.3 1.1s.5.3.8.3c.2 0 .5-.1.7-.2s.4-.3.5-.4c.2-.2.3-.4.4-.5v-3zm7.8 1.4v.5c0 .6-.1 1.2-.2 1.7s-.4.9-.7 1.2-.9.4-1.6.4c-.8 0-1.3-.2-1.7-.5s-.6-.8-.7-1.4-.2-1.2-.2-1.9v-2.3c0-.9.1-1.6.2-2.2s.4-1 .8-1.3.9-.4 1.6-.4 1.2.1 1.6.4.6.6.7 1.1.2 1 .2 1.6v.4h-1.1v-.4c0-.6 0-1-.1-1.3s-.2-.5-.4-.7c-.2-.1-.5-.2-.8-.2-.4 0-.7.1-.9.3s-.3.5-.4.9-.1 1-.1 1.6v2.7c0 1 .1 1.7.3 2 .2.4.6.6 1.1.6.4 0 .7-.1.9-.3s.3-.4.4-.8c.1-.3.1-.8.1-1.3v-.4zm1.8 3.7v-9.7h1.2v9.7zm0-12.7h1.2v1.7h-1.2zm5.1 3.8v6.8c0 .5.1.8.2 1s.3.3.7.3h.3.3v.9c-.2 0-.3.1-.5.1s-.3 0-.5 0c-.5 0-.8-.1-1.1-.3s-.4-.4-.5-.8c-.1-.3-.1-.7-.1-1.1v-6.9h-1.2v-.8h1.2v-3h1.2v3h1.6v.8zm7.6 7.3c-.1.5-.4 1-.8 1.2-.4.3-.9.4-1.6.4s-1.2-.1-1.6-.4-.6-.7-.8-1.2c-.1-.5-.2-1.2-.2-2v-2.6c0-.8.1-1.4.2-2 .1-.5.4-1 .8-1.2.4-.3.9-.4 1.6-.4s1.2.1 1.6.4.6.7.8 1.2c.1.5.2 1.2.2 2v2.7c0 .7 0 1.4-.2 1.9zm-1-4.7c0-.5 0-1-.1-1.4 0-.4-.2-.7-.4-.9s-.5-.3-.9-.3-.7.1-.9.3-.3.5-.4.9v1.4 2.8c0 .5 0 1 .1 1.4s.2.7.4.9.5.3.9.3.7-.1.9-.3.3-.5.4-.9c0-.4.1-.9.1-1.4v-2.8zm6.4-2.3c-.1 0-.2 0-.3 0-.4 0-.7.1-1 .3s-.6.5-.8.9v7.4h-1.2v-9.7h1.2v1.3c.3-.5.7-.9 1.1-1.1s.8-.3 1.2-.3h.1.1v1.3c-.2 0-.3-.1-.4-.1zm-51 24.8h-1.1l3.9-13.6h1.1zm10.3-1.8c-.1.6-.4 1.1-.7 1.4s-.8.5-1.4.5c-.4 0-.7-.1-1-.3s-.5-.4-.7-.6v4h-1.2v-12.9h1.2v.8c.2-.2.5-.4.8-.7.3-.2.7-.3 1.1-.3.5 0 .8.1 1.1.3s.5.5.7.9.3.8.3 1.2c.1.5.1.9.1 1.4v2c-.1 1-.1 1.7-.3 2.3zm-1-4.2c0-.6 0-1.2-.1-1.6s-.2-.8-.4-1-.5-.3-.9-.3c-.3 0-.6.1-.9.3s-.5.3-.6.5v6.6c.2.2.4.4.7.5s.5.2.9.2.6-.1.8-.4c.2-.2.3-.6.4-1.1s.1-1 .1-1.7zm6.8 6c0-.2-.1-.4-.1-.7s-.1-.5-.1-.6c-.1.4-.4.7-.7 1s-.8.4-1.3.4c-.4 0-.7-.1-1-.3s-.5-.5-.7-.8-.3-.7-.3-1.1c0-.5.1-.9.2-1.3.1-.3.4-.7.7-.9.3-.3.7-.5 1.2-.8s1.1-.6 1.8-.9v-.7c0-.6 0-1.1-.1-1.4s-.2-.6-.4-.7c-.1-.1-.3-.1-.6-.1s-.5.1-.7.1c-.2.1-.4.3-.5.5s-.2.6-.2 1v.4h-1.2c0-1 .2-1.7.6-2.2s1.1-.7 2-.7 1.5.3 1.8.8c.4.5.5 1.3.5 2.4v4.7.6.7.5zm-.2-5.1c-.5.3-.9.5-1.2.7s-.6.4-.8.6-.4.4-.5.6-.1.5-.1.8c0 .5.1.9.3 1.1s.5.3.8.3c.2 0 .5-.1.7-.2s.4-.3.5-.4c.2-.2.3-.4.4-.5v-3zm6.5-3.5c-.1 0-.2 0-.3 0-.4 0-.7.1-1 .3s-.6.5-.8.9v7.4h-1.2v-9.7h1.2v1.3c.3-.5.7-.9 1.1-1.1s.8-.3 1.2-.3h.1.1v1.3c-.2 0-.3-.1-.4-.1zm3.2-.3v6.8c0 .5.1.8.2 1s.3.3.7.3h.3.3v.9c-.2 0-.3.1-.5.1s-.3 0-.5 0c-.5 0-.8-.1-1.1-.3s-.4-.4-.5-.8c-.1-.3-.1-.7-.1-1.1v-6.9h-1.2v-.8h1.2v-3h1.2v3h1.6v.8zm6.8 8.9v-7.5c0-.5-.1-.9-.2-1.1-.2-.2-.4-.3-.7-.3s-.5.1-.8.3-.6.4-.8.6v8h-1.2v-9.7h1.2v1c.3-.3.7-.6 1.1-.8s.8-.3 1.3-.3c.3 0 .6.1.8.2.2.2.4.4.5.7s.2.7.2 1.1v7.8zm4-5v1.7c0 .6 0 1.1.1 1.5s.2.6.5.8.5.2.8.2c.2 0 .5 0 .7-.1s.4-.3.5-.5c.1-.3.2-.7.2-1.2v-.7h1.2v.5c0 .9-.2 1.6-.5 2.1-.4.5-1 .8-2 .8-.6 0-1.1-.1-1.5-.4-.4-.2-.7-.6-.9-1.2s-.3-1.3-.3-2.2v-2.4c0-1 .1-1.7.3-2.3.2-.5.5-.9.9-1.2.4-.2.9-.3 1.5-.3.7 0 1.2.1 1.6.4s.6.7.7 1.3.2 1.3.2 2.3v.9zm2.7-1.5c0-.5 0-1-.1-1.3-.1-.4-.2-.6-.4-.8s-.4-.3-.8-.3c-.3 0-.6.1-.8.2s-.4.4-.4.8-.1.9-.1 1.6v.7h2.7zm6.4-2.1c-.1 0-.2 0-.3 0-.4 0-.7.1-1 .3s-.6.5-.8.9v7.4h-1.2v-9.7h1.2v1.3c.3-.5.7-.9 1.1-1.1s.8-.3 1.2-.3h.1.1v1.3c-.2 0-.3-.1-.4-.1zm3.2 2.4 1.4 1.2c.3.2.5.5.8.8.2.3.4.6.6.9s.2.7.2 1.2-.1.9-.3 1.3c-.2.3-.5.6-.9.8s-.8.3-1.3.3c-.8 0-1.4-.2-1.8-.7-.5-.5-.7-1.2-.8-2l1-.3c.1.7.2 1.3.5 1.6s.7.5 1.2.5c.4 0 .8-.1 1-.4.2-.2.3-.6.3-1 0-.3-.1-.6-.3-.9s-.5-.6-.9-1l-1.3-1.1c-.4-.4-.8-.7-1-1.1s-.3-.8-.3-1.3.1-.9.3-1.2.5-.6.8-.7c.3-.2.7-.3 1.2-.3.7 0 1.3.2 1.7.7s.6 1.1.6 1.8l-.9.3c0-.4-.1-.8-.2-1.1s-.3-.5-.5-.6-.4-.4-.7-.4c-.4 0-.7.1-.9.3s-.3.5-.3.9c0 .3.1.5.2.8.1.1.3.4.6.7z"/><use xlink:href="#a"/></g></svg>