<?xml version="1.0" encoding="utf-8"?>
<!-- Generator: Adobe Illustrator 28.1.0, SVG Export Plug-In . SVG Version: 6.00 Build 0)  -->
<svg version="1.1" id="Layer_1" xmlns="http://www.w3.org/2000/svg" xmlns:xlink="http://www.w3.org/1999/xlink" x="0px" y="0px"
	 viewBox="0 0 116 32" style="enable-background:new 0 0 116 32;" xml:space="preserve">
<style type="text/css">
	.st0{clip-path:url(#SVGID_00000158019592975982371730000009182886025790946476_);}
</style>
<g>
	<g>
		<g>
			<defs>
				<path id="SVGID_1_" d="M35.5,9v0.5c0,0.6-0.1,1.2-0.2,1.7c-0.1,0.5-0.4,0.9-0.7,1.2c-0.3,0.3-0.9,0.4-1.6,0.4
					c-0.8,0-1.3-0.2-1.7-0.5s-0.6-0.8-0.7-1.4c-0.1-0.6-0.2-1.2-0.2-1.9V6.7c0-0.9,0.1-1.6,0.2-2.2c0.1-0.6,0.4-1,0.8-1.3
					C31.8,3,32.3,2.8,33,2.8c0.7,0,1.2,0.1,1.6,0.4c0.4,0.3,0.6,0.6,0.7,1.1c0.1,0.5,0.2,1,0.2,1.6v0.4h-1.1V5.9c0-0.6,0-1-0.1-1.3
					c-0.1-0.3-0.2-0.5-0.4-0.7c-0.2-0.1-0.5-0.2-0.8-0.2c-0.4,0-0.7,0.1-0.9,0.3c-0.2,0.2-0.3,0.5-0.4,0.9c-0.1,0.4-0.1,1-0.1,1.6
					v2.7c0,1,0.1,1.7,0.3,2c0.2,0.4,0.6,0.6,1.1,0.6c0.4,0,0.7-0.1,0.9-0.3c0.2-0.2,0.3-0.4,0.4-0.8c0.1-0.3,0.1-0.8,0.1-1.3V9
					L35.5,9L35.5,9z M40.9,12.7c0-0.2-0.1-0.4-0.1-0.7c0-0.3-0.1-0.5-0.1-0.6c-0.1,0.4-0.4,0.7-0.7,1c-0.3,0.3-0.8,0.5-1.3,0.5
					c-0.4,0-0.7-0.1-1-0.3s-0.5-0.5-0.7-0.8c-0.2-0.3-0.3-0.7-0.3-1.1c0-0.5,0.1-0.9,0.2-1.3c0.1-0.3,0.4-0.7,0.7-0.9
					c0.3-0.3,0.7-0.5,1.2-0.8c0.5-0.3,1.1-0.6,1.8-0.9V6.1c0-0.6,0-1.1-0.1-1.4c-0.1-0.3-0.2-0.6-0.4-0.7c-0.2-0.1-0.4-0.2-0.7-0.2
					c-0.3,0-0.5,0.1-0.7,0.1c-0.2,0.1-0.4,0.3-0.5,0.5c-0.1,0.2-0.2,0.6-0.2,1v0.3l-1.2,0c0-1,0.2-1.7,0.6-2.2s1.1-0.7,2-0.7
					c0.9,0,1.5,0.3,1.8,0.8C41.8,4.1,42,4.9,42,6v4.7c0,0.2,0,0.4,0,0.6c0,0.3,0,0.5,0,0.7c0,0.2,0,0.4,0,0.5L40.9,12.7L40.9,12.7z
					 M40.7,7.6c-0.5,0.3-0.9,0.5-1.2,0.7c-0.3,0.2-0.6,0.4-0.8,0.6c-0.2,0.2-0.4,0.4-0.5,0.6c-0.1,0.2-0.1,0.5-0.1,0.8
					c0,0.5,0.1,0.9,0.3,1.1c0.2,0.2,0.5,0.3,0.8,0.3c0.2,0,0.5-0.1,0.7-0.2c0.2-0.1,0.4-0.3,0.5-0.4c0.2-0.2,0.3-0.4,0.4-0.5V7.6
					L40.7,7.6z M48.8,10.9c-0.1,0.6-0.4,1.1-0.7,1.4s-0.8,0.5-1.4,0.5c-0.4,0-0.7-0.1-1-0.3c-0.3-0.2-0.5-0.4-0.7-0.6v4h-1.2V3H45
					v0.8c0.2-0.2,0.5-0.5,0.8-0.7c0.3-0.2,0.7-0.3,1.1-0.3c0.5,0,0.8,0.1,1.1,0.3c0.3,0.2,0.5,0.5,0.7,0.9c0.2,0.4,0.3,0.8,0.3,1.2
					C49,5.7,49,6.2,49,6.7v2C49,9.5,48.9,10.3,48.8,10.9L48.8,10.9z M47.8,6.7c0-0.6,0-1.2-0.1-1.6c-0.1-0.4-0.2-0.8-0.4-1
					c-0.2-0.2-0.5-0.3-0.9-0.3c-0.3,0-0.6,0.1-0.9,0.3c-0.3,0.2-0.5,0.3-0.6,0.5v6.6c0.2,0.2,0.4,0.4,0.7,0.5s0.5,0.2,0.9,0.2
					c0.4,0,0.6-0.1,0.8-0.4c0.2-0.2,0.3-0.6,0.4-1.1s0.1-1,0.1-1.7V6.7L47.8,6.7z M54.6,12.7c0-0.2-0.1-0.4-0.1-0.7
					c0-0.3-0.1-0.5-0.1-0.6c-0.1,0.4-0.4,0.7-0.7,1c-0.3,0.3-0.8,0.5-1.3,0.5c-0.4,0-0.7-0.1-1-0.3s-0.5-0.5-0.7-0.8
					c-0.2-0.3-0.3-0.7-0.3-1.1c0-0.5,0.1-0.9,0.2-1.3c0.1-0.3,0.4-0.7,0.7-0.9c0.3-0.3,0.7-0.5,1.2-0.8c0.5-0.3,1.1-0.6,1.8-0.9V6.1
					c0-0.6,0-1.1-0.1-1.4c-0.1-0.3-0.2-0.6-0.4-0.7c-0.2-0.1-0.4-0.2-0.7-0.2c-0.3,0-0.5,0.1-0.7,0.1C52.3,4,52.1,4.2,52,4.4
					c-0.1,0.2-0.2,0.6-0.2,1v0.3l-1.2,0c0-1,0.2-1.7,0.6-2.2c0.4-0.5,1.1-0.7,2-0.7c0.9,0,1.5,0.3,1.8,0.8c0.4,0.5,0.5,1.3,0.5,2.4
					v4.7c0,0.2,0,0.4,0,0.6c0,0.3,0,0.5,0,0.7c0,0.2,0,0.4,0,0.5L54.6,12.7L54.6,12.7z M54.4,7.6c-0.5,0.3-0.9,0.5-1.2,0.7
					c-0.3,0.2-0.6,0.4-0.8,0.6c-0.2,0.2-0.4,0.4-0.5,0.6c-0.1,0.2-0.1,0.5-0.1,0.8c0,0.5,0.1,0.9,0.3,1.1c0.2,0.2,0.5,0.3,0.8,0.3
					c0.2,0,0.5-0.1,0.7-0.2c0.2-0.1,0.4-0.3,0.5-0.4c0.2-0.2,0.3-0.4,0.4-0.5V7.6L54.4,7.6z M62.2,9v0.5c0,0.6-0.1,1.2-0.2,1.7
					c-0.1,0.5-0.4,0.9-0.7,1.2s-0.9,0.4-1.6,0.4c-0.8,0-1.3-0.2-1.7-0.5s-0.6-0.8-0.7-1.4c-0.1-0.6-0.2-1.2-0.2-1.9V6.7
					c0-0.9,0.1-1.6,0.2-2.2c0.1-0.6,0.4-1,0.8-1.3c0.4-0.3,0.9-0.4,1.6-0.4c0.7,0,1.2,0.1,1.6,0.4c0.4,0.3,0.6,0.6,0.7,1.1
					c0.1,0.5,0.2,1,0.2,1.6v0.4h-1.1V5.9c0-0.6,0-1-0.1-1.3c-0.1-0.3-0.2-0.5-0.4-0.7c-0.2-0.1-0.5-0.2-0.8-0.2
					c-0.4,0-0.7,0.1-0.9,0.3c-0.2,0.2-0.3,0.5-0.4,0.9c-0.1,0.4-0.1,1-0.1,1.6v2.7c0,1,0.1,1.7,0.3,2c0.2,0.4,0.6,0.6,1.1,0.6
					c0.4,0,0.7-0.1,0.9-0.3c0.2-0.2,0.3-0.4,0.4-0.8c0.1-0.3,0.1-0.8,0.1-1.3V9L62.2,9L62.2,9z M64,12.7V3h1.2v9.7H64L64,12.7z
					 M64,0h1.2v1.7H64V0L64,0z M69.1,3.8v6.8c0,0.5,0.1,0.8,0.2,1c0.1,0.2,0.3,0.3,0.7,0.3c0.1,0,0.2,0,0.3,0c0.1,0,0.2,0,0.3,0v0.9
					c-0.2,0-0.3,0.1-0.5,0.1c-0.2,0-0.3,0-0.5,0c-0.5,0-0.8-0.1-1.1-0.3c-0.3-0.2-0.4-0.4-0.5-0.8c-0.1-0.3-0.1-0.7-0.1-1.1V3.8
					h-1.2V3h1.2V0h1.2v3h1.6v0.8H69.1L69.1,3.8z M76.7,11.1c-0.1,0.5-0.4,1-0.8,1.2c-0.4,0.3-0.9,0.4-1.6,0.4
					c-0.7,0-1.2-0.1-1.6-0.4c-0.4-0.3-0.6-0.7-0.8-1.2c-0.1-0.5-0.2-1.2-0.2-2V6.5c0-0.8,0.1-1.4,0.2-2c0.1-0.5,0.4-1,0.8-1.2
					c0.4-0.3,0.9-0.4,1.6-0.4c0.7,0,1.2,0.1,1.6,0.4c0.4,0.3,0.6,0.7,0.8,1.2c0.1,0.5,0.2,1.2,0.2,2v2.7
					C76.9,9.9,76.9,10.6,76.7,11.1L76.7,11.1z M75.7,6.4c0-0.5,0-1-0.1-1.4c0-0.4-0.2-0.7-0.4-0.9c-0.2-0.2-0.5-0.3-0.9-0.3
					c-0.4,0-0.7,0.1-0.9,0.3c-0.2,0.2-0.3,0.5-0.4,0.9C73,5.4,73,5.9,73,6.4v2.8c0,0.5,0,1,0.1,1.4c0.1,0.4,0.2,0.7,0.4,0.9
					c0.2,0.2,0.5,0.3,0.9,0.3c0.4,0,0.7-0.1,0.9-0.3s0.3-0.5,0.4-0.9c0-0.4,0.1-0.9,0.1-1.4V6.4L75.7,6.4z M82.1,4.1
					c-0.1,0-0.2,0-0.3,0c-0.4,0-0.7,0.1-1,0.3c-0.3,0.2-0.6,0.5-0.8,0.9v7.4h-1.2V3H80v1.3c0.3-0.5,0.7-0.9,1.1-1.1
					c0.4-0.2,0.8-0.3,1.2-0.3c0,0,0.1,0,0.1,0c0,0,0.1,0,0.1,0v1.3C82.3,4.2,82.2,4.1,82.1,4.1L82.1,4.1z M31.1,28.9h-1.1l3.9-13.6
					H35L31.1,28.9L31.1,28.9z M41.4,27.1c-0.1,0.6-0.4,1.1-0.7,1.4c-0.3,0.3-0.8,0.5-1.4,0.5c-0.4,0-0.7-0.1-1-0.3
					c-0.3-0.2-0.5-0.4-0.7-0.6v4h-1.2V19.2h1.2V20c0.2-0.2,0.5-0.4,0.8-0.7c0.3-0.2,0.7-0.3,1.1-0.3c0.5,0,0.8,0.1,1.1,0.3
					c0.3,0.2,0.5,0.5,0.7,0.9c0.2,0.4,0.3,0.8,0.3,1.2c0.1,0.5,0.1,0.9,0.1,1.4v2C41.6,25.8,41.6,26.5,41.4,27.1L41.4,27.1z
					 M40.4,22.9c0-0.6,0-1.2-0.1-1.6c-0.1-0.4-0.2-0.8-0.4-1c-0.2-0.2-0.5-0.3-0.9-0.3c-0.3,0-0.6,0.1-0.9,0.3
					c-0.3,0.2-0.5,0.3-0.6,0.5v6.6c0.2,0.2,0.4,0.4,0.7,0.5c0.3,0.1,0.5,0.2,0.9,0.2c0.4,0,0.6-0.1,0.8-0.4c0.2-0.2,0.3-0.6,0.4-1.1
					c0.1-0.5,0.1-1,0.1-1.7V22.9L40.4,22.9z M47.2,28.9c0-0.2-0.1-0.4-0.1-0.7c0-0.3-0.1-0.5-0.1-0.6c-0.1,0.4-0.4,0.7-0.7,1
					C46,28.9,45.5,29,45,29c-0.4,0-0.7-0.1-1-0.3s-0.5-0.5-0.7-0.8c-0.2-0.3-0.3-0.7-0.3-1.1c0-0.5,0.1-0.9,0.2-1.3
					c0.1-0.3,0.4-0.7,0.7-0.9c0.3-0.3,0.7-0.5,1.2-0.8c0.5-0.3,1.1-0.6,1.8-0.9v-0.7c0-0.6,0-1.1-0.1-1.4c-0.1-0.3-0.2-0.6-0.4-0.7
					C46.3,20,46.1,20,45.8,20c-0.3,0-0.5,0.1-0.7,0.1c-0.2,0.1-0.4,0.3-0.5,0.5c-0.1,0.2-0.2,0.6-0.2,1V22l-1.2,0
					c0-1,0.2-1.7,0.6-2.2c0.4-0.5,1.1-0.7,2-0.7c0.9,0,1.5,0.3,1.8,0.8c0.4,0.5,0.5,1.3,0.5,2.4v4.7c0,0.2,0,0.4,0,0.6
					c0,0.3,0,0.5,0,0.7c0,0.2,0,0.4,0,0.5L47.2,28.9L47.2,28.9z M47,23.8c-0.5,0.3-0.9,0.5-1.2,0.7c-0.3,0.2-0.6,0.4-0.8,0.6
					c-0.2,0.2-0.4,0.4-0.5,0.6c-0.1,0.2-0.1,0.5-0.1,0.8c0,0.5,0.1,0.9,0.3,1.1c0.2,0.2,0.5,0.3,0.8,0.3c0.2,0,0.5-0.1,0.7-0.2
					c0.2-0.1,0.4-0.3,0.5-0.4c0.2-0.2,0.3-0.4,0.4-0.5V23.8L47,23.8z M53.5,20.3c-0.1,0-0.2,0-0.3,0c-0.4,0-0.7,0.1-1,0.3
					c-0.3,0.2-0.6,0.5-0.8,0.9v7.4h-1.2v-9.7h1.2v1.3c0.3-0.5,0.7-0.9,1.1-1.1c0.4-0.2,0.8-0.3,1.2-0.3c0,0,0.1,0,0.1,0
					c0,0,0.1,0,0.1,0v1.3C53.7,20.4,53.6,20.3,53.5,20.3L53.5,20.3z M56.7,20v6.8c0,0.5,0.1,0.8,0.2,1s0.3,0.3,0.7,0.3
					c0.1,0,0.2,0,0.3,0c0.1,0,0.2,0,0.3,0v0.9c-0.2,0-0.3,0.1-0.5,0.1c-0.2,0-0.3,0-0.5,0c-0.5,0-0.8-0.1-1.1-0.3
					c-0.3-0.2-0.4-0.4-0.5-0.8c-0.1-0.3-0.1-0.7-0.1-1.1V20h-1.2v-0.8h1.2v-3h1.2v3h1.6V20H56.7L56.7,20z M63.5,28.9v-7.5
					c0-0.5-0.1-0.9-0.2-1.1c-0.2-0.2-0.4-0.3-0.7-0.3c-0.3,0-0.5,0.1-0.8,0.3c-0.3,0.2-0.6,0.4-0.8,0.6v8h-1.2v-9.7h1.2v1
					c0.3-0.3,0.7-0.6,1.1-0.8c0.4-0.2,0.8-0.3,1.3-0.3c0.3,0,0.6,0.1,0.8,0.2c0.2,0.2,0.4,0.4,0.5,0.7c0.1,0.3,0.2,0.7,0.2,1.1v7.8
					L63.5,28.9L63.5,28.9z M67.5,23.9v1.7c0,0.6,0,1.1,0.1,1.5c0.1,0.4,0.2,0.6,0.5,0.8s0.5,0.2,0.8,0.2c0.2,0,0.5,0,0.7-0.1
					c0.2-0.1,0.4-0.3,0.5-0.5c0.1-0.3,0.2-0.7,0.2-1.2v-0.7h1.2v0.5c0,0.9-0.2,1.6-0.5,2.1c-0.4,0.5-1,0.8-2,0.8
					c-0.6,0-1.1-0.1-1.5-0.4c-0.4-0.2-0.7-0.6-0.9-1.2c-0.2-0.6-0.3-1.3-0.3-2.2v-2.4c0-1,0.1-1.7,0.3-2.3c0.2-0.5,0.5-0.9,0.9-1.2
					c0.4-0.2,0.9-0.3,1.5-0.3c0.7,0,1.2,0.1,1.6,0.4c0.4,0.3,0.6,0.7,0.7,1.3c0.1,0.6,0.2,1.3,0.2,2.3v0.9L67.5,23.9L67.5,23.9z
					 M70.2,22.4c0-0.5,0-1-0.1-1.3c-0.1-0.4-0.2-0.6-0.4-0.8S69.3,20,68.9,20c-0.3,0-0.6,0.1-0.8,0.2c-0.2,0.1-0.4,0.4-0.4,0.8
					s-0.1,0.9-0.1,1.6v0.7h2.7L70.2,22.4L70.2,22.4z M76.6,20.3c-0.1,0-0.2,0-0.3,0c-0.4,0-0.7,0.1-1,0.3c-0.3,0.2-0.6,0.5-0.8,0.9
					v7.4h-1.2v-9.7h1.2v1.3c0.3-0.5,0.7-0.9,1.1-1.1c0.4-0.2,0.8-0.3,1.2-0.3c0,0,0.1,0,0.1,0c0,0,0.1,0,0.1,0v1.3
					C76.8,20.4,76.7,20.3,76.6,20.3L76.6,20.3z M79.8,22.7l1.4,1.2c0.3,0.2,0.5,0.5,0.8,0.8c0.2,0.3,0.4,0.6,0.6,0.9
					c0.2,0.3,0.2,0.7,0.2,1.2c0,0.5-0.1,0.9-0.3,1.3c-0.2,0.3-0.5,0.6-0.9,0.8c-0.4,0.2-0.8,0.3-1.3,0.3c-0.8,0-1.4-0.2-1.8-0.7
					c-0.5-0.5-0.7-1.2-0.8-2l1-0.3c0.1,0.7,0.2,1.3,0.5,1.6s0.7,0.5,1.2,0.5c0.4,0,0.8-0.1,1-0.4c0.2-0.2,0.3-0.6,0.3-1
					c0-0.3-0.1-0.6-0.3-0.9c-0.2-0.3-0.5-0.6-0.9-1l-1.3-1.1c-0.4-0.4-0.8-0.7-1-1.1c-0.2-0.4-0.3-0.8-0.3-1.3
					c0-0.5,0.1-0.9,0.3-1.2c0.2-0.3,0.5-0.6,0.8-0.7c0.3-0.2,0.7-0.3,1.2-0.3c0.7,0,1.3,0.2,1.7,0.7c0.4,0.5,0.6,1.1,0.6,1.8
					l-0.9,0.3c0-0.4-0.1-0.8-0.2-1.1c-0.1-0.3-0.3-0.5-0.5-0.6S80.5,20,80.2,20c-0.4,0-0.7,0.1-0.9,0.3c-0.2,0.2-0.3,0.5-0.3,0.9
					c0,0.3,0.1,0.5,0.2,0.8C79.3,22.1,79.5,22.4,79.8,22.7L79.8,22.7z"/>
			</defs>
			<use xlink:href="#SVGID_1_"  style="overflow:visible;fill:#FFFFFF;"/>
			<clipPath id="SVGID_00000133523825701745730570000009666867697162151096_">
				<use xlink:href="#SVGID_1_"  style="overflow:visible;"/>
			</clipPath>
		</g>
		<g>
			<defs>
				<path id="SVGID_00000052795800359789352110000012344348356209192346_" d="M35.5,9v0.5c0,0.6-0.1,1.2-0.2,1.7
					c-0.1,0.5-0.4,0.9-0.7,1.2c-0.3,0.3-0.9,0.4-1.6,0.4c-0.8,0-1.3-0.2-1.7-0.5s-0.6-0.8-0.7-1.4c-0.1-0.6-0.2-1.2-0.2-1.9V6.7
					c0-0.9,0.1-1.6,0.2-2.2c0.1-0.6,0.4-1,0.8-1.3C31.8,3,32.3,2.8,33,2.8c0.7,0,1.2,0.1,1.6,0.4c0.4,0.3,0.6,0.6,0.7,1.1
					c0.1,0.5,0.2,1,0.2,1.6v0.4h-1.1V5.9c0-0.6,0-1-0.1-1.3c-0.1-0.3-0.2-0.5-0.4-0.7c-0.2-0.1-0.5-0.2-0.8-0.2
					c-0.4,0-0.7,0.1-0.9,0.3c-0.2,0.2-0.3,0.5-0.4,0.9c-0.1,0.4-0.1,1-0.1,1.6v2.7c0,1,0.1,1.7,0.3,2c0.2,0.4,0.6,0.6,1.1,0.6
					c0.4,0,0.7-0.1,0.9-0.3c0.2-0.2,0.3-0.4,0.4-0.8c0.1-0.3,0.1-0.8,0.1-1.3V9L35.5,9L35.5,9z M40.9,12.7c0-0.2-0.1-0.4-0.1-0.7
					c0-0.3-0.1-0.5-0.1-0.6c-0.1,0.4-0.4,0.7-0.7,1c-0.3,0.3-0.8,0.5-1.3,0.5c-0.4,0-0.7-0.1-1-0.3s-0.5-0.5-0.7-0.8
					c-0.2-0.3-0.3-0.7-0.3-1.1c0-0.5,0.1-0.9,0.2-1.3c0.1-0.3,0.4-0.7,0.7-0.9c0.3-0.3,0.7-0.5,1.2-0.8c0.5-0.3,1.1-0.6,1.8-0.9V6.1
					c0-0.6,0-1.1-0.1-1.4c-0.1-0.3-0.2-0.6-0.4-0.7c-0.2-0.1-0.4-0.2-0.7-0.2c-0.3,0-0.5,0.1-0.7,0.1c-0.2,0.1-0.4,0.3-0.5,0.5
					c-0.1,0.2-0.2,0.6-0.2,1v0.3l-1.2,0c0-1,0.2-1.7,0.6-2.2s1.1-0.7,2-0.7c0.9,0,1.5,0.3,1.8,0.8C41.8,4.1,42,4.9,42,6v4.7
					c0,0.2,0,0.4,0,0.6c0,0.3,0,0.5,0,0.7c0,0.2,0,0.4,0,0.5L40.9,12.7L40.9,12.7z M40.7,7.6c-0.5,0.3-0.9,0.5-1.2,0.7
					c-0.3,0.2-0.6,0.4-0.8,0.6c-0.2,0.2-0.4,0.4-0.5,0.6c-0.1,0.2-0.1,0.5-0.1,0.8c0,0.5,0.1,0.9,0.3,1.1c0.2,0.2,0.5,0.3,0.8,0.3
					c0.2,0,0.5-0.1,0.7-0.2c0.2-0.1,0.4-0.3,0.5-0.4c0.2-0.2,0.3-0.4,0.4-0.5V7.6L40.7,7.6z M48.8,10.9c-0.1,0.6-0.4,1.1-0.7,1.4
					s-0.8,0.5-1.4,0.5c-0.4,0-0.7-0.1-1-0.3c-0.3-0.2-0.5-0.4-0.7-0.6v4h-1.2V3H45v0.8c0.2-0.2,0.5-0.5,0.8-0.7
					c0.3-0.2,0.7-0.3,1.1-0.3c0.5,0,0.8,0.1,1.1,0.3c0.3,0.2,0.5,0.5,0.7,0.9c0.2,0.4,0.3,0.8,0.3,1.2C49,5.7,49,6.2,49,6.7v2
					C49,9.5,48.9,10.3,48.8,10.9L48.8,10.9z M47.8,6.7c0-0.6,0-1.2-0.1-1.6c-0.1-0.4-0.2-0.8-0.4-1c-0.2-0.2-0.5-0.3-0.9-0.3
					c-0.3,0-0.6,0.1-0.9,0.3c-0.3,0.2-0.5,0.3-0.6,0.5v6.6c0.2,0.2,0.4,0.4,0.7,0.5s0.5,0.2,0.9,0.2c0.4,0,0.6-0.1,0.8-0.4
					c0.2-0.2,0.3-0.6,0.4-1.1s0.1-1,0.1-1.7V6.7L47.8,6.7z M54.6,12.7c0-0.2-0.1-0.4-0.1-0.7c0-0.3-0.1-0.5-0.1-0.6
					c-0.1,0.4-0.4,0.7-0.7,1c-0.3,0.3-0.8,0.5-1.3,0.5c-0.4,0-0.7-0.1-1-0.3s-0.5-0.5-0.7-0.8c-0.2-0.3-0.3-0.7-0.3-1.1
					c0-0.5,0.1-0.9,0.2-1.3c0.1-0.3,0.4-0.7,0.7-0.9c0.3-0.3,0.7-0.5,1.2-0.8c0.5-0.3,1.1-0.6,1.8-0.9V6.1c0-0.6,0-1.1-0.1-1.4
					c-0.1-0.3-0.2-0.6-0.4-0.7c-0.2-0.1-0.4-0.2-0.7-0.2c-0.3,0-0.5,0.1-0.7,0.1C52.3,4,52.1,4.2,52,4.4c-0.1,0.2-0.2,0.6-0.2,1v0.3
					l-1.2,0c0-1,0.2-1.7,0.6-2.2c0.4-0.5,1.1-0.7,2-0.7c0.9,0,1.5,0.3,1.8,0.8c0.4,0.5,0.5,1.3,0.5,2.4v4.7c0,0.2,0,0.4,0,0.6
					c0,0.3,0,0.5,0,0.7c0,0.2,0,0.4,0,0.5L54.6,12.7L54.6,12.7z M54.4,7.6c-0.5,0.3-0.9,0.5-1.2,0.7c-0.3,0.2-0.6,0.4-0.8,0.6
					c-0.2,0.2-0.4,0.4-0.5,0.6c-0.1,0.2-0.1,0.5-0.1,0.8c0,0.5,0.1,0.9,0.3,1.1c0.2,0.2,0.5,0.3,0.8,0.3c0.2,0,0.5-0.1,0.7-0.2
					c0.2-0.1,0.4-0.3,0.5-0.4c0.2-0.2,0.3-0.4,0.4-0.5V7.6L54.4,7.6z M62.2,9v0.5c0,0.6-0.1,1.2-0.2,1.7c-0.1,0.5-0.4,0.9-0.7,1.2
					s-0.9,0.4-1.6,0.4c-0.8,0-1.3-0.2-1.7-0.5s-0.6-0.8-0.7-1.4c-0.1-0.6-0.2-1.2-0.2-1.9V6.7c0-0.9,0.1-1.6,0.2-2.2
					c0.1-0.6,0.4-1,0.8-1.3c0.4-0.3,0.9-0.4,1.6-0.4c0.7,0,1.2,0.1,1.6,0.4c0.4,0.3,0.6,0.6,0.7,1.1c0.1,0.5,0.2,1,0.2,1.6v0.4h-1.1
					V5.9c0-0.6,0-1-0.1-1.3c-0.1-0.3-0.2-0.5-0.4-0.7c-0.2-0.1-0.5-0.2-0.8-0.2c-0.4,0-0.7,0.1-0.9,0.3c-0.2,0.2-0.3,0.5-0.4,0.9
					c-0.1,0.4-0.1,1-0.1,1.6v2.7c0,1,0.1,1.7,0.3,2c0.2,0.4,0.6,0.6,1.1,0.6c0.4,0,0.7-0.1,0.9-0.3c0.2-0.2,0.3-0.4,0.4-0.8
					c0.1-0.3,0.1-0.8,0.1-1.3V9L62.2,9L62.2,9z M64,12.7V3h1.2v9.7H64L64,12.7z M64,0h1.2v1.7H64V0L64,0z M69.1,3.8v6.8
					c0,0.5,0.1,0.8,0.2,1c0.1,0.2,0.3,0.3,0.7,0.3c0.1,0,0.2,0,0.3,0c0.1,0,0.2,0,0.3,0v0.9c-0.2,0-0.3,0.1-0.5,0.1
					c-0.2,0-0.3,0-0.5,0c-0.5,0-0.8-0.1-1.1-0.3c-0.3-0.2-0.4-0.4-0.5-0.8c-0.1-0.3-0.1-0.7-0.1-1.1V3.8h-1.2V3h1.2V0h1.2v3h1.6v0.8
					H69.1L69.1,3.8z M76.7,11.1c-0.1,0.5-0.4,1-0.8,1.2c-0.4,0.3-0.9,0.4-1.6,0.4c-0.7,0-1.2-0.1-1.6-0.4c-0.4-0.3-0.6-0.7-0.8-1.2
					c-0.1-0.5-0.2-1.2-0.2-2V6.5c0-0.8,0.1-1.4,0.2-2c0.1-0.5,0.4-1,0.8-1.2c0.4-0.3,0.9-0.4,1.6-0.4c0.7,0,1.2,0.1,1.6,0.4
					c0.4,0.3,0.6,0.7,0.8,1.2c0.1,0.5,0.2,1.2,0.2,2v2.7C76.9,9.9,76.9,10.6,76.7,11.1L76.7,11.1z M75.7,6.4c0-0.5,0-1-0.1-1.4
					c0-0.4-0.2-0.7-0.4-0.9c-0.2-0.2-0.5-0.3-0.9-0.3c-0.4,0-0.7,0.1-0.9,0.3c-0.2,0.2-0.3,0.5-0.4,0.9C73,5.4,73,5.9,73,6.4v2.8
					c0,0.5,0,1,0.1,1.4c0.1,0.4,0.2,0.7,0.4,0.9c0.2,0.2,0.5,0.3,0.9,0.3c0.4,0,0.7-0.1,0.9-0.3s0.3-0.5,0.4-0.9
					c0-0.4,0.1-0.9,0.1-1.4V6.4L75.7,6.4z M82.1,4.1c-0.1,0-0.2,0-0.3,0c-0.4,0-0.7,0.1-1,0.3c-0.3,0.2-0.6,0.5-0.8,0.9v7.4h-1.2V3
					H80v1.3c0.3-0.5,0.7-0.9,1.1-1.1c0.4-0.2,0.8-0.3,1.2-0.3c0,0,0.1,0,0.1,0c0,0,0.1,0,0.1,0v1.3C82.3,4.2,82.2,4.1,82.1,4.1
					L82.1,4.1z M31.1,28.9h-1.1l3.9-13.6H35L31.1,28.9L31.1,28.9z M41.4,27.1c-0.1,0.6-0.4,1.1-0.7,1.4c-0.3,0.3-0.8,0.5-1.4,0.5
					c-0.4,0-0.7-0.1-1-0.3c-0.3-0.2-0.5-0.4-0.7-0.6v4h-1.2V19.2h1.2V20c0.2-0.2,0.5-0.4,0.8-0.7c0.3-0.2,0.7-0.3,1.1-0.3
					c0.5,0,0.8,0.1,1.1,0.3c0.3,0.2,0.5,0.5,0.7,0.9c0.2,0.4,0.3,0.8,0.3,1.2c0.1,0.5,0.1,0.9,0.1,1.4v2
					C41.6,25.8,41.6,26.5,41.4,27.1L41.4,27.1z M40.4,22.9c0-0.6,0-1.2-0.1-1.6c-0.1-0.4-0.2-0.8-0.4-1c-0.2-0.2-0.5-0.3-0.9-0.3
					c-0.3,0-0.6,0.1-0.9,0.3c-0.3,0.2-0.5,0.3-0.6,0.5v6.6c0.2,0.2,0.4,0.4,0.7,0.5c0.3,0.1,0.5,0.2,0.9,0.2c0.4,0,0.6-0.1,0.8-0.4
					c0.2-0.2,0.3-0.6,0.4-1.1c0.1-0.5,0.1-1,0.1-1.7V22.9L40.4,22.9z M47.2,28.9c0-0.2-0.1-0.4-0.1-0.7c0-0.3-0.1-0.5-0.1-0.6
					c-0.1,0.4-0.4,0.7-0.7,1C46,28.9,45.5,29,45,29c-0.4,0-0.7-0.1-1-0.3s-0.5-0.5-0.7-0.8c-0.2-0.3-0.3-0.7-0.3-1.1
					c0-0.5,0.1-0.9,0.2-1.3c0.1-0.3,0.4-0.7,0.7-0.9c0.3-0.3,0.7-0.5,1.2-0.8c0.5-0.3,1.1-0.6,1.8-0.9v-0.7c0-0.6,0-1.1-0.1-1.4
					c-0.1-0.3-0.2-0.6-0.4-0.7C46.3,20,46.1,20,45.8,20c-0.3,0-0.5,0.1-0.7,0.1c-0.2,0.1-0.4,0.3-0.5,0.5c-0.1,0.2-0.2,0.6-0.2,1V22
					l-1.2,0c0-1,0.2-1.7,0.6-2.2c0.4-0.5,1.1-0.7,2-0.7c0.9,0,1.5,0.3,1.8,0.8c0.4,0.5,0.5,1.3,0.5,2.4v4.7c0,0.2,0,0.4,0,0.6
					c0,0.3,0,0.5,0,0.7c0,0.2,0,0.4,0,0.5L47.2,28.9L47.2,28.9z M47,23.8c-0.5,0.3-0.9,0.5-1.2,0.7c-0.3,0.2-0.6,0.4-0.8,0.6
					c-0.2,0.2-0.4,0.4-0.5,0.6c-0.1,0.2-0.1,0.5-0.1,0.8c0,0.5,0.1,0.9,0.3,1.1c0.2,0.2,0.5,0.3,0.8,0.3c0.2,0,0.5-0.1,0.7-0.2
					c0.2-0.1,0.4-0.3,0.5-0.4c0.2-0.2,0.3-0.4,0.4-0.5V23.8L47,23.8z M53.5,20.3c-0.1,0-0.2,0-0.3,0c-0.4,0-0.7,0.1-1,0.3
					c-0.3,0.2-0.6,0.5-0.8,0.9v7.4h-1.2v-9.7h1.2v1.3c0.3-0.5,0.7-0.9,1.1-1.1c0.4-0.2,0.8-0.3,1.2-0.3c0,0,0.1,0,0.1,0
					c0,0,0.1,0,0.1,0v1.3C53.7,20.4,53.6,20.3,53.5,20.3L53.5,20.3z M56.7,20v6.8c0,0.5,0.1,0.8,0.2,1c0.1,0.2,0.3,0.3,0.7,0.3
					c0.1,0,0.2,0,0.3,0c0.1,0,0.2,0,0.3,0v0.9c-0.2,0-0.3,0.1-0.5,0.1c-0.2,0-0.3,0-0.5,0c-0.5,0-0.8-0.1-1.1-0.3
					c-0.3-0.2-0.4-0.4-0.5-0.8c-0.1-0.3-0.1-0.7-0.1-1.1V20h-1.2v-0.8h1.2v-3h1.2v3h1.6V20H56.7L56.7,20z M63.5,28.9v-7.5
					c0-0.5-0.1-0.9-0.2-1.1c-0.2-0.2-0.4-0.3-0.7-0.3c-0.3,0-0.5,0.1-0.8,0.3c-0.3,0.2-0.6,0.4-0.8,0.6v8h-1.2v-9.7h1.2v1
					c0.3-0.3,0.7-0.6,1.1-0.8c0.4-0.2,0.8-0.3,1.3-0.3c0.3,0,0.6,0.1,0.8,0.2c0.2,0.2,0.4,0.4,0.5,0.7c0.1,0.3,0.2,0.7,0.2,1.1v7.8
					L63.5,28.9L63.5,28.9z M67.5,23.9v1.7c0,0.6,0,1.1,0.1,1.5c0.1,0.4,0.2,0.6,0.5,0.8s0.5,0.2,0.8,0.2c0.2,0,0.5,0,0.7-0.1
					c0.2-0.1,0.4-0.3,0.5-0.5c0.1-0.3,0.2-0.7,0.2-1.2v-0.7h1.2v0.5c0,0.9-0.2,1.6-0.5,2.1c-0.4,0.5-1,0.8-2,0.8
					c-0.6,0-1.1-0.1-1.5-0.4c-0.4-0.2-0.7-0.6-0.9-1.2c-0.2-0.6-0.3-1.3-0.3-2.2v-2.4c0-1,0.1-1.7,0.3-2.3c0.2-0.5,0.5-0.9,0.9-1.2
					c0.4-0.2,0.9-0.3,1.5-0.3c0.7,0,1.2,0.1,1.6,0.4c0.4,0.3,0.6,0.7,0.7,1.3c0.1,0.6,0.2,1.3,0.2,2.3v0.9L67.5,23.9L67.5,23.9z
					 M70.2,22.4c0-0.5,0-1-0.1-1.3c-0.1-0.4-0.2-0.6-0.4-0.8S69.3,20,68.9,20c-0.3,0-0.6,0.1-0.8,0.2c-0.2,0.1-0.4,0.4-0.4,0.8
					s-0.1,0.9-0.1,1.6v0.7h2.7L70.2,22.4L70.2,22.4z M76.6,20.3c-0.1,0-0.2,0-0.3,0c-0.4,0-0.7,0.1-1,0.3c-0.3,0.2-0.6,0.5-0.8,0.9
					v7.4h-1.2v-9.7h1.2v1.3c0.3-0.5,0.7-0.9,1.1-1.1c0.4-0.2,0.8-0.3,1.2-0.3c0,0,0.1,0,0.1,0c0,0,0.1,0,0.1,0v1.3
					C76.8,20.4,76.7,20.3,76.6,20.3L76.6,20.3z M79.8,22.7l1.4,1.2c0.3,0.2,0.5,0.5,0.8,0.8c0.2,0.3,0.4,0.6,0.6,0.9
					c0.2,0.3,0.2,0.7,0.2,1.2c0,0.5-0.1,0.9-0.3,1.3c-0.2,0.3-0.5,0.6-0.9,0.8c-0.4,0.2-0.8,0.3-1.3,0.3c-0.8,0-1.4-0.2-1.8-0.7
					c-0.5-0.5-0.7-1.2-0.8-2l1-0.3c0.1,0.7,0.2,1.3,0.5,1.6s0.7,0.5,1.2,0.5c0.4,0,0.8-0.1,1-0.4c0.2-0.2,0.3-0.6,0.3-1
					c0-0.3-0.1-0.6-0.3-0.9c-0.2-0.3-0.5-0.6-0.9-1l-1.3-1.1c-0.4-0.4-0.8-0.7-1-1.1c-0.2-0.4-0.3-0.8-0.3-1.3
					c0-0.5,0.1-0.9,0.3-1.2c0.2-0.3,0.5-0.6,0.8-0.7c0.3-0.2,0.7-0.3,1.2-0.3c0.7,0,1.3,0.2,1.7,0.7c0.4,0.5,0.6,1.1,0.6,1.8
					l-0.9,0.3c0-0.4-0.1-0.8-0.2-1.1c-0.1-0.3-0.3-0.5-0.5-0.6S80.5,20,80.2,20c-0.4,0-0.7,0.1-0.9,0.3c-0.2,0.2-0.3,0.5-0.3,0.9
					c0,0.3,0.1,0.5,0.2,0.8C79.3,22.1,79.5,22.4,79.8,22.7L79.8,22.7z"/>
			</defs>
			<use xlink:href="#SVGID_00000052795800359789352110000012344348356209192346_"  style="overflow:visible;fill:#FFFFFF;"/>
			<clipPath id="SVGID_00000052082842819508977600000015240303003442885022_">
				<use xlink:href="#SVGID_00000052795800359789352110000012344348356209192346_"  style="overflow:visible;"/>
			</clipPath>
			
				<g transform="matrix(1 0 0 1 0 3.051758e-05)" style="clip-path:url(#SVGID_00000052082842819508977600000015240303003442885022_);">
			</g>
		</g>
	</g>
</g>
</svg>
