<?xml version="1.0" encoding="UTF-8" standalone="no"?>
<svg
   xmlns:dc="http://purl.org/dc/elements/1.1/"
   xmlns:cc="http://creativecommons.org/ns#"
   xmlns:rdf="http://www.w3.org/1999/02/22-rdf-syntax-ns#"
   xmlns:svg="http://www.w3.org/2000/svg"
   xmlns="http://www.w3.org/2000/svg"
   xmlns:sodipodi="http://sodipodi.sourceforge.net/DTD/sodipodi-0.dtd"
   xmlns:inkscape="http://www.inkscape.org/namespaces/inkscape"
   width="302pt"
   height="50pt"
   viewBox="0 0 302 50"
   version="1.1"
   id="svg2"
   inkscape:version="0.91 r13725"
   sodipodi:docname="Cyprus-Mail-Logo (1).svg">
  <metadata
     id="metadata22">
    <rdf:RDF>
      <cc:Work
         rdf:about="">
        <dc:format>image/svg+xml</dc:format>
        <dc:type
           rdf:resource="http://purl.org/dc/dcmitype/StillImage" />
      </cc:Work>
    </rdf:RDF>
  </metadata>
  <defs
     id="defs20" />
  <sodipodi:namedview
     pagecolor="#ffffff"
     bordercolor="#666666"
     borderopacity="1"
     objecttolerance="10"
     gridtolerance="10"
     guidetolerance="10"
     inkscape:pageopacity="0"
     inkscape:pageshadow="2"
     inkscape:window-width="1366"
     inkscape:window-height="715"
     id="namedview18"
     showgrid="false"
     inkscape:zoom="1.7642384"
     inkscape:cx="156.90464"
     inkscape:cy="-39.693752"
     inkscape:window-x="0"
     inkscape:window-y="0"
     inkscape:window-maximized="1"
     inkscape:current-layer="svg2" />
  <path
     d=" M 0.00 0.00 L 302.00 0.00 L 302.00 50.00 L 0.00 50.00 L 0.00 0.00 Z"
     id="path4"
     fill="#fefefe" />
  <path
     fill="#030303"
     d=" M 282.67 5.38 C 287.21 5.34 291.76 5.27 296.28 4.68 C 296.37 14.95 296.06 25.23 296.45 35.50 C 297.83 35.61 299.20 35.71 300.58 35.80 C 300.56 36.31 300.52 37.32 300.49 37.82 C 289.67 37.66 278.84 37.75 268.02 37.75 C 264.13 38.07 259.30 39.68 256.76 35.64 C 251.68 38.41 245.43 39.54 239.91 37.47 C 232.57 38.04 225.19 37.61 217.84 37.71 C 217.83 37.02 217.82 36.34 217.82 35.65 C 219.42 35.63 221.02 35.61 222.63 35.59 C 223.85 32.54 223.36 29.21 223.44 26.01 C 223.34 20.40 223.66 14.78 223.26 9.18 C 219.05 18.67 215.06 28.25 211.06 37.82 C 210.33 37.78 208.88 37.70 208.16 37.66 C 204.05 28.22 199.60 18.93 195.45 9.52 C 194.94 16.01 195.31 22.53 195.18 29.04 C 195.32 30.84 194.88 33.10 196.53 34.36 C 197.94 35.43 199.74 35.53 201.41 35.83 C 201.42 36.31 201.44 37.29 201.44 37.78 C 196.10 37.69 190.75 37.73 185.40 37.76 C 185.38 37.28 185.34 36.30 185.32 35.81 C 187.66 35.53 190.76 35.02 191.35 32.28 C 191.63 24.45 191.40 16.61 191.43 8.78 C 189.59 8.00 187.61 7.66 185.62 7.57 C 185.61 7.08 185.59 6.10 185.58 5.61 C 191.70 5.63 197.82 5.62 203.94 5.62 C 206.87 12.15 209.63 18.76 212.89 25.15 C 215.36 18.53 218.47 12.17 221.13 5.63 C 227.15 5.61 233.17 5.63 239.20 5.63 L 239.21 7.48 C 237.23 7.66 235.27 7.98 233.34 8.46 C 233.25 15.95 233.34 23.45 233.29 30.95 C 233.51 32.35 232.83 34.21 234.02 35.27 C 234.86 35.44 236.54 35.77 237.38 35.94 C 237.61 33.89 236.75 31.18 238.70 29.73 C 243.44 25.92 249.91 25.60 255.72 25.12 C 255.58 22.91 256.22 20.20 254.21 18.64 C 251.59 17.62 248.73 18.29 246.05 18.66 C 246.54 20.39 248.35 22.16 247.16 23.98 C 244.25 25.28 240.63 25.14 238.33 22.73 C 238.47 20.26 240.03 18.02 242.43 17.26 C 248.27 15.39 254.78 15.27 260.54 17.52 C 262.73 18.31 264.33 20.53 264.35 22.85 C 264.52 27.08 264.25 31.32 264.54 35.55 C 266.75 35.64 269.19 36.21 271.22 35.04 C 271.64 30.03 271.50 24.97 271.32 19.95 C 270.31 18.17 268.18 18.82 266.53 18.63 C 266.53 18.14 266.53 17.17 266.54 16.68 C 271.05 16.65 275.55 16.52 280.06 16.33 C 279.77 22.75 279.46 29.25 280.32 35.65 C 282.71 35.74 285.11 35.72 287.48 35.40 C 287.53 26.20 287.83 16.98 287.34 7.80 C 285.74 7.44 284.12 7.41 282.50 7.31 C 282.54 6.82 282.63 5.86 282.67 5.38 Z"
     id="path8" />
  <path
     fill="#030303"
     d=" M 32.96 7.39 C 34.57 6.16 36.37 5.22 38.35 4.75 C 38.59 8.74 38.81 12.73 39.32 16.70 C 43.84 16.66 48.36 16.66 52.87 16.68 C 52.85 17.11 52.79 17.98 52.77 18.42 C 51.58 18.83 50.39 19.24 49.21 19.67 C 51.43 23.49 53.90 27.15 56.09 30.98 C 58.21 27.37 60.40 23.78 61.94 19.88 C 59.97 18.99 57.48 18.85 56.23 16.85 C 63.90 16.50 71.59 16.79 79.27 16.34 C 79.11 17.22 78.78 18.97 78.62 19.85 C 84.12 15.21 93.52 14.82 98.22 20.76 C 102.11 25.36 100.61 32.75 95.75 36.04 C 90.89 39.56 84.34 38.88 79.37 35.97 C 79.35 38.77 79.35 41.57 79.37 44.37 C 80.28 44.68 81.20 44.99 82.11 45.31 C 82.66 45.14 83.77 44.81 84.32 44.64 C 84.37 45.29 84.46 46.60 84.51 47.25 C 78.47 47.23 72.42 47.21 66.38 47.26 C 66.42 46.70 66.51 45.58 66.56 45.02 C 67.90 44.87 69.24 44.70 70.58 44.52 C 70.79 36.23 70.61 27.94 70.68 19.65 C 70.29 19.36 69.50 18.79 69.11 18.50 C 68.04 19.01 66.97 19.52 65.90 20.03 C 62.24 26.56 58.47 33.03 54.66 39.48 C 52.37 43.81 48.09 47.20 43.05 47.24 C 40.18 46.99 35.55 45.79 36.65 41.90 C 38.23 38.60 42.84 38.83 45.42 40.78 C 45.41 42.12 45.41 43.46 45.42 44.80 C 48.47 43.95 50.51 41.61 51.95 38.89 C 48.49 33.38 44.83 27.99 41.33 22.51 C 40.22 20.66 38.49 19.33 36.65 18.27 C 34.92 14.39 32.75 10.34 28.81 8.31 C 23.72 5.90 16.27 6.83 13.81 12.53 C 11.86 18.58 11.65 25.72 14.77 31.43 C 17.47 36.07 23.64 36.48 28.32 35.28 C 32.41 33.77 35.26 30.19 37.15 26.40 C 38.15 26.56 39.14 26.72 40.14 26.88 C 38.83 30.82 36.34 34.45 32.50 36.26 C 24.35 40.22 13.76 39.24 6.71 33.43 C 0.78 28.35 -0.40 18.66 4.70 12.58 C 11.41 4.61 23.79 2.80 32.96 7.39 Z"
     id="path10" />
  <path
     d="m 164.11,16.95 c 4.19,-1.37 8.73,-0.91 12.85,0.47 1.43,-0.52 2.9,-0.93 4.38,-1.3 0.11,2.5 0.25,5 0.32,7.5 -3.48,-0.12 -4.81,-3.96 -7.81,-5.09 -3.16,-0.8 -7.12,-0.82 -8.86,2.48 4.48,4.03 11.37,2.36 16.05,6.03 2.35,1.65 1.62,4.73 1.5,7.16 -2.91,3.19 -7.21,4.75 -11.5,4.32 -3.41,0.31 -6.88,-2.48 -10.04,-0.24 -4.59,-0.09 -9.17,0.09 -13.76,0.07 0.04,-1.03 0.13,-3.09 0.17,-4.12 -4.72,4.71 -13.93,6.44 -18.45,0.67 -1.61,-4.66 -0.19,-9.81 -0.82,-14.65 -0.57,-0.55 -1.71,-1.67 -2.27,-2.22 -0.12,1.73 -0.25,3.46 -0.48,5.18 -2.46,1.29 -5.70968,1.93008 -7.61968,-0.59992 -0.02,-1.03 -0.23032,-3.13008 -0.26032,-4.16008 -6.16,3.33 -6.47,10.88 -5.87,17.02 1.86,0.16 3.73,0.26 5.6,0.34 l 0,1.97 c -6.25,-0.09 -12.49,-0.06 -18.73,0.01 -0.03,-0.5 -0.1,-1.49 -0.13,-1.99 1.45,-0.09 2.9,-0.18 4.34,-0.29 0.15,-5.58 0.32,-11.18 -0.09,-16.75 -1.49,-0.05 -2.98,-0.08 -4.48,-0.11 0.02,-0.49 0.04,-1.47 0.06,-1.96 4.1,-0.05 8.21,-0.14 12.31,-0.4 -0.01,1.98 -0.01,3.96 0.09,5.93 1.93,-2.82 4.62,-5.98 8.41,-5.73 5.91,0.38 11.84,0.09 17.75,-0.2 0.07,4.91 -0.29,9.86 0.16,14.75 0.75,5.01 8.4,4.3 9.52,-0.13 0.69,-4 0.35,-8.1 0.17,-12.12 -1.63,-0.07 -3.25,-0.11 -4.88,-0.14 -0.02,-0.49 -0.05,-1.47 -0.07,-1.96 4.64,-0.06 9.28,-0.11 13.92,-0.42 0.03,6.38 -0.28,12.78 0.14,19.16 0.73,0.11 2.18,0.35 2.91,0.46 1.02,-1.85 0.19,-3.95 0.16,-5.91 3.77,0.01 5.03,4.42 8.35,5.55 3.27,1.71 7.27,1.18 9.82,-1.52 -2.27,-3.96 -7.3,-3.36 -11.1,-4.56 -3.15,-0.56 -7.1,-2.7 -6.58,-6.47 -0.31,-2.95 2.32,-5.12 4.82,-6.03 z"
     id="path12"
     inkscape:connector-curvature="0"
     style="fill:#030303"
     sodipodi:nodetypes="ccccccccccccccccccccccccccccccccccccccccccccc" />
  <path
     fill="#fefefe"
     d=" M 83.41 19.53 C 86.99 18.14 90.85 21.19 90.73 24.90 C 90.83 28.38 91.47 32.93 88.03 35.11 C 84.91 36.99 80.54 34.95 79.69 31.44 C 78.79 27.38 78.64 21.20 83.41 19.53 Z"
     id="path14" />
  <path
     fill="#fefefe"
     d=" M 246.40 31.39 C 247.99 27.97 252.40 27.52 255.72 27.03 C 255.73 29.65 255.91 32.80 253.44 34.47 C 251.05 36.98 245.31 35.32 246.40 31.39 Z"
     id="path16" />
  <ellipse
     id="path3379"
     cx="274.16724"
     cy="9.018199"
     rx="5.2304401"
     ry="4.1482801" />
</svg>
