<?xml version="1.0" encoding="utf-8"?>
<!-- Generator: Adobe Illustrator 28.1.0, SVG Export Plug-In . SVG Version: 6.00 Build 0)  -->
<svg version="1.1"
	 id="svg2" xmlns:sodipodi="http://sodipodi.sourceforge.net/DTD/sodipodi-0.dtd" xmlns:svg="http://www.w3.org/2000/svg" xmlns:rdf="http://www.w3.org/1999/02/22-rdf-syntax-ns#" xmlns:inkscape="http://www.inkscape.org/namespaces/inkscape" xmlns:dc="http://purl.org/dc/elements/1.1/" xmlns:cc="http://creativecommons.org/ns#"
	 xmlns="http://www.w3.org/2000/svg" xmlns:xlink="http://www.w3.org/1999/xlink" x="0px" y="0px" viewBox="0 0 115 32"
	 style="enable-background:new 0 0 115 32;" xml:space="preserve">
<style type="text/css">
	.st0{fill:#FFFFFF;}
</style>
<sodipodi:namedview  bordercolor="#666666" borderopacity="1" gridtolerance="10" guidetolerance="10" id="namedview18" inkscape:current-layer="svg2" inkscape:cx="156.90464" inkscape:cy="-39.693752" inkscape:pageopacity="0" inkscape:pageshadow="2" inkscape:window-height="715" inkscape:window-maximized="1" inkscape:window-width="1366" inkscape:window-x="0" inkscape:window-y="0" inkscape:zoom="1.7642384" objecttolerance="10" pagecolor="#ffffff" showgrid="false">
	</sodipodi:namedview>
<path id="path12" inkscape:connector-curvature="0" sodipodi:nodetypes="ccccccccccccccccccccccccccccccccccccccccccccc" class="st0" d="
	M62.3,13.7c1.5-0.5,3.2-0.3,4.7,0.2c0.5-0.2,1.1-0.3,1.6-0.5c0,0.9,0.1,1.8,0.1,2.7c-1.3,0-1.7-1.4-2.8-1.8
	c-1.1-0.3-2.6-0.3-3.2,0.9c1.6,1.5,4.1,0.9,5.8,2.2c0.9,0.6,0.6,1.7,0.5,2.6c-1.1,1.2-2.6,1.7-4.2,1.6c-1.2,0.1-2.5-0.9-3.6-0.1
	c-1.7,0-3.3,0-5,0c0-0.4,0-1.1,0.1-1.5c-1.7,1.7-5,2.3-6.7,0.2c-0.6-1.7-0.1-3.6-0.3-5.3c-0.2-0.2-0.6-0.6-0.8-0.8
	c0,0.6-0.1,1.3-0.2,1.9c-0.9,0.5-2.1,0.7-2.8-0.2c0-0.4-0.1-1.1-0.1-1.5c-2.2,1.2-2.3,3.9-2.1,6.2c0.7,0.1,1.4,0.1,2,0.1v0.7
	c-2.3,0-4.5,0-6.8,0c0-0.2,0-0.5,0-0.7c0.5,0,1.1-0.1,1.6-0.1c0.1-2,0.1-4.1,0-6.1c-0.5,0-1.1,0-1.6,0c0-0.2,0-0.5,0-0.7
	c1.5,0,3-0.1,4.5-0.1c0,0.7,0,1.4,0,2.1c0.7-1,1.7-2.2,3-2.1c2.1,0.1,4.3,0,6.4-0.1c0,1.8-0.1,3.6,0.1,5.3c0.3,1.8,3,1.6,3.4,0
	c0.2-1.4,0.1-2.9,0.1-4.4c-0.6,0-1.2,0-1.8-0.1c0-0.2,0-0.5,0-0.7c1.7,0,3.4,0,5-0.2c0,2.3-0.1,4.6,0.1,6.9c0.3,0,0.8,0.1,1.1,0.2
	c0.4-0.7,0.1-1.4,0.1-2.1c1.4,0,1.8,1.6,3,2c1.2,0.6,2.6,0.4,3.6-0.6c-0.8-1.4-2.6-1.2-4-1.7c-1.1-0.2-2.6-1-2.4-2.3
	C60.4,14.8,61.4,14,62.3,13.7L62.3,13.7z"/>
<g>
	<path class="st0" d="M38.4,15.1c-1.7-2.2-5.1-2-7.1-0.3c0.1-0.3,0.2-1,0.2-1.3c-2.8,0.2-5.6,0.1-8.3,0.2c0.5,0.7,1.4,0.8,2.1,1.1
		c-0.6,1.4-1.4,2.7-2.1,4c-0.8-1.4-1.7-2.7-2.5-4.1c0.4-0.2,0.9-0.3,1.3-0.5c0-0.2,0-0.5,0-0.6c-1.6,0-3.3,0-4.9,0
		c-0.2-1.4-0.3-2.9-0.4-4.3c-0.7,0.2-1.4,0.5-2,1c-3.3-1.7-7.8-1-10.2,1.9c-1.8,2.2-1.4,5.7,0.7,7.6c2.6,2.1,6.4,2.5,9.3,1
		c1.4-0.7,2.3-2,2.8-3.4c-0.4-0.1-0.7-0.1-1.1-0.2c-0.7,1.4-1.7,2.7-3.2,3.2c-1.7,0.4-3.9,0.3-4.9-1.4c-1.1-2.1-1.1-4.7-0.3-6.8
		c0.9-2.1,3.6-2.4,5.4-1.5c1.4,0.7,2.2,2.2,2.8,3.6c0.7,0.4,1.3,0.9,1.7,1.5c1.3,2,2.6,3.9,3.8,5.9c-0.5,1-1.3,1.8-2.4,2.1
		c0-0.5,0-1,0-1.5c-0.9-0.7-2.6-0.8-3.2,0.4c-0.4,1.4,1.3,1.8,2.3,1.9c1.8,0,3.4-1.2,4.2-2.8c1.4-2.3,2.7-4.7,4.1-7
		c0.4-0.2,0.8-0.4,1.2-0.6c0.1,0.1,0.4,0.3,0.6,0.4c0,3,0,6,0,9c-0.5,0.1-1,0.1-1.5,0.2c0,0.2-0.1,0.6-0.1,0.8c2.2,0,4.4,0,6.6,0
		c0-0.2-0.1-0.7-0.1-0.9c-0.2,0.1-0.6,0.2-0.8,0.2c-0.3-0.1-0.7-0.2-1-0.3c0-1,0-2,0-3c1.8,1.1,4.2,1.3,5.9,0
		C39.3,19.4,39.8,16.7,38.4,15.1z M34.7,20.3c-1.1,0.7-2.7-0.1-3-1.3c-0.3-1.5-0.4-3.7,1.3-4.3c1.3-0.5,2.7,0.6,2.7,1.9
		C35.7,17.8,36,19.5,34.7,20.3z"/>
</g>
<g>
	<path class="st0" d="M110.2,20.4c-0.1-3.7,0-7.4-0.1-11.2c-1.6,0.2-3.3,0.2-4.9,0.3c0,0.2,0,0.5-0.1,0.7c0.6,0,1.2,0,1.8,0.2
		c0.2,3.3,0.1,6.7,0.1,10c-0.9,0.1-1.7,0.1-2.6,0.1c-0.3-2.3-0.2-4.7-0.1-7c-1.6,0.1-3.3,0.1-4.9,0.1c0,0.2,0,0.5,0,0.7
		c0.6,0.1,1.4-0.2,1.7,0.5c0.1,1.8,0.1,3.7,0,5.5c-0.7,0.4-1.6,0.2-2.4,0.2c-0.1-1.5,0-3.1-0.1-4.6c0-0.8-0.6-1.6-1.4-1.9
		c-2.1-0.8-4.4-0.8-6.6-0.1c-0.9,0.3-1.4,1.1-1.5,2c0.8,0.9,2.1,0.9,3.2,0.5c0.4-0.7-0.2-1.3-0.4-1.9c1-0.1,2-0.4,3,0
		c0.7,0.6,0.5,1.5,0.5,2.3c-2.1,0.2-4.4,0.3-6.2,1.7c-0.7,0.5-0.4,1.5-0.5,2.2c-0.3-0.1-0.9-0.2-1.2-0.2c-0.4-0.4-0.2-1.1-0.3-1.6
		c0-2.7,0-5.4,0-8.1c0.7-0.2,1.4-0.3,2.1-0.4l0-0.7c-2.2,0-4.4,0-6.5,0c-1,2.4-2.1,4.7-3,7.1c-1.2-2.3-2.2-4.7-3.2-7.1
		c-2.2,0-4.4,0-6.7,0c0,0.2,0,0.5,0,0.7c0.7,0,1.4,0.2,2.1,0.4c0,2.8,0.1,5.7,0,8.5c-0.2,1-1.3,1.2-2.2,1.3c0,0.2,0,0.5,0,0.7
		c1.9,0,3.9,0,5.8,0c0-0.2,0-0.5,0-0.7c-0.6-0.1-1.3-0.1-1.8-0.5c-0.6-0.5-0.4-1.3-0.5-1.9c0-2.4-0.1-4.7,0.1-7.1
		c1.5,3.4,3.1,6.8,4.6,10.2c0.3,0,0.8,0,1.1,0.1c1.4-3.5,2.9-6.9,4.4-10.4c0.1,2,0,4.1,0.1,6.1c0,1.2,0.1,2.4-0.3,3.5
		c-0.6,0-1.2,0-1.7,0c0,0.2,0,0.5,0,0.7c2.7,0,5.3,0.1,8-0.1c2,0.7,4.3,0.3,6.1-0.7c0.9,1.5,2.7,0.9,4.1,0.8c3.9,0,7.8,0,11.8,0
		c0-0.2,0-0.5,0-0.7C111.2,20.5,110.7,20.5,110.2,20.4z M94.6,20c-0.9,0.9-2.9,0.3-2.6-1.1c0.6-1.2,2.2-1.4,3.4-1.6
		C95.5,18.3,95.5,19.4,94.6,20z"/>
</g>
<ellipse id="path3379" class="st0" cx="102.1" cy="10.8" rx="1.9" ry="1.5"/>
</svg>
