<?xml version="1.0" encoding="utf-8"?>
<!-- Generator: Adobe Illustrator 28.1.0, SVG Export Plug-In . SVG Version: 6.00 Build 0)  -->
<svg version="1.1" id="Layer_1" xmlns="http://www.w3.org/2000/svg" xmlns:xlink="http://www.w3.org/1999/xlink" x="0px" y="0px"
	 viewBox="0 0 116 32" style="enable-background:new 0 0 116 32;" xml:space="preserve">
<style type="text/css">
	.st0{clip-path:url(#SVGID_00000114786025353456041660000018022095475542529938_);}
	.st1{fill:#FF0075;}
	.st2{fill:#FFFFFF;}
</style>
<g>
	<g>
		<defs>
			<rect id="SVGID_1_" x="0.1" y="9.6" width="115.1" height="12.7"/>
		</defs>
		<clipPath id="SVGID_00000168118481482763811810000014963357923029228447_">
			<use xlink:href="#SVGID_1_"  style="overflow:visible;"/>
		</clipPath>
		<g style="clip-path:url(#SVGID_00000168118481482763811810000014963357923029228447_);">
			<path class="st1" d="M32.5,9.8v12.3l5.6-4.2v-4.1L32.5,9.8z"/>
			<path class="st1" d="M46.4,16l-8.3-6.2V14l2.7,2l-2.7,2v4.2L46.4,16z"/>
			<path class="st2" d="M70.6,9.9h4.1l1.4,4.2l1.4-4.2h2.6l1.4,4.2l1.4-4.2h4.1l-4,12.1h-3L79,18.4l-1.2,3.7h-3L70.6,9.9z"/>
			<path class="st2" d="M42.2,9.9h7.1v3.2h-3.3v1.3h3.2v3h-3.2V22h-3.9V9.9L42.2,9.9z"/>
			<path class="st2" d="M49.7,16c0-0.9,0.2-1.7,0.5-2.5c0.3-0.8,0.8-1.5,1.4-2c0.6-0.6,1.3-1,2-1.4c0.8-0.3,1.6-0.5,2.5-0.5
				c0.9,0,1.7,0.2,2.5,0.5c0.8,0.3,1.5,0.8,2,1.4c0.6,0.6,1,1.3,1.4,2c0.3,0.8,0.5,1.6,0.5,2.5c0,0.9-0.2,1.7-0.5,2.5
				c-0.3,0.8-0.8,1.5-1.4,2c-0.6,0.6-1.3,1-2,1.4c-0.8,0.3-1.6,0.5-2.5,0.5c-0.9,0-1.7-0.2-2.5-0.5c-0.8-0.3-1.5-0.8-2-1.4
				c-0.6-0.6-1-1.3-1.4-2C49.8,17.7,49.7,16.9,49.7,16z M53.5,16c0,0.4,0.1,0.7,0.2,1c0.2,0.3,0.3,0.6,0.6,0.8
				c0.3,0.3,0.5,0.4,0.8,0.6c0.3,0.2,0.6,0.2,1,0.2s0.7-0.1,1-0.2c0.3-0.2,0.6-0.3,0.8-0.6c0.3-0.3,0.4-0.5,0.6-0.8
				c0.2-0.3,0.2-0.6,0.2-1c0-0.4-0.1-0.7-0.2-1c-0.2-0.3-0.3-0.6-0.6-0.8c-0.3-0.3-0.5-0.4-0.8-0.6c-0.3-0.2-0.6-0.2-1-0.2
				c-0.4,0-0.7,0.1-1,0.2s-0.6,0.3-0.8,0.6c-0.3,0.3-0.4,0.5-0.6,0.8S53.5,15.6,53.5,16z"/>
			<path class="st2" d="M62.6,9.9h4.2c0.8,0,1.5,0.1,2.1,0.3c0.7,0.2,1.2,0.5,1.7,0.9c0.5,0.4,0.9,0.9,1.1,1.5
				c0.3,0.6,0.4,1.3,0.4,2c0,0.6-0.1,1.1-0.3,1.5c-0.2,0.4-0.4,0.8-0.6,1.1c-0.3,0.3-0.5,0.6-0.8,0.8l2.3,4h-4.5l-1.8-3.1v3.1h-3.9
				V9.9z M66.6,15.9h0.2c0.5,0,0.9-0.1,1.2-0.3c0.3-0.2,0.5-0.6,0.5-1s-0.2-0.8-0.5-1c-0.3-0.2-0.8-0.4-1.2-0.4h-0.2L66.6,15.9
				L66.6,15.9z"/>
			<path class="st2" d="M88,9.9h2.9l4.6,12.1h-3.8l-0.4-1.1h-3.7l-0.4,1.1h-3.8L88,9.9z M90.3,18.3l-0.8-2.1l-0.8,2.1H90.3z"/>
			<path class="st2" d="M94.4,9.9h4.2c0.8,0,1.5,0.1,2.1,0.3c0.7,0.2,1.2,0.5,1.7,0.9c0.5,0.4,0.9,0.9,1.1,1.5
				c0.3,0.6,0.4,1.3,0.4,2c0,0.6-0.1,1.1-0.3,1.5c-0.2,0.4-0.4,0.8-0.6,1.1c-0.3,0.3-0.5,0.6-0.8,0.8l2.3,4h-4.5l-1.8-3.1v3.1h-3.9
				L94.4,9.9L94.4,9.9z M98.3,15.9h0.2c0.5,0,0.9-0.1,1.2-0.3c0.3-0.2,0.5-0.6,0.5-1s-0.2-0.8-0.5-1c-0.3-0.2-0.7-0.3-1.2-0.3h-0.2
				V15.9z"/>
			<path class="st2" d="M104.6,22.1V9.9h3.4c1.1,0,2.1,0.2,3.1,0.4c0.9,0.3,1.6,0.6,2.2,1.2c0.6,0.5,1.1,1.1,1.4,1.9
				c0.3,0.8,0.5,1.6,0.5,2.6s-0.2,1.9-0.5,2.6c-0.3,0.8-0.8,1.4-1.4,1.9c-0.6,0.5-1.4,0.9-2.2,1.2c-0.9,0.3-1.9,0.4-3.1,0.4
				L104.6,22.1L104.6,22.1z M108.5,18.6c0.9,0,1.6-0.2,2.1-0.7c0.5-0.4,0.8-1.1,0.8-2s-0.3-1.5-0.8-2c-0.5-0.4-1.2-0.6-2.1-0.6V18.6
				z"/>
			<path class="st2" d="M0.1,9.9h7.1v3.2H3.9v1.3h3.2v3H3.9V22H0.1V9.9z"/>
			<path class="st2" d="M10.4,9.9h2.9l4.6,12.1h-3.8l-0.4-1.1H10l-0.4,1.1H5.8L10.4,9.9z M12.7,18.3l-0.8-2.1L11,18.3H12.7z"/>
			<path class="st2" d="M17,18.3c0.3,0.1,0.6,0.2,0.8,0.2c0.3,0.1,0.5,0.1,0.8,0.2c0.3,0.1,0.6,0.1,0.9,0.1c0.6,0,0.8-0.2,0.8-0.6
				c0-0.2-0.1-0.3-0.3-0.5c-0.2-0.2-0.4-0.4-0.7-0.6c-0.3-0.2-0.6-0.4-0.8-0.7c-0.3-0.3-0.6-0.5-0.8-0.8c-0.3-0.3-0.5-0.7-0.7-1.1
				c-0.2-0.4-0.3-0.9-0.3-1.4c0-0.6,0.1-1.1,0.3-1.5c0.2-0.5,0.5-0.8,0.9-1.1s0.8-0.5,1.3-0.7c0.5-0.1,1.1-0.2,1.6-0.2
				c0.3,0,0.6,0,0.9,0.1c0.3,0.1,0.6,0.1,0.8,0.1c0.3,0.1,0.5,0.1,0.8,0.1v3.4c-0.1,0-0.2,0-0.3-0.1c-0.1-0.1-0.2-0.1-0.3-0.1
				c-0.1,0-0.3,0-0.4,0c-0.1,0-0.2,0-0.3,0s-0.2,0-0.3,0.1c-0.1,0-0.2,0.1-0.3,0.2c-0.1,0-0.1,0.1-0.1,0.2c0,0.1,0.1,0.2,0.3,0.4
				c0.2,0.2,0.4,0.3,0.6,0.5c0.3,0.2,0.5,0.4,0.8,0.7c0.3,0.3,0.6,0.6,0.8,0.9c0.3,0.3,0.5,0.7,0.6,1.1c0.2,0.4,0.3,0.9,0.3,1.4
				c0,0.6-0.1,1-0.3,1.5c-0.2,0.5-0.5,0.9-0.8,1.2c-0.4,0.4-0.8,0.6-1.4,0.8c-0.6,0.2-1.2,0.3-2,0.3c-0.5,0-0.9,0-1.3-0.1
				c-0.4-0.1-0.8-0.1-1-0.2c-0.4-0.1-0.7-0.2-1-0.2L17,18.3L17,18.3z"/>
			<path class="st2" d="M26,13.1h-2.2V9.9h8.5v3.2H30v9h-4C26,22.1,26,13.1,26,13.1z"/>
		</g>
	</g>
</g>
</svg>
