<?xml version="1.0" encoding="utf-8"?>
<!-- Generator: Adobe Illustrator 28.1.0, SVG Export Plug-In . SVG Version: 6.00 Build 0)  -->
<svg version="1.1" id="Layer_1" xmlns="http://www.w3.org/2000/svg" xmlns:xlink="http://www.w3.org/1999/xlink" x="0px" y="0px"
	 viewBox="0 0 227 25" style="enable-background:new 0 0 227 25;" xml:space="preserve">
<style type="text/css">
	.st0{clip-path:url(#SVGID_00000042715270541603502880000010954378474786137783_);}
	.st1{fill:#FF0075;}
	.st2{fill:#FFFFFF;}
</style>
<g>
	<defs>
		<rect id="SVGID_1_" y="0" width="226.2" height="25"/>
	</defs>
	<clipPath id="SVGID_00000001659289105439812680000017945083008505496991_">
		<use xlink:href="#SVGID_1_"  style="overflow:visible;"/>
	</clipPath>
	<g style="clip-path:url(#SVGID_00000001659289105439812680000017945083008505496991_);">
		<path class="st1" d="M63.7,0.4v24.2l11-8.2v-8L63.7,0.4z"/>
		<path class="st1" d="M91,12.5L74.7,0.4v8.1l5.4,4l-5.4,4v8.2L91,12.5z"/>
		<path class="st2" d="M138.7,0.6h8.1l2.8,8.3l2.8-8.3h5.2l2.8,8.3l2.8-8.3h8.1l-7.9,23.8h-5.9l-2.4-7.2l-2.4,7.2h-5.9L138.7,0.6z"
			/>
		<path class="st2" d="M82.9,0.6h14v6.2h-6.4v2.6h6.3v5.9h-6.3v9h-7.6L82.9,0.6L82.9,0.6z"/>
		<path class="st2" d="M97.5,12.5c0-1.7,0.3-3.3,1-4.9c0.6-1.5,1.5-2.9,2.7-4c1.1-1.1,2.5-2,4-2.7c1.5-0.6,3.1-1,4.9-1
			s3.3,0.3,4.9,1c1.5,0.6,2.9,1.5,4,2.7c1.1,1.1,2,2.5,2.7,4c0.6,1.5,1,3.1,1,4.9s-0.3,3.3-1,4.9c-0.6,1.5-1.5,2.9-2.7,4
			c-1.1,1.1-2.5,2-4,2.7c-1.5,0.6-3.1,1-4.9,1s-3.3-0.3-4.9-1c-1.5-0.6-2.9-1.5-4-2.7c-1.1-1.1-2-2.5-2.7-4
			C97.8,15.8,97.5,14.2,97.5,12.5z M105,12.5c0,0.7,0.1,1.3,0.4,1.9c0.3,0.6,0.6,1.1,1.1,1.6c0.5,0.5,1,0.8,1.6,1.1
			c0.6,0.3,1.2,0.4,1.9,0.4c0.7,0,1.3-0.1,1.9-0.4c0.6-0.3,1.1-0.6,1.6-1.1c0.5-0.5,0.8-1,1.1-1.6c0.3-0.6,0.4-1.2,0.4-1.9
			s-0.1-1.3-0.4-1.9c-0.3-0.6-0.6-1.1-1.1-1.6c-0.5-0.5-1-0.8-1.6-1.1c-0.6-0.3-1.2-0.4-1.9-0.4c-0.7,0-1.3,0.1-1.9,0.4
			c-0.6,0.3-1.1,0.6-1.6,1.1c-0.5,0.5-0.8,1-1.1,1.6C105.1,11.2,105,11.8,105,12.5z"/>
		<path class="st2" d="M123,0.6h8.2c1.5,0,2.9,0.2,4.2,0.6c1.3,0.4,2.4,1,3.4,1.8c0.9,0.8,1.7,1.8,2.2,2.9c0.5,1.2,0.8,2.5,0.8,4
			c0,1.2-0.2,2.2-0.5,3c-0.3,0.8-0.7,1.5-1.1,2.1c-0.5,0.6-1,1.1-1.6,1.6l4.5,7.9h-8.9l-3.6-6v6H123V0.6z M130.7,12.3h0.4
			c0.9,0,1.7-0.2,2.3-0.6c0.6-0.4,0.9-1.1,0.9-2c0-0.9-0.3-1.6-0.9-2S131.9,7,131,7h-0.4V12.3z"/>
		<path class="st2" d="M172.9,0.6h5.7l9,23.8h-7.5l-0.8-2.2h-7.2l-0.8,2.2h-7.5L172.9,0.6z M177.3,17l-1.6-4.2l-1.6,4.2H177.3z"/>
		<path class="st2" d="M185.5,0.6h8.2c1.5,0,2.9,0.2,4.2,0.6c1.3,0.4,2.4,1,3.4,1.8c0.9,0.8,1.7,1.8,2.2,2.9c0.5,1.2,0.8,2.5,0.8,4
			c0,1.2-0.2,2.2-0.5,3c-0.3,0.8-0.7,1.5-1.1,2.1c-0.5,0.6-1,1.1-1.6,1.6l4.5,7.9h-8.9l-3.6-6v6h-7.6V0.6z M193.1,12.3h0.4
			c0.9,0,1.7-0.2,2.3-0.6c0.6-0.4,0.9-1.1,0.9-2c0-0.9-0.3-1.6-0.9-2c-0.6-0.4-1.4-0.6-2.3-0.6h-0.4V12.3z"/>
		<path class="st2" d="M205.4,24.4V0.6h6.6c2.2,0,4.2,0.3,6,0.8c1.7,0.5,3.2,1.2,4.4,2.3c1.2,1,2.1,2.2,2.8,3.7
			c0.6,1.5,0.9,3.2,0.9,5.2s-0.3,3.7-0.9,5.2c-0.6,1.5-1.5,2.7-2.8,3.7c-1.2,1-2.7,1.8-4.4,2.3c-1.7,0.5-3.7,0.8-6,0.8L205.4,24.4
			L205.4,24.4z M213.1,17.6c1.8,0,3.2-0.4,4.2-1.3c1-0.8,1.5-2.1,1.5-3.9s-0.5-3-1.5-3.9c-1-0.8-2.4-1.2-4.2-1.2V17.6z"/>
		<path class="st2" d="M0,0.6h14v6.2H7.6v2.6h6.3v5.9H7.6v9H0V0.6z"/>
		<path class="st2" d="M20.3,0.6H26l9,23.8h-7.5l-0.8-2.2h-7.2l-0.8,2.2h-7.5L20.3,0.6z M24.8,17l-1.6-4.2L21.6,17H24.8z"/>
		<path class="st2" d="M33.3,17c0.5,0.2,1.1,0.3,1.6,0.4c0.5,0.1,1,0.2,1.6,0.3c0.6,0.1,1.2,0.1,1.8,0.1c1.1,0,1.6-0.4,1.6-1.2
			c0-0.3-0.2-0.6-0.5-0.9c-0.3-0.3-0.8-0.7-1.3-1.1c-0.5-0.4-1.1-0.8-1.6-1.3c-0.6-0.5-1.1-1-1.6-1.6c-0.5-0.6-0.9-1.3-1.3-2.1
			c-0.3-0.8-0.5-1.7-0.5-2.7c0-1.1,0.2-2.1,0.6-3c0.4-0.9,1-1.6,1.7-2.2c0.7-0.6,1.5-1,2.5-1.3C38.9,0.2,40,0,41.1,0
			c0.6,0,1.1,0,1.7,0.1c0.6,0.1,1.1,0.1,1.5,0.2c0.5,0.1,1,0.2,1.5,0.2v6.7c-0.2,0-0.4,0-0.6-0.1C45,7,44.8,7,44.6,7
			c-0.2,0-0.5,0-0.8,0c-0.2,0-0.3,0-0.5,0c-0.2,0-0.4,0-0.6,0.1c-0.2,0-0.4,0.1-0.5,0.3C42,7.4,42,7.6,42,7.8c0,0.2,0.2,0.4,0.5,0.7
			c0.3,0.3,0.7,0.6,1.2,1c0.5,0.4,1,0.8,1.5,1.3c0.6,0.5,1.1,1.1,1.5,1.7c0.5,0.6,0.9,1.4,1.2,2.2c0.3,0.8,0.5,1.7,0.5,2.7
			c0,1.1-0.2,2-0.5,2.9c-0.3,0.9-0.9,1.7-1.5,2.4c-0.7,0.7-1.6,1.2-2.7,1.6c-1.1,0.4-2.4,0.6-3.9,0.6c-0.9,0-1.7,0-2.5-0.1
			c-0.8-0.1-1.5-0.2-2-0.3c-0.7-0.1-1.3-0.3-1.9-0.4L33.3,17L33.3,17z"/>
		<path class="st2" d="M50.9,6.8h-4.4V0.6h16.7v6.2h-4.4v17.6h-7.9V6.8z"/>
	</g>
</g>
</svg>
