<svg enable-background="new 0 0 116 32" viewBox="0 0 116 32" xmlns="http://www.w3.org/2000/svg" xmlns:xlink="http://www.w3.org/1999/xlink"><clipPath id="a"><path d="m.1 9.6h115.1v12.7h-115.1z"/></clipPath><g clip-path="url(#a)"><path d="m32.5 9.8v12.3l5.6-4.2v-4.1z" fill="#ff0075"/><path d="m46.4 16-8.3-6.2v4.2l2.7 2-2.7 2v4.2z" fill="#ff0075"/><g fill="#fff"><path d="m70.6 9.9h4.1l1.4 4.2 1.4-4.2h2.6l1.4 4.2 1.4-4.2h4.1l-4 12.1h-3l-1-3.6-1.2 3.7h-3z"/><path d="m42.2 9.9h7.1v3.2h-3.3v1.3h3.2v3h-3.2v4.6h-3.9v-12.1z"/><path d="m49.7 16c0-.9.2-1.7.5-2.5s.8-1.5 1.4-2c.6-.6 1.3-1 2-1.4.8-.3 1.6-.5 2.5-.5s1.7.2 2.5.5 1.5.8 2 1.4c.6.6 1 1.3 1.4 2 .3.8.5 1.6.5 2.5s-.2 1.7-.5 2.5-.8 1.5-1.4 2c-.6.6-1.3 1-2 1.4-.8.3-1.6.5-2.5.5s-1.7-.2-2.5-.5-1.5-.8-2-1.4c-.6-.6-1-1.3-1.4-2-.4-.8-.5-1.6-.5-2.5zm3.8 0c0 .4.1.7.2 1 .2.3.3.6.6.8.3.3.5.4.8.6s.6.2 1 .2.7-.1 1-.2c.3-.2.6-.3.8-.6.3-.3.4-.5.6-.8s.2-.6.2-1-.1-.7-.2-1c-.2-.3-.3-.6-.6-.8-.3-.3-.5-.4-.8-.6s-.6-.2-1-.2-.7.1-1 .2-.6.3-.8.6c-.3.3-.4.5-.6.8s-.2.6-.2 1z"/><path d="m62.6 9.9h4.2c.8 0 1.5.1 2.1.3.7.2 1.2.5 1.7.9s.9.9 1.1 1.5c.3.6.4 1.3.4 2 0 .6-.1 1.1-.3 1.5s-.4.8-.6 1.1c-.3.3-.5.6-.8.8l2.3 4h-4.5l-1.8-3.1v3.1h-3.9v-12.1zm4 6h.2c.5 0 .9-.1 1.2-.3s.5-.6.5-1-.2-.8-.5-1-.8-.4-1.2-.4h-.2z"/><path d="m88 9.9h2.9l4.6 12.1h-3.8l-.4-1.1h-3.7l-.4 1.1h-3.8zm2.3 8.4-.8-2.1-.8 2.1z"/><path d="m94.4 9.9h4.2c.8 0 1.5.1 2.1.3.7.2 1.2.5 1.7.9s.9.9 1.1 1.5c.3.6.4 1.3.4 2 0 .6-.1 1.1-.3 1.5s-.4.8-.6 1.1c-.3.3-.5.6-.8.8l2.3 4h-4.5l-1.8-3.1v3.1h-3.9zm3.9 6h.2c.5 0 .9-.1 1.2-.3s.5-.6.5-1-.2-.8-.5-1-.7-.3-1.2-.3h-.2z"/><path d="m104.6 22.1v-12.2h3.4c1.1 0 2.1.2 3.1.4.9.3 1.6.6 2.2 1.2.6.5 1.1 1.1 1.4 1.9s.5 1.6.5 2.6-.2 1.9-.5 2.6c-.3.8-.8 1.4-1.4 1.9s-1.4.9-2.2 1.2c-.9.3-1.9.4-3.1.4zm3.9-3.5c.9 0 1.6-.2 2.1-.7.5-.4.8-1.1.8-2s-.3-1.5-.8-2c-.5-.4-1.2-.6-2.1-.6z"/><path d="m.1 9.9h7.1v3.2h-3.3v1.3h3.2v3h-3.2v4.6h-3.8z"/><path d="m10.4 9.9h2.9l4.6 12.1h-3.8l-.4-1.1h-3.7l-.4 1.1h-3.8zm2.3 8.4-.8-2.1-.9 2.1z"/><path d="m17 18.3c.3.1.6.2.8.2.3.1.5.1.8.2s.6.1.9.1c.6 0 .8-.2.8-.6 0-.2-.1-.3-.3-.5s-.4-.4-.7-.6-.6-.4-.8-.7c-.3-.3-.6-.5-.8-.8-.3-.3-.5-.7-.7-1.1s-.3-.9-.3-1.4c0-.6.1-1.1.3-1.5.2-.5.5-.8.9-1.1s.8-.5 1.3-.7c.5-.1 1.1-.2 1.6-.2.3 0 .6 0 .9.1s.6.1.8.1c.3.1.5.1.8.1v3.4c-.1 0-.2 0-.3-.1s-.2-.1-.3-.1-.3 0-.4 0-.2 0-.3 0-.2 0-.3.1c-.1 0-.2.1-.3.2-.1 0-.1.1-.1.2s.1.2.3.4.4.3.6.5c.3.2.5.4.8.7s.6.6.8.9c.3.3.5.7.6 1.1.2.4.3.9.3 1.4 0 .6-.1 1-.3 1.5s-.5.9-.8 1.2c-.4.4-.8.6-1.4.8s-1.2.3-2 .3c-.5 0-.9 0-1.3-.1s-.8-.1-1-.2c-.4-.1-.7-.2-1-.2z"/><path d="m26 13.1h-2.2v-3.2h8.5v3.2h-2.3v9h-4z"/></g></g></svg>