<svg viewBox="0 0 53 23" xmlns="http://www.w3.org/2000/svg" fill-rule="evenodd" clip-rule="evenodd" stroke-linejoin="round" stroke-miterlimit="2"><path d="M.006.152V7.43h8.485V.152H.006z" fill="#ed1b2d" fill-rule="nonzero"/><path fill="#fff" d="M1.038 1.065h1.015v5.55H1.038z"/><path d="M3.994 3.21v3.405H2.98V.95l3.547 3.521V1.065h1.015V6.73L3.994 3.21zm6.573-1.784h2.34c.57 0 .879.381.879.81 0 .44-.308.82-.879.82h-2.34v-1.63zM9.244 7.428h4.063c1.255 0 2.19-.81 2.19-2.105 0-.937-.536-1.538-1.266-1.78.536-.244.867-.776.867-1.447 0-1.295-.959-1.943-2.054-1.943h-3.8v7.275zm1.323-3.1h2.591c.594 0 1.027.406 1.027.926 0 .509-.433.902-1.027.902h-2.59V4.33zM15.88 1.82h1.175v3.145c0 .82.593 1.41 1.323 1.41.742 0 1.335-.59 1.335-1.41V1.819h1.176v3.25c0 1.573-1.198 2.51-2.511 2.51-1.3 0-2.499-.937-2.499-2.51v-3.25zm10.678 2.185c.058.197.092.37.092.844 0 1.365-.982 2.73-2.819 2.73-1.016 0-1.917-.474-2.419-1.006l.913-.799c.262.278.81.671 1.563.671.753 0 1.45-.428 1.518-1.365h-4.074c-.035-.173-.068-.312-.068-.59 0-1.492 1.06-2.822 2.796-2.822 1.13 0 1.825.544 2.202.972l-.833.786c-.297-.312-.662-.694-1.393-.694-.981 0-1.437.556-1.528 1.273h4.05zm.617-2.186h1.176v5.609h-1.176V1.819zm.582-1.816c.365 0 .662.3.662.67 0 .37-.297.671-.662.671-.365 0-.65-.3-.65-.67 0-.37.285-.671.65-.671m1.327 1.817h1.175v.704h.023c.331-.52.924-.855 1.678-.855 1.152 0 2.133.982 2.133 2.37v3.39h-1.176V4.304c0-1.017-.524-1.434-1.311-1.434-.753 0-1.347.498-1.347 1.411v3.146h-1.175V1.82zm7.034 2.22c.194-.833.81-1.307 1.552-1.307.753 0 1.38.45 1.62 1.307h-3.172zm3.264 1.607c-.4.555-.948.867-1.587.867-.822 0-1.608-.613-1.677-1.468h4.564v-.22c0-2.198-1.7-3.157-2.853-3.157-1.917 0-3.023 1.468-3.023 2.96 0 1.48 1.106 2.961 3.023 2.95.993 0 1.895-.521 2.556-1.365l-1.003-.567zm7.021-1.642c.058.197.092.37.092.844 0 1.365-.981 2.73-2.818 2.73-1.016 0-1.918-.474-2.42-1.006l.913-.799c.263.278.81.671 1.564.671.753 0 1.449-.428 1.517-1.365h-4.073c-.035-.173-.07-.312-.07-.59 0-1.492 1.062-2.822 2.797-2.822 1.13 0 1.826.544 2.202.972l-.833.786c-.296-.312-.662-.694-1.392-.694-.981 0-1.438.556-1.53 1.273h4.051zm5.617 0c.058.197.092.37.092.844 0 1.365-.981 2.73-2.818 2.73-1.016 0-1.917-.474-2.42-1.006l.913-.799c.263.278.81.671 1.564.671.753 0 1.449-.428 1.517-1.365h-4.073c-.035-.173-.07-.312-.07-.59 0-1.492 1.062-2.822 2.797-2.822 1.13 0 1.826.544 2.202.972l-.833.786c-.297-.312-.662-.694-1.392-.694-.981 0-1.438.556-1.529 1.273h4.05z" fill="#fff" fill-rule="nonzero"/><path d="M.006 15.944v6.077h52.106V7.972H.006v6.13" fill="#ed1b2d" fill-rule="nonzero"/><path d="M12.896 13.578c0-1.46-.236-2.469-.709-3.025-.514-.612-1.481-.918-2.9-.918-1.265 0-2.204.362-2.816 1.085v-.96H2.778v10.744h3.818v-5.988c0-.667.042-1.091.125-1.272.14-.348.487-.522 1.043-.522.585 0 .96.119 1.127.355.125.195.188.605.188 1.23v6.197h3.817v-6.926zm10.995.48c0-1.628-.338-2.775-1.012-3.443-.675-.667-1.826-1.001-3.453-1.001h-1.44c-1.626 0-2.777.333-3.452 1-.675.666-1.012 1.811-1.012 3.435v2.124c0 1.624.337 2.77 1.012 3.436.675.666 1.826 1 3.453 1h1.44c1.432 0 2.503-.25 3.212-.748.82-.58 1.23-1.555 1.23-2.925h-3.787c-.042.396-.143.672-.304.829-.16.157-.443.235-.847.235h-.44c-.418 0-.715-.075-.89-.227-.174-.151-.26-.426-.26-.826v-1.054h6.55v-1.836zm-6.55-.293v-.27c0-.515.072-.877.22-1.086.147-.208.466-.313.956-.313h.441c.505 0 .841.133 1.01.397.112.18.168.55.168 1.106v.166H17.34zm18.608-3.984l-.751 6.487-1.252-6.487h-4.423l-1.251 6.509-.772-6.51h-3.86l1.815 10.724h5.13l1.152-6.21 1.176 6.21h5.041L39.788 9.78h-3.839zm14.06 6.676c0-1.586-1.16-2.49-3.483-2.712l-2.42-.227c-.543 0-.814-.22-.814-.66 0-.507.359-.762 1.076-.762h.435c.717 0 1.076.279 1.076.835h3.818v-.417c0-1.933-1.287-2.9-3.86-2.9H43.73c-2.81 0-4.214.992-4.214 2.976v.812c0 .86.334 1.547 1.002 2.06.584.458 1.328.728 2.232.811l2.19.208c.445.042.73.09.856.146.264.111.396.34.396.687 0 .36-.111.597-.334.708-.153.07-.438.104-.855.104h-.46c-.416 0-.712-.066-.886-.199-.174-.132-.288-.4-.344-.803h-3.922v.334c0 2.1 1.432 3.15 4.298 3.15h2.274c1.168 0 2.107-.25 2.816-.75.82-.57 1.23-1.412 1.23-2.525v-.876z" fill="#fff" fill-rule="nonzero"/></svg>