<?xml version="1.0" encoding="utf-8"?>
<!-- Generator: Adobe Illustrator 28.1.0, SVG Export Plug-In . SVG Version: 6.00 Build 0)  -->
<svg version="1.1" id="Layer_1" xmlns="http://www.w3.org/2000/svg" xmlns:xlink="http://www.w3.org/1999/xlink" x="0px" y="0px"
	 viewBox="0 0 116 32" style="enable-background:new 0 0 116 32;" xml:space="preserve">
<style type="text/css">
	.st0{fill:#ED1B2D;}
	.st1{fill-rule:evenodd;clip-rule:evenodd;fill:#FFFFFF;}
	.st2{fill:#FFFFFF;}
</style>
<path class="st0" d="M19.6,0.2v10.5h12.3V0.2H19.6z"/>
<path class="st1" d="M21.1,1.5h1.5v8h-1.5V1.5z"/>
<path class="st2" d="M25.4,4.6v4.9h-1.5V1.3L29,6.4V1.5h1.5v8.2L25.4,4.6z M34.8,2h3.4c0.8,0,1.3,0.6,1.3,1.2c0,0.6-0.4,1.2-1.3,1.2
	h-3.4V2z M32.9,10.7h5.9c1.8,0,3.2-1.2,3.2-3c0-1.4-0.8-2.2-1.8-2.6c0.8-0.4,1.3-1.1,1.3-2.1c0-1.9-1.4-2.8-3-2.8h-5.5
	C32.9,0.2,32.9,10.7,32.9,10.7z M34.8,6.2h3.7c0.9,0,1.5,0.6,1.5,1.3c0,0.7-0.6,1.3-1.5,1.3h-3.7L34.8,6.2L34.8,6.2z M42.5,2.6h1.7
	v4.5c0,1.2,0.9,2,1.9,2c1.1,0,1.9-0.9,1.9-2V2.6h1.7v4.7c0,2.3-1.7,3.6-3.6,3.6c-1.9,0-3.6-1.4-3.6-3.6L42.5,2.6L42.5,2.6z
	 M57.9,5.7C58,6,58.1,6.3,58.1,6.9c0,2-1.4,3.9-4.1,3.9c-1.5,0-2.8-0.7-3.5-1.5l1.3-1.2c0.4,0.4,1.2,1,2.3,1c1.1,0,2.1-0.6,2.2-2
	h-5.9c-0.1-0.2-0.1-0.5-0.1-0.9c0-2.2,1.5-4.1,4-4.1c1.6,0,2.6,0.8,3.2,1.4l-1.2,1.1c-0.4-0.5-1-1-2-1c-1.4,0-2.1,0.8-2.2,1.8
	C52.1,5.7,57.9,5.7,57.9,5.7z M58.8,2.6h1.7v8.1h-1.7V2.6z M59.7-0.1c0.5,0,1,0.4,1,1s-0.4,1-1,1s-0.9-0.4-0.9-1S59.1-0.1,59.7-0.1
	 M61.6,2.6h1.7v1h0c0.5-0.8,1.3-1.2,2.4-1.2c1.7,0,3.1,1.4,3.1,3.4v4.9h-1.7V6.2c0-1.5-0.8-2.1-1.9-2.1c-1.1,0-1.9,0.7-1.9,2v4.5
	h-1.7C61.6,10.7,61.6,2.6,61.6,2.6z M71.8,5.8C72,4.6,72.9,3.9,74,3.9c1.1,0,2,0.6,2.3,1.9C76.3,5.8,71.8,5.8,71.8,5.8z M76.5,8.1
	c-0.6,0.8-1.4,1.3-2.3,1.3c-1.2,0-2.3-0.9-2.4-2.1h6.6V6.9c0-3.2-2.5-4.6-4.1-4.6c-2.8,0-4.4,2.1-4.4,4.3c0,2.1,1.6,4.3,4.4,4.3
	c1.4,0,2.7-0.8,3.7-2C77.9,8.9,76.5,8.1,76.5,8.1z M86.6,5.7c0.1,0.3,0.1,0.5,0.1,1.2c0,2-1.4,3.9-4.1,3.9c-1.5,0-2.8-0.7-3.5-1.5
	l1.3-1.2c0.4,0.4,1.2,1,2.3,1c1.1,0,2.1-0.6,2.2-2h-5.9C79,7,79,6.8,79,6.4c0-2.2,1.5-4.1,4-4.1c1.6,0,2.6,0.8,3.2,1.4L85,4.9
	c-0.4-0.5-1-1-2-1c-1.4,0-2.1,0.8-2.2,1.8C80.8,5.7,86.6,5.7,86.6,5.7z M94.7,5.7c0.1,0.3,0.1,0.5,0.1,1.2c0,2-1.4,3.9-4.1,3.9
	c-1.5,0-2.8-0.7-3.5-1.5l1.3-1.2c0.4,0.4,1.2,1,2.3,1c1.1,0,2.1-0.6,2.2-2h-5.9c-0.1-0.2-0.1-0.5-0.1-0.9c0-2.2,1.5-4.1,4-4.1
	c1.6,0,2.6,0.8,3.2,1.4l-1.2,1.1c-0.4-0.5-1-1-2-1c-1.4,0-2.1,0.8-2.2,1.8H94.7z"/>
<path class="st0" d="M19.6,23v8.8h75.3V11.5H19.6v8.9"/>
<path class="st2" d="M38.2,19.6c0-2.1-0.3-3.6-1-4.4c-0.7-0.9-2.1-1.3-4.2-1.3c-1.8,0-3.2,0.5-4.1,1.6V14h-5.3v15.5h5.5v-8.6
	c0-1,0.1-1.6,0.2-1.8c0.2-0.5,0.7-0.8,1.5-0.8c0.8,0,1.4,0.2,1.6,0.5c0.2,0.3,0.3,0.9,0.3,1.8v9h5.5C38.2,29.6,38.2,19.6,38.2,19.6z
	 M54.1,20.2c0-2.4-0.5-4-1.5-5c-1-1-2.6-1.4-5-1.4h-2.1c-2.3,0-4,0.5-5,1.4c-1,1-1.5,2.6-1.5,5v3.1c0,2.3,0.5,4,1.5,5s2.6,1.4,5,1.4
	h2.1c2.1,0,3.6-0.4,4.6-1.1c1.2-0.8,1.8-2.2,1.8-4.2h-5.5c-0.1,0.6-0.2,1-0.4,1.2c-0.2,0.2-0.6,0.3-1.2,0.3h-0.6
	c-0.6,0-1-0.1-1.3-0.3c-0.3-0.2-0.4-0.6-0.4-1.2v-1.5h9.5V20.2L54.1,20.2z M44.6,19.8v-0.4c0-0.7,0.1-1.3,0.3-1.6
	c0.2-0.3,0.7-0.5,1.4-0.5H47c0.7,0,1.2,0.2,1.5,0.6c0.2,0.3,0.2,0.8,0.2,1.6v0.2H44.6L44.6,19.8z M71.5,14.1l-1.1,9.4l-1.8-9.4h-6.4
	l-1.8,9.4l-1.1-9.4h-5.6l2.6,15.5h7.4l1.7-9l1.7,9h7.3l2.6-15.5L71.5,14.1L71.5,14.1z M91.8,23.7c0-2.3-1.7-3.6-5-3.9l-3.5-0.3
	c-0.8,0-1.2-0.3-1.2-1c0-0.7,0.5-1.1,1.6-1.1h0.6c1,0,1.6,0.4,1.6,1.2h5.5V18c0-2.8-1.9-4.2-5.6-4.2h-3c-4.1,0-6.1,1.4-6.1,4.3v1.2
	c0,1.2,0.5,2.2,1.4,3c0.8,0.7,1.9,1.1,3.2,1.2l3.2,0.3c0.6,0.1,1.1,0.1,1.2,0.2c0.4,0.2,0.6,0.5,0.6,1c0,0.5-0.2,0.9-0.5,1
	c-0.2,0.1-0.6,0.2-1.2,0.2h-0.7c-0.6,0-1-0.1-1.3-0.3c-0.3-0.2-0.4-0.6-0.5-1.2h-5.7v0.5c0,3,2.1,4.5,6.2,4.5H86
	c1.7,0,3-0.4,4.1-1.1c1.2-0.8,1.8-2,1.8-3.6C91.8,25,91.8,23.7,91.8,23.7z"/>
</svg>
