<svg enable-background="new 0 0 116 32" viewBox="0 0 116 32" xmlns="http://www.w3.org/2000/svg"><path d="m19.6.2v10.5h12.3v-10.5z" fill="#ed1b2d"/><path clip-rule="evenodd" d="m21.1 1.5h1.5v8h-1.5z" fill="#fff" fill-rule="evenodd"/><path d="m25.4 4.6v4.9h-1.5v-8.2l5.1 5.1v-4.9h1.5v8.2zm9.4-2.6h3.4c.8 0 1.3.6 1.3 1.2s-.4 1.2-1.3 1.2h-3.4zm-1.9 8.7h5.9c1.8 0 3.2-1.2 3.2-3 0-1.4-.8-2.2-1.8-2.6.8-.4 1.3-1.1 1.3-2.1 0-1.9-1.4-2.8-3-2.8h-5.5c-.1 0-.1 10.5-.1 10.5zm1.9-4.5h3.7c.9 0 1.5.6 1.5 1.3s-.6 1.3-1.5 1.3h-3.7zm7.7-3.6h1.7v4.5c0 1.2.9 2 1.9 2 1.1 0 1.9-.9 1.9-2v-4.5h1.7v4.7c0 2.3-1.7 3.6-3.6 3.6s-3.6-1.4-3.6-3.6zm15.4 3.1c.1.3.2.6.2 1.2 0 2-1.4 3.9-4.1 3.9-1.5 0-2.8-.7-3.5-1.5l1.3-1.2c.4.4 1.2 1 2.3 1s2.1-.6 2.2-2h-5.9c-.1-.2-.1-.5-.1-.9 0-2.2 1.5-4.1 4-4.1 1.6 0 2.6.8 3.2 1.4l-1.2 1.1c-.4-.5-1-1-2-1-1.4 0-2.1.8-2.2 1.8 0 .3 5.8.3 5.8.3zm.9-3.1h1.7v8.1h-1.7zm.9-2.7c.5 0 1 .4 1 1s-.4 1-1 1-.9-.4-.9-1 .3-1 .9-1m1.9 2.7h1.7v1c.5-.8 1.3-1.2 2.4-1.2 1.7 0 3.1 1.4 3.1 3.4v4.9h-1.7v-4.5c0-1.5-.8-2.1-1.9-2.1s-1.9.7-1.9 2v4.5h-1.7zm10.2 3.2c.2-1.2 1.1-1.9 2.2-1.9s2 .6 2.3 1.9zm4.7 2.3c-.6.8-1.4 1.3-2.3 1.3-1.2 0-2.3-.9-2.4-2.1h6.6v-.4c0-3.2-2.5-4.6-4.1-4.6-2.8 0-4.4 2.1-4.4 4.3 0 2.1 1.6 4.3 4.4 4.3 1.4 0 2.7-.8 3.7-2-.1 0-1.5-.8-1.5-.8zm10.1-2.4c.1.3.1.5.1 1.2 0 2-1.4 3.9-4.1 3.9-1.5 0-2.8-.7-3.5-1.5l1.3-1.2c.4.4 1.2 1 2.3 1s2.1-.6 2.2-2h-5.9c0-.1 0-.3 0-.7 0-2.2 1.5-4.1 4-4.1 1.6 0 2.6.8 3.2 1.4l-1.2 1.2c-.4-.5-1-1-2-1-1.4 0-2.1.8-2.2 1.8zm8.1 0c.1.3.1.5.1 1.2 0 2-1.4 3.9-4.1 3.9-1.5 0-2.8-.7-3.5-1.5l1.3-1.2c.4.4 1.2 1 2.3 1s2.1-.6 2.2-2h-5.9c-.1-.2-.1-.5-.1-.9 0-2.2 1.5-4.1 4-4.1 1.6 0 2.6.8 3.2 1.4l-1.2 1.1c-.4-.5-1-1-2-1-1.4 0-2.1.8-2.2 1.8h5.9z" fill="#fff"/><path d="m19.6 23v8.8h75.3v-20.3h-75.3v8.9" fill="#ed1b2d"/><path d="m38.2 19.6c0-2.1-.3-3.6-1-4.4-.7-.9-2.1-1.3-4.2-1.3-1.8 0-3.2.5-4.1 1.6v-1.5h-5.3v15.5h5.5v-8.6c0-1 .1-1.6.2-1.8.2-.5.7-.8 1.5-.8s1.4.2 1.6.5.3.9.3 1.8v9h5.5zm15.9.6c0-2.4-.5-4-1.5-5s-2.6-1.4-5-1.4h-2.1c-2.3 0-4 .5-5 1.4-1 1-1.5 2.6-1.5 5v3.1c0 2.3.5 4 1.5 5s2.6 1.4 5 1.4h2.1c2.1 0 3.6-.4 4.6-1.1 1.2-.8 1.8-2.2 1.8-4.2h-5.5c-.1.6-.2 1-.4 1.2s-.6.3-1.2.3h-.6c-.6 0-1-.1-1.3-.3s-.4-.6-.4-1.2v-1.5h9.5zm-9.5-.4v-.4c0-.7.1-1.3.3-1.6s.7-.5 1.4-.5h.7c.7 0 1.2.2 1.5.6.2.3.2.8.2 1.6v.2h-4.1zm26.9-5.7-1.1 9.4-1.8-9.4h-6.4l-1.8 9.4-1.1-9.4h-5.6l2.6 15.5h7.4l1.7-9 1.7 9h7.3l2.6-15.5zm20.3 9.6c0-2.3-1.7-3.6-5-3.9l-3.5-.3c-.8 0-1.2-.3-1.2-1s.5-1.1 1.6-1.1h.6c1 0 1.6.4 1.6 1.2h5.5v-.6c0-2.8-1.9-4.2-5.6-4.2h-3c-4.1 0-6.1 1.4-6.1 4.3v1.2c0 1.2.5 2.2 1.4 3 .8.7 1.9 1.1 3.2 1.2l3.2.3c.6.1 1.1.1 1.2.2.4.2.6.5.6 1s-.2.9-.5 1c-.2.1-.6.2-1.2.2h-.7c-.6 0-1-.1-1.3-.3s-.4-.6-.5-1.2h-5.7v.5c0 3 2.1 4.5 6.2 4.5h3.4c1.7 0 3-.4 4.1-1.1 1.2-.8 1.8-2 1.8-3.6-.1 0-.1-1.3-.1-1.3z" fill="#fff"/></svg>