<?xml version="1.0" encoding="utf-8"?>
<!-- Generator: Adobe Illustrator 28.1.0, SVG Export Plug-In . SVG Version: 6.00 Build 0)  -->
<svg version="1.1" id="Layer_1" xmlns="http://www.w3.org/2000/svg" xmlns:xlink="http://www.w3.org/1999/xlink" x="0px" y="0px"
	 viewBox="0 0 116 32" style="enable-background:new 0 0 116 32;" xml:space="preserve">
<style type="text/css">
	.st0{fill:#24A8DE;}
	.st1{fill:#FFFFFF;}
	.st2{fill-rule:evenodd;clip-rule:evenodd;fill:#FFFFFF;}
	.st3{fill:none;stroke:#FFFFFF;stroke-width:0.1199;stroke-miterlimit:22.926;}
	.st4{fill-rule:evenodd;clip-rule:evenodd;}
</style>
<rect x="105.8" y="0.1" class="st0" width="10.2" height="17.1"/>
<polygon class="st1" points="105.8,16.5 0.6,16.5 0.2,16.5 0.2,16.1 0.2,1.2 0.2,0.7 0.6,0.7 105.8,0.7 105.8,1.6 1,1.6 1,15.6 
	105.8,15.6 "/>
<rect x="0.6" y="1.2" width="114.1" height="14.9"/>
<path class="st1" d="M5,4.9h4.2c0.3,0,0.6,0,0.9,0.1c0.3,0.1,0.5,0.2,0.8,0.4c0.3,0.2,0.5,0.5,0.6,0.7c0.1,0.3,0.2,0.6,0.2,1
	c0,0.4-0.1,0.7-0.2,1c-0.1,0.3-0.3,0.6-0.6,0.8c-0.2,0.2-0.5,0.3-0.8,0.4c-0.3,0.1-0.6,0.1-1,0.1H6.4V12v0.4H6H5H4.6V12V5.2V4.8
	L5,4.9L5,4.9z M9.2,6.6H6.4v1.2h2.8c0.3,0,0.4,0,0.5-0.1c0.1-0.1,0.1-0.3,0.1-0.5c0-0.1,0-0.2,0-0.2c0-0.1-0.1-0.1-0.1-0.1l0,0
	c-0.1,0-0.1-0.1-0.2-0.1C9.4,6.6,9.3,6.6,9.2,6.6z M13.3,4.9h4.3c0.4,0,0.7,0,1,0.1c0.3,0.1,0.6,0.2,0.8,0.4l0,0
	c0.3,0.2,0.5,0.5,0.7,0.8c0.1,0.3,0.2,0.6,0.2,1c0,0.4-0.1,0.7-0.2,1c-0.1,0.3-0.3,0.6-0.5,0.8c-0.2,0.2-0.4,0.3-0.6,0.4
	c0,0-0.1,0-0.1,0.1l1.3,2.4l0.3,0.5h-0.6h-1.2h-0.2l-0.1-0.2l-1.4-2.6h-2.1V12v0.4h-0.4h-1.1h-0.4V12V5.2V4.9L13.3,4.9L13.3,4.9z
	 M17.6,6.6h-2.9v1.2h2.9c0.3,0,0.5-0.1,0.7-0.2c0.1-0.1,0.2-0.3,0.2-0.5c0-0.2-0.1-0.3-0.2-0.4C18.1,6.6,17.9,6.6,17.6,6.6z
	 M26,12.5c-1.1,0-2-0.4-2.8-1.1c-0.4-0.4-0.7-0.8-0.9-1.3c-0.2-0.5-0.3-1-0.3-1.6s0.1-1.1,0.3-1.6c0.2-0.5,0.5-0.9,0.9-1.3
	C23.6,5.4,24,5.2,24.5,5c0.5-0.2,1-0.3,1.5-0.3c1.1,0,2,0.4,2.8,1.1c0.4,0.4,0.7,0.8,0.9,1.3c0.2,0.5,0.3,1,0.3,1.6
	s-0.1,1.1-0.3,1.6c-0.2,0.5-0.5,0.9-0.9,1.3c-0.4,0.4-0.8,0.6-1.3,0.8C27.1,12.4,26.5,12.5,26,12.5z M26,10.8c0.3,0,0.7-0.1,0.9-0.2
	c0.3-0.1,0.5-0.3,0.8-0.5l0,0c0.2-0.2,0.4-0.4,0.5-0.7c0.1-0.3,0.1-0.5,0.1-0.8c0-0.3,0-0.6-0.1-0.8c-0.1-0.3-0.3-0.5-0.5-0.7l0,0
	c-0.2-0.2-0.5-0.4-0.8-0.5c-0.3-0.1-0.6-0.2-0.9-0.2c-0.3,0-0.7,0.1-0.9,0.2c-0.3,0.1-0.5,0.3-0.8,0.5l0,0c-0.2,0.2-0.4,0.4-0.5,0.7
	c-0.1,0.3-0.1,0.5-0.1,0.8c0,0.3,0,0.6,0.1,0.8c0.1,0.3,0.3,0.5,0.5,0.7l0,0c0.2,0.2,0.5,0.4,0.8,0.5C25.4,10.7,25.7,10.8,26,10.8z
	 M30.9,4.9h6.2h0.4v0.4v1v0.4h-0.4h-2.2V12v0.4h-0.4h-1.1h-0.4V12V6.6h-2.2h-0.4V6.2v-1V4.9H30.9z M46.2,4.9h6.2h0.4v0.4v1v0.4h-0.4
	h-2.2V12v0.4h-0.4h-1.1h-0.4V12V6.6h-2.2h-0.4V6.2v-1V4.9H46.2z M54,12V5.2V4.9h0.4h1.1h0.4v0.4v2.3h3.5V5.2V4.9h0.4h1.1h0.4v0.4V12
	v0.4h-0.4h-1.1h-0.4V12V9.3h-3.5V12v0.4h-0.4h-1.1H54V12z M63.3,12V5.2V4.9h0.4h1.1h0.4v0.4v5.4h4.1h0.4V11v1v0.4h-0.4h-5.5h-0.4V12
	z M70.6,4.9h1.1H72v0.4V12v0.4h-0.4h-1.1h-0.4V12V5.2V4.9H70.6z M77.6,11.6l-1.8-3V12v0.4h-0.4h-1.1H74V12V5.2V4.9h0.4h1.1h0.2
	l0.1,0.2l2.2,3.6l2.2-3.6l0.1-0.2h0.2h1.1h0.4v0.4V12v0.4h-0.4h-1.1h-0.4V12V8.6l-1.8,3l-0.3,0.5L77.6,11.6z M85.2,10.8
	c-0.2,0.4-0.4,0.8-0.6,1.3l-0.1,0.2h-0.2h-1.2h-0.6l0.3-0.5L86,5.1l0.1-0.2h0.2h1.2h0.2l0.1,0.2l3.3,6.7l0.3,0.5h-0.6h-1.2h-0.2
	l-0.1-0.2c-0.2-0.5-0.4-0.9-0.6-1.3L85.2,10.8L85.2,10.8z M40.8,9.1h1.8c-0.3-0.6-0.6-1.2-0.9-1.8C41.3,8,41.1,8.6,40.8,9.1z
	 M43.4,10.8h-3.4c-0.2,0.4-0.4,0.8-0.7,1.3l-0.1,0.2h-0.2h-1.1h-0.6l0.3-0.5l3.3-6.7l0.1-0.2h0.2h1.2h0.2l0.1,0.2l3.3,6.7l0.3,0.5
	h-0.6h-1.2h-0.2L44,12.2C43.8,11.7,43.6,11.2,43.4,10.8z M87,7.3c-0.3,0.7-0.6,1.3-0.9,1.8h1.8C87.5,8.5,87.2,8,87,7.3z"/>
<path class="st1" d="M105.1,9.8l-0.7-1.1V10v0.1h-0.1h-0.4h-0.1V10V7.4V7.2h0.1h0.4h0.1l0,0.1l0.8,1.4l0.8-1.4l0-0.1h0.1h0.4h0.1
	v0.1V10v0.1h-0.1h-0.4H106V10V8.7l-0.7,1.1l-0.1,0.2L105.1,9.8z M101.8,9.5c0.1,0,0.3,0,0.4-0.1s0.2-0.1,0.3-0.2l0,0
	c0.1-0.1,0.1-0.2,0.2-0.3c0-0.1,0.1-0.2,0.1-0.3c0-0.1,0-0.2-0.1-0.3c0-0.1-0.1-0.2-0.2-0.3l0,0c-0.1-0.1-0.2-0.1-0.3-0.2
	s-0.2-0.1-0.4-0.1c-0.1,0-0.3,0-0.4,0.1c-0.1,0-0.2,0.1-0.3,0.2l0,0c-0.1,0.1-0.1,0.2-0.2,0.3c0,0.1-0.1,0.2-0.1,0.3
	c0,0.1,0,0.2,0.1,0.3s0.1,0.2,0.2,0.3l0,0c0.1,0.1,0.2,0.1,0.3,0.2C101.5,9.5,101.6,9.5,101.8,9.5z M101.8,10.2
	c-0.4,0-0.8-0.1-1.1-0.4c-0.1-0.1-0.3-0.3-0.4-0.5c-0.1-0.2-0.1-0.4-0.1-0.6c0-0.2,0-0.4,0.1-0.6c0.1-0.2,0.2-0.3,0.4-0.5
	c0.1-0.1,0.3-0.2,0.5-0.3c0.2-0.1,0.4-0.1,0.6-0.1c0.4,0,0.8,0.1,1.1,0.4c0.1,0.1,0.3,0.3,0.4,0.5c0.1,0.2,0.1,0.4,0.1,0.6
	c0,0.2,0,0.4-0.1,0.6s-0.2,0.3-0.4,0.5c-0.1,0.1-0.3,0.2-0.5,0.3C102.2,10.2,102,10.2,101.8,10.2z M96.9,10.2c-0.1,0-0.2,0-0.2-0.1
	c0,0-0.1-0.1-0.1-0.1c0,0,0-0.1,0-0.1c0,0,0-0.1,0-0.1c0,0,0-0.1,0.1-0.1c0,0,0.1,0,0.1-0.1s0.1,0,0.1,0c0.1,0,0.2,0,0.2,0.1
	c0,0,0.1,0.1,0.1,0.1c0,0,0,0.1,0,0.1c0,0,0,0.1,0,0.1c0,0,0,0.1-0.1,0.1c0,0-0.1,0-0.1,0.1C96.9,10.2,96.9,10.2,96.9,10.2z
	 M98.8,10.2c-0.4,0-0.8-0.1-1.1-0.4c-0.1-0.1-0.3-0.3-0.4-0.5c-0.1-0.2-0.1-0.4-0.1-0.6c0-0.2,0-0.4,0.1-0.6
	c0.1-0.2,0.2-0.3,0.4-0.5c0.1-0.1,0.3-0.2,0.5-0.3c0.2-0.1,0.4-0.1,0.6-0.1c0.4,0,0.8,0.1,1.1,0.4c0,0,0,0,0.1,0.1l-0.5,0.4
	c-0.1-0.1-0.2-0.1-0.3-0.1c-0.1,0-0.2-0.1-0.4-0.1c-0.1,0-0.3,0-0.4,0.1S98.2,8,98.1,8.1l0,0C98,8.2,98,8.3,97.9,8.4
	c0,0.1-0.1,0.2-0.1,0.3s0,0.2,0.1,0.3c0,0.1,0.1,0.2,0.2,0.3l0,0c0.1,0.1,0.2,0.1,0.3,0.2s0.2,0.1,0.4,0.1c0.1,0,0.3,0,0.4-0.1
	c0.1,0,0.2-0.1,0.3-0.1l0.5,0.4c0,0,0,0-0.1,0.1c-0.1,0.1-0.3,0.2-0.5,0.3C99.2,10.2,99,10.2,98.8,10.2z"/>
<path class="st0" d="M109.9,5.4H91.3l3.4,6.6h15.2L109.9,5.4L109.9,5.4z M90.9,4.9h19.2h0.2v0.2v7.1v0.2h-0.2H94.6h-0.1l-0.1-0.1
	l0-0.1l-3.6-7l-0.2-0.3L90.9,4.9L90.9,4.9z"/>
<path class="st2" d="M25.6,4c2.6,0,4.7,2.1,4.7,4.7c0,2.6-2.1,4.7-4.7,4.7s-4.7-2.1-4.7-4.7S23,4,25.6,4"/>
<path class="st3" d="M25.6,4c2.6,0,4.7,2.1,4.7,4.7c0,2.6-2.1,4.7-4.7,4.7s-4.7-2.1-4.7-4.7S23,4,25.6,4z"/>
<path class="st4" d="M25.6,3.7c-2.7,0-4.9,2.2-4.9,4.9s2.2,4.9,4.9,4.9c2.7,0,4.9-2.2,4.9-4.9C30.5,5.9,28.3,3.7,25.6,3.7 M25.6,4.5
	c0.3-0.1,0.6-0.2,0.8-0.3c0.6,0.1,1.1,0.3,1.6,0.7c0,0-0.1,0,0,0c0,0,0,0,0,0c0,0,0.1,0.1,0.2,0.2c0,0,0,0,0,0c0,0,0,0,0,0l0,0
	c0.1,0.5,0.3,1,0.3,1.5l-1.7,0.7c-0.6-0.3-1.2-0.6-1.7-0.9l-0.2-1.6C25.1,4.6,25.4,4.5,25.6,4.5z M21.7,6.4c0.2-0.3,0.4-0.7,0.7-1
	l0,0l0,0c0.3-0.3,0.6-0.5,1-0.7c0.3,0,0.5,0,0.7,0c0.2,0,0.4,0,0.6,0.1l0.2,1.5c0,0-0.1,0-0.1,0.1l-1.4,1.4c0,0,0,0.1-0.1,0.1
	l-1.5-0.2c0,0-0.1-0.1-0.1-0.2C21.7,7.2,21.7,6.8,21.7,6.4z M22.3,11.3c0,0-0.1,0-0.2-0.1l0,0c0,0,0,0,0,0c0,0,0,0,0,0
	c-0.4-0.5-0.7-1.2-0.8-1.8c0.1-0.3,0.2-0.5,0.3-0.8c0.1-0.2,0.1-0.5,0.3-0.7l1.6,0.2c0.3,0.6,0.6,1.2,0.9,1.7l-0.7,1.7
	C23.2,11.5,22.8,11.4,22.3,11.3C22.4,11.4,22.7,11.4,22.3,11.3z M27.6,12.7l-0.3,0.2l0,0l0,0l0,0c-0.8,0.3-1.6,0.4-2.4,0.2
	c0.1,0,0.1-0.1,0.2-0.2l2.1-0.3C27.3,12.6,27.5,12.6,27.6,12.7C27.6,12.6,27.6,12.6,27.6,12.7z M27.2,12.4L25,12.7
	c-0.4-0.4-0.9-0.7-1.2-1.1l0.7-1.6c0.1,0,0.3,0,0.5-0.1c0.2,0,0.4-0.1,0.5-0.1c0.4-0.1,0.7-0.1,1.1-0.2l1.4,1.3
	C27.7,11.5,27.5,11.9,27.2,12.4z M28,10.9l-1.4-1.3c0.1-0.3,0.1-0.7,0.2-1c0-0.2,0.1-0.4,0.1-0.5c0-0.1,0-0.2,0-0.3
	c0-0.1,0-0.2,0-0.3l1.6-0.7C29,7.1,29.4,7.6,29.7,8l-0.3,2.2C28.9,10.4,28.5,10.7,28,10.9z M29.7,10.6L29.7,10.6
	c0-0.1,0-0.3-0.1-0.4L29.9,8C30,8,30,7.9,30.1,7.8c0,0.3,0.1,0.5,0.1,0.8c0,0.6-0.1,1.1-0.3,1.6C29.8,10.3,29.7,10.5,29.7,10.6z"/>
</svg>
