<?xml version="1.0" encoding="utf-8"?>
<!-- Generator: Adobe Illustrator 28.1.0, SVG Export Plug-In . SVG Version: 6.00 Build 0)  -->
<svg version="1.1" id="Layer_1" xmlns="http://www.w3.org/2000/svg" xmlns:xlink="http://www.w3.org/1999/xlink" x="0px" y="0px"
	 viewBox="0 0 595.3 841.9" style="enable-background:new 0 0 595.3 841.9;" xml:space="preserve">
<style type="text/css">
	.st0{fill:#24A8DE;}
	.st1{fill:#FFFFFF;}
	.st2{fill-rule:evenodd;clip-rule:evenodd;fill:#FFFFFF;}
	.st3{fill:none;stroke:#FFFFFF;stroke-width:0.5669;stroke-miterlimit:22.926;}
	.st4{fill-rule:evenodd;clip-rule:evenodd;}
</style>
<rect x="523.2" y="153.3" class="st0" width="48.3" height="80.7"/>
<polygon class="st1" points="523.2,230.9 25.7,230.9 23.6,230.9 23.6,228.8 23.6,158.5 23.6,156.4 25.7,156.4 523.2,156.4 
	523.2,160.6 27.8,160.6 27.8,226.7 523.2,226.7 "/>
<rect x="25.7" y="158.5" width="539.3" height="70.3"/>
<path class="st1" d="M46.3,175.9h20c1.6,0,3,0.2,4.4,0.6c1.4,0.4,2.6,1.1,3.7,1.9c1.3,1,2.2,2.2,2.8,3.5c0.6,1.4,0.9,2.9,0.9,4.5
	c0,1.8-0.3,3.4-0.9,4.9c-0.6,1.5-1.6,2.7-2.8,3.7c-1.1,0.9-2.3,1.5-3.7,2c-1.4,0.4-2.8,0.6-4.5,0.6H53.1v11.9v1.8h-1.8h-5h-1.8v-1.8
	v-31.9v-1.8H46.3z M66.3,184.1H53.1v5.5h13.2c1.2,0,2.1-0.2,2.6-0.7c0.5-0.4,0.7-1.2,0.7-2.3c0-0.4-0.1-0.8-0.2-1
	c-0.1-0.3-0.3-0.5-0.5-0.7l0,0c-0.3-0.2-0.6-0.4-1-0.5C67.5,184.1,66.9,184.1,66.3,184.1z M85.6,175.9h20.4c1.7,0,3.2,0.2,4.7,0.6
	c1.4,0.4,2.7,1,3.9,1.9l0,0c1.4,1,2.4,2.2,3.1,3.6c0.7,1.4,1,3,1,4.8c0,1.8-0.3,3.4-0.9,4.8c-0.6,1.5-1.5,2.7-2.6,3.7
	c-0.9,0.8-1.8,1.4-2.8,1.8c-0.2,0.1-0.5,0.2-0.7,0.3l6,11.4l1.4,2.6h-3h-5.7h-1.1l-0.5-1l-6.4-12.3h-10v11.5v1.8h-1.8h-5h-1.8v-1.8
	v-31.9v-1.8H85.6z M105.9,184.1H92.3v5.8h13.6c1.5,0,2.6-0.3,3.2-0.8c0.5-0.5,0.8-1.2,0.8-2.3c0-0.9-0.3-1.6-0.8-2
	C108.6,184.3,107.5,184.1,105.9,184.1z M145.9,212.1c-5.2,0-9.6-1.7-13.2-5c-1.9-1.7-3.4-3.8-4.3-6c-1-2.3-1.5-4.7-1.5-7.4
	c0-2.7,0.5-5.2,1.5-7.4c1-2.3,2.4-4.2,4.3-6c1.8-1.7,3.8-2.9,6.1-3.8c2.2-0.8,4.6-1.2,7.2-1.2c5.2,0,9.6,1.7,13.2,5
	c1.9,1.8,3.4,3.8,4.3,6c1,2.3,1.5,4.7,1.5,7.4c0,2.7-0.5,5.2-1.5,7.4c-1,2.3-2.4,4.3-4.3,6c-1.8,1.7-3.8,2.9-6.1,3.8
	C150.8,211.6,148.4,212.1,145.9,212.1z M145.9,203.9c1.6,0,3.1-0.3,4.4-0.8c1.3-0.5,2.5-1.3,3.6-2.3h0c1-1,1.8-2.1,2.3-3.3
	c0.5-1.2,0.7-2.5,0.7-3.9c0-1.4-0.2-2.7-0.7-3.9c-0.5-1.2-1.3-2.3-2.3-3.3l0,0c-1.1-1-2.2-1.8-3.6-2.3c-1.3-0.5-2.8-0.8-4.4-0.8
	c-1.6,0-3.1,0.3-4.4,0.8c-1.3,0.5-2.5,1.3-3.6,2.3l0,0c-1,1-1.8,2.1-2.3,3.3c-0.5,1.2-0.7,2.5-0.7,3.9c0,1.4,0.2,2.7,0.7,3.9
	c0.5,1.2,1.3,2.3,2.3,3.3h0c1.1,1,2.2,1.8,3.6,2.3C142.8,203.6,144.3,203.9,145.9,203.9z M169.2,175.9h29.2h1.8v1.8v4.6v1.8h-1.8
	h-10.3v25.5v1.8h-1.8h-5h-1.8v-1.8v-25.5h-10.3h-1.8v-1.8v-4.6v-1.8H169.2z M241.4,175.9h29.2h1.8v1.8v4.6v1.8h-1.8h-10.3v25.5v1.8
	h-1.8h-5h-1.8v-1.8v-25.5h-10.3h-1.8v-1.8v-4.6v-1.8H241.4z M278.1,209.6v-31.9v-1.8h1.8h5h1.8v1.8v11.1h16.7v-11.1v-1.8h1.8h5h1.8
	v1.8v31.9v1.8h-1.8h-5h-1.8v-1.8V197h-16.7v12.6v1.8h-1.8h-5h-1.8V209.6z M322,209.6v-31.9v-1.8h1.8h5h1.8v1.8v25.5h19.2h1.8v1.8
	v4.6v1.8h-1.8h-26H322V209.6z M356.7,175.9h5h1.8v1.8v31.9v1.8h-1.8h-5h-1.8v-1.8v-31.9v-1.8H356.7z M389.9,207.8l-8.5-14.1v15.9
	v1.8h-1.8h-5h-1.8v-1.8v-31.9v-1.8h1.8h5h1l0.5,0.9l10.3,17.2l10.3-17.2l0.5-0.9h1h5h1.8v1.8v31.9v1.8h-1.8h-5h-1.8v-1.8v-15.9
	l-8.5,14.1l-1.5,2.5L389.9,207.8z M425.8,204.1c-0.9,1.8-1.9,3.9-3,6.3l-0.5,1h-1.1h-5.5h-2.9l1.3-2.6l15.6-31.9l0.5-1h1.1h5.5h1.1
	l0.5,1l15.4,31.9l1.2,2.6h-2.8h-5.6h-1.1l-0.5-1c-1.1-2.2-2-4.3-2.9-6.2H425.8z M215.7,195.9h8.3c-1.3-2.8-2.7-5.5-4.2-8.5
	C218.3,190.8,217,193.4,215.7,195.9z M228,204.1h-16.3c-0.9,1.8-1.9,3.9-3.1,6.3l-0.5,1h-1.1h-5.4h-2.9l1.3-2.6l15.6-31.9l0.5-1h1.1
	h5.5h1.1l0.5,1l15.4,31.9l1.2,2.6h-2.8h-5.6h-1.1l-0.5-1C229.9,208.1,228.9,206,228,204.1z M434,187.4c-1.6,3.4-2.9,6-4.2,8.5h8.3
	C436.8,193.2,435.4,190.5,434,187.4z"/>
<path class="st1" d="M519.6,199.4l-3.3-5.4v6.1v0.7h-0.7h-1.9H513v-0.7v-12.3v-0.7h0.7h1.9h0.4l0.2,0.3l4,6.6l4-6.6l0.2-0.3h0.4h1.9
	h0.7v0.7v12.3v0.7h-0.7h-1.9H524v-0.7V194l-3.3,5.4l-0.6,1L519.6,199.4z M504,197.9c0.6,0,1.2-0.1,1.7-0.3c0.5-0.2,1-0.5,1.4-0.9
	l0,0c0.4-0.4,0.7-0.8,0.9-1.3c0.2-0.5,0.3-1,0.3-1.5c0-0.5-0.1-1-0.3-1.5c-0.2-0.5-0.5-0.9-0.9-1.3h0c-0.4-0.4-0.9-0.7-1.4-0.9
	c-0.5-0.2-1.1-0.3-1.7-0.3c-0.6,0-1.2,0.1-1.7,0.3c-0.5,0.2-1,0.5-1.4,0.9h0c-0.4,0.4-0.7,0.8-0.9,1.3c-0.2,0.5-0.3,1-0.3,1.5
	c0,0.5,0.1,1,0.3,1.5c0.2,0.5,0.5,0.9,0.9,1.3l0,0c0.4,0.4,0.9,0.7,1.4,0.9C502.9,197.8,503.4,197.9,504,197.9z M504,201.1
	c-2,0-3.7-0.6-5.1-1.9c-0.7-0.7-1.3-1.4-1.7-2.3c-0.4-0.9-0.6-1.8-0.6-2.9c0-1,0.2-2,0.6-2.9c0.4-0.9,0.9-1.6,1.7-2.3
	c0.7-0.6,1.5-1.1,2.3-1.5c0.9-0.3,1.8-0.5,2.8-0.5c2,0,3.7,0.6,5.1,1.9c0.7,0.7,1.3,1.4,1.7,2.3c0.4,0.9,0.6,1.8,0.6,2.9
	c0,1-0.2,2-0.6,2.9c-0.4,0.9-0.9,1.6-1.7,2.3c-0.7,0.6-1.5,1.1-2.3,1.4C506,200.9,505,201.1,504,201.1z M480.8,201.1
	c-0.4,0-0.8-0.1-1-0.4c-0.2-0.1-0.3-0.3-0.3-0.5c-0.1-0.2-0.1-0.4-0.1-0.6c0-0.2,0-0.4,0.1-0.6c0.1-0.2,0.2-0.3,0.3-0.5
	c0.1-0.1,0.3-0.2,0.5-0.3c0.2-0.1,0.4-0.1,0.6-0.1c0.4,0,0.8,0.1,1,0.4c0.2,0.1,0.3,0.3,0.3,0.5c0.1,0.2,0.1,0.4,0.1,0.6
	c0,0.2,0,0.4-0.1,0.6c-0.1,0.2-0.2,0.3-0.3,0.5c-0.1,0.1-0.3,0.2-0.5,0.3C481.2,201,481,201.1,480.8,201.1z M489.8,201.1
	c-2,0-3.7-0.6-5.1-1.9c-0.7-0.7-1.3-1.4-1.7-2.3c-0.4-0.9-0.6-1.8-0.6-2.9c0-1,0.2-2,0.6-2.9c0.4-0.9,0.9-1.6,1.7-2.3
	c0.7-0.6,1.5-1.1,2.3-1.5c0.9-0.3,1.8-0.5,2.8-0.5c2,0,3.7,0.6,5.1,1.9c0.1,0.1,0.2,0.2,0.3,0.3l-2.5,2c-0.4-0.3-0.8-0.6-1.2-0.7
	c-0.5-0.2-1.1-0.3-1.7-0.3c-0.6,0-1.2,0.1-1.7,0.3c-0.5,0.2-1,0.5-1.4,0.9h0c-0.4,0.4-0.7,0.8-0.9,1.3c-0.2,0.5-0.3,1-0.3,1.5
	c0,0.5,0.1,1,0.3,1.5c0.2,0.5,0.5,0.9,0.9,1.3l0,0c0.4,0.4,0.9,0.7,1.4,0.9c0.5,0.2,1.1,0.3,1.7,0.3c0.6,0,1.2-0.1,1.7-0.3
	c0.4-0.2,0.9-0.4,1.2-0.7l2.5,2c-0.1,0.1-0.2,0.2-0.3,0.3c-0.7,0.6-1.5,1.1-2.3,1.4C491.8,200.9,490.8,201.1,489.8,201.1z"/>
<path class="st0" d="M542.5,178.3h-87.9l16.1,31.4h71.9V178.3z M452.8,176.2h90.7h1.1v1v33.5v1.1h-1.1H470h-0.6l-0.3-0.6l-0.2-0.4
	l-16.9-33.1l-0.8-1.5H452.8z"/>
<path class="st2" d="M144,171.7c12.2,0,22.1,9.9,22.1,22.1c0,12.2-9.9,22.1-22.1,22.1c-12.2,0-22.1-9.9-22.1-22.1
	C121.9,181.6,131.8,171.7,144,171.7"/>
<path class="st3" d="M144,171.7c12.2,0,22.1,9.9,22.1,22.1c0,12.2-9.9,22.1-22.1,22.1c-12.2,0-22.1-9.9-22.1-22.1
	C121.9,181.6,131.8,171.7,144,171.7z"/>
<path class="st4" d="M143.7,170.3c-12.9,0-23.4,10.5-23.4,23.4c0,12.9,10.5,23.4,23.4,23.4c12.9,0,23.4-10.5,23.4-23.4
	C167.1,180.8,156.6,170.3,143.7,170.3 M144.1,174c1.3-0.4,2.7-0.9,4-1.3c2.7,0.5,5.3,1.5,7.6,3.1c-0.2-0.1-0.3-0.2-0.2-0.2
	c0,0,0,0,0.1,0.1c0.1,0.1,0.5,0.3,1.1,0.8c-0.1,0.1-0.1,0.1-0.1,0.2c0,0.1,0,0.1,0,0.2l0,0c0.6,2.5,1.2,4.8,1.2,7.2l-8,3.4
	c-2.7-1.5-5.5-2.9-8.2-4.3l-0.9-7.8C141.6,174.6,143,174.4,144.1,174z M125.5,183.1c0.9-1.6,2.1-3.2,3.5-4.5l0,0l0,0
	c1.3-1.4,2.8-2.5,4.5-3.4c1.2-0.1,2.3,0,3.5,0.1c1,0.1,2,0,2.9,0.5l0.8,7.3c-0.2,0.1-0.5,0.2-0.6,0.3l-6.4,6.4
	c-0.1,0.2-0.2,0.4-0.3,0.6l-7.3-0.8c-0.1-0.2-0.3-0.5-0.3-0.9C125.6,186.8,125.5,185,125.5,183.1z M128.3,206.5
	c-0.1,0-0.4-0.1-1.1-0.3l0,0c-0.1,0-0.1,0-0.2,0c-0.1,0-0.1,0-0.2,0.1c-1.9-2.6-3.1-5.5-3.7-8.6c0.4-1.3,0.9-2.6,1.3-4
	c0.4-1.1,0.6-2.5,1.3-3.5l7.8,0.9c1.4,2.8,2.8,5.5,4.3,8.2l-3.4,8c-2,0-3.9-0.4-5.9-0.9C128.9,206.6,130,206.9,128.3,206.5z
	 M153.2,212.8l-1.5,0.8l0,0l0,0l0,0c-3.6,1.4-7.5,1.8-11.3,1.1c0.4-0.2,0.7-0.5,1-0.8l10.1-1.6c0.6,0.2,1.2,0.3,1.9,0.4
	C153.3,212.7,153.2,212.7,153.2,212.8z M151.4,211.5l-10.4,1.6c-2.1-1.7-4.3-3.3-5.8-5.4l3.2-7.7c0.6,0.2,1.6-0.2,2.2-0.3
	c0.8-0.1,1.7-0.3,2.5-0.4c1.7-0.3,3.5-0.5,5.2-0.9l6.4,6.3C154,207.1,152.7,209.2,151.4,211.5z M155.4,204.2l-6.6-6.3
	c0.4-1.6,0.6-3.3,0.8-4.9c0.1-0.8,0.3-1.7,0.4-2.5c0.1-0.4,0.1-0.8,0.2-1.2c0.1-0.4,0.2-0.9,0.1-1.2l7.7-3.2
	c2.2,1.6,3.8,3.7,5.5,5.8l-1.6,10.4C159.6,202.3,157.8,203.5,155.4,204.2z M163.1,203.1L163.1,203.1c-0.1-0.7-0.2-1.4-0.4-2.1
	l1.6-10.1c0.3-0.2,0.5-0.5,0.7-0.9c0.2,1.2,0.3,2.4,0.3,3.6c0,2.7-0.5,5.3-1.4,7.7C163.6,201.8,163.1,202.7,163.1,203.1z"/>
</svg>
