<svg fill="none" height="52" viewBox="0 0 190 52" width="190" xmlns="http://www.w3.org/2000/svg"><g fill="#fff"><path d="m52.9714 17.7273h4.073v22.9091h-4.073v-8.4233c-1.2005 1.5824-2.9054 2.3736-5.1149 2.3736s-3.9474-.823-5.4629-2.4712c-1.4949-1.6694-2.2424-3.7079-2.2424-6.1155 0-2.4075.7475-4.4333 2.2424-6.0815 1.5155-1.6694 3.3358-2.5051 5.4629-2.5051s3.9144.7912 5.1149 2.3736zm-7.5138 11.5903c.8422.8464 1.8944 1.2685 3.1567 1.2685 1.2622 0 2.3041-.4221 3.1257-1.2685.8216-.8676 1.2314-1.9727 1.2314-3.3176 0-1.3448-.4098-2.4393-1.2314-3.2857-.8216-.8676-1.8635-1.3003-3.1257-1.3003-1.2623 0-2.3145.4327-3.1567 1.3003-.8216.8464-1.2314 1.9409-1.2314 3.2857 0 1.3449.4098 2.45 1.2314 3.3176z"/><path d="m71.1886 17.7273h4.073v16.5455h-4.073v-1.9622c-.9884 1.5167-2.5574 2.2761-4.7051 2.2761-1.7256 0-3.1567-.5961-4.2933-1.7882-1.1161-1.1921-1.6741-2.8403-1.6741-4.9445v-10.1267h4.073v9.607c0 1.0839.2841 1.9197.8525 2.5051.5683.5643 1.3261.8464 2.2733.8464 1.0522 0 1.8944-.3352 2.5265-1.0076.6322-.6724.9472-1.68.9472-3.0248z"/><path d="m90.9914 17.7273h4.073v16.5455h-4.073v-2.0597c-1.2211 1.5824-2.9363 2.3736-5.1458 2.3736s-3.9144-.823-5.43-2.4712c-1.4949-1.6694-2.2424-3.7079-2.2424-6.1155 0-2.4075.7475-4.4333 2.2424-6.0815 1.5156-1.6694 3.3256-2.5051 5.43-2.5051 2.2095 0 3.9268.7912 5.1458 2.3736zm-7.5138 11.5903c.8216.8464 1.8635 1.2685 3.1258 1.2685 1.2622 0 2.3041-.4221 3.1257-1.2685.8422-.8676 1.2623-1.9727 1.2623-3.3176 0-1.3448-.4201-2.4394-1.2623-3.2857-.8216-.8676-1.8635-1.3003-3.1257-1.3003-1.2623 0-2.3042.4327-3.1258 1.3003-.8216.8463-1.2314 1.9409-1.2314 3.2857 0 1.3449.4098 2.45 1.2314 3.3176z"/><path d="m110.724 11.3637h4.073v22.9091h-4.073v-2.0597c-1.2 1.5824-2.905 2.3736-5.115 2.3736-2.209 0-3.947-.823-5.463-2.4712-1.4946-1.6694-2.2421-3.7079-2.2421-6.1155 0-2.4075.7475-4.4333 2.2421-6.0815 1.516-1.6694 3.336-2.5051 5.463-2.5051s3.915.7912 5.115 2.3736zm-7.514 17.9539c.843.8464 1.895 1.2685 3.157 1.2685s2.304-.4221 3.126-1.2685c.821-.8676 1.231-1.9727 1.231-3.3176 0-1.3448-.41-2.4394-1.231-3.2857-.822-.8676-1.864-1.3003-3.126-1.3003s-2.317.4327-3.157 1.3003c-.821.8463-1.231 1.9409-1.231 3.2857 0 1.3449.41 2.45 1.231 3.3176z"/><path d="m126.036 34.5867c-2.378 0-4.368-.823-5.967-2.4712-1.58-1.6482-2.368-3.6867-2.368-6.1155 0-2.4287.788-4.4672 2.368-6.1154 1.599-1.6482 3.589-2.4712 5.967-2.4712 1.536 0 2.936.3797 4.198 1.1391 1.263.7594 2.22 1.7775 2.873 3.0566l-3.505 2.1149c-.315-.6724-.799-1.2027-1.451-1.593-.633-.3904-1.347-.5855-2.148-.5855-1.221 0-2.23.4221-3.031 1.2685-.799.823-1.201 1.8857-1.201 3.1882 0 1.3024.4 2.3418 1.201 3.1881.801.8231 1.81 1.2367 3.031 1.2367.822 0 1.546-.1845 2.179-.5536.652-.3903 1.136-.9206 1.451-1.5931l3.536 2.081c-.694 1.279-1.674 2.31-2.937 3.0906-1.262.7594-2.662 1.1391-4.198 1.1391z"/><path d="m148.53 32.1155c-1.621 1.6482-3.599 2.4712-5.937 2.4712-2.337 0-4.316-.823-5.936-2.4712-1.6-1.6694-2.399-3.7079-2.399-6.1155 0-2.4075.799-4.4333 2.399-6.0815 1.62-1.6694 3.599-2.5051 5.936-2.5051 2.338 0 4.314.8357 5.937 2.5051 1.621 1.6482 2.432 3.6761 2.432 6.0815 0 2.4055-.809 4.4461-2.432 6.1155zm-8.998-2.8955c.821.8464 1.842 1.2685 3.061 1.2685s2.243-.4221 3.062-1.2685c.82-.8463 1.232-1.9197 1.232-3.22s-.41-2.3736-1.232-3.22c-.821-.8463-1.84-1.2684-3.062-1.2684-1.221 0-2.242.4221-3.061 1.2684-.799.8464-1.201 1.9197-1.201 3.22s.4 2.3737 1.201 3.22z"/><path d="m165.792 11.3637h4.073v22.9091h-4.073v-2.0597c-1.201 1.5824-2.906 2.3736-5.115 2.3736-2.21 0-3.948-.823-5.463-2.4712-1.495-1.6694-2.242-3.7079-2.242-6.1155 0-2.4075.747-4.4333 2.242-6.0815 1.515-1.6694 3.336-2.5051 5.463-2.5051s3.914.7912 5.115 2.3736zm-7.514 17.9539c.842.8464 1.894 1.2685 3.157 1.2685 1.262 0 2.304-.4221 3.125-1.2685.822-.8676 1.232-1.9727 1.232-3.3176 0-1.3448-.41-2.4394-1.232-3.2857-.821-.8676-1.863-1.3003-3.125-1.3003-1.263 0-2.315.4327-3.157 1.3003-.822.8463-1.231 1.9409-1.231 3.2857 0 1.3449.409 2.45 1.231 3.3176z"/><path d="m177.031 27.7246c.547 2.0385 2.03 3.0567 4.451 3.0567 1.557 0 2.737-.5431 3.536-1.627l3.284 1.9515c-1.559 2.3206-3.852 3.4809-6.883 3.4809-2.611 0-4.706-.8124-6.283-2.4394-1.579-1.627-2.368-3.676-2.368-6.1473 0-2.4712.778-4.4884 2.337-6.1154 1.559-1.6482 3.558-2.4712 5.999-2.4712 2.314 0 4.221.823 5.714 2.4712 1.515 1.6482 2.273 3.6867 2.273 6.1154 0 .5431-.054 1.1158-.159 1.7246h-11.904zm-.064-3.2518h8.051c-.231-1.1052-.717-1.9303-1.452-2.4712-.716-.5431-1.536-.8125-2.462-.8125-1.096 0-2 .2928-2.717.8782-.716.5643-1.19 1.3661-1.42 2.4076z"/></g><g clip-rule="evenodd" fill-rule="evenodd"><path d="m32.1226 23.6434c-.07-1.2515-.6507-2.4797-1.6494-3.377l-10.1742-9.1636c-2.4318-2.1976-6.0559-2.1976-8.5063 0l-10.18863 9.1615c-1.138704 1.0373-1.60407 2.4691-1.60407 3.9157v4.1767c.0679517 1.2664.601269 2.4797 1.60407 3.3961l9.86743 8.8624.3233.2821c2.4318 2.1976 6.0559 2.1976 8.5063 0l.3233-.2821 9.8653-8.8624c.9863-.8973 1.5485-2.1467 1.6329-3.3961v-4.7154z" fill="#e62334"/><path d="m19.2283 12.3691 10.1886 9.1616c1.4126 1.2663 1.4126 3.5339 0 4.8003l-5.9715 5.3624-14.54373-13.0646c-.15238-.14-.37477-.14-.52714 0l-4.64337 4.1682c-.66304.5982-.66304 1.6715 0 2.2676l10.18864 9.1615c1.2252 1.0903 3.029 1.0903 4.2521 0l1.5814-1.4233 1.2417 1.1072-1.7688 1.5825c-1.8203 1.6354-4.5425 1.6354-6.3792 0l-10.18659-9.1615c-1.39404-1.2664-1.39404-3.534 0-4.8003l10.18859-9.1616c1.8203-1.6354 4.5425-1.6354 6.3793 0zm-10.59844 10.4449 8.64224 7.7721-.9699.8782c-.1503.1379-.3644.14-.5189.0085l-.0082-.0085-8.02861-7.227c-.18327-.1548-.18738-.4476-.00824-.6236l.00824-.0085.88543-.7912zm5.28994-9.1976-3.692 3.3409c-.1874.1591-.1874.4582 0 .6321l12.9622 11.6413c.1524.14.3748.14.5272 0l4.6433-4.1682c.6631-.5982.6631-1.6715 0-2.2676l-4.6433-4.1682c-.1524-.14-.3748-.14-.5272 0l-1.8532 1.6715c-.1874.1591-.1874.4582 0 .6321l2.994 2.6897c.1874.1591.1874.4561 0 .6322l-.8854.7912-8.6237-7.7721.9699-.8803c.1523-.14.3747-.14.5271 0l3.1649 2.8487c.1524.14.3748.14.5271 0l1.8533-1.6715c.1873-.1591.1873-.4582 0-.6321l-3.6921-3.3239c-1.2252-1.0903-3.029-1.0903-4.2521 0z" fill="#fff"/></g></svg>