<svg width="47" height="22" viewBox="0 0 47 22" fill="none" xmlns="http://www.w3.org/2000/svg">
    <g clip-path="url(#clip0_7_56)">
        <path d="M36.4481 19.7375H36.0122V21.9064H37.413V21.4851H36.4481V19.7375Z" fill="#DC143C"/>
        <path d="M34.8291 20.0184C34.6264 19.8155 34.3621 19.7063 34.0507 19.7063C33.7395 19.7063 33.4749 19.8155 33.2571 20.034C33.0547 20.2524 32.9458 20.5177 32.9458 20.8297C32.9458 21.1574 33.0547 21.4226 33.2571 21.6255C33.4749 21.8283 33.7395 21.9375 34.0507 21.9375C34.3621 21.9375 34.6264 21.8283 34.8444 21.6255C35.0467 21.407 35.1557 21.1418 35.1557 20.8297C35.14 20.502 35.0314 20.2368 34.8291 20.0184ZM34.5021 21.3134C34.3775 21.4382 34.2218 21.5006 34.0352 21.5006C33.8484 21.5006 33.6928 21.4382 33.5683 21.3134C33.4438 21.173 33.3815 21.0169 33.3815 20.8141C33.3815 20.6113 33.4438 20.4397 33.5683 20.3148C33.6928 20.19 33.8484 20.1276 34.0352 20.1276C34.2218 20.1276 34.3775 20.19 34.5021 20.3304C34.6264 20.4708 34.6888 20.6269 34.6888 20.8297C34.6888 21.0169 34.6264 21.1886 34.5021 21.3134Z" fill="#DC143C"/>
        <path d="M31.6078 20.5957H30.7207V19.7375H30.2849V21.9064H30.7207V21.017H31.6078V21.9064H32.0435V19.7375H31.6078V20.5957Z" fill="#DC143C"/>
        <path d="M43.716 21.1106L42.6422 19.7375H42.2996V21.9064H42.7198V20.5333L43.8094 21.9064H44.136V19.7375H43.716V21.1106Z" fill="#DC143C"/>
        <path d="M39.9654 20.3929C39.9188 20.2681 39.8411 20.1588 39.7475 20.0496C39.6542 19.9404 39.5298 19.8624 39.3585 19.8156C39.2029 19.7532 39.0316 19.7375 38.8293 19.7375C38.8139 19.7375 38.7206 19.7375 38.565 19.7375C38.487 19.7375 38.4093 19.7375 38.3313 19.7375H38.207V21.9064H38.3313C38.4247 21.9064 38.5027 21.9064 38.5803 21.9064C38.6583 21.9064 38.736 21.9064 38.8139 21.9064C39.2029 21.9064 39.4985 21.7971 39.7165 21.5943C39.9345 21.3915 40.0434 21.1106 40.0434 20.7986C40.0434 20.6581 40.0121 20.5177 39.9654 20.3929ZM39.3895 21.2978C39.2495 21.4227 39.0629 21.4851 38.8139 21.4851H38.7826C38.7673 21.4851 38.7206 21.4851 38.674 21.4851C38.6583 21.4851 38.6426 21.4851 38.627 21.4851V20.1588C38.6426 20.1588 38.6583 20.1588 38.674 20.1588C38.736 20.1588 38.7826 20.1588 38.8293 20.1588C39.0786 20.1588 39.2652 20.2212 39.4052 20.3461C39.5298 20.4709 39.5922 20.6113 39.5922 20.8141C39.5922 21.0014 39.5298 21.173 39.3895 21.2978Z" fill="#DC143C"/>
        <path d="M45.9412 20.7049V21.1262H46.4701V21.3914C46.4235 21.4226 46.3768 21.4538 46.3145 21.4694C46.2212 21.5006 46.1435 21.5162 46.0655 21.5162C45.8632 21.5162 45.7076 21.4538 45.5986 21.329C45.4743 21.2042 45.4276 21.0326 45.4276 20.8297C45.4276 20.6113 45.4896 20.4552 45.5986 20.3304C45.7233 20.2056 45.8789 20.1432 46.0655 20.1432C46.2522 20.1432 46.3925 20.19 46.4858 20.268L46.5791 20.346L46.7814 19.9716L46.7191 19.9248C46.5481 19.7843 46.3145 19.7063 46.0345 19.7063C45.7233 19.7063 45.4586 19.8155 45.2563 20.034C45.0697 20.2524 44.9607 20.5177 44.9607 20.8297C44.9607 21.1574 45.054 21.4382 45.2563 21.6411C45.4586 21.8439 45.7233 21.9531 46.0499 21.9531C46.1902 21.9531 46.3302 21.9219 46.4858 21.8751C46.6415 21.8283 46.7658 21.7503 46.8594 21.6567L46.8904 21.6255V20.7361H45.9412V20.7049Z" fill="#DC143C"/>
        <path d="M41.3041 19.7375H40.8682V21.9064H41.3041V19.7375Z" fill="#DC143C"/>
        <path d="M17.0107 9.5957H15.5167C14.5051 9.5957 13.6958 10.4227 13.6958 11.4213V15.712C13.6958 16.7262 14.5207 17.5376 15.5167 17.5376H15.8902C16.4816 17.5376 16.8395 17.3971 17.0263 17.2099C17.0418 17.3971 17.1819 17.5376 17.3842 17.5376H18.3958L18.3802 9.5957H17.0107ZM17.0107 15.3376C17.0107 15.8524 16.6216 16.2425 16.1081 16.2425H15.5167C15.2054 16.2425 15.0498 16.0709 15.0498 15.712V11.4213C15.0498 11.0624 15.2054 10.8907 15.5167 10.8907H17.0107V15.3376Z" fill="white"/>
        <path d="M39.6702 12.5135H41.04V11.2809C41.04 10.2667 40.2151 9.45532 39.2189 9.45532H38.114C37.1025 9.45532 36.293 10.2823 36.293 11.2809V15.7277C36.293 16.7419 37.1179 17.5532 38.114 17.5532H39.2189C40.2304 17.5532 41.04 16.7263 41.04 15.7277V14.495H39.6702V15.7277C39.6702 16.0865 39.5145 16.2582 39.2036 16.2582H38.0984C37.7871 16.2582 37.6314 16.0865 37.6314 15.7277V11.2809C37.6314 10.922 37.7871 10.7504 38.0984 10.7504H39.2036C39.5145 10.7504 39.6702 10.922 39.6702 11.2809V12.5135Z" fill="white"/>
        <path d="M45.0855 9.58012H43.5914V6.84961H42.2219V17.5532H43.5914V10.8752H45.0855C45.3968 10.8752 45.5525 11.0468 45.5525 11.4057V17.5376H46.9219V11.4057C46.9063 10.3915 46.097 9.58012 45.0855 9.58012Z" fill="white"/>
        <path d="M24.3251 6.84961H22.9555V9.58012H21.4615C20.4499 9.58012 19.6406 10.4071 19.6406 11.4057V15.6964C19.6406 16.7106 20.4654 17.522 21.4615 17.522H21.835C22.4264 17.522 22.7843 17.4283 22.9711 17.2411C22.9867 17.4283 23.1111 17.5376 23.3135 17.5376H24.3251V6.84961ZM22.9711 10.8752V15.3376C22.9711 15.8525 22.582 16.2425 22.0684 16.2425H21.477C21.1658 16.2425 21.0102 16.0709 21.0102 15.712V11.4212C21.0102 11.0624 21.1658 10.8908 21.477 10.8908H22.9711V10.8752Z" fill="white"/>
        <path d="M34.6274 14.0738C34.8144 14.0738 34.9697 13.9177 34.9697 13.7305V11.2809C34.9697 10.2667 34.1452 9.45532 33.149 9.45532H32.1219C31.1103 9.45532 30.301 10.2823 30.301 11.2809V15.7277C30.301 16.7419 31.1258 17.5532 32.1219 17.5532H33.149C34.1605 17.5532 34.9697 16.7263 34.9697 15.7277V14.9007H33.6159V15.7277C33.6159 16.0865 33.4603 16.2582 33.149 16.2582H32.1219C31.8106 16.2582 31.655 16.0865 31.655 15.7277V14.0738H34.6274ZM31.655 11.2809C31.655 10.922 31.8106 10.7504 32.1219 10.7504H33.149C33.4603 10.7504 33.6159 10.922 33.6159 11.2809V12.7787H31.655V11.2809Z" fill="white"/>
        <path d="M10.9409 11.9518H9.4624V9.09648C9.4624 7.03694 11.1276 5.35181 13.1975 5.35181H16.2323V6.83409H13.3065C11.9992 6.83409 10.9253 7.89508 10.9253 9.22133V11.9518H10.9409Z" fill="#DC143C"/>
        <path d="M9.47788 0.109131H10.9564V3.10487C10.9564 5.16444 9.29114 6.84957 7.22126 6.84957H0.0778809V5.36729H7.09675C8.40403 5.36729 9.47788 4.3063 9.47788 2.98006V0.109131Z" fill="#DC143C"/>
        <path d="M29.5847 16.2581H27.4993C27.2347 16.2581 27.0947 16.1333 27.048 15.8837C27.048 15.8837 27.048 13.2936 27.048 10.8752H28.2619C28.9778 10.8752 29.5692 10.3759 29.5692 9.64254V9.58012H27.0324C27.0324 8.05105 27.0324 6.84961 27.0324 6.84961H25.6785V15.712C25.6785 15.7276 25.6785 15.7432 25.6785 15.7589V15.8837C25.6785 15.8993 25.6785 15.9149 25.6785 15.9305C25.7563 16.929 26.4566 17.5532 27.4993 17.5532H29.5847C29.5847 17.5376 29.5847 16.2581 29.5847 16.2581Z" fill="white"/>
    </g>
    <defs>
        <clipPath id="clip0_7_56">
            <rect width="47" height="22" fill="white"/>
        </clipPath>
    </defs>
</svg>
