<svg width="27" height="27" viewBox="0 0 27 27" fill="none" xmlns="http://www.w3.org/2000/svg">
<g clip-path="url(#clip0_1_99)">
<g clip-path="url(#clip1_1_99)">
<path d="M14.0182 26.7889V18.1114H11.4137C11.1878 18.1114 11.0084 17.9187 11.0084 17.6729V14.158C11.0084 13.9189 11.1878 13.7195 11.4137 13.7195H14.0182V11.2944C14.0182 8.0918 15.8986 6.02543 18.8088 6.02543H21.4001C21.626 6.02543 21.8054 6.22476 21.8054 6.46395V9.73295C21.8054 9.97214 21.626 10.1715 21.4001 10.1715H19.6526C18.45 10.1715 18.2307 10.6764 18.2307 11.6664V13.7262H21.2738C21.3801 13.7262 21.4864 13.7727 21.5595 13.8524C21.6326 13.9321 21.6791 14.0451 21.6791 14.158V17.6729C21.6791 17.9121 21.4931 18.1114 21.2738 18.1114H18.2307V26.7889H24.1309C25.5992 26.7889 26.7886 25.5995 26.7886 24.1311V2.86939C26.7886 1.401 25.5992 0.21167 24.1309 0.21167H2.86911C1.40072 0.21167 0.211395 1.401 0.211395 2.86939V24.1311C0.211395 25.5995 1.40072 26.7889 2.86911 26.7889" fill="white"/>
</g>
</g>
<defs>
<clipPath id="clip0_1_99">
<rect width="27" height="27" fill="white" transform="translate(0 0.000244141)"/>
</clipPath>
<clipPath id="clip1_1_99">
<rect width="26.5772" height="26.5772" fill="white" transform="translate(0.211395 0.21167)"/>
</clipPath>
</defs>
</svg>
