<svg width="27" height="27" viewBox="0 0 27 27" fill="none" xmlns="http://www.w3.org/2000/svg">
    <path fill-rule="evenodd" clip-rule="evenodd" d="M7.28157 0.00244141H19.7184C23.7096 0.00244141 27 3.29281 27 7.28401V19.6615C27 23.6527 23.7096 26.9431 19.7184 26.9431H7.28157C3.29037 26.9431 0 23.6527 0 19.6615V7.28401C0 3.29281 3.29037 0.00244141 7.28157 0.00244141ZM20.9419 4.48067C21.7972 4.48067 22.5337 5.20526 22.5337 6.07239C22.5337 6.92765 21.8091 7.66412 20.9419 7.66412C20.0154 7.66412 19.3502 6.93953 19.3502 6.07239C19.3502 5.21714 20.0154 4.48067 20.9419 4.48067ZM13.4822 6.61881H13.5416C17.2715 6.61881 20.3955 9.74288 20.3955 13.4727C20.3955 17.262 17.2715 20.3267 13.5416 20.3267H13.4822C9.75232 20.3267 6.68764 17.262 6.68764 13.4727C6.68764 9.74288 9.75232 6.61881 13.4822 6.61881ZM13.4703 8.05612H13.5416C16.4994 8.05612 18.9582 10.515 18.9582 13.4727C18.9582 16.5018 16.4994 18.9606 13.5416 18.9606H13.4703C10.5125 18.9606 8.05367 16.5018 8.05367 13.4727C8.05367 10.515 10.5125 8.05612 13.4703 8.05612Z" fill="white"/>
</svg>
